<svg width="1080" height="1080" viewBox="0 0 1080 1080" fill="none" xmlns="http://www.w3.org/2000/svg">
<path d="M389.513 396.144C393.314 421.884 389.394 448.174 378.248 471.686C367.103 495.197 349.232 514.874 326.899 528.225C304.566 541.577 278.774 548.002 252.788 546.689C226.801 545.377 201.788 536.384 180.914 520.85C160.041 505.315 144.245 483.938 135.525 459.423C126.806 434.907 125.556 408.356 131.932 383.13C138.309 357.904 152.025 335.136 171.347 317.709C190.668 300.281 214.725 288.978 240.473 285.228C274.945 280.173 310.013 289.019 337.964 309.82C365.914 330.62 384.457 361.672 389.513 396.144Z" fill="#F5F5F5"/>
<path d="M358.56 400.658C361.452 420.273 358.461 440.305 349.964 458.218C341.467 476.132 327.846 491.122 310.827 501.292C293.807 511.462 274.153 516.354 254.352 515.349C234.551 514.344 215.493 507.488 199.59 495.648C183.687 483.808 171.654 467.516 165.014 448.834C158.374 430.152 157.425 409.921 162.288 390.7C167.15 371.479 177.606 354.132 192.331 340.856C207.056 327.579 225.389 318.969 245.009 316.116C258.016 314.21 271.271 314.885 284.017 318.102C296.764 321.32 308.751 327.016 319.296 334.867C329.84 342.718 338.735 352.569 345.472 363.857C352.209 375.146 356.656 387.651 358.56 400.658Z" fill="#EBEBEB"/>
<path d="M358.063 397.548C357.48 397.548 356.422 393.358 353.743 386.014C349.969 375.672 344.622 365.974 337.889 357.264C333.241 351.337 327.961 345.934 322.142 341.15C315.452 335.722 308.091 331.177 300.24 327.629C296.011 325.691 291.643 324.074 287.172 322.79C282.529 321.415 277.783 320.411 272.981 319.788C268.022 319.1 263.017 318.804 258.012 318.902C252.849 319.027 247.702 319.525 242.611 320.393C237.536 321.334 232.534 322.633 227.642 324.281C222.896 325.921 218.282 327.921 213.84 330.264C209.551 332.523 205.442 335.108 201.55 337.997C197.798 340.734 194.26 343.752 190.966 347.026C184.818 353.036 179.474 359.817 175.068 367.2C171.245 373.689 168.145 380.577 165.823 387.742C162.502 398.22 160.819 409.149 160.834 420.142C160.834 427.982 161.33 432.367 160.834 432.475C160.337 432.583 158.89 428.328 157.961 420.293C156.751 408.851 157.689 397.284 160.726 386.186C162.81 378.472 165.805 371.032 169.646 364.025C174.097 355.953 179.619 348.52 186.062 341.928C189.53 338.337 193.279 335.029 197.273 332.035C201.405 328.854 205.79 326.015 210.384 323.546C215.153 321.001 220.115 318.834 225.223 317.066C230.484 315.219 235.878 313.775 241.358 312.746C246.848 311.807 252.4 311.28 257.969 311.17C263.374 311.095 268.776 311.449 274.126 312.228C279.292 312.977 284.391 314.132 289.375 315.684C294.155 317.119 298.814 318.932 303.307 321.106C311.63 325.083 319.376 330.169 326.333 336.226C332.351 341.482 337.724 347.435 342.338 353.959C349.009 363.339 353.873 373.88 356.681 385.042C358.56 392.99 358.56 397.44 358.063 397.548Z" fill="#E0E0E0"/>
<path d="M279.18 472.586L281.945 489.866L266.566 492.329L263.866 475.567C248.486 477.079 233.107 474.638 223.582 469.39L228.96 449.28C238.787 454.02 249.674 456.133 260.561 455.414L256.435 429.71C238.702 428.306 218.7 425.65 215.179 403.639C212.566 387.331 222.178 371.434 246.046 364.759L243.302 347.674L258.703 345.211L261.382 361.973C272.485 360.816 283.704 362.296 294.127 366.293L289.462 386.467C281.56 383.387 273.121 381.918 264.643 382.147L268.834 408.305C286.546 409.579 306.245 412.258 309.722 433.966C312.358 450.079 302.875 465.804 279.18 472.586ZM252.914 407.03L249.415 385.171C241.553 388.325 239.026 393.314 239.846 398.39C240.667 403.466 245.786 406.08 252.914 407.03ZM285.314 439.884C284.45 434.484 279.526 432.281 272.527 431.028L275.94 452.282C283.37 449.28 286.114 444.809 285.314 439.884Z" fill="#E0E0E0"/>
<path d="M867.002 277.927C876.843 294.074 881.671 312.778 880.877 331.671C880.082 350.563 873.7 368.795 862.539 384.059C851.378 399.323 835.939 410.933 818.176 417.418C800.414 423.903 781.126 424.973 762.756 420.491C744.385 416.01 727.757 406.179 714.976 392.243C702.196 378.307 693.837 360.892 690.958 342.203C688.079 323.514 690.81 304.391 698.805 287.255C706.799 270.119 719.698 255.739 735.869 245.938C746.579 239.426 758.467 235.087 770.854 233.171C783.242 231.254 795.885 231.797 808.062 234.767C820.24 237.738 831.713 243.079 841.826 250.484C851.939 257.889 860.494 267.215 867.002 277.927Z" fill="#F5F5F5"/>
<path d="M847.562 289.699C855.066 302.005 858.75 316.261 858.148 330.662C857.546 345.063 852.684 358.961 844.179 370.598C835.674 382.235 823.907 391.086 810.369 396.032C796.83 400.978 782.129 401.795 768.126 398.382C754.122 394.968 741.447 387.476 731.703 376.854C721.96 366.233 715.587 352.959 713.391 338.714C711.196 324.468 713.276 309.892 719.369 296.83C725.462 283.767 735.294 272.806 747.619 265.334C764.106 255.32 783.893 252.261 802.634 256.83C821.375 261.399 837.535 273.221 847.562 289.699Z" fill="#EBEBEB"/>
<path d="M846.374 287.755C846.007 288.014 844.085 285.444 840.175 281.275C834.729 275.421 828.403 270.451 821.426 266.544C816.635 263.885 811.564 261.762 806.306 260.215C800.29 258.48 794.076 257.522 787.817 257.364C784.44 257.277 781.062 257.436 777.708 257.839C774.212 258.239 770.753 258.911 767.362 259.848C763.843 260.79 760.405 262.011 757.08 263.498C750.218 266.571 743.878 270.696 738.288 275.724C735.58 278.159 733.067 280.803 730.771 283.63C726.395 288.972 722.836 294.934 720.209 301.32C717.796 307.1 716.148 313.171 715.306 319.378C714.588 324.798 714.465 330.281 714.938 335.729C715.683 343.689 717.658 351.486 720.792 358.841C722.952 364.09 724.594 366.898 724.226 367.135C723.859 367.373 721.742 364.975 718.848 359.813C714.8 352.496 712.148 344.491 711.029 336.204C710.238 330.477 710.129 324.677 710.705 318.924C711.783 308.628 714.99 298.668 720.122 289.678C722.034 286.381 724.2 283.239 726.602 280.282C729.045 277.184 731.74 274.295 734.659 271.642C740.639 266.161 747.485 261.709 754.92 258.466C758.517 256.876 762.237 255.583 766.044 254.599C769.706 253.626 773.441 252.947 777.211 252.569C780.798 252.183 784.409 252.082 788.011 252.266C800.546 252.75 812.743 256.471 823.414 263.066C830.534 267.446 836.775 273.116 841.817 279.785C845.338 284.602 846.72 287.582 846.374 287.755Z" fill="#E0E0E0"/>
<path d="M814.86 360.331L821.578 371.131L811.987 377.136L805.507 366.682C795.636 372.038 784.663 374.782 776.779 373.961L774.727 358.841C782.652 359.238 790.543 357.563 797.623 353.981L787.579 337.954C775.31 342.036 761.184 345.946 752.587 332.208C746.215 322.034 748.138 308.664 762.221 297.454L755.546 286.783L765.158 280.778L771.638 291.254C778.774 287.338 786.743 285.183 794.88 284.969L797.472 299.786C791.313 299.991 785.257 301.415 779.652 303.977L789.869 320.306C802.094 316.116 816.026 312.358 824.429 325.879C830.671 335.858 828.792 349.078 814.86 360.331ZM778.68 324L770.148 310.37C765.828 314.69 765.504 318.751 767.491 321.926C769.478 325.102 773.626 325.21 778.68 324ZM809.676 336.787C807.516 333.439 803.65 333.353 798.617 334.498L806.911 347.738C811.058 343.591 811.598 339.79 809.676 336.701V336.787Z" fill="#E0E0E0"/>
<path d="M738.331 189.454C730.108 194.668 720.523 197.325 710.789 197.088C701.055 196.852 691.61 193.733 683.649 188.126C675.688 182.52 669.57 174.677 666.069 165.591C662.568 156.506 661.841 146.585 663.98 137.086C666.12 127.588 671.029 118.937 678.088 112.23C685.146 105.522 694.036 101.06 703.631 99.4072C713.227 97.7546 723.097 98.986 731.993 102.946C740.888 106.905 748.409 113.415 753.603 121.651C757.052 127.106 759.394 133.186 760.494 139.546C761.593 145.905 761.429 152.419 760.011 158.716C758.593 165.012 755.949 170.967 752.229 176.241C748.509 181.515 743.786 186.005 738.331 189.454Z" fill="#F5F5F5"/>
<path d="M732.089 179.561C725.822 183.531 718.517 185.553 711.101 185.371C703.684 185.189 696.488 182.811 690.423 178.538C684.358 174.265 679.697 168.288 677.03 161.365C674.363 154.442 673.81 146.883 675.44 139.646C677.07 132.408 680.811 125.816 686.188 120.705C691.566 115.594 698.339 112.193 705.65 110.933C712.961 109.672 720.482 110.609 727.261 113.624C734.04 116.64 739.772 121.598 743.731 127.872C746.362 132.03 748.148 136.666 748.987 141.514C749.825 146.362 749.701 151.328 748.619 156.129C747.538 160.929 745.522 165.469 742.686 169.489C739.849 173.51 736.248 176.932 732.089 179.561Z" fill="#EBEBEB"/>
<path d="M733.061 178.934C732.953 178.74 734.249 177.725 736.366 175.673C739.326 172.814 741.826 169.513 743.774 165.888C745.097 163.397 746.14 160.767 746.885 158.047C747.729 154.942 748.164 151.74 748.181 148.522C748.211 146.781 748.103 145.04 747.857 143.316C747.617 141.519 747.242 139.743 746.734 138.002C746.206 136.205 745.542 134.45 744.746 132.754C743.914 131.005 742.961 129.316 741.895 127.699C740.804 126.089 739.598 124.558 738.288 123.12C737.009 121.752 735.63 120.481 734.162 119.318C732.738 118.195 731.229 117.184 729.648 116.294C728.144 115.454 726.577 114.732 724.961 114.134C721.952 112.966 718.811 112.176 715.608 111.78C712.809 111.467 709.983 111.467 707.184 111.78C703.088 112.229 699.087 113.315 695.326 114.998C693.956 115.764 692.507 116.379 691.006 116.834C692.037 115.638 693.311 114.674 694.742 114.005C698.466 111.832 702.56 110.368 706.817 109.685C709.775 109.23 712.777 109.128 715.759 109.382C719.189 109.647 722.568 110.374 725.803 111.542C727.561 112.186 729.265 112.966 730.901 113.875C732.611 114.808 734.243 115.878 735.782 117.072C737.388 118.309 738.897 119.667 740.297 121.133C741.703 122.669 743.002 124.3 744.185 126.014C745.385 127.773 746.446 129.621 747.36 131.544C748.233 133.383 748.955 135.29 749.52 137.246C750.057 139.12 750.44 141.034 750.665 142.97C750.889 144.826 750.976 146.696 750.924 148.565C750.755 155.029 748.933 161.343 745.632 166.903C743.44 170.605 740.575 173.865 737.186 176.515C736.002 177.61 734.595 178.435 733.061 178.934Z" fill="#E0E0E0"/>
<path d="M695.52 163.361L690.034 166.925L686.88 162L692.194 158.544C689.504 154.114 688.119 149.016 688.198 143.834L695.909 142.625C695.784 146.709 696.713 150.756 698.609 154.375L706.666 149.04C704.506 142.754 702.346 135.518 709.301 130.961C714.485 127.591 721.375 128.455 727.294 135.605L732.715 132.084L735.89 136.966L730.577 140.4C732.65 144.025 733.842 148.087 734.054 152.258L726.451 153.727C726.265 150.602 725.473 147.543 724.118 144.72L715.802 150.142C718.07 156.384 720.122 163.534 713.254 168.005C708.156 171.266 701.352 170.424 695.52 163.361ZM713.923 144.396L720.878 139.882C718.61 137.722 716.558 137.57 714.895 138.629C713.232 139.687 713.124 141.804 713.837 144.396H713.923ZM707.616 160.488C709.344 159.365 709.344 157.356 708.718 154.764L701.957 159.084C704.009 161.244 705.974 161.503 707.53 160.488H707.616Z" fill="#E0E0E0"/>
<path d="M1019.95 972.95C1019.95 973.274 805.054 973.512 540.022 973.512C274.99 973.512 60.048 973.274 60.048 972.95C60.048 972.626 274.903 972.389 540.022 972.389C805.14 972.389 1019.95 972.648 1019.95 972.95Z" fill="#263238"/>
<path d="M188.482 906.638C190.922 897.199 184.723 887.695 177.682 880.848C170.64 874.001 162.432 867.888 158.825 858.794C152.971 844.106 160.834 825.098 150.854 812.851C144.979 805.637 134.438 803.218 129.254 795.571C126.511 791.532 125.626 786.564 124.546 781.812C119.03 757.399 107.048 734.92 89.856 716.731C88.7088 738.457 93.4238 760.092 103.507 779.371C107.546 787.061 112.514 794.491 113.854 803.131C116.014 817.085 108.238 831.47 111.694 845.165C115.603 860.846 133.294 871.344 134.05 887.479C134.762 901.13 122.861 913.097 123.746 926.726C124.471 932.521 126.55 938.064 129.816 942.905C140.4 960.53 155.844 972.605 179.28 972.216L208.051 973.21L188.482 906.638Z" fill="#30A8FF"/>
<g opacity="0.3">
<path d="M188.482 906.638C190.922 897.199 184.723 887.695 177.682 880.848C170.64 874.001 162.432 867.888 158.825 858.794C152.971 844.106 160.834 825.098 150.854 812.851C144.979 805.637 134.438 803.218 129.254 795.571C126.511 791.532 125.626 786.564 124.546 781.812C119.03 757.399 107.048 734.92 89.856 716.731C88.7088 738.457 93.4238 760.092 103.507 779.371C107.546 787.061 112.514 794.491 113.854 803.131C116.014 817.085 108.238 831.47 111.694 845.165C115.603 860.846 133.294 871.344 134.05 887.479C134.762 901.13 122.861 913.097 123.746 926.726C124.471 932.521 126.55 938.064 129.816 942.905C140.4 960.53 155.844 972.605 179.28 972.216L208.051 973.21L188.482 906.638Z" fill="black"/>
</g>
<path d="M213.84 973.015C216.471 973.426 219.154 973.375 221.767 972.864C224.946 972.379 228.07 971.591 231.098 970.51C235.275 969.055 239.18 966.917 242.654 964.181C244.739 962.498 246.372 960.323 247.406 957.852C248.282 955.055 248.733 952.143 248.746 949.212C248.81 946.099 249.041 942.991 249.437 939.902C249.989 936.622 251.178 933.482 252.936 930.658C256.327 924.696 261.965 919.058 263.736 910.958C265.507 902.858 264.298 894.391 262.958 885.751C261.619 877.111 260.323 867.715 263.628 858.73C266.933 849.744 273.024 841.601 276.178 831.47C279.331 821.34 277.862 810.194 278.51 799.33C278.723 793.816 280 788.396 282.269 783.367C284.602 778.27 287.82 773.474 290.347 768.096C295.445 757.296 296.352 744.984 297.756 732.953C298.433 726.876 299.153 720.749 299.916 714.571C300.351 708.344 301.422 702.177 303.113 696.168C305.055 690.104 307.356 684.161 310.003 678.37C311.363 675.362 312.475 672.248 313.33 669.06C313.818 665.782 314.128 662.479 314.258 659.167C314.578 652.519 314.325 645.857 313.502 639.252C312.725 632.621 311.515 626.033 310.802 619.38L310.673 618.235L310.522 616.918L309.355 617.501C303.257 620.608 297.957 625.08 293.868 630.569C289.879 635.935 286.671 641.84 284.342 648.108C279.547 660.463 277.862 673.423 275.4 685.778C272.938 698.134 270 710.338 263.52 720.619C260.388 725.738 256.565 730.404 253.217 735.415C249.658 740.286 247.224 745.885 246.089 751.81C244.382 763.97 251.078 774.662 249.696 785.441C249.034 790.734 247.244 795.824 244.447 800.366C241.834 804.967 238.766 809.222 235.807 813.521C232.833 817.698 230.244 822.137 228.074 826.783C226.049 831.344 224.857 836.231 224.554 841.212C223.841 850.91 225.223 860.112 224.554 868.795C223.759 877.066 221.352 885.102 217.469 892.447C213.97 899.51 210.103 905.926 206.863 912.125C205.243 915.235 203.731 918.259 202.543 921.283C201.393 924.228 200.546 927.282 200.016 930.398C199.168 935.833 199.102 941.361 199.822 946.814C200.588 954.399 203.445 961.622 208.073 967.68C208.773 968.584 209.546 969.429 210.384 970.207C210.963 970.802 211.599 971.338 212.285 971.806C213.343 972.605 213.926 972.95 213.926 972.95C211.863 971.335 209.993 969.487 208.354 967.442C203.913 961.352 201.21 954.17 200.534 946.663C199.899 941.273 200.023 935.82 200.902 930.463C201.456 927.427 202.309 924.453 203.45 921.586C204.682 918.626 206.194 915.602 207.77 912.535C211.054 906.401 214.963 900.029 218.57 892.901C222.586 885.445 225.082 877.266 225.914 868.838C226.67 859.961 225.353 850.738 226.087 841.255C226.396 836.442 227.566 831.723 229.543 827.323C231.687 822.777 234.247 818.438 237.19 814.363C240.084 810.043 243.194 805.831 245.83 801.122C248.754 796.399 250.632 791.103 251.338 785.592C252.72 774.101 246.067 763.344 247.795 752.047C248.898 746.373 251.252 741.016 254.686 736.366C257.969 731.441 261.814 726.775 265.054 721.526C271.534 710.942 274.752 698.566 277.15 686.146C279.547 673.726 281.318 660.895 286.049 648.778C288.311 642.678 291.432 636.933 295.315 631.714C299.227 626.447 304.306 622.159 310.154 619.186L308.815 618.451L308.945 619.618C309.679 626.335 310.867 632.945 311.645 639.49C312.456 645.994 312.709 652.555 312.401 659.102C312.285 662.32 311.989 665.529 311.515 668.714C310.694 671.787 309.617 674.785 308.297 677.678C305.637 683.536 303.322 689.544 301.363 695.671C299.634 701.776 298.548 708.046 298.123 714.377C297.432 720.583 296.755 726.718 296.093 732.78C294.71 744.854 293.803 756.95 288.9 767.34C286.459 772.546 283.241 777.362 280.843 782.633C278.501 787.848 277.188 793.466 276.977 799.178C276.35 810.281 277.798 821.146 274.817 830.974C271.836 840.802 265.572 848.923 262.397 858.211C259.222 867.499 260.41 877.306 261.77 885.902C263.131 894.499 264.557 902.988 262.699 910.656C260.842 918.324 255.571 923.962 252.115 930.096C250.307 933.035 249.096 936.301 248.551 939.708C248.166 942.833 247.964 945.977 247.946 949.126C247.943 951.957 247.528 954.773 246.715 957.485C245.753 959.843 244.216 961.922 242.244 963.533C238.863 966.252 235.062 968.404 230.99 969.905C228.001 971.022 224.913 971.853 221.767 972.389C219.835 972.74 217.877 972.935 215.914 972.972C214.618 972.994 213.84 973.015 213.84 973.015Z" fill="#263238"/>
<path d="M304.819 634.111C304.694 634.395 304.6 634.692 304.538 634.997C304.366 635.688 304.171 636.53 303.912 637.589C303.35 639.857 302.659 643.27 301.579 647.546C300.499 651.823 297.842 656.618 295.618 662.558C292.991 669.242 290.706 676.055 288.77 682.97C286.61 690.638 284.623 699.17 282.593 708.286C280.562 717.401 278.402 727.164 273.391 736.366C271.037 741.031 268.38 745.762 266.263 750.946C264.192 756.249 262.806 761.794 262.138 767.448C260.686 779.15 258.609 790.766 255.917 802.246C250.15 825.833 244.663 848.275 239.652 868.73L226.022 922.946C222.242 938.282 219.154 950.746 216.994 959.515C216 963.835 215.201 967.075 214.618 969.494C214.402 970.553 214.207 971.417 214.056 972.108C213.97 972.395 213.926 972.694 213.926 972.994C214.064 972.725 214.172 972.443 214.25 972.151L214.985 969.581C215.654 967.183 216.54 963.878 217.685 959.71C219.996 950.94 223.279 938.542 227.297 923.249L241.315 869.141C246.37 848.686 251.899 826.243 257.731 802.656C260.415 791.124 262.484 779.458 263.93 767.707C264.565 762.224 265.878 756.84 267.84 751.68C269.87 746.647 272.484 741.938 274.838 737.208C279.914 727.834 282.01 717.768 284.04 708.696C286.07 699.624 287.863 691.049 289.958 683.381C292.054 675.713 294.278 668.909 296.438 663.012C298.598 657.115 301.082 652.212 302.141 647.784C303.199 643.356 303.696 640.03 304.15 637.718C304.322 636.66 304.474 635.796 304.603 635.105C304.714 634.783 304.787 634.45 304.819 634.111Z" fill="#263238"/>
<path d="M219.002 973.21C237.794 962.042 243.194 928.994 235.354 908.582C227.513 888.17 213.754 869.53 211.594 847.778C209.952 831.06 215.438 813.888 211.594 797.537C206.366 775.44 184.831 758.398 185.09 735.718C185.22 722.995 192.456 711.029 191.894 698.306C191.182 682.733 179.215 670.356 171.806 656.618C160.445 635.602 159.71 610.74 155.822 587.174C151.934 563.609 142.862 538.358 122.083 526.694C118.994 546.696 113.724 560.412 115.387 587.52C115.97 597.262 127.289 615.881 128.822 637.2C129.751 649.966 130.378 662.731 131.155 675.497C131.911 687.917 132.71 700.553 137.182 712.217C140.594 721.138 146.059 729.216 148.608 738.418C153.36 755.698 147.096 774.446 150.941 791.964C154.202 806.803 164.484 819.59 166.579 834.646C169.538 855.792 155.779 877.846 162.842 897.934C166.32 907.956 174.571 915.991 176.904 926.316C178.718 934.351 176.731 942.84 178.373 950.897C181.03 963.857 205.783 973.966 219.002 973.145" fill="#30A8FF"/>
<path d="M127.246 546.631C127.212 547.012 127.212 547.395 127.246 547.776C127.246 548.618 127.505 549.698 127.678 551.059C128.11 553.954 128.585 558.187 129.557 563.674C130.529 569.16 133.466 575.402 135.734 582.898C138.002 590.393 140.508 598.99 142.625 608.623C144.742 618.257 146.556 628.949 148.435 640.418C150.314 651.888 152.388 664.416 158.069 676.382C160.704 682.387 163.663 688.392 165.888 694.807C168.057 701.381 169.385 708.204 169.841 715.111C170.896 729.787 172.742 744.396 175.37 758.873C181.116 788.53 186.602 816.761 191.592 842.486C196.582 868.212 201.593 891.151 205.567 910.57C209.542 929.988 212.868 945.497 215.158 956.448C216.302 961.762 217.21 965.93 217.858 968.911C218.16 970.25 218.419 971.309 218.614 972.13C218.676 972.499 218.777 972.861 218.916 973.21C218.93 972.831 218.886 972.452 218.786 972.086C218.635 971.266 218.462 970.186 218.225 968.825C217.663 965.844 216.864 961.654 215.87 956.297C213.71 945.324 210.643 929.642 206.863 910.31C203.083 890.978 198.374 867.78 193.255 842.141L177.185 758.57C174.594 744.141 172.777 729.583 171.742 714.96C171.254 707.91 169.875 700.949 167.638 694.246C165.348 687.766 162.367 681.674 159.71 675.713C154.051 663.941 152.064 651.629 150.034 640.181C148.003 628.733 146.21 618.019 143.986 608.364C141.761 598.709 139.298 590.069 136.793 582.595C134.287 575.122 131.479 568.922 130.313 563.544C129.146 558.166 128.628 553.867 128.153 551.016C127.894 549.677 127.699 548.597 127.548 547.754C127.498 547.368 127.397 546.99 127.246 546.631Z" fill="#263238"/>
<path d="M946.08 844.56C948.999 845.952 951.608 847.918 953.749 850.342C955.891 852.766 957.521 855.596 958.543 858.665C960.542 864.828 961.111 871.365 960.206 877.781C958.802 890.201 951.739 902.707 944.158 912.622C933.703 903.506 931.198 887.609 930.593 879.466C929.47 866.506 935.237 842.638 946.08 844.56Z" fill="#30A8FF"/>
<path d="M956.275 933.12C955.577 929.583 955.823 925.924 956.987 922.512C958.151 919.099 960.192 916.053 962.906 913.68C965.671 911.353 968.871 909.599 972.319 908.52C975.768 907.441 979.397 907.058 982.994 907.394C984.662 907.376 986.314 907.719 987.835 908.402C989.357 909.084 990.712 910.089 991.807 911.347C992.626 912.681 993.073 914.211 993.099 915.776C993.126 917.341 992.732 918.885 991.958 920.246C990.374 922.951 988.1 925.187 985.37 926.726C976.32 932.407 966.514 936.252 956.275 933.206" fill="#30A8FF"/>
<path d="M942.883 971.093C942.933 970.234 943.056 969.382 943.25 968.544C943.574 966.751 944.006 964.44 944.525 961.654C945.68 953.965 948.08 946.517 951.631 939.6C955.307 932.7 960.757 926.906 967.421 922.817C969.455 921.603 971.632 920.645 973.901 919.966C974.51 919.772 975.131 919.613 975.758 919.49C976.19 919.49 976.428 919.361 976.428 919.49C971.259 921.159 966.476 923.843 962.359 927.385C958.242 930.928 954.873 935.257 952.452 940.118C948.975 946.919 946.529 954.198 945.194 961.718C944.546 964.613 944.028 966.946 943.639 968.544C943.477 969.418 943.223 970.272 942.883 971.093Z" fill="#263238"/>
<path d="M943.272 863.114C943.342 863.485 943.385 863.861 943.402 864.238C943.402 865.058 943.51 866.117 943.596 867.434C943.747 870.199 943.898 874.217 944.071 879.206C944.374 889.142 944.633 902.966 944.568 918.086C944.503 933.206 944.136 947.009 943.726 956.966C943.531 961.934 943.315 965.952 943.142 968.738C943.142 970.034 942.991 971.093 942.926 971.935C942.923 972.306 942.88 972.675 942.797 973.037C942.764 972.663 942.764 972.287 942.797 971.914C942.797 971.093 942.797 970.034 942.797 968.717C942.797 965.822 942.97 961.826 943.078 956.945C943.337 947.009 943.596 933.185 943.661 918.065C943.726 902.945 943.661 889.164 943.423 879.185C943.423 874.303 943.294 870.307 943.229 867.413V864.216C943.212 863.848 943.226 863.48 943.272 863.114Z" fill="#263238"/>
<path d="M938.196 940.594C936.937 933.075 933.903 925.965 929.346 919.853C924.79 913.741 918.842 908.804 911.995 905.45C908.518 903.766 903.938 902.686 901.087 905.278C898.236 907.87 898.927 912.557 900.245 916.078C903.321 923.566 908.543 929.977 915.253 934.504C921.964 939.032 929.863 941.474 937.958 941.522" fill="#30A8FF"/>
<path d="M913.68 917.222C914.431 917.465 915.154 917.783 915.84 918.173C916.7 918.571 917.537 919.018 918.346 919.512C919.445 920.127 920.512 920.797 921.542 921.521C922.806 922.371 924.025 923.286 925.193 924.264C926.548 925.37 927.846 926.545 929.081 927.785C931.884 930.659 934.355 933.84 936.446 937.267C938.481 940.734 940.112 944.423 941.306 948.262C941.809 949.937 942.22 951.639 942.538 953.359C942.826 954.859 943.035 956.373 943.164 957.895C943.291 959.144 943.349 960.399 943.337 961.654C943.396 962.596 943.396 963.541 943.337 964.483C943.33 965.296 943.243 966.106 943.078 966.902C942.862 966.902 943.229 963.446 942.624 957.96C942.457 956.465 942.212 954.98 941.89 953.51C941.554 951.824 941.121 950.158 940.594 948.521C939.386 944.753 937.763 941.13 935.755 937.721C933.703 934.345 931.292 931.202 928.562 928.346C927.363 927.11 926.101 925.934 924.782 924.826C923.662 923.825 922.486 922.888 921.262 922.018C916.747 918.821 913.68 917.395 913.68 917.222Z" fill="#263238"/>
<path d="M793.066 499.414C793.066 499.414 692.215 427.939 679.45 420.919C667.289 414.223 628.69 409.363 625.234 408.521L556.114 393.401L450.533 396.554L420.293 414.763L343.656 450.144C322.769 459.766 306.305 476.947 297.583 498.226L249.199 616.399L369.36 651.91L373.097 776.563L344.779 972.95H696.168L678.478 596.57L715.068 604.627L793.066 499.414Z" fill="#263238"/>
<path d="M371.52 601.711C371.52 601.711 370.246 602.64 367.805 604.066C364.365 606.155 360.549 607.549 356.573 608.17C350.618 608.587 344.644 607.718 339.055 605.621C332.164 603.326 325.486 600.436 319.097 596.981C312.25 593.417 305.834 589.81 299.83 586.915C294.534 584.27 289.029 582.067 283.37 580.327C279.549 579.178 275.63 578.383 271.663 577.951C270.259 577.8 269.179 577.735 268.423 577.714H267.3C268.742 577.661 270.185 577.712 271.62 577.865C275.606 578.19 279.55 578.913 283.392 580.025C289.082 581.709 294.617 583.877 299.938 586.505C305.986 589.399 312.401 592.985 319.248 596.57C325.618 600.002 332.266 602.892 339.12 605.21C344.631 607.291 350.52 608.181 356.4 607.824C360.341 607.246 364.133 605.911 367.567 603.893C368.798 603.202 369.727 602.64 370.375 602.251C371.023 601.862 371.52 601.711 371.52 601.711Z" fill="white"/>
<path d="M366.379 543.478H365.58L363.29 543.37C361.303 543.262 358.43 543.046 354.888 542.7C336.436 540.842 318.293 536.662 300.888 530.258C297.54 529.027 294.862 527.969 293.026 527.191L290.866 526.284L290.131 525.938L290.909 526.198L293.069 527.018C294.926 527.753 297.626 528.768 300.974 529.956C318.425 536.199 336.55 540.368 354.974 542.376C358.495 542.765 361.454 543.046 363.334 543.197L365.623 543.391L366.379 543.478Z" fill="white"/>
<path d="M441.914 420.919C441.914 420.919 441.007 422.388 439.106 424.85C436.396 428.308 433.285 431.433 429.84 434.16C424.68 438.157 419.06 441.522 413.1 444.182C405.807 447.444 398.293 450.187 390.614 452.39C382.471 454.81 374.695 456.948 367.718 459.238C361.515 461.201 355.465 463.62 349.618 466.474C345.677 468.393 341.906 470.64 338.342 473.191C337.046 474.055 336.182 474.854 335.491 475.351C334.8 475.848 334.476 476.086 334.476 476.086C334.476 476.086 335.75 474.919 338.234 473.04C341.777 470.436 345.534 468.138 349.466 466.171C355.318 463.286 361.375 460.839 367.589 458.849C374.566 456.516 382.363 454.378 390.485 451.958C398.145 449.766 405.644 447.045 412.927 443.815C418.863 441.173 424.473 437.854 429.646 433.922C433.129 431.254 436.296 428.195 439.085 424.807C440.1 423.641 440.726 422.647 441.245 421.978C441.763 421.308 441.914 420.919 441.914 420.919Z" fill="white"/>
<path d="M658.022 437.011C658.022 437.011 657.698 436.86 657.094 436.514C656.489 436.169 655.668 435.65 654.502 435.067C651.287 433.352 647.934 431.907 644.479 430.747C639.342 429.023 634.087 427.673 628.754 426.708C622.75 425.563 616.075 424.678 609.077 423.684L573.264 418.608L562.464 417.01L559.505 416.556L558.49 416.362L559.526 416.47L562.486 416.837L573.286 418.284L609.12 423.23C616.118 424.202 622.793 425.11 628.819 426.276C634.158 427.258 639.415 428.644 644.544 430.423C648.011 431.621 651.365 433.124 654.566 434.916C656.856 436.19 658.022 437.011 658.022 437.011Z" fill="white"/>
<path d="M609.12 460.858C609.12 460.858 608.321 461.246 606.787 461.916C605.254 462.586 602.964 463.558 600.005 464.746C594.065 467.1 585.403 470.362 574.43 473.558C561.591 477.365 548.497 480.252 535.248 482.198C520.279 484.488 503.582 484.488 486.194 483.905C468.806 483.322 452.153 482.587 437.076 483.538C423.72 484.185 410.509 486.596 397.786 490.709C389.214 493.529 381.073 497.519 373.594 502.567C371.023 504.425 369.014 505.894 367.762 507.017C366.509 508.14 365.774 508.637 365.774 508.637C365.774 508.637 366.422 508.032 367.697 506.952C368.971 505.872 370.915 504.317 373.507 502.416C380.959 497.296 389.096 493.253 397.678 490.406C410.422 486.245 423.664 483.797 437.054 483.127C452.174 482.155 468.785 482.89 486.194 483.451C503.604 484.013 520.258 484.056 535.205 481.788C548.439 479.836 561.518 476.949 574.344 473.148C585.295 469.994 593.978 466.776 599.94 464.508C602.921 463.342 605.21 462.348 606.744 461.743L609.12 460.858Z" fill="white"/>
<path d="M642.211 481.982C642.093 482.069 641.962 482.134 641.822 482.177L640.678 482.587C639.684 482.954 638.237 483.43 636.358 483.948C631.627 485.298 626.74 486.025 621.821 486.108C616.895 486.113 611.996 485.385 607.284 483.948C605.47 483.408 604.022 482.911 602.964 482.522L601.841 482.069L601.452 481.874H601.884L603.029 482.242C604.022 482.587 605.47 483.041 607.349 483.538C612.053 484.849 616.916 485.503 621.799 485.482C626.692 485.341 631.551 484.616 636.271 483.322C638.064 482.825 639.533 482.414 640.591 482.09L641.736 481.766L642.211 481.982Z" fill="white"/>
<path d="M574.063 543.11C574.063 543.11 563.695 545.27 546.782 547.819C538.315 549.094 528.206 550.346 516.953 551.47C505.699 552.593 493.193 553.435 480.233 553.932C467.273 554.429 454.745 554.386 443.513 554.148C432.281 553.91 421.913 553.306 413.489 552.658C396.425 551.362 385.949 549.936 385.949 549.936L387.85 550.087L393.336 550.627C398.088 551.124 404.978 551.729 413.51 552.334C422.042 552.938 432.216 553.435 443.513 553.716C454.81 553.997 467.273 553.932 480.233 553.478C493.193 553.025 505.656 552.096 516.953 551.059C528.25 550.022 538.315 548.726 546.782 547.495C555.25 546.264 562.075 545.184 566.784 544.342L572.206 543.391L574.063 543.11Z" fill="white"/>
<path d="M658.649 536.976H657.871H655.711C653.746 536.976 650.916 536.976 647.417 536.976C640.418 536.976 630.742 536.695 620.114 535.788C609.487 534.881 599.875 533.434 593.006 532.181C589.55 531.576 586.786 531.014 584.863 530.604L582.703 530.129L581.947 529.934H582.725L584.885 530.323L593.028 531.77C599.918 532.937 609.487 534.319 620.114 535.226C630.742 536.134 640.418 536.436 647.395 536.544H655.69H657.85L658.649 536.976Z" fill="white"/>
<path d="M550.8 626.011C550.8 626.011 550.174 626.141 549.029 626.292L543.931 627.005C541.771 627.329 539.006 627.696 535.831 627.912C532.656 628.128 529.07 628.56 525.031 628.625C520.992 628.69 516.672 628.992 512.071 628.906C509.717 628.906 507.298 628.906 504.792 628.906L497.081 628.646C486.518 628.236 474.941 627.437 462.802 626.486C450.662 625.536 439.042 624.326 428.566 623.7C418.09 623.074 408.542 622.598 400.486 622.728H394.805L389.729 622.987C386.575 623.117 383.832 623.268 381.629 623.549L376.51 624.046L374.717 624.197C374.717 624.197 375.343 624.089 376.51 623.959L381.607 623.354C383.767 623.052 386.554 622.901 389.729 622.728L394.805 622.447H400.486C408.478 622.296 418.003 622.685 428.566 623.333C439.128 623.981 450.662 625.061 462.802 626.076C474.941 627.091 486.562 627.934 497.059 628.387L504.749 628.668C507.254 628.668 509.674 628.668 512.028 628.668C516.715 628.668 521.078 628.56 524.988 628.452C528.898 628.344 532.57 627.977 535.788 627.782C539.006 627.588 541.663 627.264 543.888 626.962L548.986 626.335L550.8 626.011Z" fill="white"/>
<path d="M677.916 600.653L676.966 600.804L674.201 601.085C671.825 601.344 668.347 601.625 664.07 601.927C655.43 602.51 643.615 602.921 630.504 602.597C617.393 602.273 605.534 601.193 597.002 600.156C592.682 599.638 589.291 599.162 586.915 598.795L584.194 598.363L583.243 598.169L584.194 598.277L586.937 598.622C589.313 598.946 592.769 599.378 597.046 599.854C605.578 600.804 617.393 601.798 630.504 602.143C643.615 602.489 655.474 602.143 664.049 601.603C668.369 601.366 671.803 601.106 674.201 600.912L676.944 600.696L677.916 600.653Z" fill="white"/>
<path d="M679.45 679.147L676.296 678.974C674.136 678.974 671.177 678.542 667.246 678.434C659.383 678.024 648 677.938 633.938 678.629C619.877 679.32 603.223 680.983 584.777 683.424C566.33 685.865 546.113 689.04 524.88 691.718C504.826 694.423 484.632 695.959 464.4 696.319C447.903 696.601 431.415 695.408 415.13 692.755C404.156 690.945 393.354 688.214 382.838 684.59C380.959 684.007 379.339 683.381 377.935 682.819L374.35 681.394C372.427 680.638 371.434 680.206 371.434 680.206L374.393 681.307L377.978 682.69C379.382 683.251 381.024 683.856 382.903 684.439C393.428 687.991 404.229 690.665 415.195 692.431C431.463 695.03 447.928 696.194 464.4 695.909C484.634 695.502 504.827 693.93 524.88 691.2C546.156 688.457 566.374 685.303 584.842 682.927C603.31 680.551 619.92 678.953 633.938 678.24C645.034 677.673 656.15 677.673 667.246 678.24C675.108 678.694 679.45 679.147 679.45 679.147Z" fill="white"/>
<path d="M560.671 759.802C560.671 759.802 550.282 761.573 533.347 763.387C524.902 764.294 514.793 765.115 503.561 765.763C492.329 766.411 479.93 766.714 466.949 766.649C453.967 766.584 441.59 765.979 430.358 765.245C419.126 764.51 409.039 763.474 400.594 762.437C383.681 760.277 373.334 758.462 373.334 758.462L375.235 758.7L380.657 759.499C382.99 759.866 385.884 760.277 389.297 760.687C392.71 761.098 396.468 761.681 400.68 762.113C409.147 763.106 419.234 764.057 430.445 764.834C441.655 765.612 454.032 766.066 467.014 766.195C479.995 766.325 492.372 765.914 503.604 765.353C514.836 764.791 524.923 763.949 533.39 763.063C537.71 762.674 541.447 762.178 544.795 761.81C548.143 761.443 551.038 761.054 553.435 760.73L558.857 760.018L560.671 759.802Z" fill="white"/>
<path d="M678.24 744.336C678.24 744.336 677.83 744.487 677.074 744.703L673.769 745.718C670.874 746.582 666.684 747.77 661.478 749.174C651.089 751.961 636.595 755.417 620.438 758.376C604.282 761.335 589.486 763.258 578.772 764.338C573.415 764.878 569.074 765.245 566.071 765.461L562.615 765.698H561.406L562.594 765.547L566.05 765.223C569.052 764.964 573.394 764.532 578.729 763.949C589.529 762.782 604.195 760.838 620.352 757.879C636.509 754.92 650.981 751.507 661.392 748.786C666.598 747.446 670.788 746.302 673.682 745.481L677.03 744.552L678.24 744.336Z" fill="white"/>
<path d="M478.267 849.852C472.701 850.717 467.09 851.272 461.462 851.515C456.257 851.796 450.036 851.818 443.124 851.515C428.145 850.798 413.303 848.312 398.909 844.106C392.278 842.141 386.402 840.089 381.629 838.123C376.391 836.044 371.265 833.693 366.271 831.082L367.351 831.557L370.397 832.961C371.714 833.587 373.334 834.343 375.257 835.121C377.179 835.898 379.296 836.892 381.737 837.799C386.575 839.743 392.537 841.752 399.017 843.696C406.212 845.729 413.509 847.387 420.876 848.664C428.254 849.831 435.687 850.624 443.146 851.04C450.036 851.342 456.235 851.364 461.441 851.04C464.054 851.04 466.409 850.759 468.482 850.63C470.556 850.5 472.306 850.306 473.774 850.154L477.101 849.809L478.267 849.852Z" fill="white"/>
<path d="M686.059 844.344L683.899 844.733L677.722 845.726C672.365 846.569 664.589 847.757 654.977 849.118C635.753 851.861 609.12 855.274 579.636 858.211C550.152 861.149 523.346 863.006 504.036 864.086C494.338 864.626 486.475 865.015 481.054 865.231L474.811 865.469H472.651L474.811 865.339L481.054 865.015L504.014 863.741C523.454 862.574 550.152 860.63 579.614 857.714C609.077 854.798 635.774 851.429 654.955 848.772L677.722 845.51L683.899 844.603L686.059 844.344Z" fill="white"/>
<path d="M697.378 923.897C697.378 923.897 692.669 924.89 684.05 926.294C675.432 927.698 662.947 929.448 647.33 930.744C629.119 932.229 610.837 932.676 592.574 932.083C571.946 931.414 549.374 929.102 525.766 926.208C502.157 923.314 479.65 920.398 459.108 918.799C440.915 917.231 422.64 916.819 404.395 917.568C392.075 918.142 379.808 919.542 367.675 921.758C363.355 922.579 360.072 923.27 357.847 923.81L354.434 924.588C354.434 924.588 355.601 924.264 357.826 923.724C360.05 923.184 363.355 922.45 367.632 921.564C379.757 919.272 392.026 917.828 404.352 917.244C422.601 916.425 440.885 916.793 459.086 918.346C479.671 919.944 502.157 922.86 525.766 925.754C549.374 928.649 571.946 930.96 592.553 931.63C610.799 932.252 629.066 931.841 647.266 930.398C662.796 929.146 675.346 927.439 683.986 926.078C688.306 925.387 691.632 924.847 693.9 924.437L697.378 923.897Z" fill="white"/>
<path d="M760.752 480.082C760.752 480.082 760.126 481.788 758.722 484.769C756.697 488.959 754.342 492.982 751.68 496.8C747.719 502.444 743.39 507.819 738.72 512.892C733.493 518.681 727.488 524.772 721.44 531.382C715.664 537.53 710.391 544.132 705.672 551.124C701.827 556.84 698.714 563.015 696.406 569.506C694.832 573.928 693.809 578.527 693.36 583.2C693.144 584.82 693.209 586.116 693.144 586.98C693.079 587.844 693.144 588.298 693.144 588.298C693.087 586.59 693.13 584.881 693.274 583.178C693.644 578.524 694.61 573.936 696.146 569.527C698.426 562.998 701.525 556.786 705.37 551.038C710.089 544.006 715.369 537.367 721.159 531.187C727.25 524.599 733.277 518.508 738.439 512.741C743.098 507.689 747.427 502.343 751.399 496.735C754.09 492.954 756.481 488.967 758.549 484.812C759.326 483.343 759.78 482.155 760.169 481.378C760.558 480.6 760.752 480.082 760.752 480.082Z" fill="white"/>
<path d="M661.262 517.298L661.997 516.758L664.157 515.29C666.058 514.058 668.714 512.158 671.911 509.695C675.108 507.233 678.802 504.166 682.711 500.537C686.925 496.582 690.926 492.407 694.699 488.03C698.425 483.604 701.922 478.99 705.175 474.206C708.113 469.757 710.597 465.566 712.498 462.089C714.398 458.611 715.867 455.609 716.818 453.449L717.919 451.094L718.33 450.274C716.708 454.361 714.862 458.356 712.8 462.24C710.921 465.826 708.48 469.973 705.521 474.422C702.301 479.246 698.811 483.883 695.066 488.311C691.283 492.707 687.259 496.889 683.014 500.839C679.061 504.446 675.367 507.535 672.214 509.954C668.704 512.606 665.048 515.058 661.262 517.298Z" fill="white"/>
<path d="M506.887 618.3C507.047 618.195 507.222 618.114 507.406 618.062L508.961 617.458C510.365 616.982 512.33 616.118 514.858 614.952C521.883 611.412 528.329 606.824 533.974 601.344C542.295 593.172 549.638 584.061 555.854 574.193C563.656 562.217 570.781 549.814 577.195 537.041C588.701 513.749 598.799 489.787 607.435 465.286C610.826 455.911 613.462 448.265 615.319 443.016L617.479 436.946C617.717 436.298 617.911 435.802 618.062 435.37C618.214 434.938 618.278 434.851 618.278 434.851C618.267 435.042 618.231 435.231 618.17 435.413C618.041 435.845 617.868 436.363 617.674 437.011C617.22 438.502 616.572 440.554 615.73 443.146C614.023 448.459 611.41 456.106 608.17 465.545C599.728 490.169 589.692 514.218 578.124 537.538C571.699 550.347 564.538 562.774 556.675 574.754C550.368 584.647 542.915 593.761 534.47 601.906C528.747 607.384 522.184 611.913 515.03 615.319C513.084 616.22 511.086 617.006 509.047 617.674L507.449 618.17C507.269 618.242 507.08 618.286 506.887 618.3Z" fill="#455A64"/>
<path d="M503.28 664.006C503.636 663.663 504.027 663.359 504.446 663.098L507.946 660.701C510.948 658.541 515.29 655.495 520.517 651.499C530.993 643.529 544.752 631.627 559.526 618.041C566.957 611.258 574.063 604.843 580.198 598.709C585.682 593.316 590.778 587.541 595.447 581.429C598.579 577.293 601.367 572.908 603.785 568.318C604.692 566.719 605.254 565.402 605.686 564.538C605.89 564.088 606.129 563.655 606.398 563.242C606.29 563.728 606.123 564.199 605.902 564.646C605.513 565.531 605.016 566.806 604.152 568.512C601.874 573.211 599.163 577.688 596.052 581.882C591.469 588.108 586.414 593.971 580.932 599.422C574.798 605.642 567.713 612.079 560.282 618.862C547.757 630.607 534.643 641.709 520.992 652.126C515.7 656.078 511.294 659.059 508.183 661.068C506.65 662.083 505.418 662.796 504.598 663.228C504.176 663.516 503.736 663.776 503.28 664.006Z" fill="#455A64"/>
<path d="M444.96 894.931L445.219 894.434C445.457 894.089 445.738 893.635 446.083 893.074C446.839 891.864 448.006 890.136 449.561 887.933C452.693 883.613 457.51 877.414 463.86 870.199C476.669 855.814 494.597 836.222 514.361 814.514L565.142 759.11L580.63 742.392L584.95 737.878L586.073 736.733C586.332 736.474 586.462 736.344 586.483 736.366C586.505 736.387 586.375 736.517 586.159 736.798L585.101 738.029L581.04 742.673C577.368 746.734 572.184 752.522 565.812 759.607L515.246 815.249L464.4 870.696C457.92 877.846 453.082 883.894 449.863 888.192C448.243 890.352 447.034 892.037 446.213 893.182L445.284 894.499C445.199 894.659 445.09 894.805 444.96 894.931Z" fill="#455A64"/>
<path d="M646.618 506.714C646.267 505.642 646 504.545 645.818 503.431C645.581 502.373 645.322 501.055 645.127 499.522C644.933 497.988 644.609 496.238 644.522 494.294C644.436 492.35 644.198 490.212 644.22 487.814C644.242 485.417 644.22 483.062 644.393 480.47C645.143 469.277 647.879 458.306 652.471 448.07C653.573 445.738 654.631 443.513 655.754 441.59C656.878 439.668 657.914 437.746 659.016 436.104C660.118 434.462 661.176 433.015 661.997 431.784C662.753 430.697 663.568 429.651 664.438 428.652C665.094 427.757 665.816 426.912 666.598 426.125C666.039 427.108 665.396 428.04 664.675 428.911C664.027 429.775 663.228 430.834 662.407 432.13C661.586 433.426 660.528 434.83 659.578 436.45C658.627 438.07 657.418 439.927 656.446 441.958C655.474 443.988 654.286 446.278 653.292 448.438C648.831 458.622 646.128 469.49 645.3 480.578C645.17 483.127 644.976 485.546 645.019 487.814C645.062 490.082 645.019 492.134 645.192 494.143C645.365 496.152 645.494 497.815 645.646 499.349C645.797 500.882 645.97 502.2 646.142 503.28C646.412 504.407 646.571 505.557 646.618 506.714Z" fill="#455A64"/>
<path d="M678.046 584.215C677.786 584.215 673.898 575.748 669.406 565.034C664.913 554.321 661.457 545.594 661.716 545.422C664.917 551.666 667.8 558.068 670.356 564.602C673.261 571.001 675.828 577.547 678.046 584.215Z" fill="#455A64"/>
<path d="M369.36 515.722C369.187 515.83 367.502 512.741 364.327 508.054C356.032 495.818 345.313 485.415 332.834 477.49C328.061 474.466 324.929 472.867 325.015 472.694C325.811 472.927 326.579 473.245 327.305 473.645C328.752 474.314 330.782 475.394 333.245 476.842C339.639 480.657 345.568 485.202 350.914 490.385C356.248 495.587 360.966 501.385 364.975 507.665C366.487 510.084 367.632 512.093 368.345 513.518C368.757 514.216 369.098 514.955 369.36 515.722Z" fill="#455A64"/>
<path d="M454.14 464.659C454.015 463.945 454.015 463.214 454.14 462.499C454.507 458.44 456.252 454.629 459.086 451.699L459.216 451.57V451.721C459.37 452.022 459.486 452.341 459.562 452.671C459.562 452.671 459.324 452.39 459.022 451.829H459.216C457.816 453.484 456.672 455.341 455.825 457.337C454.926 459.688 454.359 462.152 454.14 464.659Z" fill="#455A64"/>
<path d="M482.738 479.52C482.465 478.831 482.311 478.101 482.285 477.36C482.097 475.591 482.14 473.804 482.414 472.046C482.69 470.29 483.191 468.577 483.905 466.949C484.163 466.263 484.528 465.621 484.985 465.048C484.011 467.325 483.286 469.7 482.825 472.133C482.533 474.585 482.504 477.062 482.738 479.52Z" fill="#455A64"/>
<path d="M513.907 477.014C513.807 475 513.532 472.998 513.086 471.031C512.483 469.095 511.695 467.222 510.732 465.437C511.165 465.86 511.529 466.348 511.812 466.884C512.559 468.14 513.133 469.492 513.518 470.902C513.891 472.312 514.087 473.763 514.102 475.222C514.141 475.826 514.075 476.432 513.907 477.014Z" fill="#455A64"/>
<path d="M541.166 465.07C540.248 463.15 539.164 461.314 537.926 459.583C536.544 457.967 535.026 456.471 533.39 455.112C533.977 455.351 534.523 455.679 535.01 456.084C536.23 457.014 537.326 458.095 538.272 459.302C539.213 460.517 539.997 461.845 540.605 463.255C540.888 463.826 541.078 464.439 541.166 465.07Z" fill="#455A64"/>
<path d="M559.937 446.558C559.244 444.287 557.953 442.243 556.2 440.64C554.38 439.124 552.173 438.144 549.828 437.81C549.828 437.81 550.044 437.81 550.411 437.81C550.927 437.828 551.441 437.893 551.945 438.005C553.629 438.406 555.192 439.206 556.502 440.338C557.816 441.463 558.832 442.895 559.462 444.506C559.665 444.984 559.81 445.485 559.894 445.997C559.932 446.181 559.947 446.37 559.937 446.558Z" fill="#455A64"/>
<path d="M569.981 412.366C568.319 411.037 566.376 410.106 564.3 409.644C562.193 409.321 560.04 409.499 558.014 410.162C559.966 409.143 562.201 408.801 564.368 409.192C566.534 409.584 568.509 410.685 569.981 412.322V412.366Z" fill="#455A64"/>
<path d="M435.391 441.612C435.433 440.971 435.586 440.342 435.845 439.754C436.995 436.86 439.171 434.492 441.958 433.102C442.522 432.795 443.136 432.59 443.772 432.497C441.815 433.344 440.057 434.594 438.613 436.164C437.17 437.734 436.072 439.59 435.391 441.612Z" fill="#455A64"/>
<path d="M428.566 418.846C428.826 418.213 429.191 417.629 429.646 417.118C430.657 415.8 431.875 414.655 433.253 413.726C434.631 412.78 436.146 412.051 437.746 411.566C438.391 411.34 439.07 411.224 439.754 411.221C435.264 412.374 431.311 415.045 428.566 418.781V418.846Z" fill="#455A64"/>
<path d="M374.868 551.599C374.868 551.599 374.868 551.47 374.738 551.599C374.648 551.821 374.582 552.053 374.544 552.29C374.436 552.96 374.328 553.932 374.198 555.206C373.939 557.734 373.658 561.406 373.356 566.006C372.73 575.1 372.017 587.606 371.347 601.582C370.678 615.557 370.159 628.063 369.857 637.178C369.706 641.498 369.598 645.257 369.511 647.978C369.511 649.145 369.511 650.138 369.382 650.916C369.414 651.254 369.414 651.594 369.382 651.931C369.286 651.602 369.249 651.258 369.274 650.916C369.274 650.117 369.274 649.145 369.274 647.978C369.274 645.43 369.274 641.736 369.274 637.178C369.274 628.063 369.749 615.449 370.44 601.538C371.131 587.628 371.952 575.057 372.773 565.963C373.183 561.406 373.594 557.734 373.982 555.163C374.177 553.91 374.371 553.003 374.544 552.269C374.604 552.009 374.706 551.761 374.846 551.534C374.846 551.34 374.911 551.642 374.868 551.599Z" fill="#263238"/>
<path d="M612.857 115.301C594.842 109.793 576.137 125.928 557.561 122.299C546.329 120.139 537.862 111.132 527.861 105.559C512.935 97.2216 491.81 95.8608 476.561 103.615C461.311 111.37 451.44 119.621 449.388 136.62C435.499 128.65 412.344 146.124 404.46 162.994C396.576 179.863 398.542 197.273 403.013 215.352C410.781 246.534 424.592 275.888 443.664 301.752C445.349 304.042 447.984 306.569 450.598 305.359C451.403 304.795 452.065 304.05 452.531 303.183C452.996 302.317 453.251 301.353 453.276 300.37C455.933 283.846 453.838 266.976 452.39 250.301C450.943 233.626 450.23 216.432 455.522 200.621C460.814 184.81 473.234 170.251 489.65 167.011C501.79 164.614 514.382 168.545 525.161 174.614C535.939 180.684 545.422 188.762 555.682 195.653C565.942 202.543 577.476 208.354 589.831 208.872C602.186 209.39 615.449 203.602 620.698 192.413C625.946 181.224 620.071 165.326 607.975 162.756C613.608 162.262 618.893 159.822 622.921 155.854C626.949 151.885 629.469 146.637 630.047 141.013C630.625 135.388 629.225 129.737 626.087 125.033C622.95 120.329 618.272 116.864 612.857 115.236V115.301Z" fill="#263238"/>
<path d="M557.28 405.065L555.53 369.36C555.53 369.36 602.662 360.331 601.603 312.919C601.085 290.045 596.16 242.978 591.235 200.448C588.696 178.376 577.933 158.071 561.092 143.58C544.251 129.089 522.568 121.475 500.364 122.256L495.785 122.407C446.602 127.03 423.014 171.396 428.998 220.45L440.338 411.394C441.252 426.835 448.238 441.288 459.773 451.596C471.307 461.904 486.451 467.229 501.898 466.409C517.363 465.582 531.872 458.664 542.251 447.168C552.629 435.672 558.033 420.534 557.28 405.065Z" fill="#FFBE9D"/>
<path d="M555.595 369.36C555.595 369.36 525.722 372.838 493.193 353.959C493.193 353.959 509.004 387.569 556.135 381.629L555.595 369.36Z" fill="#EB996E"/>
<path d="M575.273 232.524C575.345 234.284 574.729 236.003 573.556 237.318C572.383 238.632 570.744 239.438 568.987 239.566C568.129 239.664 567.259 239.59 566.43 239.348C565.601 239.105 564.828 238.699 564.158 238.154C563.488 237.608 562.933 236.935 562.527 236.172C562.122 235.409 561.872 234.573 561.794 233.712C561.711 231.95 562.319 230.226 563.489 228.906C564.66 227.586 566.299 226.776 568.058 226.649C568.92 226.547 569.794 226.62 570.627 226.862C571.46 227.104 572.236 227.512 572.909 228.06C573.582 228.608 574.138 229.285 574.544 230.052C574.95 230.819 575.198 231.66 575.273 232.524Z" fill="#263238"/>
<path d="M581.861 223.906C581.04 224.813 575.791 221.206 568.512 221.486C561.233 221.767 556.027 225.59 555.206 224.726C554.796 224.338 555.595 222.718 557.863 220.946C560.933 218.65 564.637 217.36 568.469 217.253C572.259 217.103 575.998 218.171 579.139 220.298C581.45 221.918 582.25 223.495 581.861 223.906Z" fill="#263238"/>
<path d="M503.734 237.6C503.811 239.364 503.198 241.088 502.024 242.407C500.851 243.726 499.209 244.536 497.448 244.663C496.59 244.762 495.72 244.688 494.891 244.445C494.061 244.203 493.289 243.797 492.619 243.251C491.948 242.706 491.394 242.032 490.988 241.269C490.582 240.506 490.333 239.67 490.255 238.81C490.177 237.046 490.791 235.321 491.964 234.002C493.138 232.683 494.78 231.874 496.541 231.746C497.399 231.648 498.269 231.722 499.098 231.964C499.927 232.207 500.7 232.613 501.37 233.158C502.04 233.704 502.595 234.377 503.001 235.14C503.406 235.903 503.656 236.739 503.734 237.6Z" fill="#263238"/>
<path d="M510.322 227.772C509.522 228.679 504.252 225.072 496.973 225.353C489.694 225.634 484.488 229.457 483.667 228.593C483.257 228.204 484.056 226.584 486.324 224.813C489.401 222.516 493.113 221.227 496.951 221.119C500.735 220.971 504.467 222.039 507.6 224.165C509.911 225.806 510.732 227.362 510.322 227.772Z" fill="#263238"/>
<path d="M538.639 280.8C538.639 280.368 543.089 279.439 550.39 278.251C552.247 277.992 553.997 277.56 554.278 276.264C554.355 274.338 553.851 272.434 552.83 270.799C550.93 266.371 548.942 261.706 546.847 256.846C538.488 236.952 532.375 220.558 533.196 220.126C534.017 219.694 541.404 235.656 549.742 255.55C551.772 260.446 553.694 265.133 555.509 269.611C556.756 271.812 557.192 274.38 556.74 276.869C556.493 277.534 556.098 278.134 555.586 278.624C555.073 279.114 554.456 279.481 553.781 279.698C552.757 280.014 551.697 280.196 550.627 280.238C543.262 281.081 538.682 281.275 538.639 280.8Z" fill="#263238"/>
<path d="M517.385 286.654C518.573 286.524 518.875 294.43 525.83 299.808C532.786 305.186 541.166 304.02 541.274 305.122C541.404 305.618 539.46 306.72 535.896 306.936C531.241 307.196 526.645 305.786 522.936 302.962C519.428 300.251 517.106 296.288 516.456 291.902C516.046 288.598 516.845 286.61 517.385 286.654Z" fill="#263238"/>
<path d="M509.76 190.447C509.112 192.434 501.811 191.765 493.301 193.082C484.79 194.4 477.965 196.992 476.777 195.242C476.237 194.4 477.36 192.499 480.082 190.49C483.715 188.002 487.87 186.377 492.227 185.741C496.585 185.104 501.031 185.473 505.224 186.818C508.378 187.92 510.019 189.497 509.76 190.447Z" fill="#263238"/>
<path d="M578.448 203.04C577.217 204.725 572.141 203.191 566.114 203.321C560.088 203.45 555.012 204.833 553.759 203.126C553.219 202.306 553.975 200.621 556.157 198.979C559.059 196.947 562.528 195.881 566.071 195.934C569.599 195.809 573.078 196.782 576.029 198.72C578.21 200.426 578.988 202.09 578.448 203.04Z" fill="#263238"/>
<path d="M434.16 255.398C433.339 255.074 401.263 246.91 403.423 279.158C405.583 311.407 437.638 302.659 437.638 301.73C437.638 300.802 434.16 255.398 434.16 255.398Z" fill="#FFBE9D"/>
<path d="M426.859 290.239C426.708 290.239 426.319 290.671 425.39 291.168C424.105 291.859 422.599 292.015 421.2 291.6C417.679 290.563 414.439 285.336 413.899 279.504C413.631 276.739 413.985 273.949 414.936 271.339C415.166 270.304 415.647 269.341 416.336 268.535C417.026 267.73 417.902 267.105 418.889 266.717C419.525 266.5 420.217 266.513 420.845 266.754C421.472 266.995 421.995 267.448 422.323 268.034C422.82 268.92 422.647 269.568 422.82 269.611C422.993 269.654 423.49 269.028 423.122 267.71C422.887 266.923 422.392 266.238 421.718 265.766C420.778 265.162 419.64 264.945 418.543 265.162C417.232 265.51 416.033 266.19 415.061 267.135C414.089 268.081 413.376 269.261 412.992 270.562C411.807 273.46 411.348 276.604 411.653 279.72C412.301 286.2 415.973 292.097 420.811 293.134C421.696 293.33 422.613 293.325 423.495 293.12C424.377 292.914 425.202 292.513 425.909 291.946C426.859 291.038 426.967 290.304 426.859 290.239Z" fill="#EB996E"/>
<path d="M600.912 190.08C590.512 193.141 579.534 193.689 568.881 191.68C558.228 189.671 548.204 185.162 539.633 178.524C527.753 169.15 518.378 155.412 503.777 151.459C498.802 150.323 493.651 150.186 488.623 151.057C483.594 151.929 478.79 153.791 474.487 156.535C465.901 162.066 458.547 169.309 452.887 177.811C462.888 201.571 457.682 228.679 452.326 253.886C452.031 256.748 450.792 259.431 448.805 261.511C445.09 264.578 439.258 262.483 435.845 259.114C430.294 253.692 427.939 245.851 426.319 238.291C422.307 221.06 421.771 203.201 424.742 185.76C427.783 168.26 435.895 152.037 448.07 139.104C463.924 123.38 485.273 114.44 507.6 114.178C529.811 114.084 551.487 120.992 569.549 133.92C577.93 139.795 585.706 146.88 590.242 156.146" fill="#263238"/>
<path d="M626.854 126.252C626.99 127.198 626.923 128.163 626.659 129.082C625.975 131.755 624.463 134.144 622.339 135.907C618.933 138.631 614.751 140.204 610.394 140.4C607.717 140.637 605.02 140.565 602.359 140.184C599.302 139.772 596.414 138.541 594 136.62C592.642 135.546 591.548 134.176 590.799 132.616C590.051 131.055 589.668 129.344 589.68 127.613C589.851 125.729 590.55 123.931 591.696 122.426C592.842 120.92 594.389 119.769 596.16 119.102C597.997 118.339 599.986 118.014 601.97 118.152C604.035 118.357 605.994 119.16 607.608 120.463C609.23 121.835 610.538 123.541 611.44 125.465C612.342 127.388 612.818 129.484 612.835 131.609C612.913 136.092 611.23 140.427 608.148 143.683C605.002 147.014 601.03 149.451 596.635 150.746C587.736 153.533 577.8 152.194 568.858 148.716C560.182 145.149 551.948 140.59 544.32 135.13C537.291 130.145 529.856 125.759 522.094 122.018C515.098 118.679 507.397 117.086 499.651 117.374C492.935 117.863 486.408 119.825 480.535 123.12C471.972 127.996 464.803 134.987 459.713 143.424C458.271 145.662 456.952 147.977 455.76 150.358C455.394 151.221 454.968 152.058 454.486 152.863C454.525 152.624 454.598 152.391 454.702 152.172C454.853 151.74 455.09 151.07 455.458 150.228C456.504 147.741 457.724 145.33 459.108 143.014C464.061 134.31 471.23 127.074 479.887 122.04C485.92 118.608 492.642 116.564 499.565 116.057C507.542 115.684 515.491 117.264 522.72 120.658C530.598 124.433 538.142 128.869 545.27 133.92C552.795 139.29 560.903 143.789 569.441 147.334C578.189 150.703 587.736 151.999 596.203 149.364C600.322 148.076 604.031 145.73 606.96 142.56C609.749 139.658 611.298 135.785 611.28 131.76C611.281 129.845 610.868 127.952 610.07 126.212C609.273 124.471 608.109 122.923 606.658 121.673C605.255 120.563 603.573 119.861 601.798 119.644C600.022 119.427 598.221 119.703 596.592 120.442C595.025 120.992 593.644 121.972 592.608 123.271C591.573 124.57 590.925 126.135 590.738 127.786C590.738 129.336 591.085 130.866 591.754 132.264C592.423 133.662 593.397 134.892 594.605 135.864C596.864 137.668 599.563 138.838 602.424 139.255C605.01 139.659 607.633 139.768 610.243 139.579C614.528 139.485 618.673 138.033 622.08 135.432C624.13 133.748 625.634 131.492 626.4 128.952C626.608 128.063 626.76 127.161 626.854 126.252Z" fill="#455A64"/>
<path d="M399.6 191.095C402.853 192.122 406.193 192.845 409.579 193.255C413.243 193.452 416.91 192.939 420.379 191.743C424.641 190.23 428.664 188.113 432.324 185.458C438.937 180.522 443.767 173.57 446.083 165.65C446.894 162.322 447.492 158.946 447.876 155.542C448.111 156.458 448.199 157.406 448.135 158.35C448.127 160.914 447.801 163.468 447.163 165.953C445.094 174.302 440.174 181.667 433.253 186.775C429.469 189.559 425.28 191.744 420.833 193.255C417.167 194.462 413.288 194.881 409.45 194.486C406.889 194.193 404.385 193.523 402.019 192.499C401.136 192.178 400.317 191.703 399.6 191.095Z" fill="#455A64"/>
<path d="M401.89 214.488C401.89 214.186 405.734 214.898 411.847 214.337C419.792 213.66 427.41 210.861 433.904 206.233C440.397 201.605 445.529 195.317 448.762 188.028C451.289 182.434 451.85 178.61 452.153 178.675C452.212 179.583 452.124 180.495 451.894 181.375C451.419 183.805 450.695 186.179 449.734 188.46C446.69 196.12 441.505 202.742 434.798 207.534C428.09 212.326 420.145 215.085 411.912 215.482C409.444 215.609 406.97 215.493 404.525 215.136C403.618 215.06 402.728 214.841 401.89 214.488Z" fill="#455A64"/>
<path d="M487.21 259.589C487.102 259.611 486.99 259.61 486.882 259.588C486.775 259.566 486.672 259.523 486.582 259.46C486.491 259.398 486.414 259.318 486.355 259.225C486.295 259.132 486.256 259.028 486.238 258.919C486.201 258.814 486.187 258.703 486.196 258.593C486.205 258.482 486.237 258.375 486.29 258.277C486.343 258.18 486.415 258.094 486.503 258.026C486.591 257.958 486.692 257.909 486.799 257.882C487.012 257.861 487.226 257.917 487.401 258.041C487.575 258.165 487.699 258.348 487.749 258.556C487.8 258.765 487.772 258.984 487.673 259.174C487.574 259.364 487.409 259.511 487.21 259.589Z" fill="#EB996E"/>
<path d="M501.12 255.938C500.887 255.937 500.661 255.857 500.479 255.711C500.297 255.565 500.169 255.362 500.117 255.135C500.064 254.907 500.09 254.669 500.19 254.458C500.29 254.247 500.457 254.076 500.666 253.973C500.905 253.954 501.142 254.025 501.331 254.173C501.519 254.322 501.644 254.535 501.682 254.772C501.758 255.001 501.742 255.251 501.638 255.469C501.533 255.687 501.347 255.855 501.12 255.938Z" fill="#EB996E"/>
<path d="M510.386 255.377C509.933 255.377 509.501 254.923 509.371 254.21C509.242 253.498 509.522 252.85 509.954 252.785C510.386 252.72 510.84 253.238 510.97 253.951C511.099 254.664 510.818 255.312 510.386 255.377Z" fill="#EB996E"/>
<path d="M494.359 268.078C493.927 268.078 493.538 267.883 493.538 267.602C493.538 267.322 493.884 267.062 494.316 267.062C494.748 267.062 495.137 267.257 495.137 267.538C495.137 267.818 494.813 268.056 494.359 268.078Z" fill="#EB996E"/>
<path d="M507.017 264.665C506.791 264.677 506.57 264.6 506.4 264.45C506.231 264.301 506.126 264.091 506.11 263.866C506.088 263.754 506.088 263.638 506.111 263.526C506.134 263.414 506.179 263.308 506.243 263.214C506.308 263.119 506.39 263.039 506.486 262.976C506.581 262.914 506.688 262.871 506.801 262.85C507.029 262.844 507.25 262.926 507.419 263.079C507.588 263.232 507.691 263.444 507.708 263.671C507.746 263.894 507.695 264.123 507.565 264.309C507.436 264.495 507.239 264.623 507.017 264.665Z" fill="#EB996E"/>
<path d="M573.156 254.405C573.045 254.427 572.931 254.426 572.821 254.403C572.71 254.379 572.605 254.334 572.513 254.27C572.42 254.205 572.341 254.123 572.281 254.027C572.221 253.932 572.181 253.825 572.162 253.714C572.126 253.607 572.112 253.495 572.121 253.383C572.129 253.271 572.161 253.162 572.214 253.063C572.266 252.963 572.339 252.876 572.427 252.806C572.514 252.736 572.616 252.685 572.724 252.655C572.945 252.627 573.168 252.681 573.351 252.807C573.534 252.933 573.665 253.122 573.719 253.338C573.772 253.554 573.744 253.782 573.64 253.978C573.537 254.175 573.364 254.327 573.156 254.405Z" fill="#EB996E"/>
<path d="M582.595 253.217C582.36 253.196 582.138 253.096 581.968 252.932C581.797 252.768 581.688 252.551 581.658 252.317C581.627 252.082 581.678 251.844 581.802 251.643C581.925 251.441 582.114 251.288 582.336 251.208C582.768 251.208 583.178 251.554 583.265 252.094C583.318 252.331 583.278 252.58 583.154 252.789C583.029 252.998 582.829 253.151 582.595 253.217Z" fill="#EB996E"/>
<path d="M564.775 254.88C564.639 254.893 564.501 254.867 564.379 254.804C564.257 254.741 564.156 254.644 564.087 254.525C564.019 254.406 563.987 254.27 563.994 254.133C564.001 253.995 564.048 253.863 564.129 253.752C564.209 253.641 564.32 253.555 564.448 253.506C564.576 253.456 564.716 253.445 564.85 253.473C564.985 253.5 565.108 253.567 565.206 253.663C565.304 253.759 565.372 253.882 565.402 254.016C565.427 254.213 565.377 254.412 565.26 254.572C565.144 254.733 564.97 254.843 564.775 254.88Z" fill="#EB996E"/>
<path d="M572.141 264.19C571.925 264.263 571.69 264.252 571.482 264.16C571.274 264.068 571.108 263.901 571.018 263.693C570.96 263.594 570.923 263.484 570.908 263.371C570.893 263.257 570.901 263.142 570.931 263.031C570.961 262.92 571.013 262.817 571.083 262.727C571.154 262.636 571.242 262.561 571.342 262.505C571.555 262.451 571.78 262.473 571.98 262.566C572.179 262.66 572.339 262.82 572.433 263.019C572.528 263.218 572.55 263.443 572.497 263.657C572.443 263.87 572.318 264.059 572.141 264.19Z" fill="#EB996E"/>
<path d="M580.176 262.267C580.079 262.254 579.986 262.222 579.902 262.172C579.817 262.122 579.744 262.056 579.686 261.978C579.627 261.899 579.585 261.81 579.562 261.715C579.538 261.62 579.534 261.521 579.55 261.425C579.618 261.24 579.755 261.09 579.933 261.005C580.11 260.921 580.314 260.908 580.5 260.971C580.691 260.998 580.864 261.099 580.982 261.253C581.099 261.407 581.151 261.6 581.126 261.792C581.062 261.98 580.927 262.136 580.749 262.225C580.571 262.314 580.365 262.329 580.176 262.267Z" fill="#EB996E"/>
<path d="M564.149 800.582L563.63 752.566C563.63 752.566 531.598 708.178 544.19 660.031C544.19 660.031 565.078 645.343 621.086 653.94C621.086 653.94 691.394 585.446 785.635 602.878C879.876 620.309 888.646 702.41 889.553 724.766C890.46 747.122 890.244 790.538 857.801 832.982L855.641 875.102C855.641 875.102 847.908 890.957 825.552 889.877C803.196 888.797 804.449 885.557 804.449 885.557C804.449 885.557 776.369 908.215 775.159 914.134C773.95 920.052 769.543 942.494 769.543 942.494C769.543 942.494 759.802 955.735 738.785 957.29C730.471 957.88 722.156 956.176 714.744 952.366C711.932 950.942 709.432 948.973 707.389 946.574C705.346 944.174 703.8 941.393 702.842 938.39C700.834 931.742 697.442 925.593 692.89 920.347C688.337 915.102 682.726 910.879 676.426 907.956L661.91 904.154C661.91 904.154 656.057 909.49 635.688 911.671C615.319 913.853 615.233 906.638 615.233 906.638C615.233 906.638 583.546 913.961 559.742 882.878C540.95 858.298 530.734 814.082 564.149 800.582Z" fill="#30A8FF"/>
<path d="M759.499 803.347C759.817 802.833 760.171 802.342 760.558 801.878C761.27 800.928 762.329 799.546 763.646 797.731C766.303 794.124 770.018 788.789 774.122 781.898C778.899 773.821 783.044 765.386 786.521 756.67C788.486 751.745 790.322 746.496 791.942 740.988C793.562 735.48 794.923 729.518 793.498 723.708C791.782 718.077 788.104 713.248 783.13 710.1C778.545 707.025 773.633 704.468 768.485 702.475C759.767 699.033 750.603 696.852 741.269 695.995C734.976 695.398 728.64 695.398 722.347 695.995C720.187 696.19 718.394 696.406 717.206 696.578C716.617 696.701 716.016 696.766 715.414 696.773C715.992 696.589 716.584 696.452 717.185 696.362C718.33 696.125 720.058 695.822 722.304 695.563C728.617 694.778 734.995 694.655 741.334 695.196C750.803 695.908 760.114 698.027 768.96 701.482C774.194 703.469 779.186 706.042 783.842 709.15C789.045 712.442 792.881 717.506 794.642 723.406C796.154 729.605 794.642 735.782 793.066 741.29C791.489 746.798 789.545 752.09 787.536 757.058C784.006 765.803 779.773 774.248 774.878 782.309C771.574 787.734 767.968 792.969 764.078 797.99C762.696 799.783 761.573 801.122 760.817 802.008C760.423 802.496 759.981 802.945 759.499 803.347Z" fill="#263238"/>
<path d="M627.739 656.035C627.903 656.383 628.013 656.755 628.063 657.137C628.273 658.24 628.324 659.367 628.214 660.485C627.67 664.618 625.771 668.454 622.814 671.393C619.294 675.281 613.937 678.456 608.71 682.733C602.984 687.338 597.698 692.465 592.92 698.047C584.221 708.196 577.205 719.675 572.141 732.046C570.197 736.798 568.922 740.686 568.058 743.494C567.691 744.768 567.367 745.826 567.108 746.669C567.02 747.042 566.889 747.405 566.719 747.749C566.723 747.361 566.781 746.976 566.892 746.604C567.108 745.74 567.346 744.682 567.648 743.364C568.675 739.428 569.93 735.555 571.406 731.765C576.287 719.189 583.278 707.538 592.078 697.313C596.898 691.684 602.251 686.534 608.062 681.934C613.397 677.614 618.754 674.568 622.253 670.853C625.153 668.056 627.089 664.41 627.782 660.442C627.927 658.975 627.912 657.498 627.739 656.035Z" fill="#263238"/>
<g opacity="0.5">
<path d="M665.41 661.91L694.073 669.233C694.073 669.233 736.042 622.08 782.136 610.135L764.856 606.053C726.977 614.595 692.414 634.008 665.41 661.91Z" fill="black"/>
</g>
<path d="M772.783 607.867C735.09 616.342 700.795 635.901 674.309 664.027L665.41 661.867C665.41 661.867 706.061 617.263 764.878 606.01L772.783 607.867Z" fill="#30A8FF"/>
<g opacity="0.7">
<path d="M772.783 607.867C735.09 616.342 700.795 635.901 674.309 664.027L665.41 661.867C665.41 661.867 706.061 617.263 764.878 606.01L772.783 607.867Z" fill="black"/>
</g>
<path d="M550.303 810.367C566.179 787.644 606.01 794.599 624.175 815.033C642.341 835.466 650.398 863.59 638.582 887.825C633.528 898.171 623.851 907.265 612.338 907.049C618.082 900.605 622.198 892.879 624.34 884.516C626.483 876.154 626.589 867.401 624.65 858.989C620.957 842.033 610.265 827.064 596.743 816.178C589.896 810.648 582.185 804.578 573.415 803.714C564.646 802.85 557.626 802.591 550.303 810.367Z" fill="#30A8FF"/>
<g opacity="0.3">
<path d="M550.303 810.367C566.179 787.644 606.01 794.599 624.175 815.033C642.341 835.466 650.398 863.59 638.582 887.825C633.528 898.171 623.851 907.265 612.338 907.049C618.082 900.605 622.198 892.879 624.34 884.516C626.483 876.154 626.589 867.401 624.65 858.989C620.957 842.033 610.265 827.064 596.743 816.178C589.896 810.648 582.185 804.578 573.415 803.714C564.646 802.85 557.626 802.591 550.303 810.367Z" fill="black"/>
</g>
<g opacity="0.3">
<path d="M761.098 802.008C760.795 806.825 765.202 811.08 769.975 811.642C772.386 811.786 774.796 811.357 777.008 810.388C779.219 809.419 781.17 807.939 782.698 806.069C785.705 802.292 787.91 797.941 789.178 793.282C794.146 777.708 796.716 754.402 794.102 738.353C787.234 759.24 774.965 785.29 760.73 802.051" fill="black"/>
</g>
<g opacity="0.3">
<path d="M776.153 730.188C773.064 721.051 763.603 715.716 754.553 712.562C745.271 709.324 735.577 707.419 725.76 706.903C722.672 706.567 719.547 706.868 716.58 707.789C715.108 708.268 713.782 709.115 712.728 710.248C711.673 711.382 710.925 712.766 710.554 714.269C710.359 715.502 710.549 716.764 711.098 717.885C711.646 719.006 712.528 719.931 713.621 720.533C729.274 738.65 740.952 759.85 747.9 782.762C748.195 783.77 748.757 784.679 749.525 785.394C750.294 786.11 751.242 786.604 752.268 786.825C753.295 787.046 754.362 786.986 755.357 786.651C756.352 786.316 757.238 785.719 757.922 784.922C765.266 776.542 769.5 765.245 773.302 754.531C776.023 746.669 778.831 738.072 776.153 730.188Z" fill="black"/>
</g>
<g opacity="0.3">
<path d="M569.635 734.4C559.817 719.126 554.764 701.276 555.12 683.122C555.12 679.298 555.682 675.151 558.338 672.43C561.557 669.125 566.784 669.06 571.298 669.362C584.024 670.156 596.669 671.933 609.12 674.676C610.092 674.892 611.28 675.216 611.582 676.145C611.924 676.86 612.027 677.666 611.875 678.444C611.723 679.222 611.325 679.93 610.74 680.465C591.408 692.323 577.692 714.139 570.391 735.48" fill="black"/>
</g>
<path d="M545.551 661.738C545.592 662.827 545.542 663.918 545.4 664.999C545.227 667.159 545.033 670.118 544.903 673.855C544.247 688.969 546.146 704.085 550.519 718.567C551.988 723.298 553.522 727.466 554.99 730.922C556.459 734.378 557.734 737.122 558.662 738.979C559.21 739.924 559.659 740.923 560.002 741.96C559.348 741.089 558.77 740.164 558.274 739.195C557.215 737.381 555.833 734.659 554.278 731.225C552.454 727.21 550.867 723.092 549.526 718.891C547.926 713.725 546.642 708.467 545.681 703.145C544.05 693.494 543.521 683.69 544.104 673.92C544.342 670.183 544.644 667.138 544.968 665.064C545.055 663.939 545.251 662.825 545.551 661.738Z" fill="#FAFAFA"/>
<path d="M763.193 604.498C762.835 604.676 762.458 604.814 762.07 604.908L758.83 605.858C757.404 606.247 755.676 606.722 753.689 607.37C751.702 608.018 749.369 608.645 746.971 609.53C741.982 611.194 736.171 613.418 729.799 616.14C723.427 618.862 716.58 622.231 709.603 626.119C702.626 630.007 696.233 634.176 690.552 638.129C684.871 642.082 679.968 645.97 675.972 649.361C673.92 650.981 672.17 652.601 670.594 653.962C669.017 655.322 667.699 656.532 666.641 657.547L664.135 659.815C663.552 660.334 663.228 660.593 663.206 660.55C663.432 660.227 663.693 659.93 663.984 659.664L666.338 657.223C667.354 656.165 668.628 654.912 670.183 653.508C671.738 652.104 673.423 650.441 675.454 648.756C679.406 645.278 684.31 641.369 689.947 637.286C696.111 632.921 702.491 628.869 709.063 625.147C715.664 621.483 722.448 618.16 729.389 615.19C735.869 612.511 741.701 610.351 746.669 608.71C749.174 607.867 751.464 607.284 753.473 606.701C755.482 606.118 757.231 605.686 758.678 605.362L761.962 604.627C762.363 604.522 762.778 604.478 763.193 604.498Z" fill="#FAFAFA"/>
<path d="M788.4 718.632C788.227 718.826 784.966 715.5 778.702 711.504C775.028 709.184 771.17 707.168 767.167 705.478C762.282 703.433 757.221 701.835 752.047 700.704C742.592 698.628 732.87 698.038 723.233 698.954C715.846 699.71 711.374 700.942 711.31 700.704C712.329 700.322 713.376 700.018 714.442 699.797C717.281 699.061 720.168 698.52 723.082 698.177C732.812 697 742.672 697.482 752.242 699.602C757.498 700.756 762.633 702.405 767.578 704.527C771.615 706.28 775.483 708.398 779.134 710.856L781.294 712.346L783.173 713.837C784.196 714.595 785.163 715.425 786.067 716.321C786.905 717.027 787.686 717.8 788.4 718.632Z" fill="#FAFAFA"/>
<path d="M595.188 903.55C594.83 903.507 594.481 903.413 594.151 903.269C593.177 902.972 592.218 902.626 591.278 902.232C587.781 900.849 584.406 899.173 581.191 897.221C570.471 890.805 561.547 881.784 555.248 870.994C548.949 860.205 545.479 847.999 545.162 835.51C545.036 831.756 545.231 827.998 545.746 824.278C545.897 822.96 546.134 821.945 546.242 821.254C546.302 820.902 546.388 820.555 546.502 820.217C546.484 821.59 546.375 822.961 546.178 824.321C545.834 828.033 545.755 831.765 545.94 835.488C546.477 847.797 550.004 859.791 556.218 870.43C562.432 881.07 571.144 890.036 581.602 896.551C584.763 898.533 588.053 900.301 591.451 901.843C593.849 902.88 595.21 903.463 595.188 903.55Z" fill="#FAFAFA"/>
<g opacity="0.2">
<path d="M600.847 853.654C599.168 853.081 597.357 853.011 595.638 853.452C593.919 853.893 592.366 854.826 591.17 856.138C590.003 857.472 589.15 859.052 588.675 860.761C588.201 862.47 588.116 864.263 588.427 866.009C588.752 869.389 590.205 872.562 592.553 875.016C594.5 876.901 596.996 878.119 599.681 878.494C601.357 878.456 602.991 877.958 604.404 877.056C605.817 876.153 606.955 874.879 607.694 873.374C608.625 871.646 609.186 869.744 609.343 867.787C609.499 865.831 609.248 863.864 608.604 862.01C607.96 860.155 606.938 858.455 605.603 857.017C604.268 855.579 602.648 854.433 600.847 853.654Z" fill="black"/>
</g>
<path d="M597.499 853.2C595.943 855.078 594.89 857.321 594.438 859.717C593.987 862.114 594.153 864.586 594.919 866.902C595.686 869.217 597.029 871.299 598.821 872.953C600.614 874.607 602.798 875.777 605.167 876.355C604.196 877.227 603.031 877.855 601.77 878.19C600.508 878.524 599.185 878.554 597.91 878.278C594.738 877.223 592.013 875.134 590.172 872.345C588.331 869.556 587.48 866.229 587.758 862.898C587.893 860.168 589.004 857.577 590.89 855.598C592.72 854.007 595.075 853.153 597.499 853.2Z" fill="#30A8FF"/>
<g opacity="0.4">
<path d="M597.499 853.2C595.943 855.078 594.89 857.321 594.438 859.717C593.987 862.114 594.153 864.586 594.919 866.902C595.686 869.217 597.029 871.299 598.821 872.953C600.614 874.607 602.798 875.777 605.167 876.355C604.196 877.227 603.031 877.855 601.77 878.19C600.508 878.524 599.185 878.554 597.91 878.278C594.738 877.223 592.013 875.134 590.172 872.345C588.331 869.556 587.48 866.229 587.758 862.898C587.893 860.168 589.004 857.577 590.89 855.598C592.72 854.007 595.075 853.153 597.499 853.2Z" fill="black"/>
</g>
<g opacity="0.2">
<path d="M569.009 841.363C567.386 840.822 565.641 840.763 563.985 841.192C562.329 841.621 560.833 842.521 559.678 843.782C558.55 845.07 557.725 846.594 557.265 848.243C556.805 849.892 556.722 851.623 557.021 853.308C557.379 856.546 558.781 859.579 561.017 861.948C562.903 863.762 565.315 864.934 567.907 865.296C569.521 865.262 571.094 864.785 572.454 863.916C573.814 863.047 574.909 861.821 575.618 860.371C576.513 858.701 577.052 856.864 577.202 854.975C577.351 853.087 577.108 851.188 576.487 849.398C575.866 847.608 574.881 845.966 573.594 844.576C572.307 843.186 570.745 842.077 569.009 841.32" fill="black"/>
</g>
<path d="M565.79 840.974C564.281 842.784 563.258 844.948 562.819 847.263C562.38 849.578 562.539 851.967 563.281 854.203C564.023 856.439 565.323 858.449 567.059 860.043C568.794 861.636 570.908 862.76 573.199 863.309C572.259 864.152 571.133 864.761 569.914 865.087C568.694 865.414 567.415 865.448 566.179 865.188C563.12 864.164 560.493 862.143 558.719 859.449C556.944 856.754 556.126 853.542 556.394 850.327C556.519 847.702 557.585 845.21 559.397 843.307C561.188 841.745 563.501 840.912 565.877 840.974" fill="#30A8FF"/>
<g opacity="0.4">
<path d="M565.79 840.974C564.281 842.784 563.258 844.948 562.819 847.263C562.38 849.578 562.539 851.967 563.281 854.203C564.023 856.439 565.323 858.449 567.059 860.043C568.794 861.636 570.908 862.76 573.199 863.309C572.259 864.152 571.133 864.761 569.914 865.087C568.694 865.414 567.415 865.448 566.179 865.188C563.12 864.164 560.493 862.143 558.719 859.449C556.944 856.754 556.126 853.542 556.394 850.327C556.519 847.702 557.585 845.21 559.397 843.307C561.188 841.745 563.501 840.912 565.877 840.974" fill="black"/>
</g>
<path d="M650.959 781.92C650.959 781.92 651.175 781.92 651.262 781.769H651.413L650.959 781.92Z" fill="#263238"/>
<path d="M667.289 788.659C666.263 785.897 664.277 783.597 661.694 782.179C659.644 781.152 657.378 780.627 655.085 780.646H654.89C653.614 780.724 652.373 781.093 651.262 781.726C648.863 782.92 646.81 784.708 645.298 786.919C643.785 789.131 642.864 791.693 642.622 794.362C642.47 797.773 643.333 801.154 645.102 804.075C646.87 806.997 649.465 809.329 652.558 810.777C654.599 811.828 656.929 812.177 659.189 811.771C661.427 811.131 663.383 809.753 664.74 807.862C666.806 805.163 668.129 801.97 668.576 798.6C669.024 795.231 668.58 791.803 667.289 788.659Z" fill="#263238"/>
<path d="M584.194 760.903C584.283 760.851 584.377 760.808 584.474 760.774H584.604L584.194 760.903Z" fill="#263238"/>
<path d="M598.32 766.8C597.451 764.369 595.722 762.341 593.46 761.097C591.692 760.205 589.738 759.746 587.758 759.758H587.52C586.417 759.832 585.346 760.157 584.388 760.709C582.305 761.739 580.522 763.288 579.21 765.205C577.897 767.123 577.099 769.345 576.893 771.66C576.765 774.615 577.517 777.542 579.056 780.069C580.594 782.596 582.848 784.608 585.533 785.851C587.272 786.881 589.343 787.195 591.309 786.728C593.276 786.261 594.984 785.048 596.074 783.346C597.848 781.018 598.987 778.269 599.381 775.369C599.775 772.469 599.409 769.516 598.32 766.8Z" fill="#263238"/>
<path d="M602.64 802.894C603.096 802.923 603.546 803.01 603.979 803.153C605.251 803.476 606.506 803.866 607.738 804.319C612.284 805.985 616.563 808.306 620.438 811.21C626.238 815.498 631.171 820.849 634.975 826.978C639.588 834.505 642.658 842.876 644.004 851.602C645.382 860.311 645.28 869.191 643.702 877.867C642.558 885.048 639.456 891.774 634.738 897.307C631.492 900.972 627.288 903.657 622.598 905.062C620.907 905.617 619.128 905.859 617.35 905.774C619.083 905.538 620.795 905.163 622.469 904.651C626.999 903.115 631.034 900.392 634.154 896.767C638.663 891.302 641.611 884.719 642.686 877.716C644.196 869.147 644.262 860.386 642.881 851.796C641.563 843.214 638.576 834.973 634.09 827.539C630.388 821.485 625.599 816.169 619.963 811.858C616.165 808.953 612.004 806.557 607.586 804.73C604.498 803.52 602.64 803.002 602.64 802.894Z" fill="#263238"/>
<path d="M582.012 777.341C581.904 777.341 581.342 776.952 580.759 775.937C580.058 774.603 579.68 773.123 579.658 771.617C579.665 770.111 580.035 768.629 580.738 767.297C581.321 766.282 581.861 765.806 581.99 765.893C581.358 767.767 580.952 769.711 580.781 771.682C580.979 773.608 581.392 775.506 582.012 777.341Z" fill="#FAFAFA"/>
<path d="M647.136 801.209C647.006 801.209 646.466 800.712 645.991 799.567C645.408 798.047 645.251 796.396 645.538 794.794C645.783 793.196 646.471 791.699 647.525 790.474C648.346 789.523 649.037 789.178 649.123 789.286C647.998 791.051 647.16 792.982 646.639 795.01C646.454 797.089 646.622 799.185 647.136 801.209Z" fill="#FAFAFA"/>
<path d="M688.111 915.343C688.003 915.516 685.39 913.702 680.81 911.412C674.812 908.518 668.611 906.063 662.256 904.068C654.804 901.649 648.022 899.575 643.162 897.847C640.742 897.005 638.842 896.27 637.459 895.687C636.754 895.444 636.079 895.117 635.45 894.715C638.148 895.365 640.808 896.158 643.421 897.091C648.302 898.625 655.128 900.569 662.602 903.01C669.018 905.003 675.236 907.584 681.178 910.721C682.322 911.304 683.338 911.93 684.18 912.47C684.93 912.915 685.651 913.405 686.34 913.939C686.989 914.328 687.585 914.8 688.111 915.343Z" fill="#263238"/>
<path d="M841.363 845.77C840.783 846.836 840.119 847.855 839.376 848.815C838.08 850.738 836.028 853.438 833.414 856.678C826.462 865.034 818.911 872.874 810.821 880.135C801.382 888.775 792.59 896.098 786.37 901.627L779.026 908.107C778.169 908.959 777.245 909.739 776.261 910.44C777.006 909.494 777.83 908.612 778.723 907.805C780.365 906.142 782.806 903.809 785.851 900.958C791.942 895.277 800.647 887.76 810.043 879.228C818.093 871.992 825.689 864.266 832.788 856.094C835.488 852.941 837.626 850.327 839.03 848.491C839.737 847.525 840.516 846.615 841.363 845.77Z" fill="#263238"/>
<g opacity="0.2">
<path d="M804.643 885.773C816.264 886.723 829.462 883.159 837.713 874.973C841.854 870.757 844.65 865.407 845.746 859.6C846.842 853.793 846.189 847.792 843.869 842.357C837.086 852.034 829.44 862.315 820.109 870.221C814.234 875.21 810.324 881.258 804.643 885.838" fill="black"/>
</g>
<g opacity="0.5">
<path d="M763.258 614.11C778.378 636.358 809.374 643.399 824.364 665.69C830.174 674.33 833.004 684.526 835.812 694.548L870.372 819.245C871.798 792.223 865.296 765.482 858.816 739.195C852.451 713.275 846.065 687.355 839.657 661.435C838.601 655.637 836.493 650.08 833.436 645.041C830.023 640.138 824.947 636.703 820.001 633.377C802.246 621.454 783.972 609.314 763.15 604.562" fill="black"/>
</g>
<g opacity="0.3">
<path d="M657.245 681.458C658.195 684.482 654.048 688.608 647.59 693.727C644.328 696.276 640.526 699.192 636.336 702.367C632.146 705.542 627.696 709.02 623.009 712.778C618.322 716.537 614.088 720.274 610.049 723.578C606.01 726.883 602.489 730.188 599.249 732.845C592.92 738.137 588.06 741.355 585.274 739.8C582.487 738.245 582.682 732.11 586.375 723.514C588.585 718.527 591.391 713.827 594.734 709.517C602.918 698.91 613.445 690.341 625.493 684.482C630.396 682.099 635.566 680.308 640.894 679.147C650.16 677.354 656.338 678.564 657.245 681.458Z" fill="white"/>
</g>
<path d="M599.465 851.926C597.879 852.499 596.234 852.898 594.562 853.114C592.971 853.663 591.328 854.046 589.658 854.258C590.932 853.055 592.562 852.297 594.302 852.098C595.963 851.502 597.768 851.441 599.465 851.926Z" fill="#FAFAFA"/>
<path d="M566.676 840.024C565.174 840.38 563.652 840.647 562.118 840.823C559.678 841.363 557.798 842.378 557.669 842.098C557.539 841.817 559.181 840.326 561.859 839.722C562.642 839.45 563.471 839.337 564.298 839.388C565.125 839.44 565.933 839.656 566.676 840.024Z" fill="#FAFAFA"/>
<path d="M712.087 940.464C711.785 940.615 708.912 935.777 704.916 930.096C700.92 924.415 697.356 920.074 697.594 919.858C700.784 922.648 703.562 925.877 705.845 929.448C708.425 932.813 710.526 936.521 712.087 940.464Z" fill="#FAFAFA"/>
<path d="M583.416 713.772C583.718 713.966 579.463 720.252 575.77 728.676C572.076 737.1 570.305 744.466 569.959 744.379C570.008 742.726 570.299 741.088 570.823 739.519C571.81 735.651 573.118 731.873 574.733 728.222C576.334 724.566 578.234 721.048 580.414 717.703C581.243 716.27 582.252 714.949 583.416 713.772Z" fill="#FAFAFA"/>
<path d="M688.133 671.954C683.974 671.548 679.893 670.552 676.015 668.995C672.015 667.776 668.2 666.018 664.675 663.768C664.826 663.466 669.924 665.669 676.382 667.915C682.841 670.162 688.219 671.63 688.133 671.954Z" fill="#FAFAFA"/>
<path d="M856.613 636.941C851.562 643.836 844.136 648.614 835.769 650.354C839.558 648.653 843.256 646.756 846.85 644.674C850.233 642.263 853.491 639.682 856.613 636.941Z" fill="#EB996E"/>
<path d="M919.879 622.49C908.258 595.706 792.18 500.623 792.18 500.623L726.732 585.598C727.682 584.323 833.501 648.778 833.501 648.778L864.713 791.078L870.091 816.48C870.091 816.48 856.051 828.727 856.634 841.644C857.002 850.284 837.194 868.882 837.194 868.882C832.486 864.972 829.462 863.87 827.086 864.324L806.026 884.045L811.037 888.624C816.624 893.721 823.976 896.441 831.535 896.206L867.542 895.104C872.678 894.955 877.552 892.809 881.129 889.121C892.21 877.738 915.581 852.271 916.034 840.002C916.315 833.134 916.358 826.589 916.337 821.318C916.229 821.254 931.478 649.274 919.879 622.49Z" fill="#FFBE9D"/>
<path d="M885.406 850.046C884.811 850.584 884.132 851.022 883.397 851.342C882.079 852.077 880.049 852.941 877.694 854.237C874.982 855.802 872.586 857.86 870.631 860.306C868.158 863.391 865.247 866.098 861.991 868.342C855.971 872.349 848.824 874.318 841.601 873.958C840.334 873.956 839.078 873.737 837.886 873.31C837.404 873.14 836.983 872.833 836.676 872.426C836.369 872.018 836.188 871.529 836.158 871.02C836.138 870.702 836.196 870.384 836.328 870.094C836.46 869.804 836.661 869.551 836.914 869.357C837.281 869.141 837.518 869.184 837.518 869.206C837.518 869.227 837.324 869.206 837.043 869.53C836.856 869.721 836.718 869.954 836.639 870.209C836.56 870.465 836.543 870.735 836.59 870.998C836.652 871.406 836.829 871.787 837.101 872.097C837.372 872.407 837.727 872.633 838.123 872.748C839.257 873.087 840.44 873.233 841.622 873.18C848.641 873.316 855.535 871.312 861.386 867.434C864.554 865.253 867.397 862.635 869.832 859.658C871.894 857.155 874.425 855.078 877.284 853.546C879.746 852.314 881.798 851.58 883.181 850.954C883.895 850.587 884.639 850.284 885.406 850.046Z" fill="#EB996E"/>
<path d="M868.946 868.795C869.098 869.076 866.117 870.826 862.92 873.547C859.723 876.269 857.477 878.882 857.218 878.688C858.394 876.333 860.111 874.29 862.229 872.726C864.111 870.884 866.418 869.534 868.946 868.795Z" fill="#EB996E"/>
<path d="M883.44 809.849C883.44 810.173 880.265 810.367 876.787 812.009C873.31 813.65 871.106 815.962 870.869 815.724C872.228 813.687 874.116 812.06 876.331 811.017C878.547 809.974 881.004 809.555 883.44 809.806V809.849Z" fill="#EB996E"/>
<path d="M860.976 879.898C860.976 880.092 858.665 878.969 854.777 878.062C848.309 876.464 841.519 876.749 835.207 878.882C834.503 879.148 833.781 879.364 833.047 879.53C832.241 879.678 831.41 879.499 830.736 879.034L825.12 874.8C823.309 873.603 821.61 872.244 820.044 870.739C821.984 871.724 823.841 872.865 825.595 874.152L831.406 878.105C832.334 878.818 833.566 878.278 834.926 877.781C836.341 877.291 837.783 876.887 839.246 876.571C844.473 875.539 849.869 875.761 854.993 877.219C856.53 877.658 858.026 878.229 859.464 878.926C860.479 879.509 861.019 879.833 860.976 879.898Z" fill="#EB996E"/>
<path d="M616.745 549.85C602.899 545.897 596.765 544.19 596.765 544.19V537.84H602.273C607.802 537.84 615.751 530.95 615.751 530.95L627.566 512.87L629.078 501.271C627.826 486.972 610.589 492.631 610.589 492.631C609.768 487.642 587.693 482.63 571.104 479.542C565.548 478.503 559.831 478.713 554.365 480.155C548.9 481.597 543.824 484.235 539.503 487.879L523.584 501.314L475.891 543.024L352.771 647.028L271.836 623.138C271.836 623.138 246.089 701.87 241.92 730.08C233.863 784.274 308.362 820.39 341.28 792.504C366.811 770.904 515.722 610.459 540.389 583.87H540.583C555.703 581.947 581.364 566.59 581.364 566.59L594.518 568.145C594.518 568.145 629.467 574.819 633.614 567.972C636.725 562.68 630.59 553.802 616.745 549.85Z" fill="#FFBE9D"/>
<path d="M545.054 534.125C545.054 534.125 545.4 534.622 545.81 535.637C546.41 537.07 546.887 538.551 547.236 540.065C548.41 545.071 548.601 550.257 547.798 555.336C547.002 560.417 545.211 565.291 542.527 569.678C541.73 571.007 540.819 572.265 539.806 573.437C539.093 574.279 538.661 574.711 538.596 574.646C538.531 574.582 539.978 572.659 541.836 569.29C546.741 560.441 548.384 550.152 546.48 540.216C545.724 536.436 544.86 534.19 545.054 534.125Z" fill="#EB996E"/>
<path d="M553.975 490.018C554.415 489.904 554.863 489.825 555.314 489.78C556.222 489.65 557.474 489.478 559.224 489.326C564.051 488.796 568.924 488.847 573.739 489.478C577.081 489.97 580.333 490.945 583.394 492.372C586.95 493.991 590.089 496.399 592.574 499.414C595.407 502.769 596.974 507.011 597.002 511.402C596.962 513.729 596.378 516.015 595.296 518.076C594.145 520.153 592.689 522.046 590.976 523.692C587.746 526.814 584.207 529.601 580.414 532.008C578.619 533.217 576.718 534.258 574.733 535.118C573.704 535.528 572.599 535.712 571.493 535.658C570.917 535.631 570.354 535.482 569.841 535.221C569.327 534.961 568.874 534.594 568.512 534.146C567.847 533.259 567.518 532.165 567.583 531.058C567.606 530.049 567.788 529.05 568.123 528.098C568.746 526.333 569.595 524.655 570.65 523.109C572.554 520.319 575.103 518.029 578.081 516.434L578.21 517.19L563.479 514.382L559.483 513.562C559.01 513.494 558.546 513.371 558.101 513.194C558.579 513.194 559.056 513.237 559.526 513.324L563.544 513.95L578.34 516.391L579.485 516.586L578.47 517.147C575.645 518.723 573.232 520.943 571.428 523.627C570.43 525.112 569.638 526.725 569.074 528.422C568.706 529.227 568.538 530.109 568.583 530.992C568.628 531.876 568.885 532.735 569.333 533.498C570.001 534.117 570.847 534.508 571.751 534.617C572.655 534.725 573.57 534.546 574.366 534.103C576.273 533.272 578.096 532.26 579.809 531.079C583.535 528.712 587.009 525.968 590.177 522.893C591.828 521.439 593.175 519.674 594.143 517.698C595.11 515.723 595.678 513.576 595.814 511.38C595.795 507.243 594.336 503.241 591.689 500.062C589.307 497.151 586.303 494.811 582.898 493.214C579.931 491.789 576.773 490.799 573.523 490.277C568.776 489.581 563.966 489.407 559.181 489.758L555.25 489.996C554.827 490.057 554.399 490.064 553.975 490.018Z" fill="#EB996E"/>
<path d="M610.762 493.301C610.979 494.06 611.103 494.844 611.129 495.634C611.341 497.787 611.428 499.95 611.388 502.114C611.402 509.277 609.549 516.319 606.01 522.547C601.69 529.783 594.929 534.449 589.334 535.183C588.22 535.336 587.086 535.219 586.026 534.843C584.967 534.467 584.012 533.843 583.243 533.023C582.843 532.568 582.535 532.04 582.336 531.468C582.248 531.279 582.21 531.071 582.228 530.863C582.6 531.532 583.05 532.156 583.567 532.721C584.33 533.402 585.238 533.9 586.223 534.177C587.207 534.454 588.242 534.503 589.248 534.319C594.389 533.477 600.912 528.876 605.038 521.921C608.469 515.836 610.374 509.01 610.589 502.027C610.87 496.649 610.567 493.301 610.762 493.301Z" fill="#EB996E"/>
<path d="M580.198 554.99C580.068 554.839 581.191 553.867 582.53 551.923C584.249 549.424 585.318 546.537 585.641 543.521C585.916 540.494 585.418 537.447 584.194 534.665C583.265 532.505 582.358 531.338 582.509 531.23C583.559 532.038 584.384 533.102 584.906 534.319C586.429 537.17 587.075 540.407 586.764 543.623C586.453 546.84 585.198 549.893 583.157 552.398C582.4 553.494 581.383 554.384 580.198 554.99Z" fill="#EB996E"/>
<path d="M559.202 514.08C559.981 515.527 560.226 517.201 559.894 518.81C559.755 520.584 559.24 522.307 558.382 523.865C557.403 525.767 556.168 527.526 554.71 529.092C551.963 531.835 548.654 533.95 545.011 535.291C543.578 535.987 542.06 536.495 540.497 536.803C541.808 535.929 543.214 535.204 544.687 534.643C548.108 533.129 551.226 531.006 553.889 528.379C555.285 526.878 556.489 525.209 557.474 523.411C558.317 521.984 558.874 520.407 559.116 518.767C559.307 517.212 559.335 515.641 559.202 514.08Z" fill="#EB996E"/>
<path d="M651.046 520.43L590.285 553.543C590.285 553.543 622.793 561.6 652.32 592.812C668.372 609.813 680.935 629.795 689.299 651.629L749.779 611.366C749.779 611.366 717.228 537.624 651.046 520.43Z" fill="#455A64"/>
<path d="M600.998 552.312L650.052 524.232H650.203H650.354C659.028 526.568 667.368 530.001 675.173 534.449C684.042 539.58 692.315 545.68 699.84 552.636C708.184 560.288 715.831 568.666 722.693 577.67C730.133 587.272 736.731 597.498 742.414 608.234L742.651 608.688L742.219 608.969L739.044 611.129L692.345 642.341L691.783 642.708L691.546 642.103C684.943 625.764 675.866 610.538 664.632 596.959C655.706 586.316 645.381 576.928 633.938 569.052C626.474 563.873 618.515 559.445 610.178 555.833C607.241 554.58 604.951 553.673 603.374 553.176L601.603 552.571L600.998 552.355L601.625 552.485L603.439 553.003C605.038 553.5 607.349 554.299 610.308 555.487C618.765 558.971 626.843 563.314 634.414 568.447C645.972 576.282 656.401 585.664 665.41 596.333C676.769 609.957 685.95 625.258 692.626 641.693L691.826 641.455L738.504 610.2L741.679 608.04L741.485 608.753C735.838 598.084 729.291 587.917 721.915 578.362C715.106 569.4 707.516 561.058 699.235 553.435C691.753 546.507 683.531 540.423 674.719 535.291C667 530.84 658.748 527.385 650.16 525.01H650.462L600.998 552.312Z" fill="white"/>
<path d="M700.466 572.27C698.868 581.623 687.031 587.282 674.006 584.906C660.982 582.53 651.672 573.026 653.27 563.674C654.869 554.321 666.706 548.662 679.73 551.038C692.755 553.414 702 562.918 700.466 572.27Z" fill="#FAFAFA"/>
<path d="M672.149 575.273L669.989 577.606L667.57 575.251L669.6 573.091C667.861 571.266 666.6 569.041 665.928 566.611L670.01 564.84C670.555 567.098 671.714 569.161 673.358 570.802C675.022 572.422 676.102 572.551 676.728 571.86C678.888 569.527 669.276 563.414 674.201 557.971C676.361 555.682 679.644 555.271 683.273 557.971L685.433 555.682L687.852 558.036L685.8 560.196C687.163 561.7 688.18 563.484 688.781 565.423L684.763 567.302C684.224 565.444 683.237 563.746 681.89 562.356C680.206 560.736 679.061 560.736 678.413 561.449C676.382 563.609 685.908 569.808 681.026 575.208C679.018 577.433 675.734 577.865 672.149 575.273Z" fill="#455A64"/>
<path d="M614.866 544.514C614.866 544.514 625.169 549.742 615.276 557.474L600.156 551.599L614.866 544.514Z" fill="#FAFAFA"/>
<path d="M642.535 528.962C642.535 528.962 652.471 539.46 661.975 528.53L650.268 524.621L642.535 528.962Z" fill="#FAFAFA"/>
<path d="M685.886 628.063C685.886 628.063 699.257 617.263 707.054 631.865L692.129 641.844L685.886 628.063Z" fill="#FAFAFA"/>
<path d="M735.221 596.592C735.221 596.592 725.566 602.64 732.11 615.103L742.003 608.494L735.221 596.592Z" fill="#FAFAFA"/>
<path d="M699.43 631.627C699.404 632.425 699.144 633.198 698.682 633.849C698.219 634.5 697.575 635 696.83 635.287C696.085 635.574 695.272 635.635 694.492 635.462C693.713 635.289 693.001 634.891 692.447 634.316C691.893 633.741 691.521 633.015 691.377 632.23C691.233 631.445 691.323 630.634 691.637 629.9C691.952 629.166 692.475 628.541 693.143 628.103C693.81 627.665 694.592 627.433 695.39 627.437C695.931 627.445 696.465 627.56 696.961 627.776C697.457 627.991 697.906 628.303 698.281 628.692C698.657 629.082 698.951 629.541 699.148 630.045C699.346 630.549 699.441 631.086 699.43 631.627Z" fill="#455A64"/>
<path d="M739.951 605.858C739.922 606.65 739.66 607.416 739.198 608.06C738.737 608.704 738.096 609.198 737.356 609.481C736.616 609.763 735.809 609.822 735.035 609.65C734.262 609.477 733.557 609.081 733.007 608.51C732.457 607.94 732.087 607.22 731.943 606.441C731.799 605.662 731.887 604.858 732.197 604.129C732.507 603.399 733.024 602.777 733.684 602.34C734.345 601.902 735.12 601.669 735.912 601.668C736.453 601.676 736.987 601.792 737.483 602.007C737.979 602.223 738.428 602.534 738.803 602.923C739.178 603.313 739.473 603.773 739.67 604.276C739.867 604.78 739.963 605.318 739.951 605.858Z" fill="#455A64"/>
<path d="M656.489 528.552C656.489 530.042 654.329 531.252 651.845 531.252C649.361 531.252 647.222 530.042 647.222 528.552C647.222 527.062 649.382 525.852 651.866 525.852C654.35 525.852 656.489 527.04 656.489 528.552Z" fill="#455A64"/>
<path d="M617.004 550.951C617.214 551.881 617.131 552.853 616.764 553.734C616.398 554.614 615.768 555.359 614.96 555.865C614.152 556.371 613.207 556.614 612.255 556.56C611.303 556.506 610.392 556.157 609.647 555.562C608.902 554.968 608.36 554.156 608.096 553.24C607.832 552.324 607.859 551.349 608.173 550.449C608.488 549.549 609.074 548.769 609.851 548.216C610.628 547.664 611.558 547.367 612.511 547.366C613.579 547.261 614.646 547.578 615.485 548.247C616.324 548.917 616.869 549.887 617.004 550.951Z" fill="#455A64"/>
<path d="M654.242 548.64C654.242 550.93 651.391 552.787 647.87 552.787C644.35 552.787 641.52 550.994 641.52 548.64C641.52 546.286 644.371 544.493 647.892 544.493C651.413 544.493 654.242 546.48 654.242 548.64Z" fill="#FAFAFA"/>
<path d="M705.413 604.195C702.54 605.513 698.933 603.698 697.507 600.156C696.715 598.652 696.532 596.9 696.994 595.264C697.456 593.628 698.529 592.232 699.991 591.365C702.864 590.047 706.471 591.862 707.897 595.426C708.688 596.927 708.871 598.675 708.408 600.307C707.946 601.939 706.873 603.332 705.413 604.195Z" fill="#FAFAFA"/>
<path d="M615.773 530.95L640.721 557.28C640.721 557.28 650.7 568.706 657.418 563.306C664.135 557.906 654.696 547.841 652.709 544.903C650.722 541.966 626.27 512.309 626.27 512.309L615.773 530.95Z" fill="#FFBE9D"/>
<path d="M628.56 507.276C628.462 508.835 628.134 510.371 627.588 511.834C626.559 515.44 625.109 518.913 623.268 522.18C621.388 525.468 618.989 528.429 616.162 530.95C615.05 532.053 613.747 532.946 612.317 533.585C613.353 532.447 614.457 531.372 615.622 530.366C618.201 527.779 620.444 524.876 622.296 521.726C626.594 514.08 628.258 507.146 628.56 507.276Z" fill="#EB996E"/>
<path d="M396.533 610.049C396.183 610.468 395.792 610.852 395.366 611.194L391.889 614.304L378.929 625.558C367.934 634.997 352.663 647.978 335.729 662.126C318.794 676.274 303.048 689.04 291.6 697.853C285.898 702.346 281.21 705.866 277.927 708.286L274.126 710.986C273.703 711.326 273.247 711.623 272.765 711.871C273.15 711.49 273.561 711.136 273.996 710.813L277.668 707.918C280.865 705.413 285.466 701.806 291.103 697.248C302.4 688.154 317.866 675.41 334.886 661.262C351.907 647.114 367.157 634.306 378.389 624.953L391.586 613.958L395.215 611.021C395.624 610.658 396.065 610.332 396.533 610.049Z" fill="#EB996E"/>
</svg>
