<?xml version="1.0" standalone="no"?>
<!DOCTYPE svg PUBLIC "-//W3C//DTD SVG 20010904//EN"
 "http://www.w3.org/TR/2001/REC-SVG-20010904/DTD/svg10.dtd">
<svg version="1.0" xmlns="http://www.w3.org/2000/svg"
 width="512.000000pt" height="512.000000pt" viewBox="0 0 512.000000 512.000000"
 preserveAspectRatio="xMidYMid meet">

<g transform="translate(0.000000,512.000000) scale(0.100000,-0.100000)"
fill="#000000" stroke="none">
<path d="M2789 4207 c-255 -96 -308 -427 -96 -596 24 -18 77 -42 140 -61 307
-95 530 -288 661 -571 151 -327 118 -687 -93 -1003 -198 -298 -594 -480 -951
-437 -135 17 -201 36 -319 92 -123 58 -209 118 -312 216 -98 94 -148 117 -254
117 -66 0 -90 -4 -137 -26 -139 -64 -225 -223 -199 -364 16 -87 37 -123 124
-211 248 -256 603 -437 959 -489 156 -23 442 -15 582 15 419 90 786 326 1041
668 127 171 253 460 302 693 28 135 26 477 -5 627 -106 523 -430 955 -892
1193 -245 125 -448 175 -551 137z"/>
</g>
</svg>
