<?xml version="1.0" encoding="UTF-8"?>
<svg version="1.1" xmlns="http://www.w3.org/2000/svg" width="1000" height="1000">
<path d="M0 0 C3.00729364 0.00538371 6.01443922 0.00000457 9.02172852 -0.00634766 C38.51628886 -0.01785655 38.51628886 -0.01785655 42.81274414 2.13037109 C45.35889423 2.36209936 47.88670639 2.54931639 50.43774414 2.69287109 C51.14415039 2.73605469 51.85055664 2.77923828 52.57836914 2.82373047 C54.32292951 2.9298186 56.06781111 3.03059998 57.81274414 3.13037109 C57.81274414 3.79037109 57.81274414 4.45037109 57.81274414 5.13037109 C58.64805664 5.11296875 58.64805664 5.11296875 59.50024414 5.09521484 C64.71052757 5.03360676 69.65653924 5.38037765 74.81274414 6.13037109 C74.81274414 6.79037109 74.81274414 7.45037109 74.81274414 8.13037109 C75.86461914 8.06849609 76.91649414 8.00662109 78.00024414 7.94287109 C84.10961537 7.90984747 89.93203481 9.62433578 95.81274414 11.13037109 C95.81274414 11.79037109 95.81274414 12.45037109 95.81274414 13.13037109 C100.10274414 13.46037109 104.39274414 13.79037109 108.81274414 14.13037109 C108.81274414 14.79037109 108.81274414 15.45037109 108.81274414 16.13037109 C110.00899414 16.25412109 111.20524414 16.37787109 112.43774414 16.50537109 C116.08871227 16.95362163 119.35799313 17.83483946 122.81274414 19.13037109 C122.81274414 19.79037109 122.81274414 20.45037109 122.81274414 21.13037109 C126.11274414 21.46037109 129.41274414 21.79037109 132.81274414 22.13037109 C132.81274414 22.79037109 132.81274414 23.45037109 132.81274414 24.13037109 C134.35961914 24.31599609 134.35961914 24.31599609 135.93774414 24.50537109 C139.4339126 25.06926923 142.49672041 25.91719168 145.81274414 27.13037109 C145.81274414 27.79037109 145.81274414 28.45037109 145.81274414 29.13037109 C146.76149414 29.19224609 147.71024414 29.25412109 148.68774414 29.31787109 C153.88401663 30.02208872 158.26545789 32.65086491 162.81274414 35.13037109 C162.81274414 35.79037109 162.81274414 36.45037109 162.81274414 37.13037109 C166.77274414 37.62537109 166.77274414 37.62537109 170.81274414 38.13037109 C170.81274414 38.79037109 170.81274414 39.45037109 170.81274414 40.13037109 C171.53461914 40.25412109 172.25649414 40.37787109 173.00024414 40.50537109 C175.76996309 41.12086419 178.20977954 42.01481484 180.81274414 43.13037109 C180.81274414 43.79037109 180.81274414 44.45037109 180.81274414 45.13037109 C182.79274414 45.46037109 184.77274414 45.79037109 186.81274414 46.13037109 C186.81274414 46.79037109 186.81274414 47.45037109 186.81274414 48.13037109 C189.28774414 48.62537109 189.28774414 48.62537109 191.81274414 49.13037109 C191.81274414 49.79037109 191.81274414 50.45037109 191.81274414 51.13037109 C192.80274414 51.13037109 193.79274414 51.13037109 194.81274414 51.13037109 C194.81274414 51.79037109 194.81274414 52.45037109 194.81274414 53.13037109 C197.28774414 53.62537109 197.28774414 53.62537109 199.81274414 54.13037109 C199.81274414 54.79037109 199.81274414 55.45037109 199.81274414 56.13037109 C200.57586914 56.25412109 201.33899414 56.37787109 202.12524414 56.50537109 C204.81274414 57.13037109 204.81274414 57.13037109 207.81274414 59.13037109 C207.81274414 59.79037109 207.81274414 60.45037109 207.81274414 61.13037109 C210.28774414 61.62537109 210.28774414 61.62537109 212.81274414 62.13037109 C212.81274414 62.79037109 212.81274414 63.45037109 212.81274414 64.13037109 C213.67899414 64.31599609 213.67899414 64.31599609 214.56274414 64.50537109 C216.83610181 65.13685933 218.73809704 66.018953 220.81274414 67.13037109 C220.81274414 67.79037109 220.81274414 68.45037109 220.81274414 69.13037109 C221.57586914 69.23349609 222.33899414 69.33662109 223.12524414 69.44287109 C226.06168767 70.19405432 226.86186913 70.91346768 228.81274414 73.13037109 C229.80274414 73.79037109 230.79274414 74.45037109 231.81274414 75.13037109 C231.81274414 75.79037109 231.81274414 76.45037109 231.81274414 77.13037109 C234.28774414 77.62537109 234.28774414 77.62537109 236.81274414 78.13037109 C236.81274414 78.79037109 236.81274414 79.45037109 236.81274414 80.13037109 C237.80274414 80.46037109 238.79274414 80.79037109 239.81274414 81.13037109 C239.81274414 81.79037109 239.81274414 82.45037109 239.81274414 83.13037109 C240.80274414 83.13037109 241.79274414 83.13037109 242.81274414 83.13037109 C242.81274414 83.79037109 242.81274414 84.45037109 242.81274414 85.13037109 C243.39024414 85.21287109 243.96774414 85.29537109 244.56274414 85.38037109 C247.43528584 86.33788499 248.76363515 87.94465484 250.81274414 90.13037109 C251.47274414 90.46037109 252.13274414 90.79037109 252.81274414 91.13037109 C252.81274414 91.79037109 252.81274414 92.45037109 252.81274414 93.13037109 C253.80274414 93.46037109 254.79274414 93.79037109 255.81274414 94.13037109 C255.81274414 94.79037109 255.81274414 95.45037109 255.81274414 96.13037109 C256.80274414 96.46037109 257.79274414 96.79037109 258.81274414 97.13037109 C258.81274414 97.79037109 258.81274414 98.45037109 258.81274414 99.13037109 C259.64805664 99.22318359 259.64805664 99.22318359 260.50024414 99.31787109 C263.78547356 100.47214089 265.42054714 102.62425995 267.81274414 105.13037109 C268.84232791 106.01955708 269.88415403 106.89476531 270.93774414 107.75537109 C275.28082925 111.34313705 275.28082925 111.34313705 276.81274414 113.13037109 C276.81274414 113.79037109 276.81274414 114.45037109 276.81274414 115.13037109 C277.47274414 115.13037109 278.13274414 115.13037109 278.81274414 115.13037109 C280.14477539 116.52099609 280.14477539 116.52099609 281.62524414 118.38037109 C283.5567099 120.73316149 285.19362006 122.42660792 287.62524414 124.31787109 C290.05892956 126.3343533 290.19941491 127.16594646 290.81274414 130.13037109 C291.80274414 130.46037109 292.79274414 130.79037109 293.81274414 131.13037109 C295.00024414 133.69287109 295.00024414 133.69287109 295.81274414 136.13037109 C296.47274414 136.13037109 297.13274414 136.13037109 297.81274414 136.13037109 C299.41908429 137.86429061 300.95027284 139.66846209 302.43774414 141.50537109 C303.25500977 142.50310547 304.07227539 143.50083984 304.91430664 144.52880859 C306.81274414 147.13037109 306.81274414 147.13037109 306.81274414 149.13037109 C307.47274414 149.13037109 308.13274414 149.13037109 308.81274414 149.13037109 C308.81274414 150.12037109 308.81274414 151.11037109 308.81274414 152.13037109 C309.47274414 152.13037109 310.13274414 152.13037109 310.81274414 152.13037109 C313.14113764 153.89995016 313.76563221 154.94620626 314.50024414 157.81787109 C314.65493164 158.96255859 314.65493164 158.96255859 314.81274414 160.13037109 C315.47274414 160.13037109 316.13274414 160.13037109 316.81274414 160.13037109 C316.81274414 160.79037109 316.81274414 161.45037109 316.81274414 162.13037109 C317.47274414 162.13037109 318.13274414 162.13037109 318.81274414 162.13037109 C319.14274414 163.12037109 319.47274414 164.11037109 319.81274414 165.13037109 C320.47274414 165.46037109 321.13274414 165.79037109 321.81274414 166.13037109 C322.43774414 168.69287109 322.43774414 168.69287109 322.81274414 171.13037109 C323.47274414 171.13037109 324.13274414 171.13037109 324.81274414 171.13037109 C324.81274414 172.12037109 324.81274414 173.11037109 324.81274414 174.13037109 C325.47274414 174.13037109 326.13274414 174.13037109 326.81274414 174.13037109 C327.14274414 175.78037109 327.47274414 177.43037109 327.81274414 179.13037109 C328.47274414 179.13037109 329.13274414 179.13037109 329.81274414 179.13037109 C330.14274414 180.78037109 330.47274414 182.43037109 330.81274414 184.13037109 C331.47274414 184.13037109 332.13274414 184.13037109 332.81274414 184.13037109 C334.85443899 187.03585992 335.81274414 188.53179155 335.81274414 192.13037109 C336.47274414 192.13037109 337.13274414 192.13037109 337.81274414 192.13037109 C338.14274414 193.78037109 338.47274414 195.43037109 338.81274414 197.13037109 C339.47274414 197.13037109 340.13274414 197.13037109 340.81274414 197.13037109 C340.81274414 198.12037109 340.81274414 199.11037109 340.81274414 200.13037109 C341.47274414 200.13037109 342.13274414 200.13037109 342.81274414 200.13037109 C343.14274414 202.11037109 343.47274414 204.09037109 343.81274414 206.13037109 C344.47274414 206.13037109 345.13274414 206.13037109 345.81274414 206.13037109 C346.14274414 208.44037109 346.47274414 210.75037109 346.81274414 213.13037109 C347.47274414 213.13037109 348.13274414 213.13037109 348.81274414 213.13037109 C348.81274414 214.12037109 348.81274414 215.11037109 348.81274414 216.13037109 C349.47274414 216.13037109 350.13274414 216.13037109 350.81274414 216.13037109 C351.14274414 218.11037109 351.47274414 220.09037109 351.81274414 222.13037109 C352.47274414 222.13037109 353.13274414 222.13037109 353.81274414 222.13037109 C354.14274414 224.44037109 354.47274414 226.75037109 354.81274414 229.13037109 C355.47274414 229.13037109 356.13274414 229.13037109 356.81274414 229.13037109 C357.31889712 230.39876635 357.81743513 231.67020211 358.31274414 232.94287109 C358.73040039 234.00441406 358.73040039 234.00441406 359.15649414 235.08740234 C359.81274414 237.13037109 359.81274414 237.13037109 359.81274414 240.13037109 C360.47274414 240.13037109 361.13274414 240.13037109 361.81274414 240.13037109 C362.14274414 242.77037109 362.47274414 245.41037109 362.81274414 248.13037109 C363.47274414 248.13037109 364.13274414 248.13037109 364.81274414 248.13037109 C364.81274414 249.78037109 364.81274414 251.43037109 364.81274414 253.13037109 C365.47274414 253.13037109 366.13274414 253.13037109 366.81274414 253.13037109 C367.14274414 255.77037109 367.47274414 258.41037109 367.81274414 261.13037109 C368.47274414 261.13037109 369.13274414 261.13037109 369.81274414 261.13037109 C370.14274414 264.10037109 370.47274414 267.07037109 370.81274414 270.13037109 C371.47274414 270.13037109 372.13274414 270.13037109 372.81274414 270.13037109 C372.81274414 272.44037109 372.81274414 274.75037109 372.81274414 277.13037109 C373.47274414 277.13037109 374.13274414 277.13037109 374.81274414 277.13037109 C375.14274414 280.76037109 375.47274414 284.39037109 375.81274414 288.13037109 C376.47274414 288.13037109 377.13274414 288.13037109 377.81274414 288.13037109 C378.14274414 292.42037109 378.47274414 296.71037109 378.81274414 301.13037109 C379.47274414 301.13037109 380.13274414 301.13037109 380.81274414 301.13037109 C382.77103708 309.21998596 384.331919 316.78511588 383.81274414 325.13037109 C384.47274414 325.13037109 385.13274414 325.13037109 385.81274414 325.13037109 C386.93788047 333.14696743 386.90853798 341.05175695 386.81274414 349.13037109 C387.47274414 349.13037109 388.13274414 349.13037109 388.81274414 349.13037109 C388.83780029 349.69546387 388.86285645 350.26055664 388.88867188 350.84277344 C389.0045437 353.39720852 389.12730951 355.95126659 389.25024414 358.50537109 C389.28956055 359.39482422 389.32887695 360.28427734 389.36938477 361.20068359 C389.4112793 362.05146484 389.45317383 362.90224609 389.49633789 363.77880859 C389.55132446 364.95709229 389.55132446 364.95709229 389.60742188 366.15917969 C389.70363514 368.20560605 389.70363514 368.20560605 390.81274414 370.13037109 C390.90703624 371.53933666 390.94068186 372.95262966 390.94213867 374.36474609 C390.94686691 375.67620605 390.94686691 375.67620605 390.95169067 377.01416016 C390.94966644 377.96000977 390.94764221 378.90585937 390.94555664 379.88037109 C390.94651337 380.84942383 390.94747009 381.81847656 390.94845581 382.81689453 C390.94913704 384.86800196 390.94728675 386.91911154 390.94311523 388.97021484 C390.93776619 392.11739932 390.94306218 395.26444108 390.94946289 398.41162109 C390.9488021 400.40120474 390.94752092 402.3907883 390.94555664 404.38037109 C390.94758087 405.3262207 390.9496051 406.27207031 390.95169067 407.24658203 C390.94853851 408.12088867 390.94538635 408.99519531 390.94213867 409.89599609 C390.94094528 411.05276855 390.94094528 411.05276855 390.93972778 412.23291016 C390.81274414 414.13037109 390.81274414 414.13037109 389.81274414 416.13037109 C389.58000205 419.00947697 389.39301657 421.87183605 389.25024414 424.75537109 C389.18546875 425.95806641 389.18546875 425.95806641 389.11938477 427.18505859 C389.01322957 429.1666222 388.91247559 431.1484738 388.81274414 433.13037109 C388.15274414 433.13037109 387.49274414 433.13037109 386.81274414 433.13037109 C386.83014648 434.34660156 386.83014648 434.34660156 386.84790039 435.58740234 C386.90696956 442.83603283 386.62117293 449.9266931 385.81274414 457.13037109 C385.15274414 457.13037109 384.49274414 457.13037109 383.81274414 457.13037109 C383.48274414 462.41037109 383.15274414 467.69037109 382.81274414 473.13037109 C382.15274414 473.13037109 381.49274414 473.13037109 380.81274414 473.13037109 C380.81274414 475.44037109 380.81274414 477.75037109 380.81274414 480.13037109 C380.15274414 480.13037109 379.49274414 480.13037109 378.81274414 480.13037109 C378.48274414 484.42037109 378.15274414 488.71037109 377.81274414 493.13037109 C377.15274414 493.13037109 376.49274414 493.13037109 375.81274414 493.13037109 C375.48274414 496.76037109 375.15274414 500.39037109 374.81274414 504.13037109 C374.15274414 504.13037109 373.49274414 504.13037109 372.81274414 504.13037109 C372.81274414 506.11037109 372.81274414 508.09037109 372.81274414 510.13037109 C372.15274414 510.13037109 371.49274414 510.13037109 370.81274414 510.13037109 C370.48274414 512.77037109 370.15274414 515.41037109 369.81274414 518.13037109 C369.15274414 518.13037109 368.49274414 518.13037109 367.81274414 518.13037109 C367.48274414 521.43037109 367.15274414 524.73037109 366.81274414 528.13037109 C366.15274414 528.13037109 365.49274414 528.13037109 364.81274414 528.13037109 C364.7005957 528.80455078 364.58844727 529.47873047 364.47290039 530.17333984 C363.68353913 533.70911781 362.49774566 537.04980675 361.25024414 540.44287109 C361.0162793 541.08804688 360.78231445 541.73322266 360.54125977 542.39794922 C359.96827407 543.97658328 359.3909495 545.55364135 358.81274414 547.13037109 C358.15274414 547.13037109 357.49274414 547.13037109 356.81274414 547.13037109 C356.81274414 548.12037109 356.81274414 549.11037109 356.81274414 550.13037109 C356.15274414 550.13037109 355.49274414 550.13037109 354.81274414 550.13037109 C354.48274414 552.77037109 354.15274414 555.41037109 353.81274414 558.13037109 C353.15274414 558.13037109 352.49274414 558.13037109 351.81274414 558.13037109 C351.68899414 559.03787109 351.56524414 559.94537109 351.43774414 560.88037109 C350.89164737 563.72007432 350.24010611 565.65627701 348.81274414 568.13037109 C348.15274414 568.13037109 347.49274414 568.13037109 346.81274414 568.13037109 C346.48274414 570.11037109 346.15274414 572.09037109 345.81274414 574.13037109 C345.15274414 574.13037109 344.49274414 574.13037109 343.81274414 574.13037109 C343.48274414 575.78037109 343.15274414 577.43037109 342.81274414 579.13037109 C342.15274414 579.13037109 341.49274414 579.13037109 340.81274414 579.13037109 C340.81274414 580.12037109 340.81274414 581.11037109 340.81274414 582.13037109 C340.15274414 582.13037109 339.49274414 582.13037109 338.81274414 582.13037109 C338.68899414 583.26474609 338.56524414 584.39912109 338.43774414 585.56787109 C338.23149414 586.74349609 338.02524414 587.91912109 337.81274414 589.13037109 C337.15274414 589.46037109 336.49274414 589.79037109 335.81274414 590.13037109 C335.48274414 591.12037109 335.15274414 592.11037109 334.81274414 593.13037109 C334.15274414 593.13037109 333.49274414 593.13037109 332.81274414 593.13037109 C332.68899414 593.70787109 332.56524414 594.28537109 332.43774414 594.88037109 C331.8062559 597.15372876 330.92416223 599.05572399 329.81274414 601.13037109 C329.15274414 601.13037109 328.49274414 601.13037109 327.81274414 601.13037109 C327.48274414 602.78037109 327.15274414 604.43037109 326.81274414 606.13037109 C326.15274414 606.13037109 325.49274414 606.13037109 324.81274414 606.13037109 C324.81274414 606.79037109 324.81274414 607.45037109 324.81274414 608.13037109 C324.15274414 608.13037109 323.49274414 608.13037109 322.81274414 608.13037109 C322.48274414 609.78037109 322.15274414 611.43037109 321.81274414 613.13037109 C321.15274414 613.13037109 320.49274414 613.13037109 319.81274414 613.13037109 C319.48274414 614.45037109 319.15274414 615.77037109 318.81274414 617.13037109 C318.15274414 617.13037109 317.49274414 617.13037109 316.81274414 617.13037109 C316.81274414 617.79037109 316.81274414 618.45037109 316.81274414 619.13037109 C316.15274414 619.13037109 315.49274414 619.13037109 314.81274414 619.13037109 C314.68899414 619.93474609 314.56524414 620.73912109 314.43774414 621.56787109 C314.23149414 622.41349609 314.02524414 623.25912109 313.81274414 624.13037109 C313.15274414 624.46037109 312.49274414 624.79037109 311.81274414 625.13037109 C311.31774414 625.97599609 310.82274414 626.82162109 310.31274414 627.69287109 C309.81774414 628.49724609 309.32274414 629.30162109 308.81274414 630.13037109 C308.15274414 630.13037109 307.49274414 630.13037109 306.81274414 630.13037109 C306.48274414 631.78037109 306.15274414 633.43037109 305.81274414 635.13037109 C305.15274414 635.13037109 304.49274414 635.13037109 303.81274414 635.13037109 C303.48274414 636.12037109 303.15274414 637.11037109 302.81274414 638.13037109 C302.15274414 638.13037109 301.49274414 638.13037109 300.81274414 638.13037109 C300.81274414 638.79037109 300.81274414 639.45037109 300.81274414 640.13037109 C300.15274414 640.46037109 299.49274414 640.79037109 298.81274414 641.13037109 C298.19399414 642.28537109 297.57524414 643.44037109 296.93774414 644.63037109 C295.09866305 648.01123822 295.09866305 648.01123822 292.56274414 649.06787109 C291.69649414 649.09880859 291.69649414 649.09880859 290.81274414 649.13037109 C290.75086914 649.70787109 290.68899414 650.28537109 290.62524414 650.88037109 C289.4789024 654.05485593 287.55317572 655.25885685 284.81274414 657.13037109 C284.15274414 657.13037109 283.49274414 657.13037109 282.81274414 657.13037109 C282.48274414 658.45037109 282.15274414 659.77037109 281.81274414 661.13037109 C281.15274414 661.13037109 280.49274414 661.13037109 279.81274414 661.13037109 C279.81274414 662.12037109 279.81274414 663.11037109 279.81274414 664.13037109 C278.43774414 665.81787109 278.43774414 665.81787109 276.81274414 667.13037109 C276.15274414 667.13037109 275.49274414 667.13037109 274.81274414 667.13037109 C274.48274414 668.12037109 274.15274414 669.11037109 273.81274414 670.13037109 C272.82274414 670.13037109 271.83274414 670.13037109 270.81274414 670.13037109 C270.81274414 670.79037109 270.81274414 671.45037109 270.81274414 672.13037109 C269.49274414 672.46037109 268.17274414 672.79037109 266.81274414 673.13037109 C266.75086914 673.70787109 266.68899414 674.28537109 266.62524414 674.88037109 C265.4789024 678.05485593 263.55317572 679.25885685 260.81274414 681.13037109 C260.15274414 681.13037109 259.49274414 681.13037109 258.81274414 681.13037109 C258.48274414 682.45037109 258.15274414 683.77037109 257.81274414 685.13037109 C256.16274414 685.46037109 254.51274414 685.79037109 252.81274414 686.13037109 C252.81274414 686.79037109 252.81274414 687.45037109 252.81274414 688.13037109 C251.43774414 689.75537109 251.43774414 689.75537109 249.81274414 691.13037109 C249.15274414 691.13037109 248.49274414 691.13037109 247.81274414 691.13037109 C247.81274414 691.79037109 247.81274414 692.45037109 247.81274414 693.13037109 C246.16274414 693.46037109 244.51274414 693.79037109 242.81274414 694.13037109 C242.48274414 695.12037109 242.15274414 696.11037109 241.81274414 697.13037109 C241.15274414 697.13037109 240.49274414 697.13037109 239.81274414 697.13037109 C239.81274414 697.79037109 239.81274414 698.45037109 239.81274414 699.13037109 C238.82274414 699.13037109 237.83274414 699.13037109 236.81274414 699.13037109 C236.81274414 699.79037109 236.81274414 700.45037109 236.81274414 701.13037109 C235.16274414 701.46037109 233.51274414 701.79037109 231.81274414 702.13037109 C231.48274414 703.12037109 231.15274414 704.11037109 230.81274414 705.13037109 C230.15274414 705.13037109 229.49274414 705.13037109 228.81274414 705.13037109 C228.81274414 705.79037109 228.81274414 706.45037109 228.81274414 707.13037109 C227.82274414 707.13037109 226.83274414 707.13037109 225.81274414 707.13037109 C225.81274414 707.79037109 225.81274414 708.45037109 225.81274414 709.13037109 C224.49274414 709.46037109 223.17274414 709.79037109 221.81274414 710.13037109 C221.81274414 710.79037109 221.81274414 711.45037109 221.81274414 712.13037109 C220.82274414 712.46037109 219.83274414 712.79037109 218.81274414 713.13037109 C218.48274414 713.79037109 218.15274414 714.45037109 217.81274414 715.13037109 C214.87569958 717.1399279 213.42051929 718.13037109 209.81274414 718.13037109 C209.81274414 718.79037109 209.81274414 719.45037109 209.81274414 720.13037109 C208.16274414 720.46037109 206.51274414 720.79037109 204.81274414 721.13037109 C204.81274414 721.79037109 204.81274414 722.45037109 204.81274414 723.13037109 C203.82274414 723.13037109 202.83274414 723.13037109 201.81274414 723.13037109 C201.81274414 723.79037109 201.81274414 724.45037109 201.81274414 725.13037109 C200.16274414 725.46037109 198.51274414 725.79037109 196.81274414 726.13037109 C196.81274414 726.79037109 196.81274414 727.45037109 196.81274414 728.13037109 C194.83274414 728.46037109 192.85274414 728.79037109 190.81274414 729.13037109 C190.81274414 729.79037109 190.81274414 730.45037109 190.81274414 731.13037109 C189.49274414 731.13037109 188.17274414 731.13037109 186.81274414 731.13037109 C186.81274414 731.79037109 186.81274414 732.45037109 186.81274414 733.13037109 C184.83274414 733.46037109 182.85274414 733.79037109 180.81274414 734.13037109 C180.81274414 734.79037109 180.81274414 735.45037109 180.81274414 736.13037109 C178.83274414 736.46037109 176.85274414 736.79037109 174.81274414 737.13037109 C174.81274414 737.79037109 174.81274414 738.45037109 174.81274414 739.13037109 C173.49274414 739.13037109 172.17274414 739.13037109 170.81274414 739.13037109 C170.81274414 739.79037109 170.81274414 740.45037109 170.81274414 741.13037109 C168.83274414 741.46037109 166.85274414 741.79037109 164.81274414 742.13037109 C164.81274414 742.79037109 164.81274414 743.45037109 164.81274414 744.13037109 C158.31274414 747.13037109 158.31274414 747.13037109 153.81274414 747.13037109 C153.81274414 747.79037109 153.81274414 748.45037109 153.81274414 749.13037109 C151.17274414 749.46037109 148.53274414 749.79037109 145.81274414 750.13037109 C145.81274414 750.79037109 145.81274414 751.45037109 145.81274414 752.13037109 C143.17274414 752.46037109 140.53274414 752.79037109 137.81274414 753.13037109 C137.81274414 753.79037109 137.81274414 754.45037109 137.81274414 755.13037109 C136.16274414 755.13037109 134.51274414 755.13037109 132.81274414 755.13037109 C132.81274414 755.79037109 132.81274414 756.45037109 132.81274414 757.13037109 C130.17274414 757.46037109 127.53274414 757.79037109 124.81274414 758.13037109 C124.81274414 758.79037109 124.81274414 759.45037109 124.81274414 760.13037109 C121.18274414 760.46037109 117.55274414 760.79037109 113.81274414 761.13037109 C113.81274414 761.79037109 113.81274414 762.45037109 113.81274414 763.13037109 C112.16274414 763.13037109 110.51274414 763.13037109 108.81274414 763.13037109 C108.81274414 763.79037109 108.81274414 764.45037109 108.81274414 765.13037109 C105.18274414 765.46037109 101.55274414 765.79037109 97.81274414 766.13037109 C97.81274414 766.79037109 97.81274414 767.45037109 97.81274414 768.13037109 C93.52274414 768.46037109 89.23274414 768.79037109 84.81274414 769.13037109 C84.81274414 769.79037109 84.81274414 770.45037109 84.81274414 771.13037109 C81.51274414 771.13037109 78.21274414 771.13037109 74.81274414 771.13037109 C74.81274414 771.79037109 74.81274414 772.45037109 74.81274414 773.13037109 C68.43915703 774.09242198 62.25344885 774.23692687 55.81274414 774.13037109 C55.81274414 774.79037109 55.81274414 775.45037109 55.81274414 776.13037109 C47.89280284 777.00532288 40.08931284 777.25627152 32.12524414 777.19287109 C31.03018555 777.18835938 29.93512695 777.18384766 28.80688477 777.17919922 C26.14211106 777.16756265 23.47745897 777.15121674 20.81274414 777.13037109 C20.81274414 777.79037109 20.81274414 778.45037109 20.81274414 779.13037109 C6.62274414 779.13037109 -7.56725586 779.13037109 -22.18725586 779.13037109 C-22.18725586 778.47037109 -22.18725586 777.81037109 -22.18725586 777.13037109 C-24.01836914 777.14777344 -24.01836914 777.14777344 -25.88647461 777.16552734 C-35.3824656 777.22737159 -44.73012252 777.08117804 -54.18725586 776.13037109 C-54.18725586 775.47037109 -54.18725586 774.81037109 -54.18725586 774.13037109 C-54.81631836 774.14197266 -55.44538086 774.15357422 -56.09350586 774.16552734 C-61.56794674 774.22323982 -66.77183392 773.93265583 -72.18725586 773.13037109 C-72.18725586 772.47037109 -72.18725586 771.81037109 -72.18725586 771.13037109 C-74.82725586 771.13037109 -77.46725586 771.13037109 -80.18725586 771.13037109 C-80.18725586 770.47037109 -80.18725586 769.81037109 -80.18725586 769.13037109 C-81.98163086 769.16130859 -81.98163086 769.16130859 -83.81225586 769.19287109 C-87.36730455 769.1991968 -90.69281209 768.82925985 -94.18725586 768.13037109 C-94.18725586 767.47037109 -94.18725586 766.81037109 -94.18725586 766.13037109 C-98.47725586 765.80037109 -102.76725586 765.47037109 -107.18725586 765.13037109 C-107.18725586 764.47037109 -107.18725586 763.81037109 -107.18725586 763.13037109 C-108.83725586 763.13037109 -110.48725586 763.13037109 -112.18725586 763.13037109 C-112.18725586 762.47037109 -112.18725586 761.81037109 -112.18725586 761.13037109 C-115.15725586 760.80037109 -118.12725586 760.47037109 -121.18725586 760.13037109 C-121.18725586 759.47037109 -121.18725586 758.81037109 -121.18725586 758.13037109 C-124.48725586 757.80037109 -127.78725586 757.47037109 -131.18725586 757.13037109 C-131.18725586 756.47037109 -131.18725586 755.81037109 -131.18725586 755.13037109 C-132.83725586 755.13037109 -134.48725586 755.13037109 -136.18725586 755.13037109 C-136.18725586 754.47037109 -136.18725586 753.81037109 -136.18725586 753.13037109 C-138.82725586 752.80037109 -141.46725586 752.47037109 -144.18725586 752.13037109 C-144.18725586 751.47037109 -144.18725586 750.81037109 -144.18725586 750.13037109 C-145.79600586 749.94474609 -145.79600586 749.94474609 -147.43725586 749.75537109 C-150.56589201 749.23393173 -152.5220601 748.72948855 -155.18725586 747.13037109 C-155.18725586 746.47037109 -155.18725586 745.81037109 -155.18725586 745.13037109 C-157.16725586 744.80037109 -159.14725586 744.47037109 -161.18725586 744.13037109 C-161.18725586 743.47037109 -161.18725586 742.81037109 -161.18725586 742.13037109 C-163.82725586 741.80037109 -166.46725586 741.47037109 -169.18725586 741.13037109 C-169.18725586 740.47037109 -169.18725586 739.81037109 -169.18725586 739.13037109 C-169.72350586 739.00662109 -170.25975586 738.88287109 -170.81225586 738.75537109 C-173.65108446 738.00831094 -176.40948788 737.07733745 -179.18725586 736.13037109 C-179.18725586 735.47037109 -179.18725586 734.81037109 -179.18725586 734.13037109 C-181.16725586 733.80037109 -183.14725586 733.47037109 -185.18725586 733.13037109 C-185.18725586 732.47037109 -185.18725586 731.81037109 -185.18725586 731.13037109 C-185.84725586 731.13037109 -186.50725586 731.13037109 -187.18725586 731.13037109 C-187.18725586 730.47037109 -187.18725586 729.81037109 -187.18725586 729.13037109 C-189.16725586 728.80037109 -191.14725586 728.47037109 -193.18725586 728.13037109 C-193.18725586 727.47037109 -193.18725586 726.81037109 -193.18725586 726.13037109 C-194.83725586 725.80037109 -196.48725586 725.47037109 -198.18725586 725.13037109 C-198.18725586 724.47037109 -198.18725586 723.81037109 -198.18725586 723.13037109 C-199.17725586 723.13037109 -200.16725586 723.13037109 -201.18725586 723.13037109 C-201.18725586 722.47037109 -201.18725586 721.81037109 -201.18725586 721.13037109 C-202.83725586 720.80037109 -204.48725586 720.47037109 -206.18725586 720.13037109 C-206.18725586 719.47037109 -206.18725586 718.81037109 -206.18725586 718.13037109 C-207.61038086 718.00662109 -207.61038086 718.00662109 -209.06225586 717.88037109 C-210.09350586 717.63287109 -211.12475586 717.38537109 -212.18725586 717.13037109 C-212.88663118 715.81389991 -213.55454719 714.48014958 -214.18725586 713.13037109 C-216.74245507 712.31865881 -216.74245507 712.31865881 -219.18725586 712.13037109 C-219.18725586 711.47037109 -219.18725586 710.81037109 -219.18725586 710.13037109 C-220.83725586 709.80037109 -222.48725586 709.47037109 -224.18725586 709.13037109 C-224.51725586 707.81037109 -224.84725586 706.49037109 -225.18725586 705.13037109 C-226.83725586 704.80037109 -228.48725586 704.47037109 -230.18725586 704.13037109 C-230.18725586 703.47037109 -230.18725586 702.81037109 -230.18725586 702.13037109 C-231.83725586 701.80037109 -233.48725586 701.47037109 -235.18725586 701.13037109 C-235.18725586 700.47037109 -235.18725586 699.81037109 -235.18725586 699.13037109 C-235.84725586 699.13037109 -236.50725586 699.13037109 -237.18725586 699.13037109 C-237.51725586 698.47037109 -237.84725586 697.81037109 -238.18725586 697.13037109 C-239.17725586 696.80037109 -240.16725586 696.47037109 -241.18725586 696.13037109 C-241.18725586 695.47037109 -241.18725586 694.81037109 -241.18725586 694.13037109 C-242.50725586 693.80037109 -243.82725586 693.47037109 -245.18725586 693.13037109 C-245.51725586 691.81037109 -245.84725586 690.49037109 -246.18725586 689.13037109 C-247.83725586 688.80037109 -249.48725586 688.47037109 -251.18725586 688.13037109 C-251.18725586 687.47037109 -251.18725586 686.81037109 -251.18725586 686.13037109 C-252.17725586 685.80037109 -253.16725586 685.47037109 -254.18725586 685.13037109 C-254.18725586 684.47037109 -254.18725586 683.81037109 -254.18725586 683.13037109 C-254.84725586 683.13037109 -255.50725586 683.13037109 -256.18725586 683.13037109 C-256.51725586 682.47037109 -256.84725586 681.81037109 -257.18725586 681.13037109 C-258.34225586 680.51162109 -259.49725586 679.89287109 -260.68725586 679.25537109 C-264.06812298 677.41629 -264.06812298 677.41629 -265.12475586 674.88037109 C-265.14538086 674.30287109 -265.16600586 673.72537109 -265.18725586 673.13037109 C-265.76475586 673.06849609 -266.34225586 673.00662109 -266.93725586 672.94287109 C-270.11174069 671.79652935 -271.31574161 669.87080267 -273.18725586 667.13037109 C-273.18725586 666.47037109 -273.18725586 665.81037109 -273.18725586 665.13037109 C-273.76475586 665.06849609 -274.34225586 665.00662109 -274.93725586 664.94287109 C-278.11174069 663.79652935 -279.31574161 661.87080267 -281.18725586 659.13037109 C-281.18725586 658.47037109 -281.18725586 657.81037109 -281.18725586 657.13037109 C-281.76475586 657.06849609 -282.34225586 657.00662109 -282.93725586 656.94287109 C-286.11174069 655.79652935 -287.31574161 653.87080267 -289.18725586 651.13037109 C-289.18725586 650.47037109 -289.18725586 649.81037109 -289.18725586 649.13037109 C-289.82663086 648.88287109 -290.46600586 648.63537109 -291.12475586 648.38037109 C-293.18725586 647.13037109 -293.18725586 647.13037109 -293.93725586 645.00537109 C-294.01975586 644.38662109 -294.10225586 643.76787109 -294.18725586 643.13037109 C-294.84725586 643.13037109 -295.50725586 643.13037109 -296.18725586 643.13037109 C-297.81225586 641.75537109 -297.81225586 641.75537109 -299.18725586 640.13037109 C-299.18725586 639.47037109 -299.18725586 638.81037109 -299.18725586 638.13037109 C-299.84725586 638.13037109 -300.50725586 638.13037109 -301.18725586 638.13037109 C-301.51725586 636.48037109 -301.84725586 634.83037109 -302.18725586 633.13037109 C-303.17725586 632.80037109 -304.16725586 632.47037109 -305.18725586 632.13037109 C-305.18725586 631.47037109 -305.18725586 630.81037109 -305.18725586 630.13037109 C-305.84725586 630.13037109 -306.50725586 630.13037109 -307.18725586 630.13037109 C-307.18725586 629.14037109 -307.18725586 628.15037109 -307.18725586 627.13037109 C-307.84725586 627.13037109 -308.50725586 627.13037109 -309.18725586 627.13037109 C-313.18725586 622.77742992 -313.18725586 622.77742992 -313.18725586 619.13037109 C-313.84725586 619.13037109 -314.50725586 619.13037109 -315.18725586 619.13037109 C-315.18725586 618.47037109 -315.18725586 617.81037109 -315.18725586 617.13037109 C-315.84725586 617.13037109 -316.50725586 617.13037109 -317.18725586 617.13037109 C-317.68225586 615.64537109 -317.68225586 615.64537109 -318.18725586 614.13037109 C-318.96069336 613.38787109 -318.96069336 613.38787109 -319.74975586 612.63037109 C-321.18725586 611.13037109 -321.18725586 611.13037109 -321.18725586 608.13037109 C-321.84725586 608.13037109 -322.50725586 608.13037109 -323.18725586 608.13037109 C-326.18725586 603.74575571 -326.18725586 603.74575571 -326.18725586 601.13037109 C-326.84725586 601.13037109 -327.50725586 601.13037109 -328.18725586 601.13037109 C-328.68225586 598.16037109 -328.68225586 598.16037109 -329.18725586 595.13037109 C-329.84725586 595.13037109 -330.50725586 595.13037109 -331.18725586 595.13037109 C-331.18725586 594.47037109 -331.18725586 593.81037109 -331.18725586 593.13037109 C-331.84725586 593.13037109 -332.50725586 593.13037109 -333.18725586 593.13037109 C-333.68225586 590.16037109 -333.68225586 590.16037109 -334.18725586 587.13037109 C-334.84725586 587.13037109 -335.50725586 587.13037109 -336.18725586 587.13037109 C-336.51725586 585.48037109 -336.84725586 583.83037109 -337.18725586 582.13037109 C-337.84725586 582.13037109 -338.50725586 582.13037109 -339.18725586 582.13037109 C-339.18725586 581.14037109 -339.18725586 580.15037109 -339.18725586 579.13037109 C-339.84725586 579.13037109 -340.50725586 579.13037109 -341.18725586 579.13037109 C-341.51725586 577.48037109 -341.84725586 575.83037109 -342.18725586 574.13037109 C-342.84725586 574.13037109 -343.50725586 574.13037109 -344.18725586 574.13037109 C-344.68225586 571.16037109 -344.68225586 571.16037109 -345.18725586 568.13037109 C-345.84725586 568.13037109 -346.50725586 568.13037109 -347.18725586 568.13037109 C-350.18725586 561.50537109 -350.18725586 561.50537109 -350.18725586 558.13037109 C-350.84725586 558.13037109 -351.50725586 558.13037109 -352.18725586 558.13037109 C-352.51725586 555.49037109 -352.84725586 552.85037109 -353.18725586 550.13037109 C-353.84725586 550.13037109 -354.50725586 550.13037109 -355.18725586 550.13037109 C-355.18725586 549.14037109 -355.18725586 548.15037109 -355.18725586 547.13037109 C-355.84725586 547.13037109 -356.50725586 547.13037109 -357.18725586 547.13037109 C-357.68225586 543.17037109 -357.68225586 543.17037109 -358.18725586 539.13037109 C-358.84725586 539.13037109 -359.50725586 539.13037109 -360.18725586 539.13037109 C-361.1975665 536.57151884 -362.19565731 534.00896734 -363.18725586 531.44287109 C-363.47342773 530.72164062 -363.75959961 530.00041016 -364.05444336 529.25732422 C-365.52630606 525.41996788 -366.58340583 522.31470521 -366.18725586 518.13037109 C-366.84725586 518.13037109 -367.50725586 518.13037109 -368.18725586 518.13037109 C-368.51725586 515.16037109 -368.84725586 512.19037109 -369.18725586 509.13037109 C-369.84725586 509.13037109 -370.50725586 509.13037109 -371.18725586 509.13037109 C-371.18725586 507.48037109 -371.18725586 505.83037109 -371.18725586 504.13037109 C-371.84725586 504.13037109 -372.50725586 504.13037109 -373.18725586 504.13037109 C-373.51725586 500.50037109 -373.84725586 496.87037109 -374.18725586 493.13037109 C-374.84725586 493.13037109 -375.50725586 493.13037109 -376.18725586 493.13037109 C-376.68225586 486.69537109 -376.68225586 486.69537109 -377.18725586 480.13037109 C-377.84725586 480.13037109 -378.50725586 480.13037109 -379.18725586 480.13037109 C-379.18725586 477.82037109 -379.18725586 475.51037109 -379.18725586 473.13037109 C-379.84725586 473.13037109 -380.50725586 473.13037109 -381.18725586 473.13037109 C-381.51725586 467.52037109 -381.84725586 461.91037109 -382.18725586 456.13037109 C-382.84725586 456.13037109 -383.50725586 456.13037109 -384.18725586 456.13037109 C-385.08766897 448.10704713 -385.30272909 440.20066662 -385.18725586 432.13037109 C-385.84725586 432.13037109 -386.50725586 432.13037109 -387.18725586 432.13037109 C-387.21231201 431.49945557 -387.23736816 430.86854004 -387.26318359 430.21850586 C-387.37879723 427.37640285 -387.50167902 424.53466027 -387.62475586 421.69287109 C-387.66407227 420.69964844 -387.70338867 419.70642578 -387.74389648 418.68310547 C-387.78579102 417.73886719 -387.82768555 416.79462891 -387.87084961 415.82177734 C-387.90750732 414.947229 -387.94416504 414.07268066 -387.98193359 413.17163086 C-387.96906652 411.1376309 -387.96906652 411.1376309 -389.18725586 410.13037109 C-389.28844868 407.0512455 -389.32693913 403.9950161 -389.32006836 400.91552734 C-389.32102509 399.98945175 -389.32198181 399.06337616 -389.32296753 398.10923767 C-389.32364948 396.14631075 -389.32179418 394.1833816 -389.31762695 392.22045898 C-389.31228493 389.20925847 -389.31756833 386.19820753 -389.32397461 383.18701172 C-389.32331371 381.2840166 -389.32203231 379.38102157 -389.32006836 377.47802734 C-389.32209259 376.57278824 -389.32411682 375.66754913 -389.32620239 374.73487854 C-389.32305023 373.89738571 -389.31989807 373.05989288 -389.31665039 372.19702148 C-389.3158548 371.45835342 -389.3150592 370.71968536 -389.3142395 369.95863342 C-389.18725586 368.13037109 -389.18725586 368.13037109 -388.18725586 366.13037109 C-388.03658372 364.6838469 -387.9386455 363.2315777 -387.87084961 361.77880859 C-387.82895508 360.92802734 -387.78706055 360.07724609 -387.74389648 359.20068359 C-387.68492187 357.86650391 -387.68492187 357.86650391 -387.62475586 356.50537109 C-387.58157227 355.60818359 -387.53838867 354.71099609 -387.49389648 353.78662109 C-387.38768725 351.56802827 -387.28564392 349.3493223 -387.18725586 347.13037109 C-386.52725586 347.13037109 -385.86725586 347.13037109 -385.18725586 347.13037109 C-385.19885742 346.29634766 -385.21045898 345.46232422 -385.22241211 344.60302734 C-385.27525379 338.01291447 -385.07280654 331.66130736 -384.18725586 325.13037109 C-383.52725586 325.13037109 -382.86725586 325.13037109 -382.18725586 325.13037109 C-382.19885742 324.50130859 -382.21045898 323.87224609 -382.22241211 323.22412109 C-382.28012459 317.74968022 -381.98954059 312.54579303 -381.18725586 307.13037109 C-380.52725586 307.13037109 -379.86725586 307.13037109 -379.18725586 307.13037109 C-379.18725586 305.15037109 -379.18725586 303.17037109 -379.18725586 301.13037109 C-378.52725586 301.13037109 -377.86725586 301.13037109 -377.18725586 301.13037109 C-376.85725586 296.84037109 -376.52725586 292.55037109 -376.18725586 288.13037109 C-375.52725586 288.13037109 -374.86725586 288.13037109 -374.18725586 288.13037109 C-373.85725586 284.50037109 -373.52725586 280.87037109 -373.18725586 277.13037109 C-372.52725586 277.13037109 -371.86725586 277.13037109 -371.18725586 277.13037109 C-371.18725586 274.82037109 -371.18725586 272.51037109 -371.18725586 270.13037109 C-370.52725586 270.13037109 -369.86725586 270.13037109 -369.18725586 270.13037109 C-368.85725586 267.16037109 -368.52725586 264.19037109 -368.18725586 261.13037109 C-367.52725586 261.13037109 -366.86725586 261.13037109 -366.18725586 261.13037109 C-365.85725586 257.83037109 -365.52725586 254.53037109 -365.18725586 251.13037109 C-364.52725586 251.13037109 -363.86725586 251.13037109 -363.18725586 251.13037109 C-363.18725586 250.14037109 -363.18725586 249.15037109 -363.18725586 248.13037109 C-362.52725586 248.13037109 -361.86725586 248.13037109 -361.18725586 248.13037109 C-360.85725586 245.49037109 -360.52725586 242.85037109 -360.18725586 240.13037109 C-359.52725586 240.13037109 -358.86725586 240.13037109 -358.18725586 240.13037109 C-357.85725586 237.49037109 -357.52725586 234.85037109 -357.18725586 232.13037109 C-356.52725586 232.13037109 -355.86725586 232.13037109 -355.18725586 232.13037109 C-355.18725586 231.14037109 -355.18725586 230.15037109 -355.18725586 229.13037109 C-354.52725586 229.13037109 -353.86725586 229.13037109 -353.18725586 229.13037109 C-352.69225586 225.17037109 -352.69225586 225.17037109 -352.18725586 221.13037109 C-351.52725586 221.13037109 -350.86725586 221.13037109 -350.18725586 221.13037109 C-350.00163086 219.76912109 -350.00163086 219.76912109 -349.81225586 218.38037109 C-349.26615909 215.54066787 -348.61461783 213.60446518 -347.18725586 211.13037109 C-346.52725586 211.13037109 -345.86725586 211.13037109 -345.18725586 211.13037109 C-344.85725586 209.48037109 -344.52725586 207.83037109 -344.18725586 206.13037109 C-343.52725586 206.13037109 -342.86725586 206.13037109 -342.18725586 206.13037109 C-341.69225586 203.16037109 -341.69225586 203.16037109 -341.18725586 200.13037109 C-340.52725586 200.13037109 -339.86725586 200.13037109 -339.18725586 200.13037109 C-339.18725586 199.14037109 -339.18725586 198.15037109 -339.18725586 197.13037109 C-338.52725586 197.13037109 -337.86725586 197.13037109 -337.18725586 197.13037109 C-336.85725586 195.48037109 -336.52725586 193.83037109 -336.18725586 192.13037109 C-335.52725586 192.13037109 -334.86725586 192.13037109 -334.18725586 192.13037109 C-334.00163086 190.98568359 -334.00163086 190.98568359 -333.81225586 189.81787109 C-333.18725586 187.13037109 -333.18725586 187.13037109 -331.18725586 184.13037109 C-330.52725586 184.13037109 -329.86725586 184.13037109 -329.18725586 184.13037109 C-328.85725586 182.48037109 -328.52725586 180.83037109 -328.18725586 179.13037109 C-327.52725586 179.13037109 -326.86725586 179.13037109 -326.18725586 179.13037109 C-325.85725586 177.48037109 -325.52725586 175.83037109 -325.18725586 174.13037109 C-324.52725586 174.13037109 -323.86725586 174.13037109 -323.18725586 174.13037109 C-323.18725586 173.14037109 -323.18725586 172.15037109 -323.18725586 171.13037109 C-322.52725586 171.13037109 -321.86725586 171.13037109 -321.18725586 171.13037109 C-321.10475586 170.38787109 -321.02225586 169.64537109 -320.93725586 168.88037109 C-320.0412835 165.59513912 -318.67444864 164.38438955 -316.18725586 162.13037109 C-315.85725586 161.47037109 -315.52725586 160.81037109 -315.18725586 160.13037109 C-314.52725586 160.13037109 -313.86725586 160.13037109 -313.18725586 160.13037109 C-313.08413086 159.36724609 -312.98100586 158.60412109 -312.87475586 157.81787109 C-312.14014392 154.94620626 -311.51564936 153.89995016 -309.18725586 152.13037109 C-308.52725586 152.13037109 -307.86725586 152.13037109 -307.18725586 152.13037109 C-307.18725586 151.47037109 -307.18725586 150.81037109 -307.18725586 150.13037109 C-306.52725586 150.13037109 -305.86725586 150.13037109 -305.18725586 150.13037109 C-305.08413086 149.55287109 -304.98100586 148.97537109 -304.87475586 148.38037109 C-304.07829121 145.77375952 -302.99660309 144.15683999 -301.18725586 142.13037109 C-300.52725586 142.13037109 -299.86725586 142.13037109 -299.18725586 142.13037109 C-299.18725586 141.14037109 -299.18725586 140.15037109 -299.18725586 139.13037109 C-297.81225586 137.44287109 -297.81225586 137.44287109 -296.18725586 136.13037109 C-295.52725586 136.13037109 -294.86725586 136.13037109 -294.18725586 136.13037109 C-293.85725586 135.14037109 -293.52725586 134.15037109 -293.18725586 133.13037109 C-292.52725586 133.13037109 -291.86725586 133.13037109 -291.18725586 133.13037109 C-291.18725586 132.47037109 -291.18725586 131.81037109 -291.18725586 131.13037109 C-290.52725586 131.13037109 -289.86725586 131.13037109 -289.18725586 131.13037109 C-288.85725586 130.14037109 -288.52725586 129.15037109 -288.18725586 128.13037109 C-287.52725586 128.13037109 -286.86725586 128.13037109 -286.18725586 128.13037109 C-286.10475586 127.51162109 -286.02225586 126.89287109 -285.93725586 126.25537109 C-284.95100147 123.46098366 -283.75335187 123.4134191 -281.18725586 122.13037109 C-281.04803711 121.51033203 -280.90881836 120.89029297 -280.76538086 120.25146484 C-280.0452748 117.60945409 -279.0691167 116.86591841 -276.93725586 115.19287109 C-274.59951581 113.30543343 -272.55155566 111.48022317 -270.43725586 109.31787109 C-268.18725586 107.13037109 -268.18725586 107.13037109 -265.18725586 106.13037109 C-264.72319336 105.14037109 -264.72319336 105.14037109 -264.24975586 104.13037109 C-263.18725586 102.13037109 -263.18725586 102.13037109 -261.06225586 101.38037109 C-260.44350586 101.29787109 -259.82475586 101.21537109 -259.18725586 101.13037109 C-259.18725586 100.47037109 -259.18725586 99.81037109 -259.18725586 99.13037109 C-258.52725586 99.13037109 -257.86725586 99.13037109 -257.18725586 99.13037109 C-256.85725586 98.14037109 -256.52725586 97.15037109 -256.18725586 96.13037109 C-255.52725586 96.13037109 -254.86725586 96.13037109 -254.18725586 96.13037109 C-253.85725586 95.14037109 -253.52725586 94.15037109 -253.18725586 93.13037109 C-252.52725586 93.13037109 -251.86725586 93.13037109 -251.18725586 93.13037109 C-251.18725586 92.47037109 -251.18725586 91.81037109 -251.18725586 91.13037109 C-249.5365419 90.10425161 -247.8675558 89.10728966 -246.18725586 88.13037109 C-245.65100586 87.57349609 -245.11475586 87.01662109 -244.56225586 86.44287109 C-243.18725586 85.13037109 -243.18725586 85.13037109 -240.18725586 85.13037109 C-240.18725586 84.47037109 -240.18725586 83.81037109 -240.18725586 83.13037109 C-238.93725586 81.50537109 -238.93725586 81.50537109 -237.18725586 80.13037109 C-235.86725586 80.13037109 -234.54725586 80.13037109 -233.18725586 80.13037109 C-232.85725586 79.14037109 -232.52725586 78.15037109 -232.18725586 77.13037109 C-231.52725586 77.13037109 -230.86725586 77.13037109 -230.18725586 77.13037109 C-230.18725586 76.47037109 -230.18725586 75.81037109 -230.18725586 75.13037109 C-229.19725586 75.13037109 -228.20725586 75.13037109 -227.18725586 75.13037109 C-227.18725586 74.47037109 -227.18725586 73.81037109 -227.18725586 73.13037109 C-221.77549115 69.13037109 -221.77549115 69.13037109 -219.18725586 69.13037109 C-219.18725586 68.47037109 -219.18725586 67.81037109 -219.18725586 67.13037109 C-216.28176704 65.08867625 -214.7858354 64.13037109 -211.18725586 64.13037109 C-211.18725586 63.47037109 -211.18725586 62.81037109 -211.18725586 62.13037109 C-208.71225586 61.63537109 -208.71225586 61.63537109 -206.18725586 61.13037109 C-206.18725586 60.47037109 -206.18725586 59.81037109 -206.18725586 59.13037109 C-203.28176704 57.08867625 -201.7858354 56.13037109 -198.18725586 56.13037109 C-198.18725586 55.47037109 -198.18725586 54.81037109 -198.18725586 54.13037109 C-195.71225586 53.63537109 -195.71225586 53.63537109 -193.18725586 53.13037109 C-193.18725586 52.47037109 -193.18725586 51.81037109 -193.18725586 51.13037109 C-187.56225586 48.13037109 -187.56225586 48.13037109 -184.18725586 48.13037109 C-184.18725586 47.47037109 -184.18725586 46.81037109 -184.18725586 46.13037109 C-180.72225586 45.63537109 -180.72225586 45.63537109 -177.18725586 45.13037109 C-177.18725586 44.47037109 -177.18725586 43.81037109 -177.18725586 43.13037109 C-176.19725586 43.13037109 -175.20725586 43.13037109 -174.18725586 43.13037109 C-174.18725586 42.47037109 -174.18725586 41.81037109 -174.18725586 41.13037109 C-171.21725586 40.63537109 -171.21725586 40.63537109 -168.18725586 40.13037109 C-168.18725586 39.47037109 -168.18725586 38.81037109 -168.18725586 38.13037109 C-164.72225586 37.63537109 -164.72225586 37.63537109 -161.18725586 37.13037109 C-161.18725586 36.47037109 -161.18725586 35.81037109 -161.18725586 35.13037109 C-155.52218575 32.04136908 -150.67868151 29.55372494 -144.18725586 29.13037109 C-144.18725586 28.47037109 -144.18725586 27.81037109 -144.18725586 27.13037109 C-143.30682617 26.86482422 -142.42639648 26.59927734 -141.51928711 26.32568359 C-139.77711914 25.79587891 -139.77711914 25.79587891 -137.99975586 25.25537109 C-136.85120117 24.90732422 -135.70264648 24.55927734 -134.51928711 24.20068359 C-131.25563836 23.19977513 -131.25563836 23.19977513 -128.43725586 22.00537109 C-125.88418579 21.01251051 -123.90292167 20.97519019 -121.18725586 21.13037109 C-121.18725586 20.47037109 -121.18725586 19.81037109 -121.18725586 19.13037109 C-111.77723308 15.68617975 -111.77723308 15.68617975 -107.18725586 16.13037109 C-107.18725586 15.47037109 -107.18725586 14.81037109 -107.18725586 14.13037109 C-102.89725586 13.80037109 -98.60725586 13.47037109 -94.18725586 13.13037109 C-94.18725586 12.47037109 -94.18725586 11.81037109 -94.18725586 11.13037109 C-79.59044493 7.68617975 -79.59044493 7.68617975 -72.18725586 8.13037109 C-72.18725586 7.47037109 -72.18725586 6.81037109 -72.18725586 6.13037109 C-65.81366875 5.16832021 -59.62796057 5.02381532 -53.18725586 5.13037109 C-53.18725586 4.47037109 -53.18725586 3.81037109 -53.18725586 3.13037109 C-52.27202148 3.06978516 -51.35678711 3.00919922 -50.41381836 2.94677734 C-49.22530273 2.86298828 -48.03678711 2.77919922 -46.81225586 2.69287109 C-45.0372168 2.57105469 -45.0372168 2.57105469 -43.22631836 2.44677734 C-40.27206684 2.31952174 -40.27206684 2.31952174 -38.18725586 1.13037109 C-35.62237848 0.88915296 -33.08259939 0.70806201 -30.51147461 0.57568359 C-29.71827316 0.533638 -28.92507172 0.49159241 -28.10783386 0.44827271 C-18.74145358 -0.00152665 -9.37531343 -0.01992954 0 0 Z M-73.18725586 257.13037109 C-73.18725586 257.79037109 -73.18725586 258.45037109 -73.18725586 259.13037109 C-73.82663086 259.39849609 -74.46600586 259.66662109 -75.12475586 259.94287109 C-77.51857272 261.01704862 -77.51857272 261.01704862 -78.18725586 264.13037109 C-78.27706982 265.49584555 -78.31279065 266.86529198 -78.313097 268.23371696 C-78.31570475 269.07262155 -78.31831249 269.91152614 -78.32099926 270.77585208 C-78.31876854 271.69753055 -78.31653782 272.61920902 -78.3142395 273.56881714 C-78.31579949 274.54790515 -78.31735948 275.52699316 -78.31896675 276.53575051 C-78.32296986 279.83146596 -78.31978972 283.12713573 -78.31665039 286.42285156 C-78.31800475 288.77968371 -78.31978488 291.13651564 -78.32196045 293.49334717 C-78.32653111 299.90652911 -78.32474658 306.31969502 -78.32158136 312.73287725 C-78.31980624 316.73658242 -78.32013786 320.74028649 -78.32107162 324.74399185 C-78.32122486 325.40822847 -78.32137809 326.07246508 -78.32153597 326.75683007 C-78.32185569 328.10615682 -78.3221799 329.45548356 -78.32250856 330.8048103 C-78.32536189 343.46553334 -78.32207885 356.12624914 -78.31670819 368.78697099 C-78.31224235 379.65095304 -78.31301456 390.5149244 -78.31762695 401.37890625 C-78.32297884 413.99061609 -78.32508505 426.60231957 -78.32201469 439.21403039 C-78.32169614 440.55905986 -78.32138177 441.90408933 -78.32107162 443.2491188 C-78.32091735 443.91091675 -78.32076307 444.57271469 -78.32060412 445.25456711 C-78.31974066 449.91851212 -78.32124702 454.58245089 -78.32355118 459.24639511 C-78.32643631 465.525393 -78.32444231 471.80437069 -78.31865692 478.08336639 C-78.31733267 480.39045045 -78.31771779 482.69753621 -78.31991959 485.0046196 C-78.32264423 488.14908875 -78.31923369 491.29349278 -78.3142395 494.43795776 C-78.31758558 495.8137833 -78.31758558 495.8137833 -78.32099926 497.21740329 C-78.30832709 501.31934893 -78.22637968 505.13020981 -77.18725586 509.13037109 C-76.52725586 509.13037109 -75.86725586 509.13037109 -75.18725586 509.13037109 C-75.18725586 510.12037109 -75.18725586 511.11037109 -75.18725586 512.13037109 C-71.90029353 512.92990247 -70.47702394 513.22696045 -67.18725586 512.13037109 C-67.18725586 511.47037109 -67.18725586 510.81037109 -67.18725586 510.13037109 C-66.19725586 509.80037109 -65.20725586 509.47037109 -64.18725586 509.13037109 C-64.18725586 508.47037109 -64.18725586 507.81037109 -64.18725586 507.13037109 C-63.19725586 506.80037109 -62.20725586 506.47037109 -61.18725586 506.13037109 C-61.18725586 505.47037109 -61.18725586 504.81037109 -61.18725586 504.13037109 C-60.52725586 504.13037109 -59.86725586 504.13037109 -59.18725586 504.13037109 C-59.18725586 503.47037109 -59.18725586 502.81037109 -59.18725586 502.13037109 C-58.19725586 501.80037109 -57.20725586 501.47037109 -56.18725586 501.13037109 C-56.18725586 500.47037109 -56.18725586 499.81037109 -56.18725586 499.13037109 C-55.52725586 499.13037109 -54.86725586 499.13037109 -54.18725586 499.13037109 C-52.49993541 497.85980584 -52.49993541 497.85980584 -51.18725586 496.13037109 C-51.18725586 495.14037109 -51.18725586 494.15037109 -51.18725586 493.13037109 C-50.52725586 493.13037109 -49.86725586 493.13037109 -49.18725586 493.13037109 C-46.16207676 490.07478686 -46.16207676 490.07478686 -45.18725586 486.13037109 C-44.59428711 486.04658203 -44.00131836 485.96279297 -43.39038086 485.87646484 C-40.54240868 484.911992 -39.67272737 483.6163957 -37.93725586 481.19287109 C-37.41647461 480.48259766 -36.89569336 479.77232422 -36.35913086 479.04052734 C-35.0129459 477.2197424 -35.0129459 477.2197424 -35.18725586 475.13037109 C-34.19725586 474.80037109 -33.20725586 474.47037109 -32.18725586 474.13037109 C-32.18725586 473.47037109 -32.18725586 472.81037109 -32.18725586 472.13037109 C-31.52725586 472.13037109 -30.86725586 472.13037109 -30.18725586 472.13037109 C-28.52058919 470.79703776 -28.52058919 470.79703776 -27.18725586 469.13037109 C-27.18725586 468.47037109 -27.18725586 467.81037109 -27.18725586 467.13037109 C-26.52725586 467.13037109 -25.86725586 467.13037109 -25.18725586 467.13037109 C-23.84324656 465.13752971 -22.51184294 463.13617439 -21.18725586 461.13037109 C-19.52058919 459.46370443 -17.85392253 457.79703776 -16.18725586 456.13037109 C-16.18725586 455.47037109 -16.18725586 454.81037109 -16.18725586 454.13037109 C-15.19725586 453.80037109 -14.20725586 453.47037109 -13.18725586 453.13037109 C-13.18725586 452.47037109 -13.18725586 451.81037109 -13.18725586 451.13037109 C-12.52725586 451.13037109 -11.86725586 451.13037109 -11.18725586 451.13037109 C-11.18725586 450.47037109 -11.18725586 449.81037109 -11.18725586 449.13037109 C-10.52725586 449.13037109 -9.86725586 449.13037109 -9.18725586 449.13037109 C-8.85725586 448.14037109 -8.52725586 447.15037109 -8.18725586 446.13037109 C-6.69897461 444.70068359 -6.69897461 444.70068359 -4.87475586 443.25537109 C-1.31739962 440.31890865 1.72637035 437.30311867 3.81274414 433.13037109 C4.80274414 432.80037109 5.79274414 432.47037109 6.81274414 432.13037109 C7.43149414 431.34662109 8.05024414 430.56287109 8.68774414 429.75537109 C10.86936396 427.06042896 12.85731808 425.85436963 15.81274414 424.13037109 C15.81274414 423.47037109 15.81274414 422.81037109 15.81274414 422.13037109 C18.12274414 421.80037109 20.43274414 421.47037109 22.81274414 421.13037109 C22.81274414 420.47037109 22.81274414 419.81037109 22.81274414 419.13037109 C23.32836914 419.00662109 23.84399414 418.88287109 24.37524414 418.75537109 C27.53976765 417.94395481 30.67399399 417.03577979 33.81274414 416.13037109 C33.81274414 415.47037109 33.81274414 414.81037109 33.81274414 414.13037109 C38.10274414 413.80037109 42.39274414 413.47037109 46.81274414 413.13037109 C46.81274414 412.47037109 46.81274414 411.81037109 46.81274414 411.13037109 C48.11211914 411.15099609 49.41149414 411.17162109 50.75024414 411.19287109 C52.10440047 411.21436564 53.46030497 411.20185308 54.81274414 411.13037109 C55.14274414 410.80037109 55.47274414 410.47037109 55.81274414 410.13037109 C58.33470381 409.73093933 60.8423807 409.37957261 63.37524414 409.06787109 C64.08616211 408.97699219 64.79708008 408.88611328 65.52954102 408.79248047 C67.29012817 408.56797607 69.05137892 408.34868712 70.81274414 408.13037109 C70.81274414 407.47037109 70.81274414 406.81037109 70.81274414 406.13037109 C72.00899414 406.15099609 73.20524414 406.17162109 74.43774414 406.19287109 C77.99279283 406.1991968 81.31830038 405.82925985 84.81274414 405.13037109 C84.81274414 404.47037109 84.81274414 403.81037109 84.81274414 403.13037109 C85.96774414 403.17162109 87.12274414 403.21287109 88.31274414 403.25537109 C92.0385454 403.2619306 95.20983342 402.64130445 98.78149414 401.64208984 C102.09126513 400.80828215 105.42232334 400.49363046 108.81274414 400.13037109 C108.81274414 399.47037109 108.81274414 398.81037109 108.81274414 398.13037109 C109.98836914 398.15099609 111.16399414 398.17162109 112.37524414 398.19287109 C116.28687881 398.1998437 119.95772358 397.77287452 123.81274414 397.13037109 C123.81274414 396.47037109 123.81274414 395.81037109 123.81274414 395.13037109 C124.76149414 395.19224609 125.71024414 395.25412109 126.68774414 395.31787109 C131.65602246 395.3484765 136.15113434 393.70612652 140.81274414 392.13037109 C140.81274414 391.47037109 140.81274414 390.81037109 140.81274414 390.13037109 C141.80274414 389.80037109 142.79274414 389.47037109 143.81274414 389.13037109 C143.81274414 388.47037109 143.81274414 387.81037109 143.81274414 387.13037109 C144.47274414 387.13037109 145.13274414 387.13037109 145.81274414 387.13037109 C145.81274414 386.47037109 145.81274414 385.81037109 145.81274414 385.13037109 C145.15274414 385.13037109 144.49274414 385.13037109 143.81274414 385.13037109 C143.48274414 383.81037109 143.15274414 382.49037109 142.81274414 381.13037109 C142.15274414 381.13037109 141.49274414 381.13037109 140.81274414 381.13037109 C140.81274414 380.47037109 140.81274414 379.81037109 140.81274414 379.13037109 C139.82274414 379.13037109 138.83274414 379.13037109 137.81274414 379.13037109 C137.81274414 378.47037109 137.81274414 377.81037109 137.81274414 377.13037109 C136.16274414 376.80037109 134.51274414 376.47037109 132.81274414 376.13037109 C132.81274414 375.47037109 132.81274414 374.81037109 132.81274414 374.13037109 C131.16274414 373.80037109 129.51274414 373.47037109 127.81274414 373.13037109 C127.81274414 372.47037109 127.81274414 371.81037109 127.81274414 371.13037109 C126.82274414 371.13037109 125.83274414 371.13037109 124.81274414 371.13037109 C124.81274414 370.47037109 124.81274414 369.81037109 124.81274414 369.13037109 C123.16274414 368.80037109 121.51274414 368.47037109 119.81274414 368.13037109 C119.81274414 367.47037109 119.81274414 366.81037109 119.81274414 366.13037109 C116.84274414 365.63537109 116.84274414 365.63537109 113.81274414 365.13037109 C113.81274414 364.47037109 113.81274414 363.81037109 113.81274414 363.13037109 C112.82274414 363.13037109 111.83274414 363.13037109 110.81274414 363.13037109 C110.81274414 362.47037109 110.81274414 361.81037109 110.81274414 361.13037109 C109.16274414 360.80037109 107.51274414 360.47037109 105.81274414 360.13037109 C105.81274414 359.47037109 105.81274414 358.81037109 105.81274414 358.13037109 C104.67836914 357.67662109 103.54399414 357.22287109 102.37524414 356.75537109 C98.81274414 355.13037109 98.81274414 355.13037109 97.81274414 353.13037109 C96.17240221 352.40133024 94.49972496 351.74381867 92.81274414 351.13037109 C87.92385525 349.35259332 87.92385525 349.35259332 86.81274414 347.13037109 C85.49274414 347.13037109 84.17274414 347.13037109 82.81274414 347.13037109 C82.81274414 346.47037109 82.81274414 345.81037109 82.81274414 345.13037109 C81.82274414 344.80037109 80.83274414 344.47037109 79.81274414 344.13037109 C79.48274414 343.47037109 79.15274414 342.81037109 78.81274414 342.13037109 C76.49117817 341.72307882 74.15586544 341.38598433 71.81274414 341.13037109 C71.81274414 340.47037109 71.81274414 339.81037109 71.81274414 339.13037109 C70.82274414 339.13037109 69.83274414 339.13037109 68.81274414 339.13037109 C68.81274414 338.47037109 68.81274414 337.81037109 68.81274414 337.13037109 C67.16274414 336.80037109 65.51274414 336.47037109 63.81274414 336.13037109 C63.81274414 335.47037109 63.81274414 334.81037109 63.81274414 334.13037109 C60.84274414 333.63537109 60.84274414 333.63537109 57.81274414 333.13037109 C57.81274414 332.47037109 57.81274414 331.81037109 57.81274414 331.13037109 C57.15274414 331.13037109 56.49274414 331.13037109 55.81274414 331.13037109 C55.81274414 330.47037109 55.81274414 329.81037109 55.81274414 329.13037109 C52.84274414 328.63537109 52.84274414 328.63537109 49.81274414 328.13037109 C49.81274414 327.47037109 49.81274414 326.81037109 49.81274414 326.13037109 C48.16274414 325.80037109 46.51274414 325.47037109 44.81274414 325.13037109 C44.81274414 324.47037109 44.81274414 323.81037109 44.81274414 323.13037109 C43.82274414 323.13037109 42.83274414 323.13037109 41.81274414 323.13037109 C41.81274414 322.47037109 41.81274414 321.81037109 41.81274414 321.13037109 C40.16274414 320.80037109 38.51274414 320.47037109 36.81274414 320.13037109 C36.81274414 319.47037109 36.81274414 318.81037109 36.81274414 318.13037109 C34.83274414 317.80037109 32.85274414 317.47037109 30.81274414 317.13037109 C30.81274414 316.47037109 30.81274414 315.81037109 30.81274414 315.13037109 C27.90725532 313.08867625 26.41132368 312.13037109 22.81274414 312.13037109 C22.81274414 311.47037109 22.81274414 310.81037109 22.81274414 310.13037109 C21.67836914 309.67662109 20.54399414 309.22287109 19.37524414 308.75537109 C15.81274414 307.13037109 15.81274414 307.13037109 14.81274414 305.13037109 C12.49117817 304.72307882 10.15586544 304.38598433 7.81274414 304.13037109 C7.81274414 303.47037109 7.81274414 302.81037109 7.81274414 302.13037109 C6.16274414 301.80037109 4.51274414 301.47037109 2.81274414 301.13037109 C2.81274414 300.47037109 2.81274414 299.81037109 2.81274414 299.13037109 C1.82274414 299.13037109 0.83274414 299.13037109 -0.18725586 299.13037109 C-0.18725586 298.47037109 -0.18725586 297.81037109 -0.18725586 297.13037109 C-1.83725586 296.80037109 -3.48725586 296.47037109 -5.18725586 296.13037109 C-5.18725586 295.47037109 -5.18725586 294.81037109 -5.18725586 294.13037109 C-7.16725586 293.80037109 -9.14725586 293.47037109 -11.18725586 293.13037109 C-11.18725586 292.47037109 -11.18725586 291.81037109 -11.18725586 291.13037109 C-12.17725586 291.13037109 -13.16725586 291.13037109 -14.18725586 291.13037109 C-14.18725586 290.47037109 -14.18725586 289.81037109 -14.18725586 289.13037109 C-15.83725586 288.80037109 -17.48725586 288.47037109 -19.18725586 288.13037109 C-19.18725586 287.47037109 -19.18725586 286.81037109 -19.18725586 286.13037109 C-21.16725586 285.80037109 -23.14725586 285.47037109 -25.18725586 285.13037109 C-25.18725586 284.47037109 -25.18725586 283.81037109 -25.18725586 283.13037109 C-25.84725586 283.13037109 -26.50725586 283.13037109 -27.18725586 283.13037109 C-27.18725586 282.47037109 -27.18725586 281.81037109 -27.18725586 281.13037109 C-29.16725586 280.80037109 -31.14725586 280.47037109 -33.18725586 280.13037109 C-33.18725586 279.47037109 -33.18725586 278.81037109 -33.18725586 278.13037109 C-34.83725586 277.80037109 -36.48725586 277.47037109 -38.18725586 277.13037109 C-38.18725586 276.47037109 -38.18725586 275.81037109 -38.18725586 275.13037109 C-39.17725586 275.13037109 -40.16725586 275.13037109 -41.18725586 275.13037109 C-41.18725586 274.47037109 -41.18725586 273.81037109 -41.18725586 273.13037109 C-41.82663086 273.00662109 -42.46600586 272.88287109 -43.12475586 272.75537109 C-43.80538086 272.54912109 -44.48600586 272.34287109 -45.18725586 272.13037109 C-45.68225586 271.14037109 -45.68225586 271.14037109 -46.18725586 270.13037109 C-50.98102097 267.78929407 -50.98102097 267.78929407 -56.18725586 267.13037109 C-56.51725586 266.14037109 -56.84725586 265.15037109 -57.18725586 264.13037109 C-58.50725586 264.13037109 -59.82725586 264.13037109 -61.18725586 264.13037109 C-61.18725586 263.47037109 -61.18725586 262.81037109 -61.18725586 262.13037109 C-64.15725586 261.63537109 -64.15725586 261.63537109 -67.18725586 261.13037109 C-67.18725586 260.47037109 -67.18725586 259.81037109 -67.18725586 259.13037109 C-68.83725586 259.13037109 -70.48725586 259.13037109 -72.18725586 259.13037109 C-72.51725586 258.47037109 -72.84725586 257.81037109 -73.18725586 257.13037109 Z " fill="#1462EA" transform="translate(499.187255859375,110.86962890625)"/>
<path d="M0 0 C1.32 0.33 2.64 0.66 4 1 C4.33 2.65 4.66 4.3 5 6 C5.66 6 6.32 6 7 6 C7 6.99 7 7.98 7 9 C7.66 9 8.32 9 9 9 C9.33 10.65 9.66 12.3 10 14 C10.66 14 11.32 14 12 14 C12.33 15.65 12.66 17.3 13 19 C13.66 19 14.32 19 15 19 C17.04169485 21.90548882 18 23.40142046 18 27 C18.66 27 19.32 27 20 27 C21.1577506 30.47325181 21.06866652 33.36067448 21 37 C21.66 37 22.32 37 23 37 C30.37504075 56.24888047 36.94359292 74.87160363 40.59863281 95.19091797 C40.94260065 97.08759158 40.94260065 97.08759158 42 99 C45.01642695 113.04523799 45.23307288 127.44186324 45.25 141.75 C45.25167175 142.50480652 45.25334351 143.25961304 45.25506592 144.03729248 C45.25732518 161.2099076 44.03851806 178.25950209 40 195 C39.84515137 195.66161133 39.69030273 196.32322266 39.53076172 197.00488281 C37.67082283 204.89039254 35.59957698 212.6021875 32.93359375 220.2578125 C32.03285445 222.90349864 31.25630035 225.56002361 30.5 228.25 C29.36224885 232.11464385 27.86695478 235.55028923 25.984375 239.10546875 C24.48061925 241.99960184 23.25396843 244.99047576 22 248 C20.68374806 245.36749612 21.25186342 244.19820944 21.9375 241.375 C22.13214844 240.55773437 22.32679688 239.74046875 22.52734375 238.8984375 C22.68332031 238.27195312 22.83929687 237.64546875 23 237 C23.66 237 24.32 237 25 237 C25 236.01 25 235.02 25 234 C25.66 234 26.32 234 27 234 C27.103125 232.700625 27.20625 231.40125 27.3125 230.0625 C27.848308 225.09839647 29.24930225 220.65751666 31 216 C31.66 216 32.32 216 33 216 C32.938125 215.0925 32.87625 214.185 32.8125 213.25 C32.78961196 207.68820621 34.39047131 202.28726006 36 197 C36.33 196.67 36.66 196.34 37 196 C42.85286745 170.84939243 42.93312832 144.49247828 41.125 118.875 C41.04668945 117.7607666 40.96837891 116.6465332 40.88769531 115.49853516 C40.40849061 109.37628195 39.64166806 103.42925063 38.41015625 97.41137695 C37.81197688 93.89458074 37.86571037 90.55867513 38 87 C37.34 87 36.68 87 36 87 C35.01751476 82.9472484 34.91840426 79.16138263 35 75 C34.34 75 33.68 75 33 75 C32.491217 73.44033782 31.99336531 71.87710759 31.5 70.3125 C31.2215625 69.44238281 30.943125 68.57226562 30.65625 67.67578125 C30.00149195 65.00608323 29.88168505 62.73603316 30 60 C29.34 60 28.68 60 28 60 C27.608125 58.741875 27.21625 57.48375 26.8125 56.1875 C25.27435991 51.55856897 23.32274293 47.20278171 21.2734375 42.78125 C20.02743553 40.05992055 18.8340228 37.32716492 17.6875 34.5625 C17.36136719 33.78003906 17.03523437 32.99757813 16.69921875 32.19140625 C16 30 16 30 16 26 C15.34 26 14.68 26 14 26 C14 25.01 14 24.02 14 23 C13.34 23 12.68 23 12 23 C11.32591692 21.73308493 10.66099503 20.46129251 10 19.1875 C9.443125 18.12595703 9.443125 18.12595703 8.875 17.04296875 C8 15 8 15 8 12 C7.34 12 6.68 12 6 12 C6 11.34 6 10.68 6 10 C5.34 10 4.68 10 4 10 C2.74335022 7.09399739 2 5.20395416 2 2 C1.34 2 0.68 2 0 2 C0 1.34 0 0.68 0 0 Z " fill="#2B89F8" transform="translate(817,276)"/>
<path d="M0 0 C4.35522853 0.50642192 7.44239635 1.38411497 11 4 C11 4.66 11 5.32 11 6 C11.928125 6.12375 12.85625 6.2475 13.8125 6.375 C17 7 17 7 20 9 C20 9.66 20 10.32 20 11 C20.99 11.0825 21.98 11.165 23 11.25 C26.70787371 11.77546713 29.42947748 13.13960423 32.703125 14.890625 C37.27258496 17.09764307 42.17266487 18.46661119 47 20 C48.75098535 20.58036891 50.50110479 21.16336271 52.25 21.75 C53.4875 22.1625 54.725 22.575 56 23 C56 23.66 56 24.32 56 25 C56.9075 25.12375 57.815 25.2475 58.75 25.375 C64.18285445 26.14792156 69.58965229 27.0849494 75 28 C75 28.66 75 29.32 75 30 C76.299375 29.95875 77.59875 29.9175 78.9375 29.875 C83.05029061 29.74443522 86.67787157 30.5656495 90.65405273 31.48779297 C105.18778652 34.66104445 120.39678875 34.18848081 135.1875 34.1875 C136.55517014 34.18885956 136.55517014 34.18885956 137.95046997 34.19024658 C140.56471836 34.18995261 143.17875575 34.18103712 145.79296875 34.16796875 C146.59102936 34.16676529 147.38908997 34.16556183 148.21133423 34.1643219 C152.2363577 34.21967706 152.2363577 34.21967706 156 33 C160.53113746 32.85143812 164.57882704 32.89470676 169 34 C169 34.66 169 35.32 169 36 C161.0800587 36.87495179 153.2765687 37.12590042 145.3125 37.0625 C143.66991211 37.05573242 143.66991211 37.05573242 141.99414062 37.04882812 C139.32936691 37.03719156 136.66471483 37.02084564 134 37 C134 37.66 134 38.32 134 39 C133.34 39 132.68 39 132 39 C132 38.34 132 37.68 132 37 C131.4016333 37.00523682 130.8032666 37.01047363 130.18676758 37.01586914 C99.49739854 37.24869927 99.49739854 37.24869927 95 35 C93.42120045 34.72280619 91.83646933 34.47925857 90.25 34.25 C72.40249292 31.35058549 55.07360001 26.90175312 38.3671875 19.9453125 C36.76668707 19.30616876 35.14481403 18.71851245 33.5078125 18.1796875 C25.34458602 15.49090964 18.20899371 11.36537452 10.81933594 7.05566406 C8.39741363 5.65035112 5.9513166 4.29075049 3.5 2.9375 C2.8090625 2.55464844 2.118125 2.17179688 1.40625 1.77734375 C0.9421875 1.52082031 0.478125 1.26429688 0 1 C0 0.67 0 0.34 0 0 Z " fill="#308DF8" transform="translate(386,851)"/>
<path d="M0 0 C1.02423065 0.06477539 1.02423065 0.06477539 2.06915283 0.13085938 C10.40297315 0.6703696 18.69028682 1.3258052 26.9375 2.6875 C27.66702881 2.80585205 28.39655762 2.9242041 29.14819336 3.04614258 C30.80245708 3.34868926 32.4370093 3.75633536 34.0625 4.1875 C34.5575 5.1775 34.5575 5.1775 35.0625 6.1875 C34.50060974 6.0985849 33.93871948 6.0096698 33.35980225 5.9180603 C18.71627777 3.66028797 4.3925132 2.70982478 -10.41845703 2.79638672 C-13.69996223 2.81256143 -16.98024884 2.79637384 -20.26171875 2.77734375 C-33.0390994 2.76561435 -45.42802572 3.434835 -57.9375 6.1875 C-58.2675 6.5175 -58.5975 6.8475 -58.9375 7.1875 C-60.74238484 7.54134068 -62.55722528 7.84480797 -64.375 8.125 C-69.18185918 8.88608604 -73.93096519 9.77489505 -78.68359375 10.8203125 C-81.13567149 11.21978444 -83.45734909 11.24873829 -85.9375 11.1875 C-83.18027142 9.34934761 -81.85858099 8.79407523 -78.7421875 8.15234375 C-77.94425781 7.98283203 -77.14632813 7.81332031 -76.32421875 7.63867188 C-75.08091797 7.3844043 -75.08091797 7.3844043 -73.8125 7.125 C-72.16337831 6.78323287 -70.51489888 6.43834673 -68.8671875 6.08984375 C-68.13741699 5.94023193 -67.40764648 5.79062012 -66.65576172 5.63647461 C-64.918752 5.3372104 -64.918752 5.3372104 -63.9375 4.1875 C-60.95899495 3.62997718 -57.99556747 3.1351516 -55 2.6875 C-54.11006348 2.5529541 -53.22012695 2.4184082 -52.30322266 2.27978516 C-45.37680532 1.28364553 -38.49119171 0.73243664 -31.50024414 0.47851562 C-6.95995076 -0.44276356 -6.95995076 -0.44276356 0 0 Z " fill="#1E85F7" transform="translate(387.9375,194.8125)"/>
<path d="M0 0 C2.16197113 -0.00431435 4.32179578 -0.04050811 6.48339844 -0.07861328 C16.64601763 -0.15899492 25.59533929 1.53125803 35.32714844 4.37060547 C36.65850688 4.71174118 37.99077957 5.04965821 39.32714844 5.37060547 C39.32714844 6.03060547 39.32714844 6.69060547 39.32714844 7.37060547 C41.63714844 7.70060547 43.94714844 8.03060547 46.32714844 8.37060547 C46.32714844 9.03060547 46.32714844 9.69060547 46.32714844 10.37060547 C47.40996094 10.55623047 47.40996094 10.55623047 48.51464844 10.74560547 C51.28436738 11.36109857 53.72418384 12.25504921 56.32714844 13.37060547 C56.32714844 14.03060547 56.32714844 14.69060547 56.32714844 15.37060547 C57.05417969 15.46599609 57.78121094 15.56138672 58.53027344 15.65966797 C61.73572704 16.47446204 63.49954019 17.69562844 66.07714844 19.74560547 C66.85574219 20.35146484 67.63433594 20.95732422 68.43652344 21.58154297 C70.32714844 23.37060547 70.32714844 23.37060547 71.32714844 26.37060547 C70.66714844 26.37060547 70.00714844 26.37060547 69.32714844 26.37060547 C69.32714844 25.71060547 69.32714844 25.05060547 69.32714844 24.37060547 C67.67714844 24.37060547 66.02714844 24.37060547 64.32714844 24.37060547 C64.2975 23.78279297 64.26785156 23.19498047 64.23730469 22.58935547 C62.83834864 19.17902484 59.95181494 18.31426689 56.76464844 16.87060547 C55.46894658 16.25889934 54.17337253 15.64692243 52.87792969 15.03466797 C51.70617187 14.48552734 50.53441406 13.93638672 49.32714844 13.37060547 C48.03244681 12.66783482 46.74004083 11.96077822 45.45214844 11.24560547 C25.10276841 1.15787862 2.27675199 0.83848536 -19.67285156 4.37060547 C-19.67285156 3.71060547 -19.67285156 3.05060547 -19.67285156 2.37060547 C-13.16043489 -0.1322497 -6.8661855 -0.0015265 0 0 Z " fill="#1839D6" transform="translate(362.6728515625,345.62939453125)"/>
<path d="M0 0 C0 0.66 0 1.32 0 2 C-0.83402344 2.24234375 -1.66804688 2.4846875 -2.52734375 2.734375 C-8.51900659 4.51883358 -14.26855512 6.41430505 -19.9375 9.05078125 C-24.61848422 11.20509785 -28.76892472 13 -34 13 C-34 13.66 -34 14.32 -34 15 C-35.39412109 15.68835938 -35.39412109 15.68835938 -36.81640625 16.390625 C-38.065338 17.00994534 -39.31402016 17.62976917 -40.5625 18.25 C-41.20421143 18.568479 -41.84592285 18.88695801 -42.50708008 19.21508789 C-45.7990509 20.86002823 -49.02932731 22.54396356 -52.1875 24.4375 C-55 26 -55 26 -58 26 C-58 26.66 -58 27.32 -58 28 C-60.90548882 30.04169485 -62.40142046 31 -66 31 C-66.495 32.485 -66.495 32.485 -67 34 C-69.25 35.0625 -69.25 35.0625 -72 36 C-72.928125 36.37125 -73.85625 36.7425 -74.8125 37.125 C-75.534375 37.41375 -76.25625 37.7025 -77 38 C-72.65007678 33.07676054 -67.52337075 30.09049996 -61.875 26.8125 C-60.080462 25.75696449 -58.28618005 24.70099353 -56.4921875 23.64453125 C-55.30665283 22.95387573 -55.30665283 22.95387573 -54.09716797 22.24926758 C-52.36611371 21.21809125 -50.67650876 20.11767251 -49 19 C-48.01 19 -47.02 19 -46 19 C-46 18.34 -46 17.68 -46 17 C-37.72842238 13.18494583 -29.38517188 9.55762861 -21 6 C-19.88367188 5.51917969 -18.76734375 5.03835937 -17.6171875 4.54296875 C-16.56789063 4.09566406 -15.51859375 3.64835938 -14.4375 3.1875 C-13.50808594 2.78917969 -12.57867187 2.39085937 -11.62109375 1.98046875 C-7.6008818 0.47663388 -4.30165562 0 0 0 Z " fill="#2A8BF9" transform="translate(302,206)"/>
<path d="M0 0 C0.66 0.33 1.32 0.66 2 1 C1.236875 1.5775 0.47375 2.155 -0.3125 2.75 C-3.01265709 4.82336958 -3.01265709 4.82336958 -4.625 7.25 C-5.07875 7.8275 -5.5325 8.405 -6 9 C-6.99 9 -7.98 9 -9 9 C-9.33 9.99 -9.66 10.98 -10 12 C-10.66 12 -11.32 12 -12 12 C-12.21462891 12.53915039 -12.42925781 13.07830078 -12.65039062 13.63378906 C-14.48521051 16.85069832 -16.98585618 19.27139255 -19.59375 21.859375 C-20.14107788 22.40861633 -20.68840576 22.95785767 -21.25231934 23.52374268 C-22.4064778 24.67925859 -23.56315167 25.83226685 -24.72216797 26.98291016 C-26.50073946 28.750735 -28.26834763 30.5290213 -30.03515625 32.30859375 C-31.15821308 33.43032971 -32.28188976 34.55144551 -33.40625 35.671875 C-33.9364978 36.20617126 -34.46674561 36.74046753 -35.01306152 37.29095459 C-38.77006146 41 -38.77006146 41 -41 41 C-41.0825 41.61875 -41.165 42.2375 -41.25 42.875 C-42 45 -42 45 -44.0625 46.25 C-44.701875 46.4975 -45.34125 46.745 -46 47 C-46 47.66 -46 48.32 -46 49 C-46.66 49 -47.32 49 -48 49 C-45.4747921 43.26455439 -40.98746311 38.75923016 -37 34 C-36.45730469 33.33097656 -35.91460937 32.66195312 -35.35546875 31.97265625 C-32.2185774 28.16172213 -28.7929116 24.96470541 -25.02734375 21.77734375 C-22.34395498 19.42485456 -19.89516627 16.87744337 -17.4453125 14.28515625 C-16 13 -16 13 -14 13 C-14 12.34 -14 11.68 -14 11 C-10.53846154 8 -10.53846154 8 -8 8 C-7.67 7.01 -7.34 6.02 -7 5 C-5.37109375 3.61328125 -5.37109375 3.61328125 -3.4375 2.3125 C-2.47650391 1.65701172 -2.47650391 1.65701172 -1.49609375 0.98828125 C-1.00238281 0.66214844 -0.50867188 0.33601562 0 0 Z " fill="#2B80F6" transform="translate(223,244)"/>
<path d="M0 0 C0.33 0.66 0.66 1.32 1 2 C0.22265625 3.7265625 0.22265625 3.7265625 -0.9375 5.625 C-1.618125 6.73875 -2.29875 7.8525 -3 9 C-3.66 9 -4.32 9 -5 9 C-5.33 10.32 -5.66 11.64 -6 13 C-6.99 13 -7.98 13 -9 13 C-9 13.66 -9 14.32 -9 15 C-9.66 15 -10.32 15 -11 15 C-11.33 16.98 -11.66 18.96 -12 21 C-12.66 21 -13.32 21 -14 21 C-14.33 22.65 -14.66 24.3 -15 26 C-15.66 26 -16.32 26 -17 26 C-17 26.99 -17 27.98 -17 29 C-17.66 29 -18.32 29 -19 29 C-19.226875 30.2375 -19.45375 31.475 -19.6875 32.75 C-21.01145277 38.80925829 -23.49478042 44.34891308 -26 50 C-26.66 50 -27.32 50 -28 50 C-28 50.99 -28 51.98 -28 53 C-28.66 53 -29.32 53 -30 53 C-29.67 50.69 -29.34 48.38 -29 46 C-28.34 46 -27.68 46 -27 46 C-27 45.01 -27 44.02 -27 43 C-26.34 43 -25.68 43 -25 43 C-24.67 40.36 -24.34 37.72 -24 35 C-23.34 35 -22.68 35 -22 35 C-21.87625 34.0925 -21.7525 33.185 -21.625 32.25 C-21.07890323 29.41029677 -20.42736197 27.47409409 -19 25 C-18.34 25 -17.68 25 -17 25 C-16.67 23.35 -16.34 21.7 -16 20 C-15.34 20 -14.68 20 -14 20 C-13.67 18.02 -13.34 16.04 -13 14 C-12.34 14 -11.68 14 -11 14 C-11 13.01 -11 12.02 -11 11 C-9.00669158 9.65668346 -7.00615134 8.32405988 -5 7 C-3.61131484 4.89960669 -3.61131484 4.89960669 -3 3 C-2.34 3 -1.68 3 -1 3 C-0.67 2.01 -0.34 1.02 0 0 Z " fill="#3CA3FC" transform="translate(171,297)"/>
<path d="M0 0 C0.66 0 1.32 0 2 0 C1.9592334 0.7434668 1.9184668 1.48693359 1.87646484 2.25292969 C0.50539857 28.50136664 1.12024756 50.68241697 12.86328125 74.5234375 C14 77 14 77 14 79 C13.34 79 12.68 79 12 79 C-0.96175585 55.48176257 -4.9720673 26.43007144 0 0 Z " fill="#183AD7" transform="translate(420,615)"/>
<path d="M0 0 C0 3.92709135 -1.27900462 4.8189713 -3.875 7.6875 C-4.59429688 8.49574219 -5.31359375 9.30398438 -6.0546875 10.13671875 C-8 12 -8 12 -10 12 C-10 12.66 -10 13.32 -10 14 C-11.65532623 15.01866229 -13.32260138 16.01810813 -15 17 C-15.33 17.66 -15.66 18.32 -16 19 C-18.5020018 20.38803634 -20.99496923 21.68251859 -23.5625 22.9375 C-24.25408203 23.28490234 -24.94566406 23.63230469 -25.65820312 23.99023438 C-31.81214127 27.0356595 -38.08445931 29.74679812 -44.8125 31.25 C-45.54082031 31.42015625 -46.26914062 31.5903125 -47.01953125 31.765625 C-49 32 -49 32 -52 31 C-51.34 31 -50.68 31 -50 31 C-50 30.34 -50 29.68 -50 29 C-48.5459375 28.70609375 -48.5459375 28.70609375 -47.0625 28.40625 C-28.32815629 24.34690619 -11.72391171 15.56548472 0 0 Z " fill="#183BD8" transform="translate(691,474)"/>
<path d="M0 0 C0 0.66 0 1.32 0 2 C-14.03475186 3.84062319 -28.96524814 3.84062319 -43 2 C-43 1.67 -43 1.34 -43 1 C-42.16227051 0.97494385 -41.32454102 0.9498877 -40.46142578 0.92407227 C-37.35647744 0.82899643 -34.25169819 0.72975975 -31.14697266 0.62768555 C-29.14105193 0.56301749 -27.13497772 0.50316894 -25.12890625 0.44335938 C-23.24365234 0.38051758 -23.24365234 0.38051758 -21.3203125 0.31640625 C-20.15773926 0.27974854 -18.99516602 0.24309082 -17.79736328 0.20532227 C-3.40439887 -0.85109972 -3.40439887 -0.85109972 0 0 Z " fill="#267FF6" transform="translate(555,885)"/>
<path d="M0 0 C4.37028722 6.55543083 4.30101028 14.34104337 4.1875 22 C4.18685547 22.85722656 4.18621094 23.71445312 4.18554688 24.59765625 C4.14089311 30.85910689 4.14089311 30.85910689 3 32 C2.7180604 34.28684338 2.55222995 36.57363273 2.37890625 38.87109375 C2 41 2 41 0 43 C0.0721875 42.25878906 0.144375 41.51757812 0.21875 40.75390625 C1.42091956 27.11262107 1.327524 13.63082684 0 0 Z " fill="#183DD9" transform="translate(711,391)"/>
<path d="M0 0 C1.32 0.33 2.64 0.66 4 1 C4.33 2.65 4.66 4.3 5 6 C5.66 6 6.32 6 7 6 C7 6.99 7 7.98 7 9 C7.66 9 8.32 9 9 9 C9.33 10.65 9.66 12.3 10 14 C10.66 14 11.32 14 12 14 C13.4783226 16.95664519 13.06032783 19.74229737 13 23 C9.7089159 19.39042389 8.45336079 16.87362847 8 12 C7.34 12 6.68 12 6 12 C6 11.34 6 10.68 6 10 C5.34 10 4.68 10 4 10 C2.74335022 7.09399739 2 5.20395416 2 2 C1.34 2 0.68 2 0 2 C0 1.34 0 0.68 0 0 Z " fill="#2E8AF8" transform="translate(817,276)"/>
<path d="M0 0 C0.71923645 -0.00191345 1.4384729 -0.0038269 2.17950439 -0.00579834 C3.68884637 -0.00715172 5.19820031 -0.00351485 6.70751953 0.00488281 C9.0227235 0.01565804 11.33716266 0.00492712 13.65234375 -0.0078125 C15.12239755 -0.00649198 16.59245087 -0.00393183 18.0625 0 C18.75518982 -0.00404846 19.44787964 -0.00809692 20.16156006 -0.01226807 C25.0356568 0.0356568 25.0356568 0.0356568 27.265625 2.265625 C26.55656006 2.25515137 25.84749512 2.24467773 25.11694336 2.23388672 C5.60188758 1.97177337 5.60188758 1.97177337 -13.734375 4.265625 C-13.734375 3.605625 -13.734375 2.945625 -13.734375 2.265625 C-9.08991537 0.45073526 -4.93405718 -0.02917843 0 0 Z " fill="#1946DF" transform="translate(356.734375,345.734375)"/>
<path d="M0 0 C1.77119803 0.14133499 3.54195287 0.28823208 5.3125 0.4375 C6.29863281 0.51871094 7.28476562 0.59992187 8.30078125 0.68359375 C11 1 11 1 14 2 C15.6247656 2.21282313 17.25480348 2.38680032 18.88671875 2.53515625 C19.82451172 2.62216797 20.76230469 2.70917969 21.72851562 2.79882812 C22.70498047 2.88583984 23.68144531 2.97285156 24.6875 3.0625 C26.16959961 3.19881836 26.16959961 3.19881836 27.68164062 3.33789062 C30.12082148 3.56177679 32.56025587 3.78235239 35 4 C35 4.33 35 4.66 35 5 C8.10419605 5.33480254 8.10419605 5.33480254 0 1 C0 0.67 0 0.34 0 0 Z " fill="#2B81F6" transform="translate(465,881)"/>
<path d="M0 0 C0.66 0 1.32 0 2 0 C1.41800962 7.85687018 -0.30755104 15.30755104 -6 21 C-5.67 17.7 -5.34 14.4 -5 11 C-4.34 11 -3.68 11 -3 11 C-3 10.01 -3 9.02 -3 8 C-2.34 8 -1.68 8 -1 8 C-0.67 5.36 -0.34 2.72 0 0 Z " fill="#2E91F9" transform="translate(139,351)"/>
<path d="M0 0 C2.9719385 1.12451727 5.33440687 2.22293791 8 4 C8 4.66 8 5.32 8 6 C9.32 6.33 10.64 6.66 12 7 C12 7.66 12 8.32 12 9 C14.33214148 10.20628008 16.49642139 11.1654738 19 12 C19 12.66 19 13.32 19 14 C19.61875 14.0825 20.2375 14.165 20.875 14.25 C23 15 23 15 24.25 17.0625 C24.4975 17.701875 24.745 18.34125 25 19 C22.33333333 17.66666667 19.66666667 16.33333333 17 15 C17 14.34 17 13.68 17 13 C15.948125 12.62875 15.948125 12.62875 14.875 12.25 C11.60485452 10.82819762 8.858878 9.12753712 6 7 C6 6.34 6 5.68 6 5 C5.38125 4.731875 4.7625 4.46375 4.125 4.1875 C2 3 2 3 0 0 Z " fill="#2889F9" transform="translate(353,827)"/>
<path d="M0 0 C0.66 0 1.32 0 2 0 C4.04169485 2.90548882 5 4.40142046 5 8 C5.66 8 6.32 8 7 8 C7.33 10.64 7.66 13.28 8 16 C6.0625 15.4375 6.0625 15.4375 4 14 C3.25 10.375 3.25 10.375 3 7 C2.34 7 1.68 7 1 7 C0.67 4.69 0.34 2.38 0 0 Z " fill="#3799FA" transform="translate(830,295)"/>
<path d="M0 0 C1.0143635 3.16538964 0.95408471 5.27924121 0.1875 8.5 C0.01605469 9.2528125 -0.15539062 10.005625 -0.33203125 10.78125 C-1.00488931 13.01624052 -1.89502703 14.94857339 -3 17 C-3.66 17 -4.32 17 -5 17 C-5.33 18.98 -5.66 20.96 -6 23 C-6.66 23 -7.32 23 -8 23 C-8.103125 23.598125 -8.20625 24.19625 -8.3125 24.8125 C-9.08876455 27.28243264 -10.07088921 28.32251235 -12 30 C-10.53933957 26.22314947 -8.87195813 22.5898192 -7.125 18.9375 C-4.24786474 12.76012136 -1.9942425 6.51061522 0 0 Z " fill="#193ED9" transform="translate(710,436)"/>
<path d="M0 0 C1.32 0.33 2.64 0.66 4 1 C2.93359375 3.48828125 2.93359375 3.48828125 1.8671875 5.9765625 C1.58101562 6.64429688 1.29484375 7.31203125 1 8 C0.4375 9.3125 -0.125 10.625 -0.6875 11.9375 C-1.120625 12.948125 -1.55375 13.95875 -2 15 C-2.66 15 -3.32 15 -4 15 C-4 15.99 -4 16.98 -4 18 C-4.66 18 -5.32 18 -6 18 C-5.67 15.69 -5.34 13.38 -5 11 C-4.34 11 -3.68 11 -3 11 C-3 10.01 -3 9.02 -3 8 C-2.34 8 -1.68 8 -1 8 C-0.67 5.36 -0.34 2.72 0 0 Z " fill="#3293FA" transform="translate(147,332)"/>
<path d="M0 0 C8.13709505 0.71378027 16.01731928 2.32773882 24 4 C24 4.66 24 5.32 24 6 C26.31 6.33 28.62 6.66 31 7 C26.66124059 8.33223318 23.16843614 7.34036669 18.875 6.25 C18.12033447 6.0653418 17.36566895 5.88068359 16.58813477 5.69042969 C11.00464375 4.30547037 5.47313942 2.77507224 0 1 C0 0.67 0 0.34 0 0 Z " fill="#3492F9" transform="translate(437,875)"/>
<path d="M0 0 C0.66 0.33 1.32 0.66 2 1 C1.39414062 1.53367187 0.78828125 2.06734375 0.1640625 2.6171875 C-6.12116187 8.2062024 -12.11023099 13.99744818 -18 20 C-18 17 -18 17 -16 14 C-15.34 14 -14.68 14 -14 14 C-13.67 13.01 -13.34 12.02 -13 11 C-12.34 11 -11.68 11 -11 11 C-10.67 10.01 -10.34 9.02 -10 8 C-9.34 8 -8.68 8 -8 8 C-8 7.34 -8 6.68 -8 6 C-6.25 4.4921875 -6.25 4.4921875 -4 2.875 C-3.2575 2.33617187 -2.515 1.79734375 -1.75 1.2421875 C-0.88375 0.62730469 -0.88375 0.62730469 0 0 Z " fill="#1735D3" transform="translate(306,366)"/>
<path d="M0 0 C2.475 0.99 2.475 0.99 5 2 C5 2.66 5 3.32 5 4 C5.5775 4.2475 6.155 4.495 6.75 4.75 C9.32939979 6.18299988 11.06121592 7.78424676 13 10 C13 10.66 13 11.32 13 12 C13.66 12 14.32 12 15 12 C14.67 12.66 14.34 13.32 14 14 C13.45730469 13.51789062 12.91460937 13.03578125 12.35546875 12.5390625 C11.64003906 11.90742187 10.92460937 11.27578125 10.1875 10.625 C9.47980469 9.99851562 8.77210938 9.37203125 8.04296875 8.7265625 C5.91196181 6.859401 5.91196181 6.859401 3 5 C3 4.34 3 3.68 3 3 C2.01 2.67 1.02 2.34 0 2 C0 1.34 0 0.68 0 0 Z " fill="#2485F8" transform="translate(338,813)"/>
<path d="M0 0 C0.66 0.33 1.32 0.66 2 1 C0.8553125 1.86625 0.8553125 1.86625 -0.3125 2.75 C-3.01265709 4.82336958 -3.01265709 4.82336958 -4.625 7.25 C-5.07875 7.8275 -5.5325 8.405 -6 9 C-6.99 9 -7.98 9 -9 9 C-9.33 9.99 -9.66 10.98 -10 12 C-12.0625 12.6875 -12.0625 12.6875 -14 13 C-14 12.34 -14 11.68 -14 11 C-10.53846154 8 -10.53846154 8 -8 8 C-7.67 7.01 -7.34 6.02 -7 5 C-5.37109375 3.61328125 -5.37109375 3.61328125 -3.4375 2.3125 C-2.79683594 1.87550781 -2.15617188 1.43851563 -1.49609375 0.98828125 C-1.00238281 0.66214844 -0.50867188 0.33601562 0 0 Z " fill="#3393FA" transform="translate(223,244)"/>
<path d="M0 0 C0.33 0.66 0.66 1.32 1 2 C0.22265625 3.7265625 0.22265625 3.7265625 -0.9375 5.625 C-1.618125 6.73875 -2.29875 7.8525 -3 9 C-3.66 9 -4.32 9 -5 9 C-5.33 10.32 -5.66 11.64 -6 13 C-6.33 12.34 -6.66 11.68 -7 11 C-6.22265625 9.0546875 -6.22265625 9.0546875 -5.0625 6.875 C-4.49208984 5.78832031 -4.49208984 5.78832031 -3.91015625 4.6796875 C-3.60980469 4.12539063 -3.30945313 3.57109375 -3 3 C-2.34 3 -1.68 3 -1 3 C-0.67 2.01 -0.34 1.02 0 0 Z " fill="#2F88F8" transform="translate(171,297)"/>
<path d="M0 0 C0.33 0.66 0.66 1.32 1 2 C-0.25 4.5625 -0.25 4.5625 -2 7 C-2.99 7.33 -3.98 7.66 -5 8 C-5 8.66 -5 9.32 -5 10 C-5.66 10 -6.32 10 -7 10 C-5.33248852 6.05860922 -2.77289351 3.2107188 0 0 Z " fill="#328EF9" transform="translate(182,283)"/>
<path d="M0 0 C0.66 0 1.32 0 2 0 C3.4375 1.49609375 3.4375 1.49609375 5 3.4375 C7.14525044 6.15188238 7.14525044 6.15188238 10 8 C10 8.66 10 9.32 10 10 C6.03209924 8.32127275 3.13068506 5.91722926 0 3 C0 2.01 0 1.02 0 0 Z " fill="#193EDA" transform="translate(444,708)"/>
<path d="M0 0 C0.33 0.66 0.66 1.32 1 2 C-0.14453125 4.56640625 -0.14453125 4.56640625 -1.8125 7.5625 C-2.35519531 8.55378906 -2.89789062 9.54507813 -3.45703125 10.56640625 C-5 13 -5 13 -7 14 C-2.8 2.8 -2.8 2.8 0 0 Z " fill="#1C86F7" transform="translate(832,534)"/>
<path d="M0 0 C1.98 0.495 1.98 0.495 4 1 C2.49760034 4.61941735 1.17854707 7.7321794 -1 11 C-1.14285714 3.57142857 -1.14285714 3.57142857 0 0 Z " fill="#2882F7" transform="translate(147,332)"/>
<path d="M0 0 C1.32 0.33 2.64 0.66 4 1 C4.33 3.97 4.66 6.94 5 10 C2.4345406 7.4345406 2.45953913 5.52313332 2 2 C1.34 2 0.68 2 0 2 C0 1.34 0 0.68 0 0 Z " fill="#247AF5" transform="translate(817,276)"/>
<path d="M0 0 C1.8125 0.1875 1.8125 0.1875 4 1 C5.75 3.5625 5.75 3.5625 7 6 C6.01 6.495 6.01 6.495 5 7 C0 1.125 0 1.125 0 0 Z " fill="#2382F7" transform="translate(331,806)"/>
<path d="M0 0 C0.66 0 1.32 0 2 0 C2.33 2.64 2.66 5.28 3 8 C2.34 8 1.68 8 1 8 C0.67 5.36 0.34 2.72 0 0 Z " fill="#40A8FD" transform="translate(835,303)"/>
</svg>
