<svg xmlns="http://www.w3.org/2000/svg" viewBox="0 0 500 500"><defs><style>.cls-2{fill:#cc092f}</style></defs><g id="Camada_2" data-name="Camada 2"><rect id="fundo" width="500" height="500" fill="none" rx="250"/><g id="logos"><path d="M241.85 169a330.7 330.7 0 0 0-54.4 4.72 103.35 103.35 0 0 1 81.6-39.57c24.45 0 48.9 9.22 65.36 22.93 3 2.48 5.26 2.7 7.54.45s2.06-4.49-.45-7.42c-21.49-25-53-41.82-90.28-41.15-48.68.9-90.05 31.71-105.82 74.43a207.5 207.5 0 0 0-39.31 16.42c-3.2 1.8-4.34 4-3.2 6.74 1.14 2.48 3.43 3.38 6.63 2.48 10-2.93 20.34-5.4 31.08-7.65a88 88 0 0 0-1.83 17.54c-.91 39.35 20.11 76.68 52.57 97.15 3.2 2 5.94 2 7.77-.45s1.6-4.73-1.14-7.2c-20.57-18.44-32-45.87-32-73.08a96.3 96.3 0 0 1 8-38.9c10.74-.9 22.4-1.58 35.2-1.58 83.19 0 153.35 27.43 153.35 63.41 0 18.22-23.08 36.43-50.51 48.58-6.63 2.92-7.31 4.94-6.4 7.87.92 2.69 3.89 3.59 7.32 2.47 48-15.74 84.33-41.6 84.33-72.86 0-42.48-68.56-75.33-155.41-75.33" class="cls-2"/><path d="M281.57 385.19v-91.05c0-3.49-3.37-4.76-6.14-3.18l-23.15 13.32v85.3h24.86a4.43 4.43 0 0 0 4.43-4.39M224.1 323.8v63a2.86 2.86 0 0 0 2.86 2.86h17.51v-80.89L227 318.84a5.36 5.36 0 0 0-2.9 4.96" class="cls-2"/></g></g></svg>