<svg xmlns="http://www.w3.org/2000/svg" viewBox="0 0 500 500"><g data-name="Camada 2"><rect width="500" height="500" fill="none" rx="250"/><path fill="#ec0000" d="M313.37 234.25A64.1 64.1 0 0 0 305 205.2L259.16 126a62.4 62.4 0 0 1-7.16-19.28l-2 3.28a63.79 63.79 0 0 0 0 63.57l36.66 63.56a63.79 63.79 0 0 1 0 63.57l-2 3.32a59.7 59.7 0 0 0-7.17-19.02L244 226.65l-21.49-37.05a63.4 63.4 0 0 1-7.22-19.11l-1.95 3.31a63.88 63.88 0 0 0-.19 63.37L250 300.74a63.79 63.79 0 0 1 0 63.57l-1.95 3.32a64.5 64.5 0 0 0-7.21-19.11L195 269a63 63 0 0 1-8.38-34.51c-49.14 12.67-83.07 40-83.07 71.56 0 43.87 65.52 79.36 146.44 79.36S396.44 349.88 396.44 306c0-31.58-33.93-58.88-83.07-71.75"/></g></svg>