<svg xmlns="http://www.w3.org/2000/svg" width="500" height="500" fill="none"><path fill="#0500F5" d="m207.45 243.912 15.619-73.896h13.733l-34.216 160.698h-27.452l15.626-73.068zm53.422-44.544 6.339-29.352 13.726-.008-25.134 117.628-16.683 13.726-6.331 29.352h-13.733l25.339-117.628zm-107.064 89.104 25.339-118.464.008-.008h13.718l-34.421 160.714H131l6.126-28.303zm153.524 42.242 34.216-160.698H369l-6.126 28.508-16.682 13.726-25.339 118.464zm-9.926-160.698h27.46l-15.421 73.068-16.675 13.718-15.846 73.912h-13.726z"/></svg>