<svg xmlns="http://www.w3.org/2000/svg" width="500" height="500" fill="none"><path fill="#75C044" d="m224.343 224.028 26.162-45.19-21.146-36.585h-89.131c-1.897.185-3.816.713-5.586 1.741A13.24 13.24 0 0 0 128 155.523a13.2 13.2 0 0 0 1.398 5.936l65.395 113.637 21.203-36.671h.014z"/><path fill="#00AE9D" d="m229.355 142.256 55.62 96.172h42.258l44.454-77.238a13.14 13.14 0 0 0 1.313-5.671c0-7.049-5.558-12.814-12.549-13.263z"/><path fill="#BFD730" d="M324.084 238.427H216.005l-21.218 36.664 44.761 77.102c1.099 1.612 2.512 2.996 4.274 4.023A13.2 13.2 0 0 0 250.45 358c4.338 0 8.59-2.176 11.13-6.029l65.651-113.544z"/></svg>