<svg xmlns="http://www.w3.org/2000/svg" width="92" height="92" fill="none"><path fill="#FCFA04" fill-rule="evenodd" d="M42.346 40.013c-1.526.339-2.63 1.575-2.755 3.088l-.029.34.812-.012.812-.012.05-.3c.1-.592.5-1.106 1.068-1.376l.273-.13H59.25l.278.139c.512.254.875.705 1.026 1.274.091.342.09 10.629 0 10.978a1.92 1.92 0 0 1-1.325 1.387c-.057.017-.379.043-.713.057l-.61.025v1.596l.694-.003c1.798-.008 3.09-.965 3.536-2.622l.096-.357v-11.13l-.094-.357c-.35-1.334-1.32-2.266-2.69-2.584-.36-.084-16.726-.085-17.102-.002m-5.46 4.25c-.225.023-.604.109-.648.148a.17.17 0 0 1-.099.035c-.13 0-.767.352-1.03.569a3.67 3.67 0 0 0-1.165 1.741l-.102.315v5.712c0 5.984-.005 5.813.175 6.3.406 1.093 1.345 1.936 2.45 2.2.51.12 1.135.13 8.66.13 7.418 0 8.352-.013 8.685-.123.058-.02.19-.06.294-.09 1.004-.295 1.958-1.28 2.233-2.306.158-.591.159-.621.159-6.07 0-5.545-.002-5.628-.183-6.173-.345-1.037-1.256-1.945-2.251-2.242a6 6 0 0 1-.315-.104c-.117-.044-16.43-.084-16.862-.042m16.742 1.721c.843.348 1.26 1.053 1.226 2.074l-.013.399-9.696.01-9.697.011.02-.62c.031-.993.382-1.548 1.167-1.85.337-.13-.157-.122 8.63-.117l8.148.004zm1.225 9.172c.01 2.043 0 2.898-.036 3.063-.152.707-.617 1.234-1.269 1.437-.242.075-.555.078-8.49.067l-8.239-.01-.32-.159a1.94 1.94 0 0 1-.89-.913l-.13-.273-.011-3.034-.012-3.034 9.692.01 9.693.01z" clip-rule="evenodd"/><path fill="#05349B" fill-rule="evenodd" d="M32.017 31.473c-.615.12-1.174.645-1.368 1.285-.11.363-.09 4.41.025 4.757.188.574.576.968 1.155 1.172.391.138 4.43.14 4.85.002a1.83 1.83 0 0 0 1.215-1.378c.056-.298.057-4.119 0-4.415-.131-.694-.733-1.295-1.426-1.427-.274-.052-4.185-.048-4.451.004" clip-rule="evenodd"/><path fill="#FCFBFA" fill-rule="evenodd" d="M25.004 28.855c.002 2.189.019 3.817.04 3.769a.7.7 0 0 0 .038-.21c.023-.962.78-2.805 1.613-3.927 1.326-1.785 3.978-3.363 5.719-3.404a.7.7 0 0 0 .21-.04c.048-.02-1.58-.037-3.77-.039l-3.853-.003zm34.373-3.812c.046.02.14.038.21.04.962.022 2.804.78 3.926 1.613 1.785 1.325 3.364 3.977 3.405 5.718.002.07.02.164.04.21.02.048.037-1.58.038-3.77L67 25.002l-3.853.003c-2.189.002-3.817.019-3.77.04M25.004 63.146l-.003 3.853 3.854-.003c2.189-.001 3.817-.018 3.769-.039a.7.7 0 0 0-.21-.039c-1.741-.041-4.393-1.62-5.719-3.405-.833-1.122-1.59-2.964-1.613-3.926a.7.7 0 0 0-.039-.21c-.02-.048-.037 1.58-.039 3.769m41.942-3.685c-.017.092-.053.29-.078.44-.587 3.471-3.496 6.38-6.966 6.967-.15.025-.35.06-.441.078-.093.018 1.56.037 3.67.043 2.112.006 3.846.004 3.854-.004s.01-1.742.004-3.853-.025-3.764-.043-3.671" clip-rule="evenodd"/><path fill="#FB6404" fill-rule="evenodd" d="M33.128 25.044c-.014.023-.105.042-.202.042-.496 0-1.688.255-2.213.472a11 11 0 0 1-.388.153 10 10 0 0 0-1.018.51 2 2 0 0 1-.232.134c-.554.2-2.52 2.166-2.72 2.72-.013.035-.073.14-.134.232a10 10 0 0 0-.51 1.018l-.074.189-.08.2a3 3 0 0 0-.096.272l-.084.273c-.125.395-.29 1.343-.291 1.667 0 .097-.02.188-.042.202-.059.036-.059 25.709 0 25.745.023.014.042.105.042.202 0 .488.248 1.656.466 2.202l.08.2.079.2c.086.219.408.862.51 1.018.06.092.12.196.134.231.2.554 2.166 2.52 2.72 2.72.035.013.14.073.232.134a10 10 0 0 0 1.018.51c.14.055.293.116.399.16.052.022.17.063.262.09l.273.084c.395.125 1.343.29 1.667.291.097 0 .188.02.202.042.036.059 25.709.059 25.745 0 .014-.023.105-.042.202-.042.223 0 .929-.106 1.287-.193a7 7 0 0 0 1.104-.347l.21-.085c.22-.086.863-.408 1.019-.51.092-.06.196-.12.231-.133.554-.2 2.52-2.167 2.72-2.72.013-.036.073-.14.134-.232a7 7 0 0 0 .292-.546 8 8 0 0 0 .303-.683l.076-.189c.021-.052.062-.17.09-.262.027-.093.065-.215.084-.273.124-.395.29-1.342.29-1.667 0-.097.02-.188.042-.202.059-.036.059-25.709 0-25.745-.023-.014-.042-.105-.042-.202 0-.496-.255-1.688-.472-2.213a11 11 0 0 1-.153-.388 10 10 0 0 0-.51-1.018 2 2 0 0 1-.133-.232c-.2-.554-2.167-2.52-2.72-2.72a2 2 0 0 1-.232-.134c-.155-.101-.78-.415-1.03-.516l-.398-.16a4 4 0 0 0-.252-.084l-.273-.084c-.395-.125-1.342-.29-1.667-.291-.097 0-.188-.02-.202-.042-.036-.059-25.709-.059-25.745 0m3.34 6.426c.693.131 1.295.733 1.427 1.426.056.297.056 4.117 0 4.416a1.83 1.83 0 0 1-1.217 1.377c-.419.138-4.457.136-4.849-.002-.578-.204-.966-.598-1.155-1.172-.114-.347-.135-4.393-.024-4.757.194-.64.752-1.164 1.367-1.285.267-.052 4.178-.055 4.451-.003m22.99 8.48.297.086c.586.17 1.306.624 1.637 1.033.092.114.202.244.243.29.106.116.422.758.487.988.029.104.075.245.102.315.063.162.095 10.727.034 11.297-.146 1.374-1.112 2.614-2.319 2.978a4 4 0 0 1-.646.156c-.139.021-.5.05-.805.063-.696.032-.65.1-.635-.938l.012-.789.588-.027c1.132-.05 1.67-.383 1.996-1.233.114-.297.125-.807.125-5.674 0-5.975.02-5.75-.567-6.335-.188-.187-.3-.257-.731-.46-.074-.033-2.331-.046-8.337-.046-8.804 0-8.424-.009-8.725.197a.5.5 0 0 1-.139.076c-.13 0-.608.593-.694.86-.03.093-.07.206-.089.253-.02.046-.04.16-.047.252l-.011.168h-1.722l.003-.21c.005-.254.053-.6.102-.714.019-.047.06-.174.09-.284s.069-.2.087-.2.033-.024.033-.054c0-.077.099-.28.136-.28.018-.001.032-.022.032-.046 0-.26.873-1.106 1.428-1.383l.346-.174c.04-.02.11-.036.155-.036s.093-.019.108-.042.077-.042.139-.043a.4.4 0 0 0 .176-.041c.082-.053 16.93-.057 17.11-.004m-5.425 4.38c1.207.42 2.063 1.313 2.408 2.51.097.338.151 11.048.058 11.613a3.7 3.7 0 0 1-.712 1.634c-.214.271-.78.78-.869.78-.027 0-.055.015-.063.032-.013.03-.5.276-.686.347a5 5 0 0 1-.644.164c-.325.066-16.431.064-16.782-.002-1.552-.293-2.695-1.447-2.947-2.976-.087-.528-.087-10.728 0-11.256.216-1.305 1.082-2.339 2.356-2.81.456-.168.303-.166 9.114-.158l8.441.008zm-17.314 1.7c-.78.27-1.171.868-1.208 1.85l-.02.556h19.297l-.016-.577c-.027-.971-.403-1.545-1.187-1.815-.34-.117-16.528-.13-16.866-.013M35.5 55.17c0 1.854.016 2.912.046 3.076.115.63.579 1.15 1.213 1.358l.267.088h16.255l.25-.089q.922-.327 1.18-1.21c.057-.199.066-.606.066-3.14v-2.91H35.501z" clip-rule="evenodd"/><path fill="#FC9320" fill-rule="evenodd" d="M32.561 25.046c-.08.019-.28.056-.441.084-3.495.585-6.411 3.502-6.99 6.99-.027.162-.067.375-.089.473-.053.239-.052.568.002.535.024-.014.043-.105.043-.202 0-.496.254-1.688.471-2.213a11 11 0 0 0 .153-.389c.086-.22.409-.863.51-1.018a1.6 1.6 0 0 0 .134-.232c.2-.554 2.166-2.52 2.72-2.72a2 2 0 0 0 .232-.133 10 10 0 0 1 1.019-.51l.21-.085a4 4 0 0 1 .451-.166c.092-.028.215-.065.273-.084.394-.125 1.342-.29 1.667-.29.097 0 .188-.02.202-.043.03-.05-.348-.048-.567.003m26.312-.003c.014.023.105.042.202.043.222 0 .929.106 1.287.192.45.11.768.21 1.104.348l.21.084c.22.086.863.409 1.018.51.093.061.197.121.232.134.554.2 2.52 2.166 2.72 2.72.013.035.073.14.134.232.102.155.424.799.51 1.018l.073.19c.02.051.057.141.082.199.024.058.067.18.095.273l.084.273c.125.394.29 1.342.29 1.667.001.097.02.188.043.202.054.033.055-.296.002-.535a11 11 0 0 1-.088-.473c-.58-3.488-3.503-6.411-6.99-6.99a11 11 0 0 1-.474-.089c-.238-.053-.568-.052-.534.002m-16.527 14.91a.4.4 0 0 1-.175.04c-.063.001-.125.02-.14.043-.014.023-.062.042-.108.042a.4.4 0 0 0-.154.037l-.346.173c-.555.278-1.428 1.123-1.428 1.383 0 .025-.015.046-.032.046-.038 0-.136.203-.136.28 0 .03-.015.055-.033.055s-.058.09-.088.2-.07.237-.09.283c-.048.116-.097.461-.1.714l-.004.21h1.721l.007-.189.005-.189-.026.168-.028.168-.814.012-.815.011.029-.34c.12-1.432 1.12-2.622 2.566-3.052.356-.105 16.826-.139 17.283-.035 1.499.341 2.553 1.462 2.767 2.942l.036.252.005-.207a1.3 1.3 0 0 0-.034-.336c-.021-.07-.063-.214-.092-.318-.065-.23-.382-.872-.487-.987a9 9 0 0 1-.243-.29c-.331-.41-1.052-.864-1.638-1.034l-.296-.086c-.18-.054-17.029-.05-17.112.003m.295 1.668c-.458.087-1.007.523-1.238.986-.144.287-.193.486-.106.432.023-.014.042-.063.042-.108 0-.214.572-1.005.728-1.005.02 0 .086-.034.147-.076.3-.205-.08-.197 8.725-.197 6.005 0 8.263.013 8.337.047.43.202.543.273.73.46.587.585.567.36.567 6.334 0 4.868-.01 5.378-.125 5.675-.326.85-.864 1.182-1.995 1.233l-.588.027-.012.788c-.015 1.039-.061.97.635.94.304-.015.666-.043.804-.065.228-.035.323-.057.647-.155.98-.296 1.997-1.4 2.24-2.432.098-.42.11-1.114.104-6.048l-.007-5.25-.023 5.46-.022 5.46-.096.336c-.47 1.655-1.746 2.593-3.535 2.6l-.693.003V55.47l.609-.025a6 6 0 0 0 .714-.057 1.92 1.92 0 0 0 1.324-1.387c.09-.35.091-10.636 0-10.978a1.96 1.96 0 0 0-1.026-1.275l-.277-.138-8.253-.005c-4.539-.002-8.3.004-8.357.015m-6.09 2.639a3.56 3.56 0 0 0-2.755 2.916c-.087.528-.087 10.728 0 11.255.252 1.53 1.395 2.684 2.946 2.976.351.066 16.458.069 16.783.003.272-.055.53-.121.644-.164.186-.072.673-.317.686-.347.008-.017.036-.032.063-.032.088 0 .655-.51.868-.78a3.7 3.7 0 0 0 .713-1.635c.093-.564.039-11.274-.058-11.612-.346-1.198-1.201-2.09-2.408-2.51l-.326-.114-8.442-.008c-7.14-.007-8.483.001-8.714.052m17.198.045c.07.026.21.073.315.104.995.297 1.907 1.205 2.25 2.242.182.545.184.627.184 6.174 0 5.448 0 5.477-.16 6.068-.274 1.028-1.227 2.012-2.232 2.307a8 8 0 0 0-.294.09c-.333.11-1.267.123-8.685.123-7.525 0-8.15-.01-8.66-.13-1.105-.264-2.044-1.108-2.45-2.2-.18-.487-.175-.316-.175-6.3V47.07l.102-.315a3.67 3.67 0 0 1 1.165-1.741c.263-.217.9-.569 1.03-.569a.17.17 0 0 0 .099-.035c.044-.04.423-.126.649-.148.431-.042 16.746-.002 16.862.042m-16.757 1.598c-.92.123-1.489.853-1.524 1.956l-.02.62 9.697-.011 9.696-.011.013-.399c.033-1.021-.383-1.726-1.226-2.074l-.215-.089-8.148-.004c-4.48-.003-8.204.003-8.273.012m16.593.14c.784.27 1.16.845 1.186 1.816l.016.577H35.49l.022-.556c.036-.982.427-1.58 1.208-1.85.337-.117 16.525-.104 16.866.014m-18.117 9.291.012 3.034.13.273c.189.4.503.722.89.913l.32.158 8.238.011c7.935.011 8.248.008 8.49-.067.652-.203 1.117-.73 1.27-1.438.035-.164.045-1.02.036-3.062l-.013-2.835-9.693-.01-9.692-.011zm19.31-.081c0 2.533-.009 2.94-.067 3.14q-.257.882-1.18 1.21l-.25.088H37.027l-.268-.087a1.78 1.78 0 0 1-1.212-1.359c-.03-.163-.046-1.221-.046-3.076v-2.827h19.277zM25 59.037c0 .105.018.272.04.37.022.099.062.312.089.473.579 3.488 3.503 6.412 6.99 6.99.162.027.375.067.473.089.239.053.568.052.535-.002-.014-.023-.105-.042-.202-.042-.496-.001-1.688-.255-2.213-.472a12 12 0 0 0-.388-.153 10 10 0 0 1-1.019-.51 2 2 0 0 0-.232-.134c-.554-.2-2.52-2.166-2.72-2.72a2 2 0 0 0-.133-.232 10 10 0 0 1-.51-1.018l-.085-.21a7 7 0 0 1-.348-1.104c-.086-.358-.192-1.065-.192-1.288 0-.096-.02-.187-.043-.202-.025-.016-.042.049-.042.165m41.946-.162c-.018.018-.032.11-.032.204 0 .484-.249 1.654-.466 2.198l-.074.189c-.085.22-.131.324-.303.682-.1.208-.232.454-.292.546a2 2 0 0 0-.134.232c-.2.554-2.166 2.52-2.72 2.72a2 2 0 0 0-.232.133 10 10 0 0 1-1.018.511c-.052.02-.147.058-.21.085a4 4 0 0 1-.452.165l-.273.084c-.394.125-1.342.29-1.666.29-.097 0-.188.02-.203.043-.033.054.297.055.535.002.099-.022.312-.062.474-.089 3.488-.579 6.4-3.49 6.99-6.99.028-.161.07-.388.093-.504.046-.225.035-.553-.017-.5" clip-rule="evenodd"/></svg>