<?xml version="1.0" standalone="no"?>
<!DOCTYPE svg PUBLIC "-//W3C//DTD SVG 20010904//EN"
 "http://www.w3.org/TR/2001/REC-SVG-20010904/DTD/svg10.dtd">
<svg version="1.0" xmlns="http://www.w3.org/2000/svg"
 width="1700.000000pt" height="1700.000000pt" viewBox="0 0 1700.000000 1700.000000"
 preserveAspectRatio="xMidYMid meet">

<g transform="translate(0.000000,1700.000000) scale(0.100000,-0.100000)"
fill="#000000" stroke="none">
<path d="M3925 15329 c-852 -83 -1609 -605 -1991 -1374 -90 -181 -142 -323
-189 -510 -73 -296 -66 156 -77 -4840 -7 -3252 -6 -4537 2 -4633 40 -490 204
-921 501 -1319 101 -135 348 -380 489 -485 334 -248 665 -389 1105 -470 107
-20 162 -21 1885 -28 2767 -12 7257 -11 7390 0 728 64 1371 421 1807 1005 254
339 410 726 475 1180 11 73 13 963 13 4640 0 4336 -1 4556 -18 4670 -43 285
-116 525 -231 760 -131 265 -254 440 -456 649 -375 386 -820 623 -1355 723
l-140 26 -1765 7 c-2345 10 -7344 9 -7445 -1z m55 -8654 l0 -2435 -527 0 -526
0 6 1232 c4 677 7 1773 7 2435 l0 1203 520 0 520 0 0 -2435z m1910 1795 l0
-630 305 0 305 0 0 -340 0 -340 -305 0 -305 0 0 -1048 0 -1048 23 -44 c30 -60
87 -88 210 -102 86 -9 320 -4 353 9 12 4 14 -45 14 -359 l0 -365 -167 -6
c-408 -17 -698 -5 -861 33 -299 71 -457 217 -518 480 -16 69 -18 173 -21 1263
l-4 1187 -244 0 -245 0 0 340 0 340 250 0 250 0 0 630 0 630 480 0 480 0 0
-630z m7498 603 c-13 -16 -172 -191 -352 -390 l-328 -363 -344 0 c-189 0 -344
2 -344 5 0 3 91 178 202 390 l202 385 495 0 495 0 -26 -27z m-4647 -1143 c320
-25 588 -98 790 -216 197 -115 343 -279 413 -465 63 -168 59 -78 65 -1609 4
-767 6 -1396 6 -1397 0 0 -187 -3 -415 -5 l-415 -3 -22 70 c-21 64 -54 212
-68 308 l-6 38 -100 -95 c-242 -232 -487 -354 -824 -407 -118 -19 -400 -17
-510 4 -366 68 -632 257 -769 547 -124 264 -139 601 -39 903 63 191 187 362
351 487 78 59 252 146 367 184 119 38 187 50 702 126 260 38 502 76 539 85
136 31 244 115 260 202 12 65 -2 188 -28 245 -33 72 -68 111 -136 152 -100 61
-181 78 -398 83 -171 5 -199 3 -274 -16 -46 -12 -107 -33 -135 -47 -71 -37
-158 -126 -194 -198 -31 -65 -61 -166 -61 -210 l0 -26 -470 0 -471 0 7 53 c30
248 114 493 227 662 124 184 306 329 520 415 271 108 702 160 1088 130z m2999
-1315 c5 -1122 7 -1225 23 -1278 24 -83 62 -159 107 -215 154 -196 546 -248
836 -111 220 104 359 315 393 594 7 60 11 448 11 1163 l0 1072 480 0 480 0 0
-1805 0 -1805 -465 0 -465 0 -2 255 -3 255 -55 -82 c-64 -97 -210 -248 -296
-306 -145 -97 -318 -166 -498 -199 -139 -26 -417 -23 -567 5 -257 48 -455 147
-615 306 -158 159 -264 377 -316 651 -19 102 -21 155 -25 735 -3 344 -2 932 2
1308 l7 682 482 -2 481 -3 5 -1220z"/>
<path d="M9015 5954 c-94 -56 -246 -98 -547 -149 -333 -57 -481 -110 -585
-211 -170 -167 -175 -499 -9 -652 101 -93 212 -127 390 -119 360 16 674 218
777 498 22 61 23 80 27 362 2 163 0 297 -5 296 -4 0 -26 -12 -48 -25z"/>
</g>
</svg>
