<svg version="1.1" id="Layer_1" xmlns="http://www.w3.org/2000/svg" xmlns:xlink="http://www.w3.org/1999/xlink" x="0px" y="0px"
	 width="100%" viewBox="0 0 512 512" enable-background="new 0 0 512 512" xml:space="preserve">
<path fill="#FFFFFF" opacity="1.000000" stroke="none" 
	d="
M306.000000,513.000000 
	C204.024765,513.000000 102.549522,513.000000 1.037143,513.000000 
	C1.037143,342.399750 1.037143,171.799469 1.037143,1.099597 
	C171.558578,1.099597 342.117249,1.099597 512.837952,1.099597 
	C512.837952,171.666550 512.837952,342.333252 512.837952,513.000000 
	C444.132782,513.000000 375.316376,513.000000 306.000000,513.000000 
M427.004608,166.428925 
	C426.631256,166.037735 426.257935,165.646530 425.371033,164.741623 
	C421.653503,158.468353 417.935974,152.195084 414.040283,145.248154 
	C408.058746,138.149826 402.077209,131.051514 395.829346,123.334976 
	C389.647400,117.850433 383.465454,112.365891 376.931702,106.290115 
	C369.297180,101.167366 361.662689,96.044609 353.658661,90.343941 
	C344.783173,86.199097 335.907654,82.054253 326.531647,77.400459 
	C323.876434,76.440079 321.239563,75.425087 318.563171,74.527855 
	C294.670044,66.517906 270.247620,62.566204 244.101440,64.832115 
	C237.336945,65.701698 230.572464,66.571281 222.969269,67.529305 
	C217.261368,68.840805 211.553482,70.152298 205.051483,71.592354 
	C193.046204,76.427628 181.040924,81.262909 168.344086,86.209297 
	C144.536438,98.426720 124.180984,114.967758 107.386383,135.740707 
	C102.017342,142.381592 97.661118,149.841339 92.928818,156.944931 
	C92.928818,156.944931 92.906075,156.858597 92.399803,157.049484 
	C92.287132,157.380325 92.174469,157.711151 91.548737,158.484329 
	C88.216553,164.775604 84.884369,171.066879 81.039536,177.857407 
	C77.738144,187.571823 74.436745,197.286240 70.766098,207.676620 
	C68.923393,218.784943 67.080688,229.893250 64.989456,241.895187 
	C64.963387,245.597275 64.937317,249.299377 64.693779,253.917892 
	C64.863708,260.278046 65.033638,266.638214 65.040359,273.854218 
	C66.021736,280.236145 67.003113,286.618042 67.920601,293.835541 
	C70.878853,304.534485 73.209686,315.457977 76.939934,325.880615 
	C82.779686,342.197418 91.014534,357.376465 101.970459,371.759583 
	C107.617004,378.188721 113.263550,384.617889 119.166962,391.668915 
	C124.641380,396.514954 130.115799,401.360962 135.955383,406.792267 
	C149.535675,418.019653 164.437271,427.028961 181.324524,433.962921 
	C196.959442,441.327789 213.513840,445.683350 230.553528,447.789124 
	C240.694977,449.042419 251.022629,448.789062 262.161530,449.321594 
	C266.771332,449.088470 271.381134,448.855347 276.800964,448.776184 
	C286.264587,447.040405 295.728180,445.304626 305.984558,443.428375 
	C313.323151,440.944122 320.661743,438.459869 328.734589,435.930573 
	C335.872864,432.460938 343.011139,428.991302 350.861633,425.341797 
	C359.372528,419.608124 367.883423,413.874451 376.892639,407.720978 
	C380.096893,405.185455 383.473206,402.837616 386.477173,400.083618 
	C404.777344,383.306549 419.943909,364.169983 430.733459,340.911896 
	C433.254913,334.649078 435.776398,328.386261 438.779053,321.601105 
	C441.589539,310.064941 444.400024,298.528748 447.635742,286.325806 
	C448.107361,280.557587 448.578979,274.789398 449.405670,268.289337 
	C449.040436,257.545044 448.675201,246.800735 448.530518,235.281982 
	C446.607880,219.044113 443.049408,203.177017 436.924164,188.003525 
	C434.029114,180.831955 430.319122,173.989349 426.992859,167.005936 
	C426.992859,167.005936 426.994354,167.022644 427.004608,166.428925 
z"/>
<path fill="#296EF3" opacity="1.000000" stroke="none" 
	d="
M81.552185,177.358154 
	C84.884369,171.066879 88.216553,164.775604 92.039200,158.144073 
	C92.655136,157.488739 92.780602,157.173660 92.906067,156.858597 
	C92.906075,156.858597 92.928818,156.944931 93.219498,156.843140 
	C94.112007,156.175751 94.825844,155.690720 95.299309,155.032745 
	C106.875580,138.944901 121.903130,126.831467 139.639847,118.423447 
	C148.978134,113.996658 159.184097,111.400253 169.373856,107.985420 
	C170.500671,107.999687 171.251892,108.005890 172.002136,108.449890 
	C172.021820,110.381104 171.815445,111.919060 172.098160,113.361122 
	C175.107346,128.710312 178.349503,144.015579 181.190460,159.395203 
	C182.502579,166.498474 183.072739,173.738785 183.574158,180.946014 
	C182.348999,181.064789 181.509506,181.070938 180.711838,181.256714 
	C168.906204,184.005890 159.328491,190.471069 150.892151,198.769196 
	C149.548233,197.601639 148.478806,196.352905 147.162506,195.983276 
	C137.343613,193.226074 127.498856,190.552811 117.617210,188.029404 
	C106.737030,185.251022 95.794617,182.715836 84.920898,179.913345 
	C83.662094,179.588928 82.668655,178.234848 81.552185,177.358154 
z"/>
<path fill="#1E66F2" opacity="1.000000" stroke="none" 
	d="
M414.218445,145.921814 
	C417.935974,152.195084 421.653503,158.468353 425.653931,165.280228 
	C426.289368,166.220093 426.641846,166.621368 426.994354,167.022644 
	C426.994354,167.022644 426.992859,167.005936 426.959961,167.394867 
	C434.797455,188.493042 437.434967,209.931778 435.613464,232.242172 
	C433.602081,239.388214 431.850098,246.248062 429.854553,252.813141 
	C428.050232,252.007614 426.516876,251.381409 424.924561,251.003815 
	C407.958191,246.980316 390.973907,243.032135 374.014587,238.979401 
	C368.960327,237.771591 363.968903,236.301071 359.004395,234.577759 
	C364.211182,222.037445 364.212891,209.604401 361.334595,196.969421 
	C362.867950,196.356476 364.326050,196.047791 365.185394,195.159698 
	C376.532867,183.433090 387.706238,171.536987 399.123108,159.879074 
	C403.912170,154.988953 409.172424,150.560287 414.218445,145.921814 
z"/>
<path fill="#1E66F2" opacity="1.000000" stroke="none" 
	d="
M275.990936,448.622223 
	C271.381134,448.855347 266.771332,449.088470 261.249756,449.159790 
	C257.848053,448.867706 255.358124,448.737427 252.751587,448.461273 
	C252.433411,448.151733 252.203537,448.055420 251.510254,448.036621 
	C238.548340,447.010498 226.551498,443.724792 215.212799,438.489960 
	C207.272736,434.824158 199.793884,430.159424 191.938202,425.648621 
	C186.162323,420.245789 180.557297,415.135132 175.301559,409.982971 
	C184.851074,401.349243 194.194016,392.903381 203.205185,384.117279 
	C210.097305,377.397400 216.470551,370.146820 223.312363,363.372498 
	C224.691788,362.006714 227.140228,361.720551 229.386612,361.096375 
	C231.760544,363.156799 233.552704,365.641388 235.980209,366.850891 
	C243.897552,370.795685 252.046783,374.275116 259.795532,378.091064 
	C259.433624,380.030029 259.031708,381.890930 259.412292,383.574982 
	C260.026642,386.293396 261.331604,388.849548 262.038940,391.554230 
	C265.912262,406.365234 269.742554,421.188019 273.472046,436.035797 
	C274.513184,440.180664 275.162079,444.424042 275.990936,448.622223 
z"/>
<path fill="#0291FF" opacity="1.000000" stroke="none" 
	d="
M430.180878,341.377686 
	C419.943909,364.169983 404.777344,383.306549 386.477173,400.083618 
	C383.473206,402.837616 380.096893,405.185455 376.248230,407.849854 
	C375.035614,407.075348 374.217987,406.242554 373.938934,405.257263 
	C371.776062,397.620300 369.623718,389.977875 367.648041,382.290894 
	C364.688965,370.777557 361.988281,359.196960 358.941711,347.707520 
	C357.867554,343.656464 356.100098,339.789246 354.877686,335.571228 
	C358.398682,333.159485 361.691193,331.014557 365.310791,328.774536 
	C371.145844,325.151978 376.653748,321.624542 382.462341,318.042389 
	C383.503174,317.635925 384.243347,317.284149 385.138550,317.250519 
	C386.079987,318.145660 386.797302,318.869202 387.663300,319.277191 
	C397.466339,323.896088 407.385559,328.280151 417.071014,333.131653 
	C421.665131,335.432831 425.824524,338.601807 430.180878,341.377686 
z"/>
<path fill="#0A96FF" opacity="1.000000" stroke="none" 
	d="
M245.000107,65.001823 
	C270.247620,62.566204 294.670044,66.517906 318.563171,74.527855 
	C321.239563,75.425087 323.876434,76.440079 326.742676,78.005630 
	C325.845886,80.030388 324.886017,81.602356 323.606232,82.844757 
	C315.497009,90.716934 307.126740,98.329559 299.216583,106.394661 
	C292.019409,113.732811 285.341370,121.578018 278.321320,129.093994 
	C277.144073,130.354416 275.391449,131.077438 273.559692,131.993378 
	C269.810516,130.303162 266.406342,128.668350 262.693665,126.878258 
	C257.945862,124.132019 253.506577,121.541077 248.870789,118.700615 
	C247.437820,117.684677 246.201355,116.918251 244.976044,115.674271 
	C244.991501,98.465080 244.995804,81.733452 245.000107,65.001823 
z"/>
<path fill="#0A96FF" opacity="1.000000" stroke="none" 
	d="
M101.716522,371.117188 
	C91.014534,357.376465 82.779686,342.197418 76.939934,325.880615 
	C73.209686,315.457977 70.878853,304.534485 68.389267,293.417786 
	C75.745361,294.590546 82.643120,296.138245 89.514877,297.793884 
	C92.075699,298.410858 94.544647,299.413879 97.109192,300.009705 
	C105.636810,301.990875 114.168999,303.962006 122.738281,305.750885 
	C128.706146,306.996704 134.737793,307.937042 140.809723,309.474854 
	C140.926956,314.623077 140.975418,319.310333 140.994049,324.460602 
	C141.297333,329.618195 141.630463,334.312775 141.954407,339.435303 
	C141.967331,341.575928 141.989456,343.288574 141.639740,345.005737 
	C133.514343,350.171417 125.773247,355.351440 118.002998,360.487366 
	C112.594902,364.061981 107.146767,367.576050 101.716522,371.117188 
z"/>
<path fill="#1D7FF8" opacity="1.000000" stroke="none" 
	d="
M65.237976,241.001572 
	C67.080688,229.893250 68.923393,218.784943 71.347557,207.348251 
	C81.967735,209.631516 92.025978,212.171234 102.036041,214.888443 
	C106.332146,216.054596 110.491142,217.720779 114.777443,218.929214 
	C123.449173,221.374023 132.165268,223.661453 140.895508,226.480270 
	C140.875824,236.635300 140.823700,246.323807 140.369812,256.007416 
	C132.893417,254.335632 125.855255,252.488251 118.734444,251.050079 
	C110.807175,249.449020 102.789291,248.302338 94.838806,246.809006 
	C84.956894,244.952911 75.103622,242.944305 65.237976,241.001572 
z"/>
<path fill="#0787FC" opacity="1.000000" stroke="none" 
	d="
M354.649200,335.838074 
	C356.100098,339.789246 357.867554,343.656464 358.941711,347.707520 
	C361.988281,359.196960 364.688965,370.777557 367.648041,382.290894 
	C369.623718,389.977875 371.776062,397.620300 373.938934,405.257263 
	C374.217987,406.242554 375.035614,407.075348 375.999054,408.059753 
	C367.883423,413.874451 359.372528,419.608124 350.442047,425.007812 
	C345.926483,409.323059 341.793396,393.982056 337.754578,378.616272 
	C336.335419,373.217010 335.230804,367.735321 333.827911,362.331421 
	C332.674316,357.887878 331.291962,353.503723 330.270721,348.964233 
	C331.018402,348.523926 331.506378,348.212646 332.320190,347.799652 
	C337.752350,344.727051 342.858612,341.756134 348.282227,338.680969 
	C350.616150,337.663849 352.632690,336.750946 354.649200,335.838074 
z"/>
<path fill="#0F8CFC" opacity="1.000000" stroke="none" 
	d="
M273.904694,132.048782 
	C275.391449,131.077438 277.144073,130.354416 278.321320,129.093994 
	C285.341370,121.578018 292.019409,113.732811 299.216583,106.394661 
	C307.126740,98.329559 315.497009,90.716934 323.606232,82.844757 
	C324.886017,81.602356 325.845886,80.030388 326.992920,78.260117 
	C335.907654,82.054253 344.783173,86.199097 353.804199,90.985153 
	C353.314697,92.568840 352.812256,93.643333 352.024902,94.434113 
	C339.183136,107.331436 326.415314,120.305763 313.378357,133.003510 
	C308.564362,137.692245 303.097443,141.710663 297.590149,146.006104 
	C295.843658,145.289520 294.435394,144.601608 292.800537,143.653168 
	C288.062805,140.901596 283.551605,138.410568 278.838409,135.665009 
	C277.059174,134.289917 275.481934,133.169342 273.904694,132.048782 
z"/>
<path fill="#2277F5" opacity="1.000000" stroke="none" 
	d="
M140.863083,226.013763 
	C132.165268,223.661453 123.449173,221.374023 114.777443,218.929214 
	C110.491142,217.720779 106.332146,216.054596 102.036041,214.888443 
	C92.025978,212.171234 81.967735,209.631516 71.532181,207.010284 
	C74.436745,197.286240 77.738144,187.571823 81.295868,177.607788 
	C82.668655,178.234848 83.662094,179.588928 84.920898,179.913345 
	C95.794617,182.715836 106.737030,185.251022 117.617210,188.029404 
	C127.498856,190.552811 137.343613,193.226074 147.162506,195.983276 
	C148.478806,196.352905 149.548233,197.601639 150.832352,199.106873 
	C145.173523,207.596313 141.860962,216.360962 140.863083,226.013763 
z"/>
<path fill="#176FF5" opacity="1.000000" stroke="none" 
	d="
M276.395935,448.699219 
	C275.162079,444.424042 274.513184,440.180664 273.472046,436.035797 
	C269.742554,421.188019 265.912262,406.365234 262.038940,391.554230 
	C261.331604,388.849548 260.026642,386.293396 259.412292,383.574982 
	C259.031708,381.890930 259.433624,380.030029 260.249725,378.090393 
	C270.350586,378.949280 279.141846,376.393463 287.952454,374.276062 
	C288.163269,376.517181 288.143158,378.367706 288.579193,380.103668 
	C291.177185,390.446442 293.850067,400.770721 296.556824,411.085724 
	C299.400574,421.922516 302.310669,432.741882 305.191772,443.568848 
	C295.728180,445.304626 286.264587,447.040405 276.395935,448.699219 
z"/>
<path fill="#176FF5" opacity="1.000000" stroke="none" 
	d="
M414.129364,145.584991 
	C409.172424,150.560287 403.912170,154.988953 399.123108,159.879074 
	C387.706238,171.536987 376.532867,183.433090 365.185394,195.159698 
	C364.326050,196.047791 362.867950,196.356476 361.076935,196.724182 
	C357.987335,187.553131 351.842010,180.987488 346.057983,173.933563 
	C347.580017,171.774933 348.784210,169.751297 350.408142,168.154556 
	C363.754456,155.031723 377.171265,141.980484 390.588593,128.930054 
	C392.361053,127.206093 394.256958,125.609024 396.095673,123.953186 
	C402.077209,131.051514 408.058746,138.149826 414.129364,145.584991 
z"/>
<path fill="#1383FA" opacity="1.000000" stroke="none" 
	d="
M297.928314,146.034790 
	C303.097443,141.710663 308.564362,137.692245 313.378357,133.003510 
	C326.415314,120.305763 339.183136,107.331436 352.024902,94.434113 
	C352.812256,93.643333 353.314697,92.568840 353.988953,91.274109 
	C361.662689,96.044609 369.297180,101.167366 376.744019,106.641838 
	C375.124542,108.075447 373.496429,108.975136 372.294403,110.270287 
	C366.668610,116.331932 361.346680,122.685081 355.565155,128.590424 
	C347.353760,136.977676 338.781799,145.010803 330.481445,153.312759 
	C328.108765,155.685852 326.142792,158.465546 323.639526,161.004395 
	C317.866516,157.961151 312.444366,154.972321 306.817932,151.714966 
	C303.718506,149.642548 300.823425,147.838669 297.928314,146.034790 
z"/>
<path fill="#177AF7" opacity="1.000000" stroke="none" 
	d="
M323.990356,161.058777 
	C326.142792,158.465546 328.108765,155.685852 330.481445,153.312759 
	C338.781799,145.010803 347.353760,136.977676 355.565155,128.590424 
	C361.346680,122.685081 366.668610,116.331932 372.294403,110.270287 
	C373.496429,108.975136 375.124542,108.075447 376.919922,106.937454 
	C383.465454,112.365891 389.647400,117.850433 395.962524,123.644073 
	C394.256958,125.609024 392.361053,127.206093 390.588593,128.930054 
	C377.171265,141.980484 363.754456,155.031723 350.408142,168.154556 
	C348.784210,169.751297 347.580017,171.774933 345.718842,173.825195 
	C338.167694,169.719376 331.079041,165.389084 323.990356,161.058777 
z"/>
<path fill="#0C7FF9" opacity="1.000000" stroke="none" 
	d="
M330.010986,349.093231 
	C331.291962,353.503723 332.674316,357.887878 333.827911,362.331421 
	C335.230804,367.735321 336.335419,373.217010 337.754578,378.616272 
	C341.793396,393.982056 345.926483,409.323059 350.085938,425.097748 
	C343.011139,428.991302 335.872864,432.460938 328.359375,435.554504 
	C326.321533,429.118744 324.515320,423.094025 323.028229,416.991516 
	C320.487701,406.566040 318.296570,396.054199 315.674408,385.650269 
	C313.664185,377.674316 311.216003,369.808746 309.169739,361.633728 
	C316.254883,357.279938 323.132935,353.186584 330.010986,349.093231 
z"/>
<path fill="#177AF7" opacity="1.000000" stroke="none" 
	d="
M308.962616,361.894104 
	C311.216003,369.808746 313.664185,377.674316 315.674408,385.650269 
	C318.296570,396.054199 320.487701,406.566040 323.028229,416.991516 
	C324.515320,423.094025 326.321533,429.118744 327.992249,435.577026 
	C320.661743,438.459869 313.323151,440.944122 305.588165,443.498596 
	C302.310669,432.741882 299.400574,421.922516 296.556824,411.085724 
	C293.850067,400.770721 291.177185,390.446442 288.579193,380.103668 
	C288.143158,378.367706 288.163269,376.517181 288.178467,374.032288 
	C295.243744,369.528015 302.103180,365.711060 308.962616,361.894104 
z"/>
<path fill="#0F8CFC" opacity="1.000000" stroke="none" 
	d="
M65.203568,272.998383 
	C65.033638,266.638214 64.863708,260.278046 65.205940,253.465607 
	C82.016037,257.253876 98.275711,261.649994 114.627502,265.671570 
	C123.250305,267.792297 132.033829,269.259491 140.811493,271.466003 
	C140.924164,274.606049 140.970139,277.301788 140.983673,280.451355 
	C140.878998,283.939941 140.806763,286.974701 140.312103,290.007080 
	C137.606750,289.726715 135.271942,289.665619 133.049820,289.133759 
	C122.627663,286.639313 112.254951,283.937836 101.829468,281.457916 
	C89.639816,278.558258 77.413803,275.811493 65.203568,272.998383 
z"/>
<path fill="#0E90FD" opacity="1.000000" stroke="none" 
	d="
M65.121964,273.426300 
	C77.413803,275.811493 89.639816,278.558258 101.829468,281.457916 
	C112.254951,283.937836 122.627663,286.639313 133.049820,289.133759 
	C135.271942,289.665619 137.606750,289.726715 140.384460,290.465332 
	C140.926651,294.949829 140.974060,298.973724 140.990891,303.426758 
	C140.887192,305.575226 140.814072,307.294525 140.740952,309.013824 
	C134.737793,307.937042 128.706146,306.996704 122.738281,305.750885 
	C114.168999,303.962006 105.636810,301.990875 97.109192,300.009705 
	C94.544647,299.413879 92.075699,298.410858 89.514877,297.793884 
	C82.643120,296.138245 75.745361,294.590546 68.421211,293.000000 
	C67.003113,286.618042 66.021736,280.236145 65.121964,273.426300 
z"/>
<path fill="#179CFF" opacity="1.000000" stroke="none" 
	d="
M447.210510,286.992584 
	C444.400024,298.528748 441.589539,310.064941 438.193604,321.721466 
	C427.673615,316.865387 417.689728,311.983307 407.842499,306.839661 
	C405.648254,305.693512 403.934479,303.627533 402.112091,301.708191 
	C402.826111,300.640778 403.427582,299.850220 404.326782,298.900421 
	C407.785248,294.535095 410.945984,290.328979 414.394104,285.942932 
	C416.798187,282.510315 418.914825,279.257660 421.407593,276.009125 
	C425.854797,277.842438 429.904999,279.720062 434.002655,281.487610 
	C438.381958,283.376709 442.806000,285.161987 447.210510,286.992584 
z"/>
<path fill="#179CFF" opacity="1.000000" stroke="none" 
	d="
M101.843491,371.438385 
	C107.146767,367.576050 112.594902,364.061981 118.002998,360.487366 
	C125.773247,355.351440 133.514343,350.171417 141.793091,345.360657 
	C143.560699,350.473053 144.803101,355.234985 146.155807,360.352234 
	C147.482544,364.473724 148.698959,368.239990 149.546326,372.010651 
	C147.680435,372.627960 146.038422,373.019318 144.710358,373.889709 
	C136.072235,379.550781 127.502319,385.315918 118.910095,391.047028 
	C113.263550,384.617889 107.617004,378.188721 101.843491,371.438385 
z"/>
<path fill="#1383FA" opacity="1.000000" stroke="none" 
	d="
M140.744797,271.021759 
	C132.033829,269.259491 123.250305,267.792297 114.627502,265.671570 
	C98.275711,261.649994 82.016037,257.253876 65.314674,253.007385 
	C64.937317,249.299377 64.963387,245.597275 65.113724,241.448380 
	C75.103622,242.944305 84.956894,244.952911 94.838806,246.809006 
	C102.789291,248.302338 110.807175,249.449020 118.734444,251.050079 
	C125.855255,252.488251 132.893417,254.335632 140.431854,256.469482 
	C140.845367,261.631531 140.795090,266.326660 140.744797,271.021759 
z"/>
<path fill="#2FA7FF" opacity="1.000000" stroke="none" 
	d="
M172.003128,108.012100 
	C171.251892,108.005890 170.500671,107.999687 169.374664,107.535431 
	C169.011795,100.084320 169.023727,93.091255 169.035645,86.098190 
	C181.040924,81.262909 193.046204,76.427628 205.489685,72.040848 
	C206.283203,83.675102 206.638504,94.860847 206.528183,106.045242 
	C201.377411,106.038002 196.692261,106.032112 191.546997,106.003189 
	C184.725632,106.657471 178.364380,107.334785 172.003128,108.012100 
z"/>
<path fill="#2FA7FF" opacity="1.000000" stroke="none" 
	d="
M174.952301,410.024506 
	C180.557297,415.135132 186.162323,420.245789 191.557327,425.672760 
	C187.843079,428.501892 184.338852,431.014709 180.834625,433.527527 
	C164.437271,427.028961 149.535675,418.019653 136.156815,406.420471 
	C139.996826,403.781555 143.596405,401.448608 147.284256,399.264709 
	C151.494843,396.771210 155.784012,394.410492 160.293427,392.173523 
	C161.403732,393.564819 162.259644,394.774658 163.237000,396.292480 
	C164.335419,397.903015 165.230423,399.278015 166.305359,400.493988 
	C169.146042,403.707642 172.064682,406.852356 174.952301,410.024506 
z"/>
<path fill="#179CFF" opacity="1.000000" stroke="none" 
	d="
M244.550781,64.916969 
	C244.995804,81.733452 244.991501,98.465080 244.607483,115.590576 
	C237.805267,113.714867 231.382782,111.445305 224.972351,108.696213 
	C224.592270,94.624733 224.200104,81.032799 223.807953,67.440857 
	C230.572464,66.571281 237.336945,65.701698 244.550781,64.916969 
z"/>
<path fill="#0A96FF" opacity="1.000000" stroke="none" 
	d="
M401.999512,301.985046 
	C403.934479,303.627533 405.648254,305.693512 407.842499,306.839661 
	C417.689728,311.983307 427.673615,316.865387 437.953003,321.982635 
	C435.776398,328.386261 433.254913,334.649078 430.457153,341.144775 
	C425.824524,338.601807 421.665131,335.432831 417.071014,333.131653 
	C407.385559,328.280151 397.466339,323.896088 387.663300,319.277191 
	C386.797302,318.869202 386.079987,318.145660 385.321960,316.977417 
	C388.586945,313.617096 391.823608,310.847961 395.354248,307.928925 
	C397.765289,305.847687 399.882416,303.916382 401.999512,301.985046 
z"/>
<path fill="#3CADFF" opacity="1.000000" stroke="none" 
	d="
M168.689865,86.153748 
	C169.023727,93.091255 169.011795,100.084320 168.999084,107.527374 
	C159.184097,111.400253 148.978134,113.996658 139.639847,118.423447 
	C121.903130,126.831467 106.875580,138.944901 95.299309,155.032745 
	C94.825844,155.690720 94.112007,156.175751 93.175827,156.833893 
	C97.661118,149.841339 102.017342,142.381592 107.386383,135.740707 
	C124.180984,114.967758 144.536438,98.426720 168.689865,86.153748 
z"/>
<path fill="#20A0FF" opacity="1.000000" stroke="none" 
	d="
M160.039047,391.992065 
	C155.784012,394.410492 151.494843,396.771210 147.284256,399.264709 
	C143.596405,401.448608 139.996826,403.781555 135.974228,406.127808 
	C130.115799,401.360962 124.641380,396.514954 119.038528,391.357971 
	C127.502319,385.315918 136.072235,379.550781 144.710358,373.889709 
	C146.038422,373.019318 147.680435,372.627960 149.716797,372.327942 
	C151.826508,375.765656 153.396713,378.890503 155.009293,382.365662 
	C156.714127,385.808014 158.376587,388.900055 160.039047,391.992065 
z"/>
<path fill="#20A0FF" opacity="1.000000" stroke="none" 
	d="
M223.388611,67.485077 
	C224.200104,81.032799 224.592270,94.624733 224.650238,108.669250 
	C223.885101,109.125275 223.454147,109.128716 222.612762,109.071388 
	C217.132843,108.022614 212.063339,107.034607 206.993805,106.046600 
	C206.638504,94.860847 206.283203,83.675102 205.886734,71.976578 
	C211.553482,70.152298 217.261368,68.840805 223.388611,67.485077 
z"/>
<path fill="#2FA7FF" opacity="1.000000" stroke="none" 
	d="
M430.098083,253.107895 
	C431.850098,246.248062 433.602081,239.388214 435.998230,232.291748 
	C440.531616,233.388901 444.420776,234.722672 448.309967,236.056427 
	C448.675201,246.800735 449.040436,257.545044 448.904022,268.514404 
	C441.903168,265.820557 435.403992,262.901672 428.929626,259.584351 
	C429.335693,257.159882 429.716888,255.133881 430.098083,253.107895 
z"/>
<path fill="#20A0FF" opacity="1.000000" stroke="none" 
	d="
M428.904785,259.982788 
	C435.403992,262.901672 441.903168,265.820557 448.726501,268.880310 
	C448.578979,274.789398 448.107361,280.557587 447.423126,286.659180 
	C442.806000,285.161987 438.381958,283.376709 434.002655,281.487610 
	C429.904999,279.720062 425.854797,277.842438 421.441345,275.672729 
	C421.748962,273.912048 422.398956,272.491943 423.319580,270.851959 
	C425.361694,267.082336 427.133240,263.532562 428.904785,259.982788 
z"/>
<path fill="#3CADFF" opacity="1.000000" stroke="none" 
	d="
M181.079575,433.745239 
	C184.338852,431.014709 187.843079,428.501892 191.728180,425.964966 
	C199.793884,430.159424 207.272736,434.824158 215.212799,438.489960 
	C226.551498,443.724792 238.548340,447.010498 251.615463,448.204468 
	C252.347000,448.578735 252.584457,448.660370 252.868195,448.607147 
	C255.358124,448.737427 257.848053,448.867706 260.802277,449.105499 
	C251.022629,448.789062 240.694977,449.042419 230.553528,447.789124 
	C213.513840,445.683350 196.959442,441.327789 181.079575,433.745239 
z"/>
<path fill="#3CADFF" opacity="1.000000" stroke="none" 
	d="
M448.420227,235.669205 
	C444.420776,234.722672 440.531616,233.388901 436.257629,232.005554 
	C437.434967,209.931778 434.797455,188.493042 426.952698,167.390747 
	C430.319122,173.989349 434.029114,180.831955 436.924164,188.003525 
	C443.049408,203.177017 446.607880,219.044113 448.420227,235.669205 
z"/>
<path fill="#3CADFF" opacity="1.000000" stroke="none" 
	d="
M426.999481,166.725784 
	C426.641846,166.621368 426.289368,166.220093 425.910736,165.537079 
	C426.257935,165.646530 426.631256,166.037735 426.999481,166.725784 
z"/>
<path fill="#3CADFF" opacity="1.000000" stroke="none" 
	d="
M92.652939,156.954041 
	C92.780602,157.173660 92.655136,157.488739 92.295738,157.922897 
	C92.174469,157.711151 92.287132,157.380325 92.652939,156.954041 
z"/>
<path fill="#222FCC" opacity="1.000000" stroke="none" 
	d="
M140.811493,271.466003 
	C140.795090,266.326660 140.845367,261.631531 140.833618,256.474365 
	C140.823700,246.323807 140.875824,236.635300 140.895508,226.480270 
	C141.860962,216.360962 145.173523,207.596313 150.992523,199.432785 
	C159.328491,190.471069 168.906204,184.005890 180.711838,181.256714 
	C181.509506,181.070938 182.348999,181.064789 184.043137,180.972794 
	C191.609589,181.324081 198.301926,181.677673 205.220367,182.296005 
	C210.296753,185.310898 215.147064,188.061035 219.656006,190.956665 
	C218.239960,193.174469 216.545868,195.156433 216.227448,197.339081 
	C215.669952,201.160660 215.956863,205.105408 215.552383,209.038422 
	C214.285187,209.743668 213.250641,210.301376 212.441650,211.090378 
	C197.225311,225.930374 182.011353,240.773010 166.851089,255.670227 
	C159.655853,262.740631 152.608246,269.961304 145.407242,277.025665 
	C144.166138,278.243225 142.490829,279.018158 141.016098,279.997559 
	C140.970139,277.301788 140.924164,274.606049 140.811493,271.466003 
z"/>
<path fill="#2762EC" opacity="1.000000" stroke="none" 
	d="
M204.994263,182.031265 
	C198.301926,181.677673 191.609589,181.324081 184.448273,180.943726 
	C183.072739,173.738785 182.502579,166.498474 181.190460,159.395203 
	C178.349503,144.015579 175.107346,128.710312 172.098160,113.361122 
	C171.815445,111.919060 172.021820,110.381104 172.002136,108.449890 
	C178.364380,107.334785 184.725632,106.657471 191.545441,106.425797 
	C193.587555,115.794861 195.013336,124.749832 196.790359,133.634552 
	C199.702240,148.193237 202.894592,162.695831 205.806747,177.254471 
	C206.102570,178.733383 205.291611,180.433701 204.994263,182.031265 
z"/>
<path fill="#1C2ACB" opacity="1.000000" stroke="none" 
	d="
M323.639526,161.004395 
	C331.079041,165.389084 338.167694,169.719376 345.595520,174.158051 
	C351.842010,180.987488 357.987335,187.553131 360.723389,196.759125 
	C364.212891,209.604401 364.211182,222.037445 358.711365,234.747849 
	C354.245178,240.531708 350.127747,245.772308 345.690308,251.143936 
	C339.611725,253.516449 333.853180,255.757950 328.161194,257.637939 
	C327.892212,255.406326 328.076141,253.171173 327.085541,251.761307 
	C325.925720,250.110641 323.742950,249.178711 322.004028,247.513092 
	C320.151184,236.681091 318.320984,226.266891 316.440521,215.861786 
	C312.854370,196.018921 309.199066,176.188293 305.727264,156.325546 
	C305.494568,154.994308 306.560333,153.436111 307.022217,151.983490 
	C312.444366,154.972321 317.866516,157.961151 323.639526,161.004395 
z"/>
<path fill="#1D5BEC" opacity="1.000000" stroke="none" 
	d="
M346.010345,251.012924 
	C350.127747,245.772308 354.245178,240.531708 358.655640,235.121002 
	C363.968903,236.301071 368.960327,237.771591 374.014587,238.979401 
	C390.973907,243.032135 407.958191,246.980316 424.924561,251.003815 
	C426.516876,251.381409 428.050232,252.007614 429.854523,252.813141 
	C429.716888,255.133881 429.335693,257.159882 428.929626,259.584351 
	C427.133240,263.532562 425.361694,267.082336 423.068970,270.558289 
	C400.035522,265.272461 377.508026,260.124603 355.028564,254.774796 
	C351.901215,254.030518 349.010559,252.291458 346.010345,251.012924 
z"/>
<path fill="#1A28CA" opacity="1.000000" stroke="none" 
	d="
M309.169739,361.633728 
	C302.103180,365.711060 295.243744,369.528015 288.158325,373.588776 
	C279.141846,376.393463 270.350586,378.949280 260.560974,377.932922 
	C252.046783,374.275116 243.897552,370.795685 235.980209,366.850891 
	C233.552704,365.641388 231.760544,363.156799 229.229874,360.790039 
	C225.855087,355.215973 222.927841,350.107971 219.994095,344.601074 
	C218.986176,338.469849 217.984772,332.737488 216.994507,326.604980 
	C217.025955,325.137817 217.046280,324.070831 217.418823,322.961609 
	C220.077927,322.643982 222.515564,321.742340 224.670929,322.192383 
	C241.463440,325.698914 258.200348,329.471527 274.956940,333.150330 
	C293.022461,337.116486 311.099243,341.032349 329.136932,345.120972 
	C330.242676,345.371582 331.048798,346.943970 331.994324,347.901337 
	C331.506378,348.212646 331.018402,348.523926 330.270721,348.964233 
	C323.132935,353.186584 316.254883,357.279938 309.169739,361.633728 
z"/>
<path fill="#1D5BEC" opacity="1.000000" stroke="none" 
	d="
M220.000610,345.000000 
	C222.927841,350.107971 225.855087,355.215973 228.939056,360.630310 
	C227.140228,361.720551 224.691788,362.006714 223.312363,363.372498 
	C216.470551,370.146820 210.097305,377.397400 203.205185,384.117279 
	C194.194016,392.903381 184.851074,401.349243 175.301575,409.982971 
	C172.064682,406.852356 169.146042,403.707642 166.305359,400.493988 
	C165.230423,399.278015 164.335419,397.903015 163.576660,396.257874 
	C165.570236,394.736359 167.580246,393.799561 169.084549,392.341125 
	C184.016785,377.864197 198.827835,363.262115 213.789185,348.815613 
	C215.496185,347.167328 217.912949,346.254059 220.000610,345.000000 
z"/>
<path fill="#176FF5" opacity="1.000000" stroke="none" 
	d="
M252.751587,448.461273 
	C252.584457,448.660370 252.347000,448.578735 252.050598,448.194397 
	C252.203537,448.055420 252.433411,448.151733 252.751587,448.461273 
z"/>
<path fill="#2035D1" opacity="1.000000" stroke="none" 
	d="
M354.877686,335.571228 
	C352.632690,336.750946 350.616150,337.663849 348.238220,338.339111 
	C346.288757,337.068451 344.825012,335.611664 343.083679,335.100769 
	C340.413818,334.317383 337.518036,334.345520 334.778625,333.750702 
	C316.199097,329.716431 297.626617,325.648499 279.069824,321.510895 
	C267.283539,318.882874 255.537720,316.073456 243.753769,313.434601 
	C239.573776,312.498596 235.334717,311.826385 231.221649,310.717285 
	C235.172989,306.253601 239.025299,302.106384 243.279587,297.978638 
	C251.575272,299.757965 259.493378,301.415863 267.357391,303.299652 
	C281.993683,306.805695 296.555511,310.631989 311.228088,313.974823 
	C326.854431,317.534912 342.606171,320.546997 358.217773,324.166687 
	C360.702942,324.742889 362.739624,327.253387 364.983673,328.869629 
	C361.691193,331.014557 358.398682,333.159485 354.877686,335.571228 
z"/>
<path fill="#203CD5" opacity="1.000000" stroke="none" 
	d="
M365.310791,328.774506 
	C362.739624,327.253387 360.702942,324.742889 358.217773,324.166687 
	C342.606171,320.546997 326.854431,317.534912 311.228088,313.974823 
	C296.555511,310.631989 281.993683,306.805695 267.357391,303.299652 
	C259.493378,301.415863 251.575272,299.757965 243.398193,297.660736 
	C246.635422,293.507812 250.156021,289.692291 254.049942,286.026855 
	C269.975037,289.842010 285.528687,293.499237 301.078094,297.174316 
	C317.121185,300.966095 333.152100,304.809753 349.206421,308.553070 
	C353.375702,309.525208 357.716125,309.865204 361.795105,311.099701 
	C368.660980,313.177643 375.380554,315.739044 382.161652,318.097107 
	C376.653748,321.624542 371.145844,325.151978 365.310791,328.774506 
z"/>
<path fill="#2042D9" opacity="1.000000" stroke="none" 
	d="
M382.462341,318.042389 
	C375.380554,315.739044 368.660980,313.177643 361.795105,311.099701 
	C357.716125,309.865204 353.375702,309.525208 349.206421,308.553070 
	C333.152100,304.809753 317.121185,300.966095 301.078094,297.174316 
	C285.528687,293.499237 269.975037,289.842010 254.189178,285.710510 
	C256.903625,282.312988 259.852142,279.381927 262.988525,276.808960 
	C264.171997,277.734650 265.106689,278.615143 266.172394,278.822601 
	C280.580475,281.627777 295.044006,284.159149 309.418213,287.124725 
	C323.806000,290.093109 338.107391,293.479736 352.449768,296.668945 
	C365.027679,299.465790 377.627106,302.170135 390.170746,305.112518 
	C391.935455,305.526459 393.436951,307.062317 395.060272,308.078857 
	C391.823608,310.847961 388.586945,313.617096 385.166870,316.659302 
	C384.243347,317.284149 383.503174,317.635925 382.462341,318.042389 
z"/>
<path fill="#204ADF" opacity="1.000000" stroke="none" 
	d="
M223.023178,109.132156 
	C223.454147,109.128716 223.885101,109.125275 224.638184,109.148788 
	C231.382782,111.445305 237.805267,113.714867 244.596329,116.068130 
	C246.201355,116.918251 247.437820,117.684677 248.571716,118.972755 
	C248.332367,121.124504 247.828079,122.822403 248.114441,124.374420 
	C251.845551,144.596176 255.710876,164.793091 259.494293,185.005280 
	C261.370209,195.026840 263.147400,205.066879 264.617981,215.048645 
	C255.515503,209.887421 246.764313,204.776108 238.010956,199.242279 
	C237.829178,196.852646 237.822479,194.851257 237.440414,192.924332 
	C235.680161,184.046799 233.783340,175.196457 231.995483,166.324280 
	C229.362961,153.260620 226.546967,140.227081 224.284653,127.098755 
	C223.270264,121.212227 223.408157,115.127144 223.023178,109.132156 
z"/>
<path fill="#203CD5" opacity="1.000000" stroke="none" 
	d="
M273.559692,131.993378 
	C275.481934,133.169342 277.059174,134.289917 278.678772,136.029663 
	C279.141296,140.495407 279.291443,144.394287 280.025452,148.179993 
	C284.822083,172.918671 289.810425,197.620346 294.545563,222.370590 
	C295.148743,225.523453 294.645020,228.888123 294.317108,232.108582 
	C288.971893,229.090302 283.963684,226.118088 278.969055,222.702850 
	C278.663635,219.806381 278.463318,217.330643 278.007050,214.903000 
	C273.736145,192.179153 269.308319,169.484024 265.190857,146.732620 
	C264.017090,140.246658 263.707855,133.604233 263.002167,127.033554 
	C266.406342,128.668350 269.810516,130.303162 273.559692,131.993378 
z"/>
<path fill="#2042D9" opacity="1.000000" stroke="none" 
	d="
M262.693665,126.878258 
	C263.707855,133.604233 264.017090,140.246658 265.190857,146.732620 
	C269.308319,169.484024 273.736145,192.179153 278.007050,214.903000 
	C278.463318,217.330643 278.663635,219.806381 278.616974,222.651764 
	C273.823914,220.395325 269.396576,217.746948 264.969238,215.098557 
	C263.147400,205.066879 261.370209,195.026840 259.494293,185.005280 
	C255.710876,164.793091 251.845551,144.596176 248.114441,124.374420 
	C247.828079,122.822403 248.332367,121.124504 248.768219,119.222267 
	C253.506577,121.541077 257.945862,124.132019 262.693665,126.878258 
z"/>
<path fill="#204ADF" opacity="1.000000" stroke="none" 
	d="
M146.045502,359.996948 
	C144.803101,355.234985 143.560699,350.473053 142.164948,345.356140 
	C141.989456,343.288574 141.967331,341.575928 142.304123,339.400574 
	C143.723312,338.177734 144.894333,337.533142 145.826721,336.639526 
	C155.227707,327.629364 164.611252,318.600708 173.957199,309.533447 
	C186.591614,297.275757 199.156723,284.946320 211.849411,272.749451 
	C213.170929,271.479553 215.153732,270.897827 216.921326,270.457886 
	C216.949615,279.279175 216.886322,287.639374 216.463455,296.005859 
	C214.482925,296.767517 212.495148,297.150940 211.295715,298.333801 
	C191.450943,317.903900 171.737396,337.607117 151.871231,357.155304 
	C150.411087,358.592102 148.009445,359.072113 146.045502,359.996948 
z"/>
<path fill="#203CD5" opacity="1.000000" stroke="none" 
	d="
M140.809723,309.474854 
	C140.814072,307.294525 140.887192,305.575226 141.354950,303.423401 
	C144.123581,301.079407 146.706146,299.374115 148.835114,297.220428 
	C157.534866,288.419586 165.987549,279.373260 174.736526,270.622589 
	C185.044525,260.312592 195.468765,250.113480 206.051041,240.086273 
	C209.290024,237.017181 213.215302,234.672363 216.919342,232.456665 
	C216.949844,239.610626 216.887299,246.303787 216.470154,253.002380 
	C215.219193,253.372513 214.133270,253.526749 213.457016,254.135849 
	C208.776001,258.351868 204.013168,262.497284 199.586700,266.972107 
	C182.203995,284.544739 164.973236,302.267761 147.568542,319.818390 
	C145.790359,321.611450 143.224335,322.623230 141.023880,323.997559 
	C140.975418,319.310333 140.926956,314.623077 140.809723,309.474854 
z"/>
<path fill="#2042D9" opacity="1.000000" stroke="none" 
	d="
M140.994049,324.460602 
	C143.224335,322.623230 145.790359,321.611450 147.568542,319.818390 
	C164.973236,302.267761 182.203995,284.544739 199.586700,266.972107 
	C204.013168,262.497284 208.776001,258.351868 213.457016,254.135849 
	C214.133270,253.526749 215.219193,253.372513 216.562317,253.462341 
	C216.949295,259.276855 216.889511,264.636841 216.829712,269.996796 
	C215.153732,270.897827 213.170929,271.479553 211.849411,272.749451 
	C199.156723,284.946320 186.591614,297.275757 173.957199,309.533447 
	C164.611252,318.600708 155.227707,327.629364 145.826721,336.639526 
	C144.894333,337.533142 143.723312,338.177734 142.313324,338.972595 
	C141.630463,334.312775 141.297333,329.618195 140.994049,324.460602 
z"/>
<path fill="#1C2ACB" opacity="1.000000" stroke="none" 
	d="
M231.122620,311.033752 
	C235.334717,311.826385 239.573776,312.498596 243.753769,313.434601 
	C255.537720,316.073456 267.283539,318.882874 279.069824,321.510895 
	C297.626617,325.648499 316.199097,329.716431 334.778625,333.750702 
	C337.518036,334.345520 340.413818,334.317383 343.083679,335.100769 
	C344.825012,335.611664 346.288757,337.068451 347.920837,338.443359 
	C342.858612,341.756134 337.752350,344.727051 332.320190,347.799652 
	C331.048798,346.943970 330.242676,345.371582 329.136932,345.120972 
	C311.099243,341.032349 293.022461,337.116486 274.956940,333.150330 
	C258.200348,329.471527 241.463440,325.698914 224.670929,322.192383 
	C222.515564,321.742340 220.077927,322.643982 217.399292,322.565308 
	C217.286026,320.473480 217.544495,318.735779 218.043640,317.278656 
	C220.548767,320.180450 222.778503,319.050751 224.764923,317.298828 
	C226.992935,315.333771 229.012421,313.132324 231.122620,311.033752 
z"/>
<path fill="#2035D1" opacity="1.000000" stroke="none" 
	d="
M294.654083,232.154663 
	C294.645020,228.888123 295.148743,225.523453 294.545563,222.370590 
	C289.810425,197.620346 284.822083,172.918671 280.025452,148.179993 
	C279.291443,144.394287 279.141296,140.495407 278.880737,136.284195 
	C283.551605,138.410568 288.062805,140.901596 292.791321,144.104279 
	C294.333466,153.273514 295.547974,161.750214 297.008820,170.184235 
	C299.232117,183.020309 301.729095,195.809265 303.915344,208.651352 
	C305.711853,219.204300 307.225433,229.805420 308.514099,240.296722 
	C303.660583,237.523727 299.157318,234.839188 294.654083,232.154663 
z"/>
<path fill="#222FCC" opacity="1.000000" stroke="none" 
	d="
M308.864380,240.385193 
	C307.225433,229.805420 305.711853,219.204300 303.915344,208.651352 
	C301.729095,195.809265 299.232117,183.020309 297.008820,170.184235 
	C295.547974,161.750214 294.333466,153.273514 293.017883,144.364807 
	C294.435394,144.601608 295.843658,145.289520 297.590149,146.006104 
	C300.823425,147.838669 303.718506,149.642548 306.817932,151.714966 
	C306.560333,153.436111 305.494568,154.994308 305.727264,156.325546 
	C309.199066,176.188293 312.854370,196.018921 316.440521,215.861786 
	C318.320984,226.266891 320.151184,236.681091 321.659241,247.467712 
	C317.164337,245.357880 313.014374,242.871536 308.864380,240.385193 
z"/>
<path fill="#2035D1" opacity="1.000000" stroke="none" 
	d="
M216.826294,231.995880 
	C213.215302,234.672363 209.290024,237.017181 206.051041,240.086273 
	C195.468765,250.113480 185.044525,260.312592 174.736526,270.622589 
	C165.987549,279.373260 157.534866,288.419586 148.835114,297.220428 
	C146.706146,299.374115 144.123581,301.079407 141.385529,302.994202 
	C140.974060,298.973724 140.926651,294.949829 140.806900,290.467712 
	C140.806763,286.974701 140.878998,283.939941 140.983673,280.451355 
	C142.490829,279.018158 144.166138,278.243225 145.407242,277.025665 
	C152.608246,269.961304 159.655853,262.740631 166.851089,255.670227 
	C182.011353,240.773010 197.225311,225.930374 212.441650,211.090378 
	C213.250641,210.301376 214.285187,209.743668 215.636414,209.486053 
	C216.314148,217.261169 216.570206,224.628510 216.826294,231.995880 
z"/>
<path fill="#204ADF" opacity="1.000000" stroke="none" 
	d="
M395.354248,307.928894 
	C393.436951,307.062317 391.935455,305.526459 390.170746,305.112518 
	C377.627106,302.170135 365.027679,299.465790 352.449768,296.668945 
	C338.107391,293.479736 323.806000,290.093109 309.418213,287.124725 
	C295.044006,284.159149 280.580475,281.627777 266.172394,278.822601 
	C265.106689,278.615143 264.171997,277.734650 263.168640,276.536987 
	C271.097015,269.890198 280.606079,268.708557 290.054077,267.528687 
	C292.992889,269.247131 295.747070,271.196411 298.786072,271.880310 
	C314.896790,275.505920 331.153900,278.498627 347.216553,282.315552 
	C365.074493,286.559082 382.788971,291.411469 400.525848,296.148804 
	C401.857727,296.504517 402.868835,298.061218 404.029022,299.059631 
	C403.427582,299.850220 402.826111,300.640778 402.112122,301.708221 
	C399.882416,303.916382 397.765289,305.847687 395.354248,307.928894 
z"/>
<path fill="#1E4DE2" opacity="1.000000" stroke="none" 
	d="
M404.326782,298.900421 
	C402.868835,298.061218 401.857727,296.504517 400.525848,296.148804 
	C382.788971,291.411469 365.074493,286.559082 347.216553,282.315552 
	C331.153900,278.498627 314.896790,275.505920 298.786072,271.880310 
	C295.747070,271.196411 292.992889,269.247131 290.416138,267.361511 
	C301.482239,264.622223 312.239502,262.403229 323.054382,260.543884 
	C324.281830,261.626648 325.364716,262.704071 326.635468,263.015839 
	C335.584595,265.211456 344.596008,267.153717 353.542969,269.357758 
	C372.258850,273.968384 390.956940,278.652618 409.629761,283.433746 
	C411.245667,283.847504 412.620117,285.204193 414.106720,286.122894 
	C410.945984,290.328979 407.785248,294.535095 404.326782,298.900421 
z"/>
<path fill="#2057E8" opacity="1.000000" stroke="none" 
	d="
M414.394104,285.942932 
	C412.620117,285.204193 411.245667,283.847504 409.629761,283.433746 
	C390.956940,278.652618 372.258850,273.968384 353.542969,269.357758 
	C344.596008,267.153717 335.584595,265.211456 326.635468,263.015839 
	C325.364716,262.704071 324.281830,261.626648 323.372681,260.386292 
	C325.120453,259.245819 326.607513,258.622650 328.094604,257.999451 
	C333.853180,255.757950 339.611725,253.516449 345.690308,251.143936 
	C349.010559,252.291458 351.901215,254.030518 355.028564,254.774796 
	C377.508026,260.124603 400.035522,265.272461 422.798401,270.778137 
	C422.398956,272.491943 421.748962,273.912048 421.065216,275.668579 
	C418.914825,279.257660 416.798187,282.510315 414.394104,285.942932 
z"/>
<path fill="#1E4DE2" opacity="1.000000" stroke="none" 
	d="
M217.802979,316.998077 
	C217.544495,318.735779 217.286026,320.473480 217.047089,322.607483 
	C217.046280,324.070831 217.025955,325.137817 216.597626,326.602600 
	C214.377533,327.584137 212.105347,327.665283 210.828735,328.833984 
	C203.114838,335.895630 195.586548,343.162750 188.091949,350.459534 
	C185.845322,352.646881 183.987778,355.228455 181.809555,357.492371 
	C174.938446,364.633820 168.088516,371.800598 161.018677,378.741943 
	C159.446091,380.285950 157.007050,380.947479 154.966934,382.015320 
	C153.396713,378.890503 151.826508,375.765656 150.085846,372.323547 
	C148.698959,368.239990 147.482544,364.473724 146.155807,360.352234 
	C148.009445,359.072113 150.411087,358.592102 151.871231,357.155304 
	C171.737396,337.607117 191.450943,317.903900 211.295715,298.333801 
	C212.495148,297.150940 214.482925,296.767517 216.553589,296.466675 
	C217.269852,303.613525 217.536423,310.305817 217.802979,316.998077 
z"/>
<path fill="#2057E8" opacity="1.000000" stroke="none" 
	d="
M222.612762,109.071388 
	C223.408157,115.127144 223.270264,121.212227 224.284653,127.098755 
	C226.546967,140.227081 229.362961,153.260620 231.995483,166.324280 
	C233.783340,175.196457 235.680161,184.046799 237.440414,192.924332 
	C237.822479,194.851257 237.829178,196.852646 237.684723,199.182693 
	C231.572922,196.634155 225.785141,193.722672 219.997375,190.811172 
	C215.147064,188.061035 210.296753,185.310898 205.220352,182.296005 
	C205.291611,180.433701 206.102570,178.733383 205.806747,177.254471 
	C202.894592,162.695831 199.702240,148.193237 196.790359,133.634552 
	C195.013336,124.749832 193.587555,115.794861 192.005554,106.448837 
	C196.692261,106.032112 201.377411,106.038002 206.528198,106.045250 
	C212.063339,107.034607 217.132843,108.022614 222.612762,109.071388 
z"/>
<path fill="#2057E8" opacity="1.000000" stroke="none" 
	d="
M155.009293,382.365662 
	C157.007050,380.947479 159.446091,380.285950 161.018677,378.741943 
	C168.088516,371.800598 174.938446,364.633820 181.809555,357.492371 
	C183.987778,355.228455 185.845322,352.646881 188.091949,350.459534 
	C195.586548,343.162750 203.114838,335.895630 210.828735,328.833984 
	C212.105347,327.665283 214.377533,327.584137 216.586502,327.002777 
	C217.984772,332.737488 218.986176,338.469849 219.994095,344.601074 
	C217.912949,346.254059 215.496185,347.167328 213.789185,348.815613 
	C198.827835,363.262115 184.016785,377.864197 169.084549,392.341125 
	C167.580246,393.799561 165.570236,394.736359 163.455246,395.949890 
	C162.259644,394.774658 161.403732,393.564819 160.293427,392.173523 
	C158.376587,388.900055 156.714127,385.808014 155.009293,382.365662 
z"/>
<path fill="#FDFDFF" opacity="1.000000" stroke="none" 
	d="
M219.656006,190.956665 
	C225.785141,193.722672 231.572922,196.634155 237.686920,199.605225 
	C246.764313,204.776108 255.515503,209.887421 264.617981,215.048645 
	C269.396576,217.746948 273.823914,220.395325 278.603333,223.094788 
	C283.963684,226.118088 288.971893,229.090302 294.317108,232.108582 
	C299.157318,234.839188 303.660583,237.523727 308.514099,240.296722 
	C313.014374,242.871536 317.164337,245.357880 321.659119,247.889618 
	C323.742950,249.178711 325.925720,250.110641 327.085541,251.761307 
	C328.076141,253.171173 327.892212,255.406326 328.161194,257.637939 
	C326.607513,258.622650 325.120453,259.245819 323.315063,260.026611 
	C312.239502,262.403229 301.482239,264.622223 290.362915,267.008423 
	C280.606079,268.708557 271.097015,269.890198 262.980774,276.178894 
	C259.852142,279.381927 256.903625,282.312988 253.815857,285.560425 
	C250.156021,289.692291 246.635422,293.507812 242.996216,297.641235 
	C239.025299,302.106384 235.172989,306.253601 231.221649,310.717285 
	C229.012421,313.132324 226.992935,315.333771 224.764923,317.298828 
	C222.778503,319.050751 220.548767,320.180450 218.043640,317.278656 
	C217.536423,310.305817 217.269852,303.613525 216.913147,296.460419 
	C216.886322,287.639374 216.949615,279.279175 216.921326,270.457886 
	C216.889511,264.636841 216.949295,259.276855 216.916931,253.456924 
	C216.887299,246.303787 216.949844,239.610626 216.919327,232.456665 
	C216.570206,224.628510 216.314148,217.261169 215.974045,209.446182 
	C215.956863,205.105408 215.669952,201.160660 216.227448,197.339081 
	C216.545868,195.156433 218.239960,193.174469 219.656006,190.956665 
z"/>
</svg>