<?xml version="1.0" encoding="UTF-8"?>
<svg version="1.1" xmlns="http://www.w3.org/2000/svg" width="1000" height="1000">
<path d="M0 0 C330 0 660 0 1000 0 C1000 330 1000 660 1000 1000 C670 1000 340 1000 0 1000 C0 670 0 340 0 0 Z M426 383 C424.99362935 383.89599034 423.98712049 384.79182548 422.98046875 385.6875 C417.57209549 390.54019427 412.34083448 395.56544298 407.1875 400.6875 C406.67251953 401.19780762 406.15753906 401.70811523 405.62695312 402.23388672 C402.21180798 405.6632799 399.01773134 409.24283841 395.84985352 412.90063477 C391.95371449 417.32229234 387.84797056 421.55245896 383.78515625 425.8203125 C376.13965798 432.93669264 376.13965798 432.93669264 372 442 C380.78628705 450.33570822 391.59604485 451.32606379 403.3359375 451.21484375 C422.28405865 450.10381319 436.62225403 438.31886993 450.6875 426.75 C473.3513717 408.13829663 495.59019135 391.0422728 526.4375 393.16796875 C549.06266124 396.41651386 569.19949167 416.10344066 585.921875 430.38671875 C588.7270732 432.77882269 591.57463157 435.11455851 594.4375 437.4375 C600.45133177 442.33572239 606.32633404 447.38913246 612.20166016 452.45166016 C615.1300217 454.97292935 618.06529349 457.48612243 621 460 C622.16670115 460.99995977 623.33336779 461.99995981 624.5 463 C625.0775 463.495 625.655 463.99 626.25 464.5 C628 466 629.75 467.5 631.5 469 C632.07741943 469.49491943 632.65483887 469.98983887 633.24975586 470.49975586 C634.41728228 471.50051606 635.5847627 472.50132992 636.75219727 473.50219727 C639.65533629 475.99100676 642.55924949 478.47890091 645.46484375 480.96484375 C668.11627232 500.34985219 668.11627232 500.34985219 676.25 507.75 C679.54292966 510.73863253 682.91316769 513.58383605 686.375 516.375 C690.44248621 519.66580921 694.34582108 523.07762372 698.1875 526.625 C698.69216797 527.08793457 699.19683594 527.55086914 699.71679688 528.02783203 C701.95223909 530.08382361 704.16022142 532.1577979 706.32421875 534.2890625 C707.00097656 534.93617188 707.67773438 535.58328125 708.375 536.25 C708.93960937 536.81203125 709.50421875 537.3740625 710.0859375 537.953125 C712.94033546 539.51430593 714.87098125 538.6779936 718 538 C719.83382197 537.35168921 721.64695581 536.64252389 723.4375 535.8828125 C724.48091553 535.44654541 725.52433105 535.01027832 726.59936523 534.56079102 C727.72157471 534.08697998 728.84378418 533.61316895 730 533.125 C744.84352929 526.98115177 759.8465228 521.3317452 775 516 C775.67893311 515.76087891 776.35786621 515.52175781 777.05737305 515.27539062 C809.82453615 503.76602529 843.25122955 494.01600964 877.16040039 486.47387695 C879.07771264 486.04862573 879.07771264 486.04862573 881 485 C880.44163931 478.57564311 879.31982767 472.72412922 877.4375 466.5625 C877.17573975 465.70068115 876.91397949 464.8388623 876.64428711 463.95092773 C865.32104354 427.94637163 842.46779456 399.12609308 816 373 C815.15695312 372.16210938 814.31390625 371.32421875 813.4453125 370.4609375 C812.67960937 369.77257812 811.91390625 369.08421875 811.125 368.375 C809.98417969 367.30378906 809.98417969 367.30378906 808.8203125 366.2109375 C805.01332942 364.57636028 803.25939726 365.47930284 799.5078125 366.94970703 C798.26644531 367.46960205 798.26644531 367.46960205 797 368 C795.23952822 368.67513561 793.47775312 369.34688026 791.71484375 370.015625 C790.78446289 370.3763208 789.85408203 370.7370166 788.89550781 371.10864258 C772.4781132 377.44335039 755.81888258 382.78340325 738.5625 386.3125 C737.84352539 386.45985596 737.12455078 386.60721191 736.38378906 386.7590332 C722.41693727 389.41397931 708.50215789 390.38359561 694.3125 390.3125 C693.52974701 390.31034485 692.74699402 390.3081897 691.94052124 390.30596924 C679.09248255 390.24950582 666.62221397 389.56439533 654 387 C653.0315918 386.80664062 652.06318359 386.61328125 651.06542969 386.4140625 C631.24691753 382.33322492 612.27756293 375.97355626 593.9375 367.4375 C538.46974727 341.69280815 473.1505252 340.33361638 426 383 Z M171.36962891 384.62548828 C158.32228121 397.91314914 147.36334032 412.93275388 138 429 C137.64599121 429.5995752 137.29198242 430.19915039 136.92724609 430.81689453 C128.53494338 445.17950739 119 464.07070375 119 481 C123.24848984 482.15146431 127.49882567 483.29599364 131.75 484.4375 C132.41391754 484.61606537 133.07783508 484.79463074 133.76187134 484.97860718 C141.74661058 487.12241694 149.74123659 489.20524909 157.77734375 491.1484375 C197.75815399 500.83317177 237.73122017 512.62358392 274.3125 531.75 C274.98796875 532.10255859 275.6634375 532.45511719 276.359375 532.81835938 C279.71944689 534.62008807 282.68365594 536.51218643 285.66796875 538.890625 C288.73216438 541.36170139 288.73216438 541.36170139 291.63671875 540.5 C292.41660156 540.005 293.19648438 539.51 294 539 C294.79019531 538.525625 295.58039063 538.05125 296.39453125 537.5625 C297.19246094 537.046875 297.99039063 536.53125 298.8125 536 C307.26359881 530.88945352 315.79571447 529.69907439 325.57421875 531.46484375 C333.83363262 533.65611682 341.12469075 537.78934205 347 544 C349.50691662 542.99813189 352.01231894 541.99491508 354.5078125 540.96484375 C366.95470859 536.0789726 380.19663596 535.79679278 392.96484375 539.96875 C400.6385923 543.46864148 407.2024636 549.4049272 411 557 C411.99644531 556.84144531 412.99289062 556.68289063 414.01953125 556.51953125 C428.98659434 554.40286295 441.83003963 556.30669349 454.51953125 564.89453125 C462.87326225 571.98533599 466.22826249 581.99323471 467.39453125 592.58203125 C467.64962031 595.72132733 467.85494945 598.85390363 468 602 C469.34191406 602.14695312 469.34191406 602.14695312 470.7109375 602.296875 C485.16130835 604.08391447 496.29230493 608.47590471 505.65625 620.05078125 C513.72276949 631.75192435 515.84906422 644.85686739 513.32421875 658.70703125 C512.62458936 661.50223302 511.87351631 664.25466304 511 667 C523.90673344 674.07124226 536.88222731 678.37873774 551.74609375 675.4609375 C555.96728639 674.19943165 559.47239455 672.79140818 562 669 C561.60625404 665.56639425 560.22825339 663.83256282 557.8671875 661.390625 C557.22523438 660.71773437 556.58328125 660.04484375 555.921875 659.3515625 C555.24640625 658.65804688 554.5709375 657.96453125 553.875 657.25 C552.55854266 655.88150877 551.24343463 654.51171823 549.9296875 653.140625 C549.27524658 652.45782471 548.62080566 651.77502441 547.9465332 651.0715332 C544.86902107 647.7963933 541.93894048 644.39903302 539 641 C538.04366921 639.92255495 537.08668798 638.84568671 536.12890625 637.76953125 C534.85853516 636.30580078 534.85853516 636.30580078 533.5625 634.8125 C532.69753906 633.82894531 531.83257813 632.84539062 530.94140625 631.83203125 C528.88063753 628.8258797 528.52632699 627.54930322 529 624 C531 623.125 531 623.125 534 623 C540.94571785 626.62524765 546.67452714 633.16504556 552.375 638.48828125 C554.02340935 640.02177745 555.68187056 641.54361949 557.34375 643.0625 C563.07422191 648.30827193 568.68115406 653.58576194 574 659.2578125 C578.81171744 663.44926949 583.8268226 663.38056418 589.9375 663.23828125 C597.88080608 662.6202434 602.98619135 660.08823167 608.390625 654.17578125 C610.85707485 650.84128473 611.90302217 648.13517293 612 644 C610.12925738 637.34618651 607.21570407 633.51280621 602.375 628.6875 C601.09763182 627.36973043 599.82289199 626.04940806 598.55078125 624.7265625 C597.93541504 624.08879883 597.32004883 623.45103516 596.68603516 622.79394531 C594.51321509 620.48205972 592.52877799 618.0513643 590.5625 615.5625 C586.07668829 609.92343612 581.14098861 604.74776239 576.13891602 599.56860352 C569.74002758 592.87738429 569.74002758 592.87738429 568 589 C568.33 588.01 568.66 587.02 569 586 C572.06295522 585.45023881 574.22799267 585.54888728 576.9453125 587.13671875 C586.51543773 594.42908355 595.24372431 603.08651685 603.60546875 611.71875 C604.1481691 612.27637024 604.69086945 612.83399048 605.25001526 613.4085083 C607.45935051 615.68035433 609.66711587 617.9529667 611.85131836 620.24902344 C619.358291 628.12092602 625.74595927 634.07885197 636.9375 635.5 C647.14940369 634.88109675 656.15921502 629.45764495 662.875 622 C666.57727537 616.7732583 667.25539514 612.76539039 666.77734375 606.5390625 C664.33697515 598.56800927 658.25543596 592.85952725 652.4453125 587.1875 C651.62553925 586.37434326 650.80576599 585.56118652 649.96115112 584.72338867 C647.35616484 582.14166369 644.74120198 579.5703545 642.125 577 C639.51769226 574.42794573 636.91261244 571.85369152 634.31027222 569.27661133 C632.69629363 567.67938753 631.07922952 566.08527325 629.45852661 564.49487305 C625.27099642 560.36225924 621.27297927 556.14465146 617.4553833 551.66677856 C615.6404619 549.58823878 613.66150358 547.73441631 611.625 545.875 C608.97452049 543.27578702 608.06185329 542.2001136 606.9375 538.5625 C607 536 607 536 608 535 C614.38245876 535.19075842 617.35056685 537.36038065 621.8125 541.5 C622.41852051 542.04100342 623.02454102 542.58200684 623.64892578 543.1394043 C625.44461662 544.74688699 627.22292693 546.37199482 629 548 C630.79131164 549.6045631 632.58293325 551.20878029 634.375 552.8125 C635.56609375 553.89337891 635.56609375 553.89337891 636.78125 554.99609375 C638.79308393 556.81311982 640.82660434 558.59944392 642.875 560.375 C646.30332893 563.35917296 649.65596687 566.42214049 653 569.5 C657.60902207 573.7369005 662.24267054 577.93004134 667 582 C667.86367188 582.76570312 668.72734375 583.53140625 669.6171875 584.3203125 C676.94033952 590.62917754 682.59137535 594.41428294 692.4375 594 C699.94082369 593.01216747 706.38989869 590.16689201 711.5 584.5 C715.49048523 579.25826093 716.76140018 574.61926928 716 568 C713.80699674 557.73275746 705.79831224 551.65023176 697.95703125 545.41796875 C694.85845719 542.88426024 691.92501727 540.22903779 689 537.5 C685.26722352 534.0253187 681.47623415 530.69926885 677.5 527.5 C673.52370574 524.30068278 669.73331702 520.97415055 666 517.5 C661.38998361 513.2104224 656.62216764 509.19589103 651.71484375 505.24609375 C648.89326505 502.9116941 646.19409288 500.48009402 643.5 498 C639.0301488 493.88621091 634.40955107 490.02912703 629.68359375 486.21484375 C627.05291443 484.04367173 624.52057576 481.79758643 622 479.5 C618.58260628 476.38541332 615.0947765 473.4081338 611.5 470.5 C607.9052235 467.5918662 604.41739372 464.61458668 601 461.5 C596.75348314 457.63466655 592.3698689 453.98601754 587.90625 450.375 C585.3461603 448.28288369 582.82235266 446.15779026 580.30908203 444.01025391 C567.71548866 433.2520412 554.91438177 422.61034968 540.3125 414.6875 C539.6944751 414.34952393 539.0764502 414.01154785 538.43969727 413.66333008 C527.63973508 407.9623475 516.10763117 407.40633016 504.41796875 410.7109375 C490.63566637 415.9088344 478.49243599 423.91608177 467 433 C466.43007324 433.44988281 465.86014648 433.89976562 465.27294922 434.36328125 C464.12914066 435.26764256 462.98566773 436.17242851 461.8425293 437.07763672 C461.27574463 437.5263916 460.70895996 437.97514648 460.125 438.4375 C459.56014893 438.88496582 458.99529785 439.33243164 458.41333008 439.79345703 C447.70299586 448.22298406 436.69762786 456.81543848 424 462 C423.18273437 462.33644531 422.36546875 462.67289062 421.5234375 463.01953125 C406.23719498 468.20170944 387.32035062 465.73565784 372.67578125 459.609375 C366.18463647 456.31613733 362.3433171 452.9410333 358.625 446.6875 C357.5243648 441.95476866 357.71713191 437.4693943 359.98828125 433.09765625 C364.07711814 427.39258295 369.19613805 422.34428499 373.98828125 417.2265625 C376.52719077 414.5148893 379.02386375 411.76930356 381.5 409 C385.07444744 405.01387031 388.68394098 401.0618104 392.3125 397.125 C392.81652344 396.57714844 393.32054687 396.02929688 393.83984375 395.46484375 C396.50226651 392.58173889 399.20180743 389.7516668 402 387 C401.67 386.34 401.34 385.68 401 385 C400.02877197 385.25692627 399.05754395 385.51385254 398.05688477 385.77856445 C394.36647447 386.75282034 390.67369432 387.71783395 386.98022461 388.68041992 C385.39820972 389.09401545 383.81680123 389.50993919 382.23608398 389.9284668 C373.78638983 392.16396372 365.35087981 394.24135254 356.7421875 395.7734375 C356.05713638 395.89588333 355.37208527 396.01832916 354.66627502 396.14448547 C317.18538144 402.48572782 274.96897013 385.32928645 239.8125 373.9375 C238.90983398 373.64617187 238.00716797 373.35484375 237.07714844 373.0546875 C226.76322349 369.7157282 216.57342661 366.19050756 206.51631165 362.13597107 C194.04362732 357.13190719 180.00293678 376.01803637 171.36962891 384.62548828 Z M298 553 C293.23961477 559.68479628 292.33490232 565.97045711 293 574 C294.4411063 580.44526281 297.63659896 585.53572597 302.97265625 589.4453125 C309.09682818 593.22566554 315.18677074 594.91147531 322.3515625 593.5546875 C327.17903138 592.11142361 331.22722091 589.82620629 335.37109375 586.98828125 C337 586 337 586 339 586 C338.95359375 587.18335938 338.9071875 588.36671875 338.859375 589.5859375 C338.51783199 601.8581104 339.28676862 610.93177295 348.07421875 620.24609375 C354.22410063 625.84710179 361.30599369 629.51079324 369.7890625 629.33203125 C373.31721521 628.80218499 376.40309943 627.37777448 379.65625 625.95703125 C382.40527045 624.83451456 385.05185388 624.31033117 388 624 C388.02578125 624.70125 388.0515625 625.4025 388.078125 626.125 C388.57284038 634.40023909 389.99674129 640.52498461 396.25 646.25 C402.83411533 651.45769466 409.80977967 654.41717537 418.2265625 654.35546875 C423.45621001 653.68518999 428.92807653 651.25117384 432.53515625 647.33203125 C434 646 434 646 438 646 C438.17015625 646.9178125 438.3403125 647.835625 438.515625 648.78125 C440.67929104 659.73768653 443.04317739 667.8707311 452 675 C460.57130277 680.2869718 469.84835156 681.59038074 479.7578125 679.38671875 C488.29420957 676.34947402 494.85144926 670.80936219 499 662.75 C502.69182279 654.69977531 503.49176959 646.2574249 500.4375 637.8125 C496.5642025 629.22032598 489.73208923 622.43918691 481.0625 618.75 C473.0993056 616.79982994 467.99952049 617.1857568 460.05078125 619.30859375 C457.23776581 619.94611454 454.86821565 620.13303412 452 620 C452.51868481 616.02341648 453.18120491 612.16270019 454.0625 608.25 C455.97051984 598.62251056 455.81945259 589.77877624 451 581 C445.56105632 574.10213966 437.73814323 570.76772399 429.16796875 569.62109375 C420.07653739 569.2269198 413.89892888 572.31852915 407 578 C406.01 578 405.02 578 404 578 C403.82984375 577.20335937 403.6596875 576.40671875 403.484375 575.5859375 C401.53319571 567.05471739 399.00039556 560.95190603 392.1171875 555.32421875 C385.19999032 550.99777993 376.50222366 549.92464684 368.6015625 551.46875 C357.26578468 554.39861257 350.3599641 561.19588218 343 570 C342.85304688 569.2265625 342.70609375 568.453125 342.5546875 567.65625 C340.6764285 558.9342197 338.0393862 553.26588672 331.0625 547.625 C319.4244044 541.44968397 306.82944492 543.13854204 298 553 Z " fill="#000000" transform="translate(0,0)"/>
</svg>
