<svg xmlns="http://www.w3.org/2000/svg" width="500" height="500" fill="none"><path fill="#00003C" d="M314.057 315.782c-10.151 0-16.818-5.808-16.818-14.521 0-7.261 4.932-13.069 10.733-13.069 2.318 0 4.348.868 4.348 3.189 0 1.452-.581 2.619.869 2.619.868 0 1.745-.868 1.745-3.203 0-2.863-2.614-5.225-6.381-5.225h-.877c.391-.814.592-1.71.581-2.616a3.97 3.97 0 0 0-4.055-4.061c-2.031 0-4.064 1.167-4.064 2.617a.768.768 0 0 0 .872.86c.865 0 1.161-.86 2.611-.86a1.816 1.816 0 0 1 1.936 1.213c.09.26.119.538.086.812 0 2.035-1.737 2.866-3.187 3.773a15.87 15.87 0 0 0-7.83 13.951c0 8.129 4.646 13.373 11.313 15.678l-4.349 6.688c-5.8 0-8.71 4.364-13.927 13.653a5.08 5.08 0 0 0-5.216-4.072c-3.198 0-5.228 2.321-5.228 5.524a1.32 1.32 0 0 0 1.162 1.441 1.36 1.36 0 0 0 1.365-.874c.069-.181.098-.374.087-.567-.027-.362.02-.726.138-1.07a2.68 2.68 0 0 1 1.424-1.56c.33-.15.688-.23 1.052-.237 2.03 0 2.86 1.453 2.86 3.19a8.74 8.74 0 0 1-1.745 5.523c-6.085 9.869-14.5 14.807-21.749 14.807-6.39 0-10.157-3.773-10.157-7.546 0-3.488 2.03-6.392 5.51-6.392 2.32 0 3.77 1.452 3.77 3.477 0 1.748-1.45 1.748-1.45 2.619 0 .581.581.869 1.165.869 1.745 0 2.861-2.025 2.861-4.061 0-3.203-2.614-5.523-6.382-5.523a7.91 7.91 0 0 0-7.247 4.655 7.96 7.96 0 0 0-7.252-4.655c-3.814 0-6.39 2.323-6.39 5.523 0 2.036 1.162 4.061 2.861 4.061.57 0 1.154-.288 1.154-.869 0-.868-1.45-.868-1.45-2.619 0-2.025 1.45-3.477 3.817-3.477 3.471 0 5.504 2.866 5.504 6.392 0 3.773-3.77 7.546-10.151 7.546-7.247 0-15.662-4.94-21.758-14.807a8.8 8.8 0 0 1-1.648-5.569c0-1.74.869-3.192 2.861-3.192a2.68 2.68 0 0 1 1.925.869c.245.269.432.584.55.928.119.343.166.707.139 1.069a1.37 1.37 0 0 0 .396 1.043 1.36 1.36 0 0 0 1.043.398 1.313 1.313 0 0 0 1.164-1.441c0-3.203-2.03-5.524-5.217-5.524a5.08 5.08 0 0 0-5.227 4.072c-5.179-9.248-8.081-13.604-13.851-13.604l-4.349-6.688c6.677-2.321 11.313-7.546 11.313-15.678a15.88 15.88 0 0 0-7.833-13.951c-1.449-.869-3.184-1.738-3.184-3.773a1.826 1.826 0 0 1 2.03-2.025c1.453 0 1.738.86 2.606.86a.77.77 0 0 0 .841-.51.8.8 0 0 0 .036-.35c0-1.452-2.03-2.617-4.063-2.617a3.95 3.95 0 0 0-3.781 2.489 4 4 0 0 0-.283 1.572c-.011.906.19 1.802.581 2.616h-.868c-3.814 0-6.379 2.324-6.379 5.228 0 2.329.869 3.2 1.737 3.2 1.447 0 .866-1.167.866-2.619 0-2.321 2.03-3.189 4.359-3.189 5.801 0 10.73 5.808 10.73 13.069 0 8.713-6.677 14.521-16.826 14.521-11.894 0-20.889-8.712-20.889-20.913 0-11.916 6.965-20.064 14.793-27.295l6.677-6.392c8.414-7.844 11.888-15.974 11.888-26.131 0-11.044-6.677-23.242-20.585-29.338 2.861-.869 4.636-3.822 4.636-7.261 0-2.321-.868-3.765-.868-5.51 0-3.491 2.03-5.524 4.931-5.524a4.216 4.216 0 0 1 4.349 4.072 3.07 3.07 0 0 1-1.949 2.993 3.05 3.05 0 0 1-1.246.204c-.869 0-1.449 0-1.449.869 0 .868.876 1.156 2.03 1.156a5.096 5.096 0 0 0 5.217-4.356 4.3 4.3 0 0 0 2.041.583 3.34 3.34 0 0 0 3.474-3.488c0-.58-.288-1.452-1.153-1.452-.584 0-.869.584-.869 1.157.013.194-.016.389-.085.571a1.38 1.38 0 0 1-1.367.892 3.1 3.1 0 0 1-2.611-2.036 7.46 7.46 0 0 0-6.382-3.822 7.224 7.224 0 0 0-7.26 6.107 32.6 32.6 0 0 0-6.677-5.217c2.318-1.465 4.351-2.619 6.677-4.37a73.5 73.5 0 0 0 10.159-9.293l15.949-17.426c13.925-15.39 22.893-19.163 31.622-19.163 7.543 0 11.31 3.773 11.31 8.129 0 3.201-1.362 5.57-3.539 6.735a9.7 9.7 0 0 1-2.546-4.995c-.296-1.444-.581-1.444-.877-1.444-.583 0-.583.57-.583 1.157a11.3 11.3 0 0 0 1.566 6.047c-.315 0-.641.054-.956.054-2.861 0-4.636-1.46-4.636-3.197a1.85 1.85 0 0 1 .584-1.444c.57-.584.285-.88 0-.88-1.165 0-2.329 1.453-2.329 3.192 0 2.036 1.745 4.94 6.677 4.94.928 0 1.851-.138 2.739-.412a9.53 9.53 0 0 0 11.34 0 9.4 9.4 0 0 0 2.747.412c4.924 0 6.677-2.866 6.677-4.94 0-1.737-1.162-3.192-2.318-3.192-.285 0-.581.299 0 .88a1.9 1.9 0 0 1 .573 1.444c0 1.737-1.737 3.2-4.636 3.2-.334 0-.668 0-.953-.057a11.3 11.3 0 0 0 1.564-6.047c0-.584 0-1.157-.581-1.157-.288 0-.584 0-.869 1.442a9.84 9.84 0 0 1-2.546 4.997c-2.174-1.168-3.55-3.534-3.55-6.735 0-4.356 3.77-8.132 11.313-8.132 8.699 0 17.697 3.773 31.621 19.166l15.95 17.426a60.2 60.2 0 0 0 10.156 9.296c2.318 1.748 4.351 2.866 6.678 4.365a32.5 32.5 0 0 0-6.678 5.217 7.245 7.245 0 0 0-7.258-6.105 7.46 7.46 0 0 0-6.381 3.822 3.1 3.1 0 0 1-2.606 2.036 1.38 1.38 0 0 1-1.366-.891 1.4 1.4 0 0 1-.083-.572c0-.57-.296-1.157-.869-1.157-.876 0-1.161.869-1.161 1.452a3.35 3.35 0 0 0 3.479 3.488 4.25 4.25 0 0 0 2.036-.583 5.116 5.116 0 0 0 5.214 4.356c1.167 0 2.033-.285 2.033-1.153s-.583-.869-1.449-.869a2.86 2.86 0 0 1-2.38-.819 2.86 2.86 0 0 1-.807-2.384 4.23 4.23 0 0 1 4.34-4.071c2.91 0 4.94 2.035 4.94 5.523 0 1.748-.876 3.192-.876 5.513 0 3.488 1.745 6.392 4.644 7.261-13.924 6.096-20.593 18.294-20.593 29.341 0 10.154 3.482 18.284 11.885 26.128l6.678 6.392c7.83 7.261 14.792 15.382 14.792 27.295 0 12.201-8.995 20.913-20.889 20.913zm-63.995 54.007a45 45 0 0 0-6.096-8.998 11.45 11.45 0 0 0 6.096-5.524 11.46 11.46 0 0 0 6.086 5.524 45 45 0 0 0-6.086 8.998m2.929-217.825a7.13 7.13 0 0 1-5.865 0 9.17 9.17 0 0 0 2.936-3.927 9.16 9.16 0 0 0 2.929 3.927m86.705 130.425a4.18 4.18 0 0 0-3.816 2.043c-2.318-5.225-4.636-10.165-14.793-19.461 1.317.402 2.687.597 4.063.584 3.195 0 6.678-.88 8.7-2.867a4.39 4.39 0 0 0 4.359 3.203c3.184 0 4.348-2.036 4.348-4.359 0-.877-.296-1.748-1.164-1.748-1.737 0-.285 3.488-3.184 3.488a2.08 2.08 0 0 1-1.541-.709 2.07 2.07 0 0 1-.492-1.623c0-1.441.868-3.189.868-5.225a8.61 8.61 0 0 0-6.381-8.713 3.94 3.94 0 0 1-3.186-3.772c0-2.324 1.737-2.612 2.86-2.612 1.127 0 2.033.288 2.033-.58 0-.869-.868-1.453-2.605-1.453-2.031 0-4.929 1.453-4.929 4.642a4.58 4.58 0 0 0 1.449 3.488 5.94 5.94 0 0 0-4.932 5.819c0 2.025.57 4.05 2.033 4.05 1.737 0 .285-1.452.285-3.773 0-2.608 2.318-3.765 4.644-3.765 3.187 0 6.086 2.867 6.086 6.688 0 4.357-3.48 7.261-8.995 7.261a14.48 14.48 0 0 1-11.637-5.005c-6.093-6.688-9.538-12.486-9.538-22.93 0-13.376 9.538-24.983 23.493-28.758a7.21 7.21 0 0 0 5.219-6.976c0-2.864-1.737-5.214-4.636-5.214-1.164 0-2.033.277-2.033 1.156 0 .88.869.869 1.45.869a2.945 2.945 0 0 1 2.605 3.192 4.67 4.67 0 0 1-3.067 4.381 4.6 4.6 0 0 1-1.865.271c-3.186 0-5.216-2.321-5.216-5.521 0-6.096 7.258-10.165 12.762-12.765-4.932-2.332-6.677-3.203-10.444-6.107a3.74 3.74 0 0 1-1.154-2.864c0-1.452.869-2.619 2.03-2.619a1.38 1.38 0 0 1 1.363.886c.068.181.098.375.087.569 0 .868-.581.868-.581 1.452a.76.76 0 0 0 .517.838.76.76 0 0 0 .351.03c.581 0 2.031-.572 2.031-2.866a3.46 3.46 0 0 0-1.104-2.586 3.45 3.45 0 0 0-2.664-.902 4.66 4.66 0 0 0-3.39 1.466 4.7 4.7 0 0 0-.987 1.607 4.7 4.7 0 0 0-.267 1.867 61.6 61.6 0 0 1-6.381-6.096l-9.283-10.165c-2.614-2.866-1.162-8.414 2.606-8.414a2.65 2.65 0 0 1 1.994.691 2.67 2.67 0 0 1 .867 1.925c0 2.606-2.614 1.442-2.614 2.867a1.06 1.06 0 0 0 .729 1.024c.143.046.294.062.443.045a4.02 4.02 0 0 0 3.855-2.706 4 4 0 0 0 .209-1.65 5.24 5.24 0 0 0-5.51-4.93c-3.819 0-6.374 2.867-6.374 6.976l-2.909-3.203c-12.763-13.94-23.199-20.064-33.386-20.064a16.8 16.8 0 0 0-9.283 2.62 45.5 45.5 0 0 1-3.765-5.228 45.4 45.4 0 0 1-3.816 5.228 16.8 16.8 0 0 0-9.283-2.62c-10.148 0-20.593 6.107-33.385 20.064l-2.859 3.203c0-4.071-2.613-6.976-6.381-6.976a5.24 5.24 0 0 0-3.779 1.321 5.22 5.22 0 0 0-1.734 3.609 4.05 4.05 0 0 0 2.434 4.027 4.1 4.1 0 0 0 1.63.329 1.04 1.04 0 0 0 .852-.303 1.04 1.04 0 0 0 .301-.853c0-1.452-2.605-.288-2.605-2.867a2.67 2.67 0 0 1 1.791-2.48 2.6 2.6 0 0 1 1.072-.136c3.768 0 5.217 5.51 2.611 8.414l-9.288 10.171a62 62 0 0 1-6.381 6.093 4.67 4.67 0 0 0-2.796-4.554 4.6 4.6 0 0 0-1.84-.383 3.43 3.43 0 0 0-3.541 2.059c-.192.45-.286.937-.276 1.426 0 2.334 1.45 2.866 2.033 2.866a.77.77 0 0 0 .654-.214.77.77 0 0 0 .215-.654c0-.584-.573-.584-.573-1.452a1.38 1.38 0 0 1 .398-1.053 1.38 1.38 0 0 1 1.052-.4c1.161 0 2.03 1.168 2.03 2.617a3.75 3.75 0 0 1-1.162 2.866c-3.482 3.488-5.515 3.822-10.447 6.107 5.515 2.598 12.763 6.686 12.763 12.763 0 3.2-2.023 5.521-5.217 5.521a4.65 4.65 0 0 1-4.932-4.652 2.964 2.964 0 0 1 2.614-3.19c.572 0 1.449 0 1.449-.868 0-.872-.877-1.159-2.03-1.159-2.861 0-4.647 2.323-4.647 5.217a7.24 7.24 0 0 0 5.228 6.975c13.919 4.072 23.495 15.39 23.495 28.755 0 10.453-3.768 15.966-9.538 22.931a14.5 14.5 0 0 1-11.536 5.016c-5.51 0-8.993-2.867-8.993-7.261 0-3.773 2.861-6.688 6.094-6.688 2.318 0 4.636 1.156 4.636 3.765 0 2.32-1.449 3.773.299 3.773 1.449 0 2.03-2.025 2.03-4.05a5.97 5.97 0 0 0-4.932-5.82 4.6 4.6 0 0 0 1.449-3.487c0-3.19-2.86-4.642-4.931-4.642-1.746 0-2.614.581-2.614 1.452 0 .869.868.581 2.033.581 1.164 0 2.861.288 2.861 2.609a3.965 3.965 0 0 1-3.184 3.772 8.586 8.586 0 0 0-6.392 8.713c0 2.036.876 3.825.876 5.228a2.08 2.08 0 0 1-1.186 2.139 2.1 2.1 0 0 1-.844.193c-2.861 0-1.449-3.488-3.195-3.488-.868 0-1.156.868-1.156 1.748 0 2.323 1.156 4.356 4.351 4.356a4.36 4.36 0 0 0 2.728-.847 4.36 4.36 0 0 0 1.62-2.353c2.033 2.025 5.513 2.866 8.7 2.866a13.6 13.6 0 0 0 4.063-.583c-10.149 9.296-12.475 14.236-14.793 19.461a4.19 4.19 0 0 0-3.816-2.044c-2.861 0-4.349 1.748-4.349 4.365 0 .575 0 2.323 1.45 2.323 1.153 0 .581-1.167.581-2.035a2.05 2.05 0 0 1 .706-1.531 2.07 2.07 0 0 1 1.612-.494c2.318 0 2.861 2.025 2.318 5.225a25 25 0 0 0-.285 4.641c0 13.645 10.148 23.525 23.492 23.525a40 40 0 0 0 5.8-.584l4.064 6.107a6.8 6.8 0 0 0-4.932 6.379 6.58 6.58 0 0 0 4.104 6.21 6.5 6.5 0 0 0 2.573.478c2.326 0 4.063-1.167 4.063-2.332a1.05 1.05 0 0 0-.305-.848 1.07 1.07 0 0 0-.848-.305c-.88 0-.88.868-2.864.868a3.96 3.96 0 0 1-3.781-2.497c-.2-.5-.296-1.036-.282-1.574 0-2.31 2.041-4.058 4.932-4.058 5.512 0 8.126 6.39 11.894 12.771l3.816 6.392c6.096 10.45 15.949 16.549 24.076 16.549 1.168.047 2.337-.05 3.482-.288 3.48 3.488 6.962 9.869 8.414 12.774 1.447-2.867 4.921-9.286 8.412-12.774 1.144.238 2.312.335 3.48.288 8.115 0 17.982-6.096 24.075-16.549l3.768-6.392c3.767-6.379 6.381-12.774 11.896-12.774 2.861 0 4.93 1.751 4.93 4.061a3.98 3.98 0 0 1-2.493 3.786c-.499.2-1.033.297-1.571.285-2.03 0-2.03-.868-2.861-.868a1.05 1.05 0 0 0-.855.301 1.06 1.06 0 0 0-.309.852c0 1.168 1.745 2.335 4.063 2.335a6.565 6.565 0 0 0 6.677-6.691 6.81 6.81 0 0 0-4.921-6.324l4.056-6.105c1.916.337 3.854.53 5.797.584 13.355 0 23.506-9.88 23.506-23.522a25 25 0 0 0-.288-4.642c-.583-3.202 0-5.227 2.318-5.227a2.05 2.05 0 0 1 1.614.492 2.06 2.06 0 0 1 .704 1.533c0 .868-.583 2.035.581 2.035 1.45 0 1.45-1.748 1.45-2.32 0-2.62-1.45-4.368-4.349-4.368zm-7.621 49.942c-12.763 13.07-31.622 22.358-49.601 31.079-11.894 5.809-23.492 11.609-32.49 18.582-8.993-6.976-20.602-12.773-32.488-18.582-17.987-8.721-36.838-18.009-49.598-31.079-16.218-16.546-24.086-33.44-24.086-52.545 0-16.24 6.392-29.912 20.889-48.206 1.153-1.466 2.318-2.915 2.318-4.072 0-1.156-1.165-3.487-1.737-4.641l-10.157-22.081c-2.318-4.929-4.636-9.554-4.636-14.513 0-4.071 2.614-6.976 6.085-9.88l14.508-13.056a1.77 1.77 0 0 0 .288-2.035l-4.636-9.555c-.584-1.167-.584-2.046.285-2.619 14.212-9.554 26.109-12.486 43.219-17.138 16.216-4.356 30.753-8.132 39.748-13.941 8.996 5.809 23.493 9.555 39.738 13.941 17.11 4.652 28.719 8.129 43.219 17.138.869.573.869 1.452.285 2.619l-4.636 9.555a1.795 1.795 0 0 0 .299 2.035l14.448 13.048c3.482 2.866 6.085 5.808 6.085 9.88 0 4.94-2.318 9.554-4.636 14.51l-10.129 22.081c-.581 1.154-1.746 3.485-1.746 4.642 0 1.156 1.165 2.608 2.318 4.071 15.673 17.426 20.889 31.939 20.889 48.206 0 19.108-7.83 36.01-24.075 52.548zm13.601-99.902c-2.606-3.202-4.053-4.655-4.053-5.808 0-1.156.869-2.866 1.738-4.94l8.696-19.166c2.614-5.808 4.932-10.748 4.932-16.834 0-4.364-1.737-8.723-6.085-12.496l-12.478-10.749a2.71 2.71 0 0 1-.581-3.485l4.647-10.453a1.527 1.527 0 0 0-.584-2.025c-14.212-9.554-30.454-15.4-45.833-19.76-15.376-4.06-35.97-9.869-46.116-17.713-10.159 7.844-30.753 13.376-46.129 17.713s-31.613 10.174-45.787 19.758a1.506 1.506 0 0 0-.581 2.025l4.644 10.46a2.7 2.7 0 0 1-.57 3.488l-12.48 10.749c-4.351 3.822-6.097 8.129-6.097 12.496 0 6.086 2.318 11.023 4.932 16.832l8.7 19.165c.876 2.036 1.745 3.773 1.745 4.94s-1.45 2.606-4.063 5.809C141.228 248.677 136 262.053 136 279.772c0 24.678 12.182 43.548 26.106 57.793 14.212 14.513 33.939 24.094 51.93 32.807 11.894 5.809 24.36 11.617 35.969 20.914 11.599-9.297 24.076-15.105 35.97-20.914 17.98-8.713 38-18.294 51.919-32.807C351.818 323.32 364 304.45 364 279.775c0-17.725-5.217-31.079-18.275-47.34"/><path fill="#00003C" d="M270.037 287.32a19.43 19.43 0 0 1-6.702 8.295 19.4 19.4 0 0 1-10.059 3.504c-13.533 1.119-13.734-14.969-13.734-14.969v-39.257h.399a34.5 34.5 0 0 1 12.982 1.119c12.19 3.458 20.919 14.472 20.48 27.151a37.6 37.6 0 0 1-3.366 14.157m-30.525-96.376s2.861-7.583 13.612-6.772c10.749.814 16.579 9.639 16.883 18.294.304 8.659 2.606 27.833-19.467 35.522h-10.998l-.027-47.044zm39.919 71.291a34.8 34.8 0 0 0-5.494-11.644c-5.724-7.72-12.314-10.244-12.599-10.339a40 40 0 0 0 4.481-2.959 29.3 29.3 0 0 0 9.97-13.807 41.5 41.5 0 0 0 1.031-24.315c-4.772-17.903-17.523-20.579-17.523-20.579s-14.834-5.888-25.04 7.059c-.114-.179-5.656-8.721-15.463-4.239-8.488 4.679-3.605 12.084-1.515 13.373 0 0 2.774 1.846 4.368 0 1.164-1.373 0-2.796-.657-3.754-1.222-1.911.801-4.041 3.642-3.993 2.47 0 7.402 1.911 7.402 8.599v90.761c0 .754-.773 5.599-4.845 5.501-4.071-.095-5.55-4.356-3.224-6.685a2.34 2.34 0 0 0-.725-.958c-.421-.217-6.677-.391-5.944 6.251.735 6.639 8.683 9.847 16.34 5.673a21.08 21.08 0 0 0 18.677 10.653c13.411 0 21.823-11.256 21.823-11.256s10.762-13.077 5.276-33.217"/><path fill="#00003C" d="M223.155 278.99a52.6 52.6 0 0 0 34.051 10.442 44.16 44.16 0 0 0 23.18-7.7c19.82-13.851 10.958-31.822 10.377-33.44 0 0-5.475-12.486-18.946-17.127 0 0-10.119-3.401-26.182-4.577-16.063-1.175-22.358-8.053-19.907-16.489s14.956-12.241 22.692-12.727a50.67 50.67 0 0 1 31.106 8.496 35.4 35.4 0 0 1 4.446 4.239s2.193 2.867 3.585 1.395c1.184-1.289-.877-3.094-.877-3.094a16.8 16.8 0 0 1-3.816-9.554 49 49 0 0 1-.133-7.204q.147-1.455.535-2.866c.228-.814.418-1.979-.755-2.177-.952-.163-1.419.953-1.517 1.126a10.74 10.74 0 0 1-11.568 5.006c-12.983-2.818-20.987-2.685-20.987-2.685s-15.146-1.05-25.286 9.85a20.6 20.6 0 0 0-5.418 17.838c2.416 12.188 15.004 16.672 27.968 16.536a63 63 0 0 1 15.262 1.702 53.4 53.4 0 0 1 8.203 2.597 24.43 24.43 0 0 1 14.307 15.526c1.851 6.468 1.172 15.151-10.597 22.176-21.73 12.99-47.885.952-58.845-24.651a1.78 1.78 0 0 0-2.384-.793c-1.384.573-.618 2.541-.618 2.541s4.071 7.347 3.289 13.137a15.94 15.94 0 0 1-5.808 9.945c-1.127 1.031-2.508 2.264-1.431 3.336 1.078 1.069 2.212.477 3.814-.956h.068a10.39 10.39 0 0 1 12.228.152"/><path fill="#00003C" d="M248.42 191.506v106.927a25.3 25.3 0 0 1-2.46 11.196c-1.84 3.735-4.893 7.473-9.768 7.473 0 0-5.722.488-7.573-3.124-2.204-4.243 1.498-5.896 1.498-5.896s2.576-1.186 1.344-3.181c-1.23-1.998-3.969-.955-3.969-.955a11.44 11.44 0 0 0-6.343 6.305c-2.098 4.913 1.357 13.11 10.732 14.006a20.88 20.88 0 0 0 19.163-8.762s6.848 8.121 16.796 9.44c0 0 1.195.144 1.537-.364.344-.504.42-1.338-1.173-2.445-1.593-1.108-10.808-6.419-10.77-15.697V187.961a19.4 19.4 0 0 1 8.835-16.459l.236-.144a52.5 52.5 0 0 1 11.696-4.663s2.28-.402 2.546-1.528c.266-1.127-.391-1.835-1.908-1.672a34 34 0 0 0-8.586 1.816c-4.09 1.452-9.033 4.375-16.967 4.383-6.123 0-14.309-2.158-17.77-3.151a21 21 0 0 1-2.538-.955c-.801-.353-1.908-.728-2.614-.258a1.67 1.67 0 0 0-.442 2.125c.173.305.438.547.757.692 2.375 1.501 3.032 1.357 5.266 2.514a23.1 23.1 0 0 1 6.894 5.379 23.4 23.4 0 0 1 5.572 15.485"/></svg>