<?xml version="1.0" encoding="UTF-8"?>
<svg version="1.1" xmlns="http://www.w3.org/2000/svg" width="1000" height="1000">
<path d="M0 0 C1.90548866 -0.01258347 1.90548866 -0.01258347 3.84947205 -0.02542114 C5.26004333 -0.01445396 6.67061156 -0.00308799 8.08117676 0.00863647 C9.56442093 0.00649095 11.04766346 0.00261375 12.53089905 -0.00286865 C16.56195115 -0.01257384 20.5925613 0.00275562 24.62355995 0.02303743 C28.83822768 0.04058645 33.05288131 0.03708377 37.26757812 0.03631592 C44.34598194 0.03818983 51.42421443 0.05556569 58.50256348 0.08285522 C66.69086696 0.11430701 74.87898275 0.12485147 83.06734228 0.12338412 C90.93811496 0.12216407 98.8088264 0.13237029 106.67958069 0.14896774 C110.03199237 0.15603591 113.38438238 0.1596946 116.73680115 0.16075516 C120.68321049 0.16276198 124.6294618 0.17495471 128.57581902 0.19508743 C130.02585317 0.20093674 131.47590551 0.2033883 132.925951 0.20223236 C134.90190433 0.20125313 136.87785074 0.21378297 138.85375977 0.22705078 C139.96062386 0.23040247 141.06748795 0.23375416 142.20789337 0.23720741 C144.92687988 0.49447632 144.92687988 0.49447632 147.92687988 2.49447632 C150.68105307 2.79513786 153.35333135 3.00372931 156.11437988 3.11947632 C156.86396973 3.15814819 157.61355957 3.19682007 158.38586426 3.23666382 C160.23247187 3.33075847 162.07964178 3.41369951 163.92687988 3.49447632 C163.92687988 4.48447632 163.92687988 5.47447632 163.92687988 6.49447632 C165.53369629 6.47707397 165.53369629 6.47707397 167.17297363 6.45932007 C168.57010731 6.44994333 169.96724287 6.44084301 171.36437988 6.43197632 C172.07143066 6.42359741 172.77848145 6.41521851 173.50695801 6.40658569 C175.31381548 6.39794044 177.12075591 6.4422762 178.92687988 6.49447632 C179.25687988 6.82447632 179.58687988 7.15447632 179.92687988 7.49447632 C181.27435072 7.72522714 182.63065553 7.90600695 183.98937988 8.05697632 C185.28875488 8.20135132 186.58812988 8.34572632 187.92687988 8.49447632 C187.92687988 9.48447632 187.92687988 10.47447632 187.92687988 11.49447632 C190.56687988 11.49447632 193.20687988 11.49447632 195.92687988 11.49447632 C195.92687988 12.48447632 195.92687988 13.47447632 195.92687988 14.49447632 C198.56687988 14.49447632 201.20687988 14.49447632 203.92687988 14.49447632 C203.92687988 15.15447632 203.92687988 15.81447632 203.92687988 16.49447632 C205.57687988 16.49447632 207.22687988 16.49447632 208.92687988 16.49447632 C209.25687988 17.48447632 209.58687988 18.47447632 209.92687988 19.49447632 C211.57687988 19.49447632 213.22687988 19.49447632 214.92687988 19.49447632 C214.92687988 20.48447632 214.92687988 21.47447632 214.92687988 22.49447632 C217.56687988 22.49447632 220.20687988 22.49447632 222.92687988 22.49447632 C222.92687988 23.15447632 222.92687988 23.81447632 222.92687988 24.49447632 C224.57687988 24.49447632 226.22687988 24.49447632 227.92687988 24.49447632 C227.92687988 25.48447632 227.92687988 26.47447632 227.92687988 27.49447632 C229.57687988 27.49447632 231.22687988 27.49447632 232.92687988 27.49447632 C233.25687988 28.15447632 233.58687988 28.81447632 233.92687988 29.49447632 C235.95151243 30.14660924 235.95151243 30.14660924 237.92687988 30.49447632 C237.92687988 31.15447632 237.92687988 31.81447632 237.92687988 32.49447632 C239.24687988 32.82447632 240.56687988 33.15447632 241.92687988 33.49447632 C241.92687988 34.15447632 241.92687988 34.81447632 241.92687988 35.49447632 C243.57687988 35.82447632 245.22687988 36.15447632 246.92687988 36.49447632 C246.92687988 37.15447632 246.92687988 37.81447632 246.92687988 38.49447632 C247.91687988 38.49447632 248.90687988 38.49447632 249.92687988 38.49447632 C249.92687988 39.15447632 249.92687988 39.81447632 249.92687988 40.49447632 C251.57687988 40.82447632 253.22687988 41.15447632 254.92687988 41.49447632 C254.92687988 42.15447632 254.92687988 42.81447632 254.92687988 43.49447632 C255.91687988 43.49447632 256.90687988 43.49447632 257.92687988 43.49447632 C257.92687988 44.48447632 257.92687988 45.47447632 257.92687988 46.49447632 C258.58687988 46.49447632 259.24687988 46.49447632 259.92687988 46.49447632 C259.92687988 47.15447632 259.92687988 47.81447632 259.92687988 48.49447632 C260.69000488 48.43260132 261.45312988 48.37072632 262.23937988 48.30697632 C264.92687988 48.49447632 264.92687988 48.49447632 266.73937988 49.80697632 C267.92687988 51.49447632 267.92687988 51.49447632 267.92687988 54.49447632 C268.91687988 54.49447632 269.90687988 54.49447632 270.92687988 54.49447632 C270.92687988 55.15447632 270.92687988 55.81447632 270.92687988 56.49447632 C271.91687988 56.49447632 272.90687988 56.49447632 273.92687988 56.49447632 C273.92687988 57.48447632 273.92687988 58.47447632 273.92687988 59.49447632 C274.58687988 59.49447632 275.24687988 59.49447632 275.92687988 59.49447632 C275.92687988 60.48447632 275.92687988 61.47447632 275.92687988 62.49447632 C276.91687988 62.49447632 277.90687988 62.49447632 278.92687988 62.49447632 C278.92687988 63.15447632 278.92687988 63.81447632 278.92687988 64.49447632 C279.91687988 64.49447632 280.90687988 64.49447632 281.92687988 64.49447632 C281.92687988 65.48447632 281.92687988 66.47447632 281.92687988 67.49447632 C282.58687988 67.49447632 283.24687988 67.49447632 283.92687988 67.49447632 C283.92687988 68.48447632 283.92687988 69.47447632 283.92687988 70.49447632 C284.54562988 70.63885132 285.16437988 70.78322632 285.80187988 70.93197632 C287.92687988 71.49447632 287.92687988 71.49447632 289.92687988 72.49447632 C289.92687988 73.48447632 289.92687988 74.47447632 289.92687988 75.49447632 C290.58687988 75.49447632 291.24687988 75.49447632 291.92687988 75.49447632 C291.92687988 76.48447632 291.92687988 77.47447632 291.92687988 78.49447632 C292.91687988 78.49447632 293.90687988 78.49447632 294.92687988 78.49447632 C294.92687988 79.15447632 294.92687988 79.81447632 294.92687988 80.49447632 C295.91687988 80.82447632 296.90687988 81.15447632 297.92687988 81.49447632 C297.92687988 82.15447632 297.92687988 82.81447632 297.92687988 83.49447632 C298.58687988 83.49447632 299.24687988 83.49447632 299.92687988 83.49447632 C299.92687988 84.48447632 299.92687988 85.47447632 299.92687988 86.49447632 C300.91687988 86.82447632 301.90687988 87.15447632 302.92687988 87.49447632 C302.92687988 88.81447632 302.92687988 90.13447632 302.92687988 91.49447632 C303.91687988 91.49447632 304.90687988 91.49447632 305.92687988 91.49447632 C305.92687988 92.48447632 305.92687988 93.47447632 305.92687988 94.49447632 C306.58687988 94.49447632 307.24687988 94.49447632 307.92687988 94.49447632 C308.05062988 95.13385132 308.17437988 95.77322632 308.30187988 96.43197632 C308.61125488 97.45291382 308.61125488 97.45291382 308.92687988 98.49447632 C309.58687988 98.82447632 310.24687988 99.15447632 310.92687988 99.49447632 C310.92687988 100.48447632 310.92687988 101.47447632 310.92687988 102.49447632 C311.91687988 102.49447632 312.90687988 102.49447632 313.92687988 102.49447632 C313.92687988 103.48447632 313.92687988 104.47447632 313.92687988 105.49447632 C314.58687988 105.49447632 315.24687988 105.49447632 315.92687988 105.49447632 C315.92687988 107.14447632 315.92687988 108.79447632 315.92687988 110.49447632 C316.91687988 110.49447632 317.90687988 110.49447632 318.92687988 110.49447632 C318.92687988 112.14447632 318.92687988 113.79447632 318.92687988 115.49447632 C319.91687988 115.49447632 320.90687988 115.49447632 321.92687988 115.49447632 C322.12023926 116.20474976 322.31359863 116.91502319 322.51281738 117.64682007 C322.77320801 118.56592163 323.03359863 119.48502319 323.30187988 120.43197632 C323.55711426 121.34849976 323.81234863 122.26502319 324.07531738 123.20932007 C324.69348092 125.66192719 324.69348092 125.66192719 326.92687988 126.49447632 C326.92687988 128.14447632 326.92687988 129.79447632 326.92687988 131.49447632 C327.91687988 131.49447632 328.90687988 131.49447632 329.92687988 131.49447632 C329.92687988 133.14447632 329.92687988 134.79447632 329.92687988 136.49447632 C330.58687988 136.49447632 331.24687988 136.49447632 331.92687988 136.49447632 C331.92687988 139.13447632 331.92687988 141.77447632 331.92687988 144.49447632 C332.91687988 144.49447632 333.90687988 144.49447632 334.92687988 144.49447632 C334.92687988 146.47447632 334.92687988 148.45447632 334.92687988 150.49447632 C335.58687988 150.49447632 336.24687988 150.49447632 336.92687988 150.49447632 C338.28127656 153.20326967 337.99189439 155.503809 337.92687988 158.49447632 C338.58687988 158.49447632 339.24687988 158.49447632 339.92687988 158.49447632 C339.92687988 161.79447632 339.92687988 165.09447632 339.92687988 168.49447632 C340.91687988 168.82447632 341.90687988 169.15447632 342.92687988 169.49447632 C342.97586426 170.33752319 343.02484863 171.18057007 343.07531738 172.04916382 C343.18746582 173.69271851 343.18746582 173.69271851 343.30187988 175.36947632 C343.37148926 176.46002319 343.44109863 177.55057007 343.51281738 178.67416382 C343.6594148 181.62494106 343.6594148 181.62494106 345.92687988 183.49447632 C346.20783981 186.02021913 346.3923298 188.46170579 346.48937988 190.99447632 C346.52861583 195.89401916 346.52861583 195.89401916 347.92687988 200.49447632 C348.02085212 201.84745293 348.05481366 203.20489135 348.05627441 204.56112671 C348.05942657 205.39861954 348.06257874 206.23611237 348.06582642 207.09898376 C348.06279007 208.45684242 348.06279007 208.45684242 348.05969238 209.84213257 C348.06112747 211.23268105 348.06112747 211.23268105 348.06259155 212.65132141 C348.06327265 214.61246814 348.06142328 216.57361711 348.05725098 218.53475952 C348.0518957 221.54807559 348.05720147 224.561243 348.06359863 227.57455444 C348.06293796 229.47624748 348.06165702 231.37794043 348.05969238 233.27963257 C348.06171661 234.1868959 348.06374084 235.09415924 348.06582642 236.02891541 C348.04183366 242.37952254 348.04183366 242.37952254 346.92687988 243.49447632 C346.71559632 246.14432431 346.55075322 248.77787529 346.42687988 251.43197632 C346.06122792 259.22578025 346.06122792 259.22578025 344.92687988 261.49447632 C344.26687988 261.49447632 343.60687988 261.49447632 342.92687988 261.49447632 C342.92687988 265.78447632 342.92687988 270.07447632 342.92687988 274.49447632 C341.93687988 274.49447632 340.94687988 274.49447632 339.92687988 274.49447632 C339.96168457 275.12353882 339.99648926 275.75260132 340.03234863 276.40072632 C340.22694772 282.55376413 339.42683731 286.8695721 336.92687988 292.49447632 C336.26687988 292.49447632 335.60687988 292.49447632 334.92687988 292.49447632 C334.96812988 293.44322632 335.00937988 294.39197632 335.05187988 295.36947632 C334.92687988 298.49447632 334.92687988 298.49447632 332.92687988 300.49447632 C332.52923726 302.48268945 332.1891264 304.48391971 331.92687988 306.49447632 C331.26687988 306.49447632 330.60687988 306.49447632 329.92687988 306.49447632 C329.92687988 308.14447632 329.92687988 309.79447632 329.92687988 311.49447632 C328.93687988 311.82447632 327.94687988 312.15447632 326.92687988 312.49447632 C326.92687988 314.14447632 326.92687988 315.79447632 326.92687988 317.49447632 C325.93687988 317.49447632 324.94687988 317.49447632 323.92687988 317.49447632 C323.98875488 318.19572632 324.05062988 318.89697632 324.11437988 319.61947632 C323.88431887 323.14707844 322.6348742 325.43431983 320.92687988 328.49447632 C320.26687988 328.49447632 319.60687988 328.49447632 318.92687988 328.49447632 C318.80312988 329.07197632 318.67937988 329.64947632 318.55187988 330.24447632 C317.92039164 332.51783399 317.03829797 334.41982921 315.92687988 336.49447632 C315.26687988 336.49447632 314.60687988 336.49447632 313.92687988 336.49447632 C313.59687988 338.14447632 313.26687988 339.79447632 312.92687988 341.49447632 C312.26687988 341.49447632 311.60687988 341.49447632 310.92687988 341.49447632 C310.92687988 342.48447632 310.92687988 343.47447632 310.92687988 344.49447632 C309.93687988 344.49447632 308.94687988 344.49447632 307.92687988 344.49447632 C307.92687988 346.14447632 307.92687988 347.79447632 307.92687988 349.49447632 C307.26687988 349.49447632 306.60687988 349.49447632 305.92687988 349.49447632 C305.59687988 350.48447632 305.26687988 351.47447632 304.92687988 352.49447632 C304.26687988 352.49447632 303.60687988 352.49447632 302.92687988 352.49447632 C302.59687988 353.48447632 302.26687988 354.47447632 301.92687988 355.49447632 C301.26687988 355.49447632 300.60687988 355.49447632 299.92687988 355.49447632 C299.78250488 356.27822632 299.63812988 357.06197632 299.48937988 357.86947632 C298.92687988 360.49447632 298.92687988 360.49447632 297.92687988 362.49447632 C296.93687988 362.49447632 295.94687988 362.49447632 294.92687988 362.49447632 C294.92687988 363.48447632 294.92687988 364.47447632 294.92687988 365.49447632 C293.93687988 365.49447632 292.94687988 365.49447632 291.92687988 365.49447632 C291.92687988 366.48447632 291.92687988 367.47447632 291.92687988 368.49447632 C291.26687988 368.49447632 290.60687988 368.49447632 289.92687988 368.49447632 C289.59687988 369.48447632 289.26687988 370.47447632 288.92687988 371.49447632 C288.26687988 371.49447632 287.60687988 371.49447632 286.92687988 371.49447632 C286.92687988 372.15447632 286.92687988 372.81447632 286.92687988 373.49447632 C285.93687988 373.49447632 284.94687988 373.49447632 283.92687988 373.49447632 C283.92687988 374.48447632 283.92687988 375.47447632 283.92687988 376.49447632 C283.26687988 376.49447632 282.60687988 376.49447632 281.92687988 376.49447632 C281.92687988 377.15447632 281.92687988 377.81447632 281.92687988 378.49447632 C280.61437988 380.11947632 280.61437988 380.11947632 278.92687988 381.49447632 C277.93687988 381.49447632 276.94687988 381.49447632 275.92687988 381.49447632 C275.92687988 382.48447632 275.92687988 383.47447632 275.92687988 384.49447632 C275.26687988 384.49447632 274.60687988 384.49447632 273.92687988 384.49447632 C273.92687988 385.15447632 273.92687988 385.81447632 273.92687988 386.49447632 C272.61437988 388.11947632 272.61437988 388.11947632 270.92687988 389.49447632 C269.93687988 389.49447632 268.94687988 389.49447632 267.92687988 389.49447632 C267.92687988 390.48447632 267.92687988 391.47447632 267.92687988 392.49447632 C266.27687988 392.49447632 264.62687988 392.49447632 262.92687988 392.49447632 C262.59687988 393.48447632 262.26687988 394.47447632 261.92687988 395.49447632 C261.26687988 395.49447632 260.60687988 395.49447632 259.92687988 395.49447632 C259.92687988 396.15447632 259.92687988 396.81447632 259.92687988 397.49447632 C259.26687988 397.49447632 258.60687988 397.49447632 257.92687988 397.49447632 C257.59687988 398.48447632 257.26687988 399.47447632 256.92687988 400.49447632 C255.27687988 400.49447632 253.62687988 400.49447632 251.92687988 400.49447632 C251.92687988 401.15447632 251.92687988 401.81447632 251.92687988 402.49447632 C251.26687988 402.49447632 250.60687988 402.49447632 249.92687988 402.49447632 C249.59687988 403.48447632 249.26687988 404.47447632 248.92687988 405.49447632 C248.32875488 405.63885132 247.73062988 405.78322632 247.11437988 405.93197632 C244.72784702 406.33756223 244.72784702 406.33756223 242.98937988 408.55697632 C240.92687988 410.49447632 240.92687988 410.49447632 238.17687988 410.74447632 C237.43437988 410.66197632 236.69187988 410.57947632 235.92687988 410.49447632 C235.92687988 411.48447632 235.92687988 412.47447632 235.92687988 413.49447632 C234.27687988 413.49447632 232.62687988 413.49447632 230.92687988 413.49447632 C230.92687988 414.48447632 230.92687988 415.47447632 230.92687988 416.49447632 C229.27687988 416.49447632 227.62687988 416.49447632 225.92687988 416.49447632 C225.92687988 417.15447632 225.92687988 417.81447632 225.92687988 418.49447632 C223.94687988 418.49447632 221.96687988 418.49447632 219.92687988 418.49447632 C219.92687988 419.48447632 219.92687988 420.47447632 219.92687988 421.49447632 C218.27687988 421.49447632 216.62687988 421.49447632 214.92687988 421.49447632 C214.92687988 422.48447632 214.92687988 423.47447632 214.92687988 424.49447632 C210.42334727 426.25195246 206.75048177 426.68742039 201.92687988 426.49447632 C201.92687988 427.48447632 201.92687988 428.47447632 201.92687988 429.49447632 C199.94687988 429.49447632 197.96687988 429.49447632 195.92687988 429.49447632 C195.59687988 430.48447632 195.26687988 431.47447632 194.92687988 432.49447632 C194.28879395 432.55506226 193.65070801 432.61564819 192.99328613 432.67807007 C191.75385254 432.80375366 191.75385254 432.80375366 190.48937988 432.93197632 C189.66566895 433.01318726 188.84195801 433.09439819 187.99328613 433.17807007 C185.94025963 433.28378446 185.94025963 433.28378446 184.92687988 434.49447632 C183.24079022 434.56653143 181.55187329 434.57833699 179.86437988 434.55697632 C178.94527832 434.54795288 178.02617676 434.53892944 177.07922363 434.52963257 C176.3689502 434.51803101 175.65867676 434.50642944 174.92687988 434.49447632 C174.92687988 435.48447632 174.92687988 436.47447632 174.92687988 437.49447632 C171.29687988 437.49447632 167.66687988 437.49447632 163.92687988 437.49447632 C163.59687988 438.48447632 163.26687988 439.47447632 162.92687988 440.49447632 C153.68687988 440.49447632 144.44687988 440.49447632 134.92687988 440.49447632 C134.92687988 441.15447632 134.92687988 441.81447632 134.92687988 442.49447632 C90.04687988 442.49447632 45.16687988 442.49447632 -1.07312012 442.49447632 C-1.07312012 493.31447632 -1.07312012 544.13447632 -1.07312012 596.49447632 C-44.63312012 596.49447632 -88.19312012 596.49447632 -133.07312012 596.49447632 C-133.07312012 439.41447632 -133.07312012 282.33447632 -133.07312012 120.49447632 C-71.69312012 119.99947632 -71.69312012 119.99947632 -9.07312012 119.49447632 C-9.1919079 81.82790825 -9.1919079 81.82790825 -9.34338379 44.16146851 C-9.35693359 36.87973022 -9.35693359 36.87973022 -9.35945129 33.47183228 C-9.36406084 31.08949097 -9.3746178 28.70715671 -9.3898468 26.32485962 C-9.41175198 22.71818869 -9.41483995 19.11194582 -9.41369629 15.50521851 C-9.42449061 14.44224926 -9.43528494 13.37928001 -9.44640636 12.28409958 C-9.44227387 11.31298862 -9.43814138 10.34187767 -9.43388367 9.34133911 C-9.43664905 8.49697674 -9.43941442 7.65261436 -9.4422636 6.78266525 C-8.48994918 0.87960751 -5.56439666 -0.00547728 0 0 Z M-1.07312012 128.49447632 C-1.07312012 190.20447632 -1.07312012 251.91447632 -1.07312012 315.49447632 C45.45687988 315.49447632 91.98687988 315.49447632 139.92687988 315.49447632 C140.25687988 314.83447632 140.58687988 314.17447632 140.92687988 313.49447632 C142.99328613 313.08041382 142.99328613 313.08041382 145.48937988 312.86947632 C146.72881348 312.75732788 146.72881348 312.75732788 147.99328613 312.64291382 C148.63137207 312.59392944 149.26945801 312.54494507 149.92687988 312.49447632 C150.25687988 311.50447632 150.58687988 310.51447632 150.92687988 309.49447632 C152.90687988 309.49447632 154.88687988 309.49447632 156.92687988 309.49447632 C156.92687988 308.83447632 156.92687988 308.17447632 156.92687988 307.49447632 C159.23687988 307.49447632 161.54687988 307.49447632 163.92687988 307.49447632 C164.25687988 306.83447632 164.58687988 306.17447632 164.92687988 305.49447632 C167.48937988 304.86947632 167.48937988 304.86947632 169.92687988 304.49447632 C169.92687988 303.50447632 169.92687988 302.51447632 169.92687988 301.49447632 C171.57687988 301.49447632 173.22687988 301.49447632 174.92687988 301.49447632 C174.92687988 300.83447632 174.92687988 300.17447632 174.92687988 299.49447632 C175.91687988 299.49447632 176.90687988 299.49447632 177.92687988 299.49447632 C177.92687988 298.50447632 177.92687988 297.51447632 177.92687988 296.49447632 C179.57687988 296.49447632 181.22687988 296.49447632 182.92687988 296.49447632 C182.92687988 295.50447632 182.92687988 294.51447632 182.92687988 293.49447632 C183.91687988 293.49447632 184.90687988 293.49447632 185.92687988 293.49447632 C185.92687988 292.83447632 185.92687988 292.17447632 185.92687988 291.49447632 C186.58687988 291.49447632 187.24687988 291.49447632 187.92687988 291.49447632 C189.28074924 289.84444804 190.61366131 288.17703762 191.92687988 286.49447632 C192.58687988 286.16447632 193.24687988 285.83447632 193.92687988 285.49447632 C193.92687988 284.83447632 193.92687988 284.17447632 193.92687988 283.49447632 C194.58687988 283.49447632 195.24687988 283.49447632 195.92687988 283.49447632 C197.61420033 282.22391107 197.61420033 282.22391107 198.92687988 280.49447632 C198.92687988 279.50447632 198.92687988 278.51447632 198.92687988 277.49447632 C199.91687988 277.49447632 200.90687988 277.49447632 201.92687988 277.49447632 C202.38062988 276.36010132 202.83437988 275.22572632 203.30187988 274.05697632 C204.92687988 270.49447632 204.92687988 270.49447632 206.92687988 269.49447632 C206.92687988 268.83447632 206.92687988 268.17447632 206.92687988 267.49447632 C207.91687988 267.49447632 208.90687988 267.49447632 209.92687988 267.49447632 C209.92687988 264.85447632 209.92687988 262.21447632 209.92687988 259.49447632 C210.58687988 259.49447632 211.24687988 259.49447632 211.92687988 259.49447632 C212.25687988 257.84447632 212.58687988 256.19447632 212.92687988 254.49447632 C213.58687988 254.49447632 214.24687988 254.49447632 214.92687988 254.49447632 C214.92687988 252.51447632 214.92687988 250.53447632 214.92687988 248.49447632 C215.91687988 248.16447632 216.90687988 247.83447632 217.92687988 247.49447632 C217.92687988 243.53447632 217.92687988 239.57447632 217.92687988 235.49447632 C218.58687988 235.49447632 219.24687988 235.49447632 219.92687988 235.49447632 C219.95574327 231.01532304 219.97363176 226.53619341 219.98937988 222.05697632 C219.99775879 220.77758179 220.0061377 219.49818726 220.01477051 218.18002319 C220.01799316 216.96508179 220.02121582 215.75014038 220.02453613 214.49838257 C220.02977295 213.37246704 220.03500977 212.24655151 220.04040527 211.08651733 C220.22233437 208.56476761 220.22233437 208.56476761 218.92687988 207.49447632 C218.69324107 205.64555685 218.51384354 203.789596 218.36437988 201.93197632 C218.28059082 200.92006226 218.19680176 199.90814819 218.11047363 198.86557007 C218.0498877 198.08310913 217.98930176 197.30064819 217.92687988 196.49447632 C216.93687988 196.16447632 215.94687988 195.83447632 214.92687988 195.49447632 C215.00937988 194.66947632 215.09187988 193.84447632 215.17687988 192.99447632 C214.89453419 189.04163657 213.74156652 186.81674394 211.88391113 183.39682007 C210.74836574 181.13963393 210.23953274 178.99569917 209.92687988 176.49447632 C208.93687988 176.49447632 207.94687988 176.49447632 206.92687988 176.49447632 C206.92687988 175.50447632 206.92687988 174.51447632 206.92687988 173.49447632 C206.26687988 173.49447632 205.60687988 173.49447632 204.92687988 173.49447632 C204.59687988 171.84447632 204.26687988 170.19447632 203.92687988 168.49447632 C203.26687988 168.49447632 202.60687988 168.49447632 201.92687988 168.49447632 C201.92687988 167.50447632 201.92687988 166.51447632 201.92687988 165.49447632 C200.93687988 165.49447632 199.94687988 165.49447632 198.92687988 165.49447632 C198.92687988 164.83447632 198.92687988 164.17447632 198.92687988 163.49447632 C198.26687988 163.49447632 197.60687988 163.49447632 196.92687988 163.49447632 C196.67937988 162.93760132 196.43187988 162.38072632 196.17687988 161.80697632 C194.6976317 159.07036718 192.99220549 156.81796762 190.92687988 154.49447632 C190.26687988 154.49447632 189.60687988 154.49447632 188.92687988 154.49447632 C188.92687988 153.83447632 188.92687988 153.17447632 188.92687988 152.49447632 C187.93687988 152.49447632 186.94687988 152.49447632 185.92687988 152.49447632 C185.92687988 151.50447632 185.92687988 150.51447632 185.92687988 149.49447632 C184.93687988 149.49447632 183.94687988 149.49447632 182.92687988 149.49447632 C182.92687988 148.83447632 182.92687988 148.17447632 182.92687988 147.49447632 C180.02139106 145.45278147 178.52545943 144.49447632 174.92687988 144.49447632 C174.92687988 143.50447632 174.92687988 142.51447632 174.92687988 141.49447632 C173.27687988 141.49447632 171.62687988 141.49447632 169.92687988 141.49447632 C169.92687988 140.83447632 169.92687988 140.17447632 169.92687988 139.49447632 C168.27687988 139.49447632 166.62687988 139.49447632 164.92687988 139.49447632 C164.59687988 138.50447632 164.26687988 137.51447632 163.92687988 136.49447632 C162.27687988 136.49447632 160.62687988 136.49447632 158.92687988 136.49447632 C158.92687988 135.50447632 158.92687988 134.51447632 158.92687988 133.49447632 C157.79250488 133.35010132 156.65812988 133.20572632 155.48937988 133.05697632 C151.92687988 132.49447632 151.92687988 132.49447632 150.92687988 131.49447632 C148.41198472 131.21053654 145.89698406 131.04636392 143.37219238 130.87338257 C140.92687988 130.49447632 140.92687988 130.49447632 137.92687988 128.49447632 C135.29833834 128.19782287 135.29833834 128.19782287 132.28913879 128.25396729 C131.11788861 128.25121229 129.94663843 128.2484573 128.73989582 128.24561882 C126.80278374 128.25641315 126.80278374 128.25641315 124.82653809 128.26742554 C123.43446203 128.26803814 122.04238534 128.26777133 120.65030956 128.26669502 C116.91899874 128.2662431 113.18781593 128.27784318 109.45653534 128.29191589 C105.95653373 128.30329731 102.45656342 128.30384167 98.95654297 128.30526733 C88.71747162 128.31576618 78.47842414 128.34368844 68.23937988 128.36947632 C33.92969238 128.43135132 33.92969238 128.43135132 -1.07312012 128.49447632 Z " fill="#21C25E" transform="translate(233.0731201171875,252.50552368164063)"/>
<path d="M0 0 C83.16 0 166.32 0 252 0 C252 83.16 252 166.32 252 252 C210.605625 252.020625 169.21125 252.04125 126.5625 252.0625 C113.46763916 252.071604 100.37277832 252.08070801 86.88110352 252.09008789 C70.95300293 252.09460449 70.95300293 252.09460449 63.50840759 252.09544373 C58.28261362 252.0963795 53.05682993 252.10006127 47.83103943 252.10557556 C41.179067 252.11258445 34.52710645 252.11449771 27.87512958 252.11307228 C25.42520658 252.11337064 22.9752831 252.1153742 20.52536309 252.11921513 C17.23328469 252.12413936 13.94126473 252.12300832 10.64918518 252.12025452 C9.6757463 252.12316718 8.70230742 252.12607985 7.69937038 252.12908077 C6.38447093 252.12609447 6.38447093 252.12609447 5.04300785 252.12304783 C4.28090915 252.12342755 3.51881045 252.12380727 2.73361784 252.1241985 C1 252 1 252 0 251 C-0.09634644 249.65515348 -0.12371962 248.30528528 -0.12304783 246.95699215 C-0.1250387 246.08039251 -0.12702957 245.20379288 -0.12908077 244.30062962 C-0.12616811 243.32719073 -0.12325544 242.35375185 -0.12025452 241.35081482 C-0.12111053 240.32747543 -0.12196655 239.30413605 -0.12284851 238.24978638 C-0.12451451 234.78165999 -0.11896263 231.31358102 -0.11352539 227.84545898 C-0.11321932 225.33224775 -0.1133521 222.81903643 -0.11389065 220.30582523 C-0.11409423 214.23624188 -0.10979398 208.16667714 -0.10338932 202.09709844 C-0.09620603 195.08039757 -0.09539549 188.0637019 -0.09460449 181.04699707 C-0.08934825 162.5104957 -0.07538722 143.97399763 -0.0625 125.4375 C-0.041875 84.043125 -0.02125 42.64875 0 0 Z M48 45 C48 97.47 48 149.94 48 204 C100.8 204 153.6 204 208 204 C208 151.53 208 99.06 208 45 C155.2 45 102.4 45 48 45 Z " fill="#21C25E" transform="translate(648,150)"/>
<path d="M0 0 C29.7 0 59.4 0 90 0 C90 30.03 90 60.06 90 91 C60.3 91 30.6 91 0 91 C0 60.97 0 30.94 0 0 Z " fill="#21C25E" transform="translate(731,229)"/>
</svg>
