<svg xmlns="http://www.w3.org/2000/svg" xml:space="preserve" id="Layer_1" x="0" y="0" version="1.1" viewBox="0 0 512 512"><style>.st0{fill:#202e55}.st1{fill:#6dc8c3}</style><path id="d" d="M130.69 165.13c0-5.91-3.72-10.04-9.03-10.04h-.11c-5.37.06-8.85 4.05-8.86 10.18-.01 8.61-.01 14.76-.01 23.37v12.45c-11.12-9.27-22.94-13.79-36.05-13.79-1.28 0-2.58.04-3.89.13-16.08 1.08-29.28 8.01-39.25 20.6-16.62 21-15.33 50.86 3.07 71 9.72 10.64 24.59 17 39.78 17 12.97 0 25.48-4.63 36.32-13.42 0 1.27 0 2.39.01 3.5.05 6.15 3.48 9.97 8.94 9.97h.08c5.45-.04 8.98-4 8.98-10.11.05-45.47.05-83.34.02-120.84m-18.01 76.57c.02 9.66-3.74 18.77-10.6 25.65-6.88 6.9-16.01 10.71-25.76 10.72-20.02 0-36.32-16.28-36.33-36.3-.01-20.06 16.25-36.39 36.25-36.4l.03-1.23v1.23c20.02.01 36.36 16.3 36.41 36.33" class="st0"/><g id="i_1_"><path d="M177.06 229.59c-.01-5.89-3.71-10.01-8.99-10.01h-.14c-5.32.07-8.9 4.15-8.92 10.15-.02 6.86-.02 11.87-.01 18.73v17.01c0 6.77-.01 13.53.01 20.3.01 6.27 3.54 10.32 9 10.32h.1c5.43-.05 8.95-4.01 8.96-10.1.04-21.05.04-38.25-.01-56.4" class="st0"/><path d="M168.38 187.25h-.29c-5.76 0-10.61 4.71-10.82 10.5-.1 2.89.97 5.67 3.03 7.81 2.04 2.12 4.86 3.35 7.74 3.37h.06c5.87 0 10.72-4.78 10.83-10.66.12-5.92-4.62-10.86-10.55-11.02" class="st1"/></g><path id="g" d="M303.14 276.07c-1.08-1.72-1.08-2.46.03-4.12 13.55-20.38 12.03-46.75-3.78-65.61-.25-.3-.49-.61-.76-.97h.2c.73.01 1.43.01 2.09.01 1 0 4.9-.01 5.65-.04 4.12-.14 7.01-2.25 8.36-6.1 1-2.85.67-5.68-.93-7.94-1.79-2.54-4.94-4-8.65-4.01l-4.38-.01c-7.08-.03-14.4-.06-21.6-.06-8.3 0-15.55.04-22.17.13-4.18.05-8.45.62-12.68 1.68-26.28 6.58-44.15 32.31-40.7 58.57 1.8 13.69 8.19 26.07 18 34.86 9.82 8.8 22.65 13.65 36.15 13.65 10.89 0 20.89-3.03 30.53-9.25 3.92 5.88 5.82 12.35 5.81 19.72-.03 17.41-13.2 32.74-30.64 35.65-1.9.32-3.84.48-5.77.48-15.27 0-28.98-9.72-34.1-24.17-.45-1.28-.76-2.6-1.09-4-.21-.88-.42-1.79-.67-2.68-1.17-4.15-4.78-7.05-8.79-7.05-.51 0-1.02.05-1.52.14-4.84.91-7.81 4.88-7.39 9.88.17 2.01.57 4.04 1.19 6.04 7 22.47 22.45 36.02 44.69 39.17 3.08.44 6.13.66 9.06.66 18.62 0 34.03-8.83 44.56-25.55 6.04-9.58 9-19.53 8.8-29.56-.17-9.8-3.37-19.73-9.5-29.52m-45.14 2h-.11c-20.01-.06-36.26-16.41-36.24-36.44.02-19.99 16.33-36.26 36.35-36.26v-1.23l.05 1.23c9.65.01 18.78 3.85 25.69 10.79 6.89 6.92 10.66 16.02 10.62 25.63-.08 20.01-16.39 36.28-36.36 36.28" class="st0"/><g id="i"><path d="M357.31 229.59c-.01-5.89-3.71-10.01-8.99-10.01h-.14c-5.32.07-8.9 4.15-8.92 10.15-.02 6.86-.02 11.87-.01 18.73v17.01c0 6.77-.01 13.53.01 20.3.01 6.27 3.54 10.32 9 10.32h.1c5.43-.05 8.95-4.01 8.96-10.1.03-21.05.03-38.25-.01-56.4" class="st0"/><path d="M348.63 187.25h-.29c-5.76 0-10.61 4.71-10.82 10.5-.1 2.89.97 5.67 3.03 7.81 2.04 2.12 4.86 3.35 7.74 3.37h.06c5.87 0 10.72-4.78 10.83-10.66.12-5.92-4.62-10.86-10.55-11.02" class="st1"/></g><path id="o" d="M477.67 203.12c-10.2-10.22-23.83-15.85-38.38-15.85-14.5 0-28.15 5.63-38.43 15.85s-16 23.84-16.09 38.36c-.1 14.48 5.51 28.17 15.8 38.54 10.26 10.34 23.85 16.06 38.27 16.09h.12c14.71 0 28.45-5.59 38.7-15.75 10.26-10.16 15.92-23.8 15.94-38.4 0-14.75-5.65-28.54-15.93-38.84m-38.5 74.95c-9.63 0-18.72-3.79-25.58-10.68-6.89-6.91-10.66-16.06-10.63-25.75.07-20 16.35-36.26 36.29-36.26h.08c9.67.02 18.77 3.83 25.63 10.72 6.86 6.9 10.62 16.02 10.58 25.7-.06 20-16.37 36.28-36.37 36.27" class="st0"/></svg>