<svg xmlns="http://www.w3.org/2000/svg" xml:space="preserve" viewBox="0 0 512 512"><circle cx="256.1" cy="256" r="166" fill="#03ff60" fill-rule="evenodd" clip-rule="evenodd"/><path fill-rule="evenodd" d="M381 204.3c-1.4-.7-2.8-1-4.4-1h-.2c-.2 0-.4.1-.6.1-.3 0-.7.1-1 .1-.4.1-.7.1-1 .2s-.7.2-1 .3c-.1.1-.4.1-.5.1l-76.4 35.8-76.7-62.8c-.4-.3-.7-.5-1.1-.8-.2-.1-.5-.4-.7-.5-.1 0-.1-.1-.1-.1-.1-.1-.2-.1-.3-.1-.4-.2-1-.4-1.5-.5-.1 0-.2-.1-.3-.1-.6-.1-1.1-.2-1.7-.3h-.1c-.2 0-.4-.1-.6-.1-.3 0-.6.1-.9.1-.2 0-.4 0-.7.1-.4.1-.8.1-1.3.3-.3.1-.5.1-.8.3-.3.1-.6.2-.9.4-.4.2-.8.4-1.2.7-.1.1-.2.1-.4.3-1.2.9-2.2 2.1-2.9 3.6l-66.9 136.1c-2.5 5.2-.4 11.4 4.6 13.8 1.4.7 3 1 4.6 1 .2 0 .4-.1.6-.1q1.05 0 2.1-.3c.6-.1 1.2-.4 1.8-.6l142.7-66.8 40.2 32.8c.6.5 1.2 1 1.9 1.3 0 0 .1 0 .1.1.1.1.3.1.4.1.5.2 1.1.4 1.6.6.2.1.4.1.6.1.5.1 1 .1 1.5.1h.3c.1 0 .2-.1.3-.1q1.05 0 2.1-.3c.1 0 .2-.1.4-.1.7-.2 1.3-.5 2-.9.4-.2.7-.4 1-.7.2-.1.4-.3.6-.5 1-.9 1.9-1.9 2.5-3.2l36.9-75c2.5-4.8.5-11-4.6-13.5m-213.7 95.8 48.8-99.2 59.4 48.6zm187.3-65.4-18.8 38.1-22.8-18.7z" clip-rule="evenodd"/></svg>