<svg xmlns="http://www.w3.org/2000/svg" viewBox="0 0 512 512"><path fill="#FEFEFE" d="M0 0h512v512H0z"/><path fill="#373740" d="M316.875 202.875c17.169 13.268 31.024 32.891 33.914 54.854 2.422 26.07-2.108 50.217-18.914 70.884A174 174 0 0 1 325 336l-2.012 2.086C312.844 347.863 299.401 354.106 286 358l-2.543.742C265.413 362.93 246.771 360.188 230 353v46h-51c-.068-17.586-.123-35.172-.155-52.759q-.022-12.25-.071-24.501-.046-10.688-.056-21.377-.004-5.65-.035-11.3c-.175-31.11 3.514-55.516 25.505-78.813 9.395-8.998 20.423-16.167 32.812-20.25l3.492-1.184c26.706-7.891 53.858-1.557 76.383 14.059"/><path fill="#FDFDFD" d="m264.688 237.438 2.383.005c8.687.265 15.145 3.43 21.804 8.932L291 249l1.516 1.809c7.4 9.214 8.541 17.389 7.484 29.191-1.846 9.647-7.467 16.723-15.152 22.664-8.813 5.785-18.563 6.71-28.848 5.336-9.1-2.766-16.647-8.435-21.562-16.594-4.79-9.25-6.153-19.065-3.754-29.332 4.161-11.103 11.138-17.459 21.558-22.707 4.326-1.574 7.882-1.944 12.446-1.93"/><path fill="#03B0FF" d="M179 115h51v52h-51z"/></svg>