<svg xmlns="http://www.w3.org/2000/svg" width="512" height="512" fill="none"><g clip-path="url(#a)"><path fill="#fff" d="M0 0h512v512H0z"/><path fill="#64C832" d="M181.597 212.935c-8.756.019-17.324.69-25.874 1.095-10.331.489-20.682 1.167-30.999 2.318-7.355.821-14.733 1.663-22.132 2.18-4.012.281-8.003.854-12.297 1.295-.295-1.789-.295-3.578-.295-5.665 1.194.194 1.143-.702 1.323-1.436 3.145-12.776 7.902-24.965 13.966-36.602 5.414-10.389 11.824-20.163 19.406-29.151 2.499-2.963 5.077-5.83 8.034-8.546 1.806 1.016 2.915 2.318 3.717 4.064 9.899 21.553 23.042 41.029 38.101 59.272 2.172 2.631 4.372 5.237 6.534 7.875.739.902 1.833 1.788.516 3.301M275.187 86c-.104 1.543 1.23 1.173 2.09 1.678.514 2.26-.367 4.01-1.319 5.722-10.042 18.062-16.146 37.535-20.635 57.585-.481 2.149-.969 4.293-1.688 6.376-.239.692-.765 1.043-1.761.995-4.385-4.81-8.525-9.551-12.641-14.313-3.843-4.447-7.551-9.015-11.509-13.356-10.229-11.218-21.117-21.799-31.833-32.545-.382-.384-.712-.82-1.199-1.386 3.348-2.14 7.087-2.97 10.659-3.998 8.829-2.543 17.777-4.64 26.963-5.51.357-.034.675-.47.898-.984C247.024 86 260.95 86 275.187 86m-16.462 268.07c3.139 9.09 5.912 18.138 9.011 27.074 4.423 12.756 9.375 25.318 14.529 37.797 1.741 4.215 1.443 4.377-3.119 5.035-2.824.407-5.845-.185-8.389 1.609-9.185.271-18.473.271-28.073.271.116-1.562-1.116-1.252-1.873-1.303-13.246-.894-26.092-3.817-38.947-7.803-1.057-2.724 1.049-3.759 2.429-4.931 5.551-4.713 10.811-9.721 15.996-14.832 12.759-12.576 23.757-26.631 34.666-40.772.876-1.137 1.476-2.913 3.77-2.145"/><path fill="#146E37" d="M91.577 299.391c3.418-4.696 8.229-7.814 12.755-11.149 15.14-11.155 31.121-20.99 48.122-29.09 18.208-8.675 37.12-15.3 57.059-18.591 4.276-.705 8.779-.592 13.161.215 9.75 1.796 9.665 9.403 4.918 15.186-5.988 7.295-12.733 13.964-18.895 21.124-6.792 7.893-13.299 16.032-19.915 24.076-1.042 1.268-2.004 2.6-3.182 4.037-4.106 2.606-8.634 2.18-12.877 2.284-21.391.527-42.759.09-63.955-3.312-4.462-.716-8.86-1.783-13.298-2.633-1.414-.271-2.58-1.045-3.893-2.147m90.153-86.252c-3.728-5.32-8.221-9.743-12.1-14.664-14.526-18.427-27.393-37.853-36.617-59.79 9.799 1.45 19.3 4.429 28.753 7.58 23.552 7.851 45.812 18.363 66.371 32.349 7.998 5.442 15.659 11.31 22.266 18.438 2.635 2.843 4.858 5.927 5.999 9.713 1.545 5.127-1.276 9.454-6.613 9.702-6.262.29-12.495-.129-18.704-1.12-3.022-.482-6.14-.568-9.177-.68-7.249-.268-14.473-1.102-21.754-.854-6.039.205-12.054-1.029-18.424-.674m77.215 140.762c-5.068 6.614-10.113 12.984-15.208 19.314-12.238 15.208-25.55 29.373-40.678 41.77-.422.346-.782.769-1.273 1.362-1.763-.394-1.135-1.849-1.108-2.914.15-5.795-.229-11.578-.153-17.381.279-21.099 3.655-41.664 9.525-61.875 3.313-11.41 7.538-22.471 13.19-32.925 2.601-4.81 5.476-9.537 10.293-12.618 5.726-3.663 10.952-1.989 12.761 4.615 1.498 5.467 2.376 11.122 3.252 16.736 2.217 14.197 5.595 28.131 9.191 42.021.137.527.142 1.089.208 1.895m-7.221-195.407c2.108-8.803 4.151-17.457 6.57-26.005 4.398-15.548 10.33-30.476 18.958-44.471 5.113 7.933 8.713 16.653 12.124 25.436 4.965 12.786 8.764 25.928 11.591 39.361 3.208 15.241 4.301 30.644 3.57 46.161-.173 3.666-1.096 7.349-3.099 10.641-2.565 4.217-7.299 5.037-10.895 1.708-2.342-2.168-4.388-4.56-6.131-7.284-9.573-14.964-20.064-29.273-31.1-43.188-.542-.684-.991-1.44-1.588-2.359"/><path fill="#64C832" d="M91.362 299.433c5.4.726 10.77 1.852 16.182 2.704 8.549 1.347 17.124 2.561 25.771 3.096 10.663.659 21.339.928 32.021.698 6.491-.139 12.978-.437 19.776-.631-4.945 7.577-10.098 15.194-15.478 22.647-6.6 9.143-12.396 18.797-18.334 28.36a733 733 0 0 0-12.171 20.326c-.979 1.698-1.567 1.712-2.866.452-10.783-10.456-19.781-22.285-27.315-35.256-6.993-12.04-12.592-24.674-16.37-38.094-.38-1.35-.818-2.684-1.216-4.302"/><path fill="#146E37" d="M345.247 399.007c-6.16-2.787-11.368-7.016-16.564-11.175-6.254-5.008-12.204-10.406-17.708-16.261-13.464-14.324-24.9-30.052-32.912-48.087-2.181-4.909-3.438-10.076-2.594-15.587.712-4.643 4.676-7.401 9.314-6.286 5.663 1.362 10.344 4.779 15.331 7.484 11.881 6.443 24.09 12.149 36.803 17.381 1.876 1.574 2.692 3.487 3.169 5.592 2.845 12.567 4.911 25.244 6.046 38.096.671 7.591.462 15.166.577 22.751.031 2.054-.181 4.044-1.462 6.092m48.614-237.751c-2.841 9.833-7.406 18.732-12.197 27.486-5.377 9.824-11.562 19.161-18.742 27.782-8.934 10.727-18.067 21.255-30.706 27.943-1.595.844-3.276 1.311-4.964 1.684-5.188 1.143-8.569-1.641-8.683-7.015-.129-6.069 2.448-11.542 3.918-17.25 3.525-13.689 6.908-27.406 9.406-41.614 1.651-2.076 3.594-3.386 5.811-4.334 15.86-6.78 31.915-12.945 49.067-15.673 2.381-.378 4.804-.985 7.09.991m25.515 127.237c-9.01 4.254-18.51 6.365-28.086 8.126a168 168 0 0 1-37.046 2.667c-9.758-.382-19.44-1.581-28.869-4.235-3.726-1.049-7.111-2.897-9.865-5.732-3.485-3.588-2.931-9.066 1.22-11.932 4.927-3.402 10.605-5.253 16.003-7.669 11.542-5.164 22.716-11.034 33.916-17.361 2.203-.165 4.047.264 5.878 1.165 15.922 7.834 30.403 17.781 43.661 29.546 1.599 1.419 2.767 3.082 3.188 5.425"/><path fill="#64C832" d="M394.018 161.254c-9.034.272-17.602 2.675-26.124 5.18-10.799 3.174-21.198 7.445-31.499 11.954-1.308.572-2.659 1.044-4.226 1.586.606-4.99 1.583-9.984 2.258-15.019 1.198-8.93 2.45-17.864 3.219-26.835.503-5.869.923-11.75 1.403-17.625.293-3.583-.277-7.233 1.125-10.996 4.701 2.085 8.858 5.352 13.132 8.347 9.34 6.544 17.713 14.267 25.311 22.725 5.702 6.347 11.451 12.755 15.401 20.683m-48.709 237.963c-.21-3.7-.214-7.446-.186-11.191.153-20.678-3.116-40.907-7.977-61.186 7.782 2.576 15.519 5.572 23.377 8.204 12.063 4.04 24.366 7.273 36.986 10.344-2.359 4.688-5.494 8.699-8.408 12.824-4.858 6.874-10.469 13.191-16.428 19.074-8.284 8.177-17.357 15.506-27.364 21.931m74.227-110.641c-11.97-11.99-25.726-21.439-40.386-29.658-3.935-2.207-7.962-4.248-12.123-6.515 15.901-10.163 31.675-20.615 46.743-32.111 4.443-3.39 4.429-3.303 5.552 2.127 3.296 15.938 2.725 32.088 2.479 48.191-.091 5.947-1.331 11.876-2.265 17.966"/></g><defs><clipPath id="a"><path fill="#fff" d="M0 0h512v512H0z"/></clipPath></defs></svg>