<svg xmlns="http://www.w3.org/2000/svg" xml:space="preserve" id="Layer_1" x="0" y="0" version="1.1" viewBox="0 0 512 512"><style>.st0{fill:#00a049}</style><path d="M256.9 238.3 82 137.6 257 36.4l174.9 101zm213.7-114.4L264.7 5.1c-4.8-2.8-10.7-2.8-15.5 0L43.3 124.2c-4.8 2.8-7.7 7.9-7.7 13.4s3 10.6 7.8 13.4l205.9 118.6c2.4 1.4 5.1 2.1 7.7 2.1 2.7 0 5.4-.7 7.7-2.1l205.9-118.9c4.8-2.8 7.7-7.9 7.7-13.4s-2.9-10.6-7.7-13.4" class="st0"/><path d="M462.8 193.6c-8.6 0-15.5 6.9-15.5 15.5v157.5l-190.4 110L66.5 366.9V209.5c0-8.5-6.9-15.5-15.5-15.5s-15.5 6.9-15.5 15.5v166.4c0 5.5 3 10.7 7.8 13.4l205.9 118.6c2.4 1.4 5.1 2.1 7.7 2.1 2.7 0 5.3-.7 7.7-2.1l206-118.9c4.8-2.8 7.7-7.9 7.7-13.4V209.1c0-8.5-6.9-15.5-15.5-15.5" class="st0"/></svg>