<svg xmlns="http://www.w3.org/2000/svg" xml:space="preserve" viewBox="0 0 512 512"><path fill="#af964f" d="m272.73 191.66-40.15.02a.75.75 0 0 1-.71-.76c0-.17.06-.35.19-.51l23.66-25.55c.18-.21.37-.36.59-.49.33-.25.71-.39 1.14-.39.81.11 1.31.41 1.61.88l14.51 25.28c.11.2.16.36.16.53a1 1 0 0 1-1 .99m-28.81 128.12c0-18.1 11.66-27.73 20.21-27.73l23.01.01 2.17-11.59h-22.74c-22.27 0-41.54 14.98-41.54 39.5 0 16.92 9.73 28.59 28.13 28.59h23.52l2.15-11.57H255.6c-7.43.02-11.68-8.47-11.68-17.21m114.04-39.32-12.76 68.11h40.86l2.13-11.57h-22.38l3.41-18.2h18.2l2.13-11.57h-18.19l2.84-15.18h18.77l2.14-11.59zm61.41 56.55h-4.86l8.36-44.95h5.06c7.39 0 11.67 8.46 11.67 17.22.01 18.08-11.66 27.73-20.23 27.73m-104.22-25.79h-5.55l3.71-19.17h4.76c3.9 0 7.2 3.99 7.2 8.08.01 6.3-5.14 11.09-10.12 11.09m14.01 7.1c6.34-3.11 14.41-8.66 14.41-20.51 0-7.23-4.78-17.34-19.17-17.34h-27.22l-12.75 68.11h18.38l4.86-25.78h5.28l6.91 25.79h20.18zm101.22-37.86h-23.74l-12.74 68.11h23.06c22.26 0 41.54-14.98 41.54-39.49-.01-16.93-9.73-28.62-28.12-28.62m-106.65-58.34-33.07-57.11-.28-.48c-.78-1.16-1.96-1.86-3.3-1.96l-.32-.01-41.76.01h-.32c-.16 0-.33.03-.47.06l-.49.1c-.96.3-1.85.92-2.8 1.9l-53 57.27s-.14.1-.32.31l-.22.3c-.19.32-.32.7-.32 1.09 0 1.1.89 2.02 2 2.1h25.29c.37 0 .67.28.67.68 0 .15-.08.32-.17.44l-25.46 27.23c-.4.48-.55.71-.63.92-.07.18-.13.38-.13.57 0 .55.28 1.05.68 1.38.31.15.69.28 1.13.35h17.45c1 0 2.08-.38 2.97-1.25l26.94-29.01c.17-.13.28-.33.28-.57 0-.4-.34-.76-.76-.76l-14.57.02a.8.8 0 0 1-.65-.79c0-.17.07-.36.17-.47l28.31-30.5c.1-.13.21-.21.32-.3.35-.39.84-.61 1.41-.61.69 0 1.28.34 1.62.89l16.05 27.69 1.64 2.86c.13.23.15.33.15.42 0 .41-.34.74-.74.78l-14.8.02c-.54 0-.97.47-.97 1 0 .26.07.38.22.63l16.01 27.72c.78 1.32 1.96 2.1 3.31 2.22h33.49c.4 0 .76-.08 1.07-.17.9-.37 1.52-1.22 1.52-2.21 0-.33-.08-.66-.18-.94l-.3-.52-15.56-26.75s-.07-.21-.07-.32c0-.4.3-.66.65-.66l26.41-.02c.41 0 .62-.04.82-.12l.28-.11.32-.19.33-.32.28-.39.24-.56c.08-.3.13-1-.37-1.86"/><path fill="#0f4b35" d="M96.97 317.82c-.31 15.21-3.28 24.06-14.6 24.06h-.28c-11.33 0-14.28-8.85-14.6-24.06v-37.29H53.51v41.59c0 14.75 5.43 23.57 17.96 26.51 0 0 3.54.8 9.82.8h1.89c6.28 0 9.21-.83 9.21-.83 13.15-2.63 18.55-11.74 18.55-26.49v-41.59H96.96zm37.12-37.27h-10.64v68.04h10.92v-49.75l40.29 49.75h11.09v-68.04h-11.49v49.92zm64.27 0h14.09v68.04h-14.1z"/><path fill="none" d="M0 0h512v512H0z"/></svg>