<svg xmlns="http://www.w3.org/2000/svg" width="512" height="512" fill="none"><path fill="#FCFC30" d="M0 0h512v512H0z"/><g clip-path="url(#a)"><mask id="b" width="332" height="332" x="90" y="90" maskUnits="userSpaceOnUse" style="mask-type:luminance"><path fill="#fff" d="M422 90H90v332h332z"/></mask><g mask="url(#b)"><path fill="#FDFB31" d="M422 90H90v332h332z"/></g><mask id="c" width="332" height="332" x="90" y="90" maskUnits="userSpaceOnUse" style="mask-type:luminance"><path fill="#fff" d="M422 90H90v332h332z"/></mask><g mask="url(#c)"><path fill="#FDFB31" d="M422 90H90v332h332z"/><path fill="url(#d)" d="m90 421.972 65.662-75.253 38.365 45.373 63.08-61.604 23.609 25.084L422 212.812l-.369 209.16z"/><path fill="#465EFD" d="m131.205 178.138 69.72-46.48 69.72 46.48-83 55.334-14.387-9.592 66.769-44.635-40.578-27.298-18.813 12.542 14.387 9.591-35.045 23.24zm139.44 46.48-69.72 46.48-69.72-46.48 83-55.333 14.387 9.591-66.769 44.636 40.577 27.297 18.814-12.542-14.387-9.591 35.045-23.24zm0-73.778-14.387 9.592-14.386-9.592 28.773-19.182zm-139.44 101.076 14.387-9.591 14.386 9.591-28.773 19.182zM90 413.486l66.4-74.884 39.84 46.48 62.711-65.294 21.027 26.191 86.689-83.368-21.027-6.272 53.858-20.657-16.231 53.12-8.116-18.076-95.911 92.96-21.027-25.084-62.342 64.924-39.84-46.111-56.44 64.556H90z"/></g></g><defs><linearGradient id="d" x1="353.408" x2="277.596" y1="415.066" y2="222.554" gradientUnits="userSpaceOnUse"><stop stop-color="#FEFA5F"/><stop offset="1" stop-color="#FADC4B"/></linearGradient><clipPath id="a"><path fill="#fff" d="M90 90h332v332H90z"/></clipPath></defs></svg>