<svg xmlns="http://www.w3.org/2000/svg" data-name="Camada 1" viewBox="0 0 512 512"><path fill="#0094ff" d="m351.39 180.85-38.46-66.96c-3.81-6.63-10.85-10.72-18.47-10.72h-76.92c-7.62 0-14.66 4.09-18.47 10.72l-38.46 66.96a21.54 21.54 0 0 0 0 21.44l38.46 66.96c3.81 6.63 10.85 10.72 18.47 10.72h27.9L256 261.59h-38.46c-1.09 0-2.1-.59-2.64-1.53l-38.46-66.96c-.54-.94-.54-2.12 0-3.06l38.46-66.96c.54-.94 1.55-1.53 2.64-1.53h76.92c1.09 0 2.1.59 2.64 1.53l38.46 66.96c.54.94.54 2.12 0 3.06l-22.36 38.94h21.11l17.09-29.75a21.54 21.54 0 0 0 0-21.44Z"/><path fill="#936ffa" d="m283.64 309.71-17.08-29.75h-21.11l22.36 38.93c.54.94.54 2.12 0 3.06l-38.46 66.96c-.54.94-1.55 1.53-2.64 1.53h-76.92c-1.09 0-2.1-.59-2.64-1.53l-38.46-66.96c-.54-.94-.54-2.12 0-3.06l38.46-66.96c.54-.94 1.55-1.53 2.64-1.53h38.46l-10.55-18.38h-27.91c-7.62 0-14.66 4.09-18.47 10.72L92.86 309.7a21.54 21.54 0 0 0 0 21.44l38.46 66.96c3.81 6.63 10.85 10.72 18.47 10.72h76.92c7.62 0 14.66-4.09 18.47-10.72l38.46-66.96a21.54 21.54 0 0 0 0-21.44Z"/><path fill="#1cd8ca" d="m419.14 309.71-38.46-66.96c-3.81-6.63-10.85-10.72-18.47-10.72h-76.92c-7.62 0-14.66 4.09-18.47 10.72l-21.37 37.21h21.11l16.09-28.02c.54-.94 1.55-1.53 2.64-1.53h76.92c1.09 0 2.1.59 2.64 1.53l38.46 66.96c.54.94.54 2.12 0 3.06l-38.46 66.96c-.54.94-1.55 1.53-2.64 1.53h-76.92c-1.09 0-2.1-.59-2.64-1.53l-16.15-27.94-10.55 18.37 10.87 18.76c3.81 6.63 10.85 10.72 18.47 10.72h76.92c7.62 0 14.66-4.09 18.47-10.72l38.46-66.96a21.54 21.54 0 0 0 0-21.44"/></svg>