<svg xmlns="http://www.w3.org/2000/svg" viewBox="0 0 500 500"><g data-name="Camada 2"><rect width="500" height="500" fill="none" rx="250"/><path d="M338.67 333.65a41.7 41.7 0 0 1-18.35-4.31v36.16h30.76a27.88 27.88 0 0 0 28.07-28.07v-27c-8.64 14.05-23.21 23.22-40.48 23.22m-50.19-18.89v-66.92c-9.18 12.41-21.59 29.15-24.83 33.46 3.24 4.32 15.11 20.51 24.83 33.46"/><path d="M351.08 134.5H150.85a27.88 27.88 0 0 0-28.06 28.07v174.86a27.88 27.88 0 0 0 28.06 28.07h137.63V332h-25.37s-12.41-16.7-17.81-24.79c-5.94 8.09-17.81 24.79-17.81 24.79h-37.78s32.38-43.68 37.29-50.7c-4.86-7-35.08-48-35.08-48h37.78s10.79 14.57 16.19 22.13c5.4-7.56 16.19-22.13 16.19-22.13h44.26s3.24 5.94 4.32 8.63a46.4 46.4 0 0 1 28.6-10.25c16.73 0 31.84 9.17 40.48 23.21v-92.32a28.69 28.69 0 0 0-28.66-28.07"/><path d="M354.32 282.92c0-11.33-7.55-20.51-16.73-20.51-9.71 0-17.27 9.18-17.27 20.51s7.56 20.51 17.27 20.51c9.18 0 16.73-9.17 16.73-20.51"/></g></svg>