<svg xmlns="http://www.w3.org/2000/svg" width="512" height="512" fill="none"><path fill="#195AB4" d="M0 0h512v512H0z"/><path fill="#fff" fill-rule="evenodd" d="M377.196 226.272c-28.286 0-41.27 12.012-41.27 39.464v4.213c0 26.048 11.283 38.684 37.869 38.684 8.502 0 17.003-1.56 23.032-6.396v3.12c0 14.662-6.338 19.498-21.177 19.498h-8.882c-5.082.09-7.388.998-10.452 6.062l-.015-.006c-25.487 40.702-69.735 65.571-117.955 65.571-76.938 0-139.53-63.166-139.53-140.808s62.592-140.807 139.53-140.807c54.043 0 103.205 31.584 126.209 80.733h6.41c-23.439-52.629-75.408-86.6-132.619-86.6C158.202 109 93 174.797 93 255.674s65.202 146.675 145.346 146.675c47.133 0 90.628-22.807 117.746-60.648h20.795c27.358 0 41.424-10.451 41.424-37.125v-40.243c0-26.518-13.446-38.061-41.115-38.061m19.787 46.329c0 14.662-5.101 19.186-19.785 19.186-16.54 0-19.785-5.772-19.785-22.775v-2.651c0-16.846 2.936-22.93 19.785-22.93 16.539 0 19.785 5.928 19.785 23.087zm-219.336.779v-76.588l21.64-3.432v39.464c6.183-4.835 15.302-6.552 23.649-6.552 26.276 0 38.333 13.103 38.333 39.932v7.331c0 28.546-12.983 40.089-42.352 40.089-28.286 0-41.27-11.855-41.27-40.244m62.136-6.395c0-17.626-5.256-23.554-20.095-23.554-15.456 0-20.712 5.304-20.712 21.059v8.891c0 17.313 5.256 23.241 20.404 23.241s20.403-5.928 20.403-23.086zm85.478-20.591 3.555-17.471h-30.604v-23.864l-21.486 3.275v71.285c0 24.646 9.583 31.976 35.706 31.976h11.438l3.555-17.313h-13.447c-11.903 0-15.766-2.965-15.766-16.067v-31.821z" clip-rule="evenodd"/></svg>