<svg xmlns="http://www.w3.org/2000/svg" xmlns:xlink="http://www.w3.org/1999/xlink" xml:space="preserve" viewBox="0 0 512 512"><defs><path id="a" d="M92.1 98.5h327.8v315H92.1z"/></defs><clipPath id="b"><use xlink:href="#a" overflow="visible"/></clipPath><g clip-path="url(#b)"><defs><path id="c" d="M90.6 94.5h330.8v322.9H90.6z"/></defs><clipPath id="d"><use xlink:href="#c" overflow="visible"/></clipPath><path fill="#031c2d" d="M304.5 209H203.3v4.8h101.2c27.4 0 44.9 12.9 52.5 29.7 2.9 6.5 4.2 12.9 4.2 20s-1.3 14.2-4.2 20.6c-7.8 16.5-25.5 29.7-53.2 29.7H154.2c-1.3 0-2.2.9-2.2 1.9l.4 36.2h4.2V318H304c29.7 0 48.6-14.2 57.1-32.3 3.2-6.8 4.9-14.5 4.9-22.2 0-7.4-1.7-14.9-4.9-21.9-8.6-18.2-27.3-32.6-56.6-32.6" clip-path="url(#d)"/><defs><path id="e" d="M90.6 94.5h330.8v322.9H90.6z"/></defs><clipPath id="f"><use xlink:href="#e" overflow="visible"/></clipPath><path fill="#031c2d" d="M207.7 266.7h101.5v-4.5H207.7c-26.8 0-43.8-12.6-51.6-29.4-2.6-6.5-4.2-13.5-4.2-20.6s1.3-13.9 4.2-20.3c7.4-16.7 24.5-29.7 51-29.7h154.4v-4.5H207.1c-28.4 0-46.7 14.2-54.8 32.3-3.2 7.1-4.8 14.8-4.8 22.3 0 7.8 1.6 15.5 4.8 22.3 8 18.3 26.8 32.1 55.4 32.1" clip-path="url(#f)"/><defs><path id="g" d="M90.6 94.5h330.8v322.9H90.6z"/></defs><clipPath id="h"><use xlink:href="#g" overflow="visible"/></clipPath><path fill="#031c2d" d="M325.4 98.5H186.6c-52.2 0-94.5 42.4-94.5 94.5v220.5h233.2c52.2 0 94.5-42.3 94.5-94.5V98.5zm-122.2 40.8h158.3c27.7 0 27.7 41.2-.3 41.2H203.5c-45.1 0-44.5 63.5-.3 63.5h105.4c27.4 0 27.7 40.6-.3 40.6H203.2c-101 .2-101-145.3 0-145.3M308.3 337H174.8v14.9c0 27.7-41 27.7-41 0v-55.8H308c44.5 0 44.5-63.5.4-63.5H202.9c-27.4 0-27.7-41 .4-41h105.2c100.7-.1 100.7 145.4-.2 145.4" clip-path="url(#h)"/></g></svg>