<svg xmlns="http://www.w3.org/2000/svg" width="512" height="512" fill="none"><path fill="#fff" d="M0 0h512v512H0z"/><g clip-path="url(#a)"><path fill="#BAA05C" d="M105.943 261.753q1.082 2.098 2.884 3.401c1.202.868 2.596 1.519 4.23 1.929 1.61.41 3.292.628 5.022.628q1.767 0 3.749-.29a12.8 12.8 0 0 0 3.749-1.134 8.1 8.1 0 0 0 2.932-2.315c.769-.989 1.177-2.219 1.177-3.739 0-1.616-.504-2.943-1.538-3.932-1.033-1.013-2.379-1.833-4.061-2.508s-3.557-1.254-5.671-1.761a150 150 0 0 1-6.441-1.688 59 59 0 0 1-6.512-2.051c-2.115-.82-4.013-1.857-5.672-3.135-1.682-1.279-3.028-2.895-4.06-4.824-1.034-1.93-1.539-4.27-1.539-6.995 0-3.064.649-5.741 1.97-8.008 1.274-2.292 2.98-4.173 5.095-5.693s4.518-2.629 7.186-3.353a30.7 30.7 0 0 1 8.026-1.085c3.124 0 6.104.362 8.988 1.037q4.29 1.05 7.642 3.401c2.235 1.568 3.989 3.57 5.311 6.006 1.297 2.436 1.97 5.379 1.97 8.852h-12.712c-.12-1.784-.481-3.28-1.13-4.438-.649-1.182-1.49-2.098-2.547-2.774-1.057-.675-2.259-1.157-3.629-1.423-1.37-.289-2.86-.41-4.47-.41-1.057-.024-2.114.097-3.172.314a8.5 8.5 0 0 0-2.884 1.182 7.1 7.1 0 0 0-2.138 2.098c-.553.844-.841 1.906-.841 3.184 0 1.182.216 2.123.672 2.846.457.724 1.322 1.399 2.644 2.002 1.298.627 3.124 1.23 5.431 1.858 2.307.627 5.335 1.399 9.06 2.339 1.105.217 2.667.627 4.638 1.206 1.97.579 3.941 1.52 5.888 2.798 1.946 1.279 3.628 3.015 5.046 5.162s2.139 4.897 2.139 8.274c0 2.749-.529 5.282-1.586 7.622s-2.644 4.365-4.71 6.078c-2.091 1.713-4.686 3.039-7.762 3.98-3.1.941-6.681 1.423-10.742 1.423-3.293 0-6.465-.41-9.565-1.206-3.1-.82-5.816-2.074-8.195-3.811s-4.253-3.932-5.647-6.633c-1.394-2.653-2.067-5.837-2.019-9.528h12.713c0 2.002.36 3.715 1.081 5.114m41.022-15.269c.168-2.798.865-5.113 2.091-6.97 1.225-1.834 2.787-3.329 4.686-4.439 1.898-1.109 4.013-1.905 6.392-2.388a35.7 35.7 0 0 1 7.137-.723c2.163 0 4.374.144 6.609.458s4.254.917 6.104 1.809a12.2 12.2 0 0 1 4.518 3.739c1.177 1.592 1.754 3.714 1.754 6.344v22.552c0 1.954.12 3.835.337 5.62.216 1.785.6 3.136 1.177 4.029h-12.04a20 20 0 0 1-.552-2.051 16 16 0 0 1-.289-2.146c-1.898 1.953-4.133 3.328-6.68 4.1-2.572.772-5.191 1.182-7.859 1.182-2.066 0-3.989-.241-5.767-.748-1.779-.506-3.341-1.278-4.686-2.339-1.346-1.062-2.379-2.413-3.124-4.029s-1.13-3.545-1.13-5.789q0-3.69 1.298-6.078c.865-1.592 1.97-2.87 3.34-3.811s2.932-1.664 4.686-2.147a51 51 0 0 1 5.311-1.133 83 83 0 0 1 5.263-.676c1.73-.169 3.268-.41 4.59-.748 1.346-.337 2.403-.82 3.172-1.471s1.13-1.568 1.082-2.798c0-1.278-.217-2.315-.625-3.063a4.56 4.56 0 0 0-1.682-1.761 6.9 6.9 0 0 0-2.428-.844 19 19 0 0 0-2.955-.217c-2.331 0-4.182.506-5.528 1.519s-2.114 2.678-2.331 5.041h-11.871zm27.42 8.804c-.505.459-1.13.796-1.875 1.038-.745.241-1.562.458-2.427.627s-1.778.313-2.716.41c-.937.12-1.898.241-2.835.41-.889.169-1.779.386-2.644.675s-1.61.651-2.259 1.134a5.3 5.3 0 0 0-1.538 1.809c-.384.724-.576 1.64-.576 2.774q0 1.592.576 2.677a4.36 4.36 0 0 0 1.586 1.713c.673.41 1.442.723 2.331.892.89.169 1.803.241 2.764.241 2.331 0 4.157-.386 5.431-1.182 1.274-.771 2.235-1.712 2.836-2.798.601-1.085.985-2.194 1.129-3.304q.217-1.665.217-2.677zm14.611-14.158v-7.96h7.113v-3.377q0-5.789 3.605-9.479c2.403-2.461 6.008-3.691 10.862-3.691 1.057 0 2.115.048 3.172.121q1.586.108 3.1.217v8.9a36 36 0 0 0-4.35-.241c-1.61 0-2.763.386-3.46 1.134s-1.033 2.026-1.033 3.811v2.605h8.194v7.96h-8.219v35.409h-11.871V241.13zm41.79-7.984v8.056h.168a14.3 14.3 0 0 1 2.259-3.739 15.2 15.2 0 0 1 3.269-2.942 15 15 0 0 1 3.917-1.882 13.8 13.8 0 0 1 4.35-.675c.769 0 1.634.144 2.595.41v11.071a17 17 0 0 0-1.995-.289 25 25 0 0 0-2.259-.121c-2.162 0-4.013.362-5.527 1.086-1.514.723-2.715 1.712-3.629 2.966-.913 1.255-1.586 2.726-1.97 4.414-.385 1.689-.577 3.498-.577 5.452v19.537h-11.871v-43.344zm19.297 13.338c.169-2.798.866-5.113 2.091-6.97 1.226-1.834 2.788-3.329 4.686-4.439s4.014-1.905 6.393-2.388a36 36 0 0 1 7.137-.723c2.163 0 4.374.144 6.609.458s4.253.917 6.104 1.809a12.2 12.2 0 0 1 4.518 3.739c1.177 1.592 1.754 3.714 1.754 6.344v22.552c0 1.954.12 3.835.336 5.62s.601 3.136 1.178 4.029h-12.04a20 20 0 0 1-.553-2.051 16 16 0 0 1-.288-2.146c-1.899 1.953-4.133 3.328-6.681 4.1-2.571.772-5.191 1.182-7.858 1.182-2.067 0-3.989-.241-5.768-.748-1.778-.506-3.34-1.278-4.686-2.339-1.345-1.062-2.379-2.413-3.124-4.029s-1.129-3.545-1.129-5.789q0-3.69 1.297-6.078c.866-1.592 1.971-2.87 3.341-3.811s2.932-1.664 4.686-2.147a51 51 0 0 1 5.311-1.133 82 82 0 0 1 5.263-.676c1.73-.169 3.268-.41 4.59-.748 1.321-.337 2.403-.82 3.172-1.471s1.129-1.568 1.081-2.798c0-1.278-.216-2.315-.625-3.063a4.55 4.55 0 0 0-1.682-1.761 6.9 6.9 0 0 0-2.427-.844 19 19 0 0 0-2.956-.217c-2.331 0-4.181.506-5.527 1.519s-2.115 2.678-2.331 5.041h-11.872zm27.42 8.804c-.504.459-1.129.796-1.874 1.038-.745.241-1.562.458-2.427.627s-1.779.313-2.716.41c-.937.12-1.898.241-2.836.41a20 20 0 0 0-2.643.675c-.865.29-1.61.651-2.259 1.134a5.3 5.3 0 0 0-1.538 1.809c-.384.724-.577 1.64-.577 2.774q0 1.592.577 2.677c.385.724.913 1.303 1.586 1.713s1.442.723 2.331.892 1.802.241 2.764.241c2.331 0 4.157-.386 5.431-1.182 1.273-.771 2.235-1.712 2.836-2.798.6-1.085.985-2.194 1.129-3.304q.216-1.665.216-2.677z"/><path fill="#00003C" d="M302.953 267.903h.168c1.298 2.388 3.364 4.39 6.2 6.031 2.812 1.64 6.104 2.46 9.853 2.46 2.908 0 5.647-.555 8.195-1.664 2.547-1.11 4.758-2.63 6.632-4.607 1.875-1.978 3.341-4.294 4.422-6.971 1.058-2.678 1.61-5.596 1.61-8.756s-.528-6.078-1.61-8.756c-1.081-2.677-2.547-5.017-4.446-6.971-1.898-1.978-4.205-3.497-6.897-4.607-2.715-1.109-5.695-1.664-8.963-1.664-3.028 0-5.816.627-8.339 1.881q-3.785 1.882-6.633 5.283h-.168v-6.079h-6.945v62.256h6.921zm1.009-19.634a14.2 14.2 0 0 1 2.98-4.92 13.9 13.9 0 0 1 4.686-3.305c1.802-.796 3.845-1.206 6.104-1.206s4.302.41 6.104 1.206a14.4 14.4 0 0 1 4.686 3.305 14.2 14.2 0 0 1 2.98 4.92c.673 1.882 1.033 3.932 1.033 6.127s-.336 4.245-1.033 6.127a14.2 14.2 0 0 1-2.98 4.92 13.9 13.9 0 0 1-4.686 3.305c-1.802.796-3.845 1.206-6.104 1.206s-4.302-.41-6.104-1.206a14.4 14.4 0 0 1-4.686-3.305 14.2 14.2 0 0 1-2.98-4.92c-.673-1.882-1.033-3.932-1.033-6.127.024-2.195.36-4.245 1.033-6.127m90.142 35.216c-.769 2.075-1.682 3.763-2.764 5.017-1.057 1.255-2.739 1.882-4.998 1.882q-1.515 0-2.668-.145a9 9 0 0 1-2.235-.579l-.889 6.079a8.9 8.9 0 0 0 3.076.892c1.106.121 2.163.169 3.172.169 2.067 0 3.845-.289 5.311-.844 1.466-.579 2.692-1.375 3.749-2.412q1.55-1.557 2.668-3.763a63 63 0 0 0 2.186-4.872l20.139-51.426h-7.57l-12.376 32.829h-.168l-12.929-32.829h-8.099l17.279 42.115z"/><path fill="#00003C" d="M338.351 237.222c.433.458.841.917 1.25 1.423h23.719c2.307.362 4.181 1.303 5.599 2.533 1.802 1.544 2.716 3.835 2.716 6.898v1.255h-2.668c-2.547 0-5.359.12-8.411.361-3.052.242-5.912.845-8.555 1.785-2.644.965-4.854 2.412-6.633 4.39s-2.667 4.68-2.667 8.153c0 2.026.408 3.811 1.249 5.355s1.947 2.846 3.341 3.883 3.028 1.833 4.902 2.364 3.869.796 6.008.796c3.22 0 5.96-.699 8.243-2.05 2.163-1.303 3.917-2.967 5.239-4.969.36 3.932 3.676 7.019 7.666 7.019h14.034l.264-.724-2.571-6.271h-11.727a.75.75 0 0 1-.745-.748v-16.498h-.024v-2.05q0-8.937-4.11-13.315c-2.739-2.919-7.185-4.39-13.361-4.39-.457 0-.889.024-1.346.048l-28.405-.048c2.691 1.182 5.046 2.798 6.993 4.8m33.308 20.671a16.1 16.1 0 0 1-.89 4.873c-.528 1.519-1.297 2.846-2.331 3.98-1.009 1.133-2.259 2.05-3.797 2.725-1.514.7-3.268 1.038-5.311 1.038-2.619 0-4.806-.555-6.536-1.641-1.754-1.109-2.62-2.967-2.62-5.596 0-2.87 1.298-4.92 3.918-6.175q3.929-1.881 10.597-1.881h6.946v2.677z"/></g><defs><clipPath id="a"><path fill="#fff" d="M92.15 215.2h328.7v81.6H92.15z"/></clipPath></defs></svg>