<svg xmlns="http://www.w3.org/2000/svg" xml:space="preserve" viewBox="0 0 512 512"><path fill="#255be3" d="M90.2 283.4c0-34.2 28-60.9 64.6-60.9 21.1 0 40.4 9.4 51.5 23.7L190.4 262c-8.5-10.9-21.5-17.3-35.4-17.5-21.8 0-39.3 16.3-39.3 38.8 0 22.7 17.5 39.1 39.3 39.1 14.3 0 27.9-6.7 36.5-18.2l15.6 15.4c-10.6 14.9-30.8 24.8-52.4 24.8-36.5.1-64.5-26.5-64.5-61m137.6-56.8h25v113.7h-25zm71.7 83.2v-62h-27.3v-21.1h28.5v-24.4l23.4-11.5v35.8h37.2v21.1h-37.2v57.9c0 11.5 6.4 16.5 18.6 16.5 6.3 0 12.6-1.3 18.4-3.9v21.6c-7.2 3.2-15.1 4.7-23 4.6-22.3.1-38.6-12.1-38.6-34.6m81.6-83.2h25v113.7h-25z"/><path fill="#ff3c28" d="M316.7 154.3c41.7-.1 80.9 20.1 105 54.2h-29.2c-37.7-41.9-102.2-45.3-144-7.6-2.7 2.4-5.2 4.9-7.6 7.6h-29.2c24.1-34.1 63.3-54.3 105-54.2"/></svg>