<svg xmlns="http://www.w3.org/2000/svg" width="512" height="512" fill="none"><path fill="#fff" d="M0 0h512v512H0z"/><path fill="#00586F" d="M202.777 208.588c.141-4.228-3.326-7.991-10.612-8.132-5.172-.07-8.977 1.705-9.343 5.947-.282 3.538.93 4.228 3.255 5.158 1.212 1.283 10.964 2.819 12.951 3.185 2.819.493 8.907 1.776 12.162 5.102 5.947 6.214 3.185 18.461-3.255 22.632-4.383 2.819-10.401 3.538-16.122 3.608-2.622.07-8.836-.846-12.684-3.608a17.93 17.93 0 0 1-7.173-13.303h10.33a7.65 7.65 0 0 0 2.199 5.299c2.339 2.41 6.158 3.199 9.681 3.044s6.863-1.128 8.216-2.396a6.14 6.14 0 0 0 .212-8.695c-3.397-3.551-13.586-3.551-20.237-5.806-5.637-1.917-10.175-5.947-9.33-14.29s6.793-14.29 19.378-14.29c2.818 0 12.373.211 17.404 6.581 2.692 3.467 3.396 8.273 2.973 9.964zm39.121 35.865a6.2 6.2 0 0 1-1.057-3.819c-3.467 3.256-6.511 5.454-12.317 5.454-7.779 0-11.598-4.383-11.274-11.81.211-5.383 2.339-10.611 11.105-12.105a39.7 39.7 0 0 0 9.977-1.762 4.09 4.09 0 0 0 2.48-4.312c0-2.41-1.987-3.481-6.51-3.481-5.637 0-6.37 3.481-6.511 6.229h-9.329c.141-12.232 10.625-13.36 15.854-13.36a26 26 0 0 1 9.047 1.41c3.819 1.564 6.863 4.664 6.863 10.752v20.942c.023.867.231 1.719.611 2.499.379.78.92 1.471 1.588 2.024v1.41zm-1.128-18.024c-2.818 1.691-6.651 1.55-9.202 2.043a4.99 4.99 0 0 0-4.313 6.229c.564 2.255 2.34 3.89 6.582 3.171 5.876-.916 6.933-5.017 6.933-9.259zm13.289-20.293h5.384v-3.693c0-5.735 2.818-9.554 9.329-9.554h6.158v7.356h-3.466c-1.41 0-2.114.845-2.114 2.621v3.27h5.862v6.581h-5.862v31.736h-9.865v-31.736h-5.383zm25.452-.015h9.864v7.427h.141c.634-2.269 1.128-3.607 4.594-6.017a9 9 0 0 1 7.047-2.044v10.105c-4.228-.494-10.612-1.057-11.81 7.286v21.575h-9.865zm48.098 38.332a6.2 6.2 0 0 1-1.057-3.762c-3.467 3.255-6.511 5.453-12.303 5.453-7.793 0-11.612-4.382-11.274-11.809.211-5.384 2.339-10.612 11.105-12.106 3.387-.158 6.74-.75 9.977-1.761a4.09 4.09 0 0 0 2.481-4.313c0-2.409-1.988-3.48-6.511-3.48-5.637 0-6.37 3.48-6.511 6.228h-9.329c.141-12.232 10.611-13.359 15.84-13.359 3.08-.068 6.147.409 9.061 1.409 3.819 1.564 6.849 4.665 6.849 10.753v20.885a6.1 6.1 0 0 0 2.199 4.523v1.41zm-1.128-18.024c-2.818 1.691-6.652 1.55-9.202 2.043a5 5 0 0 0-2.027.669 4.98 4.98 0 0 0-2.373 3.428 5 5 0 0 0 .087 2.132c.564 2.255 2.34 3.89 6.582 3.171 5.862-.916 6.933-5.017 6.933-9.259zM91.375 267.96h36.993v9.033H102.17v12.091h22.985v9.048H102.17v21.871H91.375zm51.1 8.948h-10.246v-9.315h10.246zm-10.246 4.524h10.246v38.571h-10.246zm48.408 2.297c2.523 2.086 3.777 5.525 3.777 10.358v25.916h-10.428V296.61a11 11 0 0 0-.79-4.651c-.972-1.973-2.818-2.959-5.566-2.959a6.88 6.88 0 0 0-6.948 4.34 15.4 15.4 0 0 0-.958 5.849v20.814h-10.006v-38.444h9.78v5.637a16.2 16.2 0 0 1 3.65-4.228 12.52 12.52 0 0 1 7.808-2.339c3.498-.151 6.933.96 9.681 3.128m25.804 12.811a15.5 15.5 0 0 0 4.016-.888 3.03 3.03 0 0 0 2.156-2.819 3.35 3.35 0 0 0-1.677-3.269 10.3 10.3 0 0 0-4.876-.987 6.46 6.46 0 0 0-5.115 1.762 7.05 7.05 0 0 0-1.41 3.509h-9.681a14.54 14.54 0 0 1 2.818-8.244q4.017-5.031 13.741-5.045c3.902-.07 7.765.785 11.274 2.494 3.283 1.649 4.918 4.806 4.918 9.442v22.111a5.26 5.26 0 0 0 .62 2.692c.376.537.9.953 1.508 1.198v1.409h-10.992a11.3 11.3 0 0 1-.635-2.142c-.126-.677-.211-1.409-.295-2.311a20 20 0 0 1-4.806 3.861 14.45 14.45 0 0 1-7.385 1.874 12.68 12.68 0 0 1-8.652-2.987 10.71 10.71 0 0 1-3.411-8.456q0-7.13 5.496-10.315a24.6 24.6 0 0 1 8.907-2.396zm6.13 4.721c-.609.4-1.262.731-1.945.986-.879.316-1.784.552-2.706.705l-2.283.422a14.5 14.5 0 0 0-4.608 1.41 4.64 4.64 0 0 0-1.792 1.82 4.64 4.64 0 0 0-.561 2.492 4.57 4.57 0 0 0 1.409 3.763 5.54 5.54 0 0 0 3.537 1.169c2.167 0 4.28-.675 6.046-1.93q2.818-1.917 2.818-7.047zm47.295-17.56c2.494 2.058 3.692 5.525 3.692 10.358v25.916h-10.414V296.61a10.8 10.8 0 0 0-.79-4.651 5.635 5.635 0 0 0-5.552-2.959 6.9 6.9 0 0 0-4.162 1.042 6.9 6.9 0 0 0-2.743 3.298 15.4 15.4 0 0 0-.959 5.849v20.814h-10.076v-38.444h9.865v5.637a16.7 16.7 0 0 1 3.692-4.228 12.6 12.6 0 0 1 7.821-2.339 14.7 14.7 0 0 1 9.696 3.128m33.47 11.613a9.4 9.4 0 0 0-1.409-3.932 6.1 6.1 0 0 0-5.299-2.354 7.05 7.05 0 0 0-7.046 5.102 20.7 20.7 0 0 0-1.001 7.046 18.9 18.9 0 0 0 1.001 6.779 6.68 6.68 0 0 0 6.764 4.833 5.99 5.99 0 0 0 5.017-1.916 9.64 9.64 0 0 0 1.719-4.947h10.26a17.1 17.1 0 0 1-3.214 8.695c-3.128 4.426-7.807 6.61-13.951 6.61s-10.696-1.818-13.614-5.496a22.3 22.3 0 0 1-4.368-14.276q0-9.864 4.848-15.389t13.402-5.524a20.18 20.18 0 0 1 11.894 3.255c3.072 2.17 4.918 6.004 5.468 11.514zm39.614-13.163c2.699 1.216 5 3.17 6.638 5.637a18.9 18.9 0 0 1 3.044 7.948c.313 2.534.426 5.088.338 7.639h-27.988q.253 5.862 4.045 8.216a10.1 10.1 0 0 0 5.552 1.409 8.54 8.54 0 0 0 5.637-1.762 8.9 8.9 0 0 0 2.072-2.663h10.118a12.42 12.42 0 0 1-3.706 6.947q-5.158 5.637-14.417 5.637a20.82 20.82 0 0 1-13.487-4.735q-5.834-4.735-5.848-15.501 0-9.992 5.285-15.333a18.32 18.32 0 0 1 13.726-5.355 22 22 0 0 1 9.005 1.789m-15.079 8.738a9.87 9.87 0 0 0-2.692 5.806h17.447a8.1 8.1 0 0 0-.729-3.24 8.1 8.1 0 0 0-1.963-2.679 9.17 9.17 0 0 0-6.003-2.015 8.3 8.3 0 0 0-6.06 2.128m38.064-13.91H345.76v-9.315h10.259zm-10.259 4.524h10.259v38.571H345.76zm38.783-.817q.43.032.859 0v10.245c-.62 0-1.184-.07-1.691-.07h-1.184q-6.06 0-8.131 3.945a15.15 15.15 0 0 0-1.17 6.835v18.321h-10.048v-38.459h9.499v6.793a21.2 21.2 0 0 1 4.058-5.257 11.02 11.02 0 0 1 7.342-2.367h.466m19.405 15.967a16 16 0 0 0 4.03-.888 3.03 3.03 0 0 0 2.143-2.847 3.37 3.37 0 0 0-1.663-3.269 10.4 10.4 0 0 0-4.89-.917 6.47 6.47 0 0 0-5.116 1.762 7.15 7.15 0 0 0-1.409 3.509h-9.682a14.44 14.44 0 0 1 2.819-8.244q4.016-5.031 13.754-5.045a24.7 24.7 0 0 1 11.274 2.494c3.283 1.649 4.918 4.806 4.918 9.442v17.658c0 1.226 0 2.706.085 4.453a5.4 5.4 0 0 0 .606 2.692c.385.534.912.949 1.522 1.198v1.409h-10.992a11.4 11.4 0 0 1-.649-2.142 23 23 0 0 1-.267-2.311 21 21 0 0 1-4.82 3.861 14.5 14.5 0 0 1-7.37 1.875 12.68 12.68 0 0 1-8.667-2.988 10.62 10.62 0 0 1-3.411-8.455q0-7.131 5.496-10.316a24.6 24.6 0 0 1 8.85-2.438zm6.173 4.721c-.615.4-1.272.731-1.959.986-.879.317-1.784.553-2.706.705l-2.283.422a14.5 14.5 0 0 0-4.594 1.41 4.65 4.65 0 0 0-2.354 4.312 4.58 4.58 0 0 0 1.41 3.763 5.5 5.5 0 0 0 3.509 1.169 10.4 10.4 0 0 0 6.059-1.93q2.819-1.917 2.819-7.047z"/></svg>