<svg xmlns="http://www.w3.org/2000/svg" width="512" height="512" fill="none"><mask id="a" width="332" height="332" x="90" y="90" maskUnits="userSpaceOnUse" style="mask-type:luminance"><path fill="#fff" d="M422 90H90v332h332z"/></mask><g mask="url(#a)"><path fill="#223324" d="M352.833 90H159.167C120.967 90 90 120.967 90 159.167v193.666c0 38.2 30.967 69.167 69.167 69.167h193.666c38.2 0 69.167-30.967 69.167-69.167V159.167C422 120.967 391.033 90 352.833 90"/><path fill="#11C76F" d="M344.073 194.766h-39.818v-40.2h39.818zm9.907-50.297h-59.633v60.204h59.633zm-131.84 30.102h-28.197v25.339h26.673c16.956 0 26.673 8.383 26.673 23.434 0 15.623-9.717 24.006-26.673 24.006h-26.673v-47.63h-29.911v111.073h29.911v-38.104h28.197c34.293 0 53.917-18.862 53.917-50.488 0-29.912-19.624-47.63-53.917-47.63m112.026-9.907h-19.814v20.004h19.814zM185.213 339.649v23.311h-4.405l-11.563-14.134v14.134h-5.323v-23.311h4.405l11.564 14.134v-14.134zm23.495 18.906v4.405h-17.987v-23.311h17.62v4.406h-12.297v5.139h10.829v4.222h-10.829v5.323h12.664zm20.007-7.71h4.956v9.361q-1.927 1.378-4.406 2.203c-1.651.551-3.304.734-4.955.734-2.387 0-4.589-.55-6.425-1.468-2.019-1.101-3.487-2.386-4.588-4.222-1.102-1.835-1.652-3.854-1.652-6.24s.55-4.406 1.652-6.241 2.569-3.304 4.588-4.222c2.019-1.101 4.222-1.468 6.608-1.468q3.03 0 5.507 1.101c1.652.734 3.12 1.652 4.221 2.937l-3.487 3.12c-1.652-1.835-3.671-2.569-6.057-2.569-1.468 0-2.754.367-4.038.917-1.102.551-2.02 1.469-2.754 2.57-.734 1.102-.917 2.386-.917 3.855s.367 2.753.917 3.854c.734 1.101 1.469 2.019 2.754 2.57a8.54 8.54 0 0 0 3.854.918c1.468 0 2.937-.368 4.222-.918zm14.502 11.015c-2.019-1.102-3.488-2.387-4.589-4.223s-1.652-3.855-1.652-6.241c0-2.202.55-4.405 1.652-6.24 1.101-1.836 2.57-3.304 4.589-4.222 2.019-1.101 4.038-1.652 6.607-1.652q3.58 0 6.608 1.652c2.019 1.101 3.488 2.386 4.589 4.222 1.101 1.835 1.652 3.854 1.652 6.24 0 2.203-.551 4.405-1.652 6.241s-2.57 3.305-4.589 4.223c-2.019 1.101-4.038 1.651-6.608 1.651q-3.579-.275-6.607-1.651m10.279-4.039a5.8 5.8 0 0 0 2.569-2.57 8.5 8.5 0 0 0 .918-3.855 8.5 8.5 0 0 0-.918-3.853 5.8 5.8 0 0 0-2.569-2.571c-1.102-.551-2.387-.917-3.672-.917s-2.569.366-3.67.917a5.8 5.8 0 0 0-2.571 2.571 8.55 8.55 0 0 0 0 7.708 5.8 5.8 0 0 0 2.571 2.57c1.101.551 2.385.917 3.67.917s2.57-.366 3.672-.917m-2.203-24.78h5.506l-6.057 4.773h-4.038zm20.006 28.817c-1.836-1.101-3.488-2.386-4.589-4.221-1.101-1.836-1.652-3.855-1.652-6.241s.551-4.405 1.652-6.241 2.57-3.303 4.589-4.221 4.038-1.468 6.424-1.468q3.029 0 5.506 1.101c1.653.734 2.937 1.651 4.039 3.12l-3.487 3.121c-1.653-1.836-3.489-2.754-5.874-2.754a8.5 8.5 0 0 0-3.855.918 5.8 5.8 0 0 0-2.57 2.57 8.5 8.5 0 0 0-.917 3.854c0 1.469.366 2.754.917 3.855a5.8 5.8 0 0 0 2.57 2.569 8.5 8.5 0 0 0 3.855.918c2.385 0 4.221-.918 5.874-2.753l3.487 3.121c-1.102 1.284-2.57 2.386-4.039 3.12q-2.477 1.101-5.506 1.101c-2.386 0-4.405-.551-6.424-1.469m19.641-22.209h5.322v23.311h-5.322zm15.601 22.21c-2.019-1.101-3.488-2.387-4.589-4.222s-1.652-3.855-1.652-6.241c0-2.202.551-4.405 1.652-6.24 1.101-1.836 2.57-3.304 4.589-4.222 2.019-1.101 4.038-1.652 6.608-1.652s4.588.551 6.607 1.652 3.488 2.386 4.59 4.222c1.101 1.835 1.651 3.854 1.651 6.24 0 2.203-.55 4.405-1.651 6.241-1.102 1.835-2.571 3.304-4.59 4.222-2.019 1.101-4.038 1.651-6.607 1.651s-4.589-.733-6.608-1.651m10.279-4.039a5.8 5.8 0 0 0 2.569-2.569 8.5 8.5 0 0 0 .918-3.855 8.5 8.5 0 0 0-.918-3.854 5.8 5.8 0 0 0-2.569-2.57c-1.102-.551-2.387-.918-3.671-.918-1.285 0-2.57.367-3.671.918a5.8 5.8 0 0 0-2.57 2.57 8.5 8.5 0 0 0-.918 3.854c0 1.468.367 2.753.918 3.855a5.8 5.8 0 0 0 2.57 2.569c1.101.551 2.386.918 3.671.918 1.468 0 2.569-.367 3.671-.918m15.418 4.773c-1.651-.551-3.12-1.102-4.221-2.019l1.836-4.038c.917.734 2.202 1.285 3.487 1.835 1.285.367 2.753.734 4.038.734 1.468 0 2.57-.183 3.304-.734.734-.367 1.101-1.101 1.101-1.835 0-.551-.183-1.101-.734-1.469a3.56 3.56 0 0 0-1.652-.918c-.734-.183-1.652-.55-2.753-.733-1.835-.368-3.304-.918-4.406-1.286-1.101-.367-2.019-1.101-2.936-2.019a5.9 5.9 0 0 1-1.285-3.671c0-1.284.367-2.569 1.101-3.671.735-1.101 1.836-2.019 3.304-2.569 1.469-.735 3.304-.918 5.323-.918q2.203 0 4.406.551c1.468.367 2.569.917 3.67 1.468l-1.651 4.038c-2.203-1.285-4.222-1.836-6.425-1.836-1.468 0-2.57.184-3.304.735s-1.101 1.101-1.101 2.019.367 1.468 1.285 1.835 2.019.734 3.854 1.102c1.836.367 3.304.917 4.405 1.284s2.019 1.102 2.937 2.02a5.9 5.9 0 0 1 1.285 3.67c0 1.285-.367 2.57-1.101 3.672-.734 1.101-1.835 2.019-3.304 2.569-1.468.734-3.304.918-5.506.918-1.469 0-3.304-.184-4.957-.734"/></g></svg>