<svg xmlns="http://www.w3.org/2000/svg" width="512" height="512" fill="none"><path fill="#fff" fill-opacity=".58" d="M0 0h512v512H0z"/><g clip-path="url(#a)"><mask id="b" width="332" height="120" x="90" y="196" maskUnits="userSpaceOnUse" style="mask-type:luminance"><path fill="#fff" d="M422 196H90v120h332z"/></mask><g fill-rule="evenodd" clip-rule="evenodd" mask="url(#b)"><path fill="#FAAE29" d="M196.953 216.016h-2.333l.049 11.976h2.914c3.02 0 5.622-2.149 5.622-5.922 0-4.028-2.209-6.054-6.252-6.054m-9.617-14.649h12.661c5.885 0 9.715 1.92 9.715 6.308s-4.788 6.316-7.841 6.824v.41c2.988.123 8.635 1.96 8.635 6.857 0 5.832-5.418 8.203-11.237 8.203h-11.941zm10.059 1.985h-2.619l-.156 10.663h2.455c2.889 0 5.819-1.837 5.819-5.545-.024-2.772-1.473-5.118-5.499-5.118m29.978 15.585-.311.147a17 17 0 0 1-2.169.82q-1.099.33-2.136.821a3.98 3.98 0 0 0-2.308 3.961c0 2.149 1.154 3.404 3.02 3.412 2.3 0 3.896-1.55 3.896-4.371zm-12.333-7.194c2.774-1.64 6.596-2.239 9.616-2.239 5.156 0 8.773 1.862 8.773 6.652v13.829h-5.991q.06-1.165 0-2.329v-.517l-.343.402a7.69 7.69 0 0 1-6.228 2.993c-4.854 0-6.81-2.739-6.81-5.306 0-3.495 2.693-5.012 7.112-5.939 5.427-1.115 6.163-1.468 6.163-3.182 0-2.166-1.899-3.872-4.91-3.872a13.1 13.1 0 0 0-6.507 1.591zm85.466-.738c-3.224 0-5.082 3.281-5.082 9.588 0 4.676 1.162 8.49 5.025 8.498 3.274 0 4.91-3.617 4.91-10.089.032-4.839-1.391-7.997-4.853-8.005zm-.098-1.477c7.472 0 11.827 3.929 11.827 10.106 0 6.726-4.863 10.933-11.835 10.933-5.795 0-11.826-2.739-11.826-10.015 0-7.275 5.729-11.032 11.834-11.032zm-14.65 4.266a8.3 8.3 0 0 0-6.424-2.535c-4.019 0-6.105 3.412-6.114 8.867 0 5.175 2.627 8.112 7.538 8.112a7.92 7.92 0 0 0 5.041-1.854l.917 1.231a13.62 13.62 0 0 1-8.02 2.928c-9.453 0-12.563-5.455-12.563-10.483 0-6.045 4.992-10.556 12.767-10.556 2.839-.06 5.65.579 8.184 1.862zm-39.472-.583h.426a9.19 9.19 0 0 1 7.317-3.699c4.795 0 7.505 2.264 7.505 7.538 0 2.772-.099 10.532 0 12.96h-6.932v-11.877c0-3.511-.95-5.34-3.708-5.34-3.167 0-4.092 2.534-4.092 6.39v10.81h-6.94v-19.948h6.637z"/><path fill="#00A88F" d="M95.355 300.361h83.666v1.689l-83.666-.008zm0 5.421h83.666v5.143H95.355zm0-95.565h83.666v1.69H95.355zm0-8.85h83.699v5.176l-83.699-.033zm220.782 89.684v-1.641c-5.278 0-7.366-1.246-7.366-6.873v-35.073c0-5.635 2.103-6.874 7.366-6.874v-1.64h-31.59v1.64c5.361 0 7.456 1.247 7.456 6.874v35.106c0 5.627-2.104 6.873-7.464 6.873v1.641zm-125.306-26.075c0-17.11 5.287-23.696 12.898-23.688s12.89 6.561 12.882 23.696-5.287 23.696-12.898 23.688c-7.612-.008-12.89-6.586-12.882-23.696m-17.244 0c0 17.774 12.89 26.92 30.126 26.928 17.235.008 30.134-9.137 30.142-26.904.008-17.766-12.882-26.919-30.126-26.928-17.244-.008-30.134 9.13-30.142 26.896zm146.832 26.37h1.701a3.965 3.965 0 0 1 3.652-2.46c1.636 0 10.172 3.075 17.184 3.075 12.278 0 21.443-4.921 21.443-17.175 0-19.965-30.904-16.175-30.895-26.855 0-4.461 3.879-6.561 8.855-6.561 9.002 0 15.991 4.921 18.005 13.173h1.703v-15.544h-1.71c-.156 2.338-.933 3.068-2.561 3.068-2.956 0-6.835-3.954-16.311-3.954-10.247 0-20.895 5.037-20.895 15.864 0 19.16 31.525 15.805 31.525 28.019 0 4.536-4.911 6.725-10.72 6.725-9.322 0-17.474-5.634-19.258-15.223h-1.718zm69.441-19.685h-12.365l6.218-15.355zm-11.187 19.455v-1.64c-4.74 0-6.057-1.386-6.057-3.281.064-1.42.405-2.814 1.006-4.101l2.8-7.53h14.683l3.641 8.703c.486 1.112.778 2.3.859 3.511 0 1.755-1.399 2.706-3.191 2.706h-3.494v1.641h27.965v-1.641c-2.562-.221-3.185-.582-4.584-3.806l-19.641-46.662h-5.434l-17.802 43.472c-2.257 5.487-3.577 6.652-6.76 6.947v1.64zm-112.426-.041v-1.64c-5.36 0-7.455-1.247-7.455-6.874v-16.396c8.388 0 11.801 1.247 12.276 9.958h1.71v-23.082h-1.702c-.475 8.703-3.887 9.942-12.276 9.942v-20.801h9.002c8.07 0 12.277 3.371 13.038 11.122h1.71v-14.338h-47.991v1.641c5.36 0 7.455 1.247 7.455 6.873v35.09c0 5.627-2.103 6.873-7.464 6.873v1.641zM109.865 267.65c2.562 12.992 13.701 20.604 26.411 20.604 7.881 0 14.886-2.969 14.886-9.474 0-4.33-2.815-7.251-6.85-9.58a55 55 0 0 0-6.891-3.191c-2.496-1-5.164-1.968-7.832-3.018-10.737-4.208-21.139-9.449-21.139-22.146 0-14.33 14.093-21.113 27.924-21.113a37.4 37.4 0 0 1 14.216 2.658c1.71.664 3.142 1.337 4.394 1.837 1.094.5 2.271.792 3.47.861 2.374 0 3.536-1.123 3.814-4.158h1.637v20.251h-1.637c-2.864-11.204-12.44-17.824-24.675-17.832-6.793 0-12.358 2.92-12.358 9.285 0 3.831 2.791 6.316 6.736 8.301s9.109 3.543 14.346 5.545c10.468 3.904 20.69 9.293 20.682 22.54 0 16.232-12.129 22.9-28.645 22.892a64 64 0 0 1-14.248-2.075c-2.177-.517-4.092-1.042-5.664-1.427a18.3 18.3 0 0 0-3.322-.664 5.77 5.77 0 0 0-5.197 3.362h-1.711V267.65z"/></g></g><defs><clipPath id="a"><path fill="#fff" d="M90 196h332v120H90z"/></clipPath></defs></svg>