<svg xmlns="http://www.w3.org/2000/svg" width="512" height="512" fill="none"><path fill="#fff" d="M0 0h512v512H0z"/><path fill="#31C7ED" fill-rule="evenodd" d="M422 193.117s-17.308-.061-35.6 0c-18.292.06-22.924 14.057-22.924 14.057l-45.744 118.265 17.808 46.02c18.272-.072 22.904-14.057 22.904-14.057z" clip-rule="evenodd"/><path fill="#223AD2" fill-rule="evenodd" d="m287.136 246.354-.044-.112a.1.1 0 0 1 0-.04l-.032-.076c-4-10.061-12.308-18.355-21.88-24.787 9.6-8.41 15.568-20.945 15.568-34.939 0-20.192-17.356-45.9-67.2-45.9H126.1v67.435H90v38.779h36.092V316.4H218a98.6 98.6 0 0 0 23.524-2.687l.1-.024a70.6 70.6 0 0 0 16.128-6.056l19.26 49.781s4.636 13.993 22.92 14.058 35.6 0 35.6 0zm-109.16-67.07h32.312c14.232 0 18.68 7.413 18.68 14.329s-4.428 14.282-18.568 14.322h-32.424zm0 67.426h34.26c15.084 0 19.8 7.858 19.8 15.191s-4.692 15.143-19.68 15.187h-34.38z" clip-rule="evenodd"/><path fill="url(#a)" d="M239.084 259.346s-3.856-12.692-24.8-12.692H212.8v.06c14.636.197 19.232 7.95 19.232 15.187 0 7.317-4.692 15.143-19.68 15.187h-34.376v-30.414l-51.876.04V316.4H218a98.6 98.6 0 0 0 23.524-2.687l.1-.024a70.6 70.6 0 0 0 16.128-6.056z" opacity=".8"/><path fill="#31C7ED" d="M126.092 246.715H90l36.092 16.636z"/><defs><linearGradient id="a" x1="166.848" x2="189.407" y1="292.485" y2="253.459" gradientUnits="userSpaceOnUse"><stop stop-color="#223AD2"/><stop offset="1" stop-color="#17278C"/></linearGradient></defs></svg>