<svg xmlns="http://www.w3.org/2000/svg" width="512" height="512" fill="none"><path fill="#FD9CBF" d="M90 331.113c0 8.655 11.505 13.807 29.584 13.807s31.022-5.152 31.022-13.807v-85.108c0-32.559 14.382-46.984 30.201-46.984 12.327 0 24.448 9.479 24.448 32.559v99.533c0 8.655 11.505 13.807 29.584 13.807s31.022-5.152 31.022-13.807v-85.108c0-34.001 15.203-46.984 30.201-46.984 12.327 0 24.448 9.479 24.448 32.559v61.41c0 46.984 24.448 75.01 65.537 75.01 21.572 0 35.953-7.213 35.953-17.31 0-1.443 0-3.709-2.26-5.152-23.832-11.54-38.829-24.522-38.829-62.852V208.5c0-49.869-26.708-64.294-53.211-64.294-31.022 0-47.457 19.577-56.086 33.178-2.876 5.151-10.889 5.151-12.327 0-8.629-25.347-28.762-33.178-48.896-33.178-31.022 0-45.403 19.577-54.032 33.178-2.876 5.151-8.012 2.885-8.012-1.443v-19.577c0-8.036-3.698-12.364-10.067-12.364-2.26 0-4.315.824-6.575 1.443l-30.816 11.127C94.314 158.631 90 165.225 90 175.941z"/></svg>