<svg xmlns="http://www.w3.org/2000/svg" xml:space="preserve" width="512" height="512"><g transform="translate(-1214.072 -1126.987)scale(2.56133)"><path fill="#171527" d="M574 640c55.2 0 100-44.8 100-100s-44.8-100-100-100-100 44.8-100 100 44.8 100 100 100"/><linearGradient id="a" x1="331.503" x2="331.503" y1="728.293" y2="593.707" gradientTransform="matrix(1 0 0 -1 242.5 1201)" gradientUnits="userSpaceOnUse"><stop offset="0" stop-color="#00ee26"/><stop offset="1" stop-color="#ffc600"/></linearGradient><path fill="url(#a)" fill-rule="evenodd" d="M574 591.6c28.5 0 51.6-23.1 51.6-51.6s-23.1-51.6-51.6-51.6-51.6 23.1-51.6 51.6 23.1 51.6 51.6 51.6m67.3-51.6c0 37.2-30.1 67.3-67.3 67.3s-67.3-30.1-67.3-67.3 30.1-67.3 67.3-67.3 67.3 30.1 67.3 67.3" clip-rule="evenodd"/></g></svg>