<svg xmlns="http://www.w3.org/2000/svg" xmlns:xlink="http://www.w3.org/1999/xlink" data-name="Camada 1" viewBox="0 0 512 512"><defs><linearGradient id="d" x1="430.9" x2="81.1" y1="-46.9" y2="558.9" data-name="Gradiente sem nome 14" gradientUnits="userSpaceOnUse"><stop offset="0" stop-color="#00b4e4"/><stop offset="1" stop-color="#065da8"/></linearGradient><linearGradient id="a" x1="229.9" x2="229.9" y1="247.1" y2="312.9" data-name="Gradiente sem nome 48" gradientUnits="userSpaceOnUse"><stop offset="0" stop-color="#aec90b"/><stop offset=".4" stop-color="#aac40b"/><stop offset=".9" stop-color="#9fb80c"/><stop offset="1" stop-color="#9bb30d"/></linearGradient><linearGradient xlink:href="#a" id="e" x1="167.3" x2="167.3" y1="233" y2="313.3" data-name="Gradiente sem nome 48"/><linearGradient xlink:href="#a" id="f" x1="317.3" x2="317.3" y1="247.9" y2="311.9" data-name="Gradiente sem nome 48"/><linearGradient xlink:href="#a" id="g" x1="398.5" x2="398.5" y1="291.4" y2="315.2" data-name="Gradiente sem nome 48"/><linearGradient xlink:href="#a" id="h" x1="398.2" x2="398.2" y1="233" y2="285.4" data-name="Gradiente sem nome 48"/><linearGradient id="b" x1="394.5" x2="394.5" y1="347.7" y2="207.5" data-name="Gradiente sem nome 4" gradientUnits="userSpaceOnUse"><stop offset="0" stop-color="#e3e3e3"/><stop offset=".2" stop-color="#ebebeb"/><stop offset=".5" stop-color="#f3f3f3"/><stop offset="1" stop-color="#f6f6f6"/></linearGradient><linearGradient id="c" x1="255.1" x2="255.1" y1="227.5" y2="160.4" gradientUnits="userSpaceOnUse"><stop offset="0" stop-color="#e3e3e3"/><stop offset=".2" stop-color="#ebebeb"/><stop offset=".5" stop-color="#f3f3f3"/><stop offset="1" stop-color="#f6f6f6"/></linearGradient><linearGradient xlink:href="#b" id="k" x1="195.2" x2="195.2" y1="227.6" y2="160.1" data-name="Gradiente sem nome 4"/><linearGradient xlink:href="#c" id="l" x1="142.7" x2="142.7" y1="227.6" y2="160.1"/><linearGradient xlink:href="#c" id="m" x1="239.1" x2="239.1" y1="229.1" y2="170.3"/><linearGradient xlink:href="#c" id="n" x1="304.7" x2="304.7" y1="227.6" y2="160.1"/><linearGradient xlink:href="#c" id="o" x1="90.6" x2="90.6" y1="227.6" y2="160.1"/><linearGradient id="p" x1="229.2" x2="229.2" y1="175.1" y2="217.5" gradientUnits="userSpaceOnUse"><stop offset="0" stop-color="#f7a600"/><stop offset="1" stop-color="#ef7d00"/></linearGradient><linearGradient id="q" x1="269.1" x2="269.1" y1="174.9" y2="217.8" gradientUnits="userSpaceOnUse"><stop offset="0" stop-color="#f7a600"/><stop offset="1" stop-color="#ef7d00"/></linearGradient><linearGradient id="r" x1="239.2" x2="256.4" y1="205.9" y2="205.9" gradientUnits="userSpaceOnUse"><stop offset="0" stop-color="#d6d6d6"/><stop offset=".6" stop-color="#dbdbdb"/><stop offset="1" stop-color="#e3e3e3"/></linearGradient><clipPath id="i"><path fill="none" stroke-width="0" d="M320.4 348.3h144.8l.6-140.8H321V238l64 .2.2 86.9-64.2.7z"/></clipPath><clipPath id="j"><path fill="none" stroke-width="0" d="m210.7 164.1-9.5 59.7h-21.7l9.5-59.7zm-46.9 0 11.9 59.7h-23l-.8-7.4h-16.4l-2.9 7.4h-22.9l30.2-59.7h24Zm-13.3 38.1-1.1-10.9c-.3-2.6-.1-6.5 0-9.2h-.9l-7.4 20.2h9.5Zm108.8-9.7 28.4-28.4h-25.9l-11.2 11.2-5.7-11.2H219l14.5 28.4h25.9Zm78.4 31.3h-23l-.8-7.4h-16.4l-2.9 7.4h-22.9l30.2-59.7h24l11.9 59.7Zm-25.2-21.6-1.1-10.9c-.3-2.6-.1-6.5 0-9.2h-.9l-7.4 20.2h9.5Zm-214.6 3.4c-6.5 0-11.3-5-10.3-11.6 1.1-6.5 7.2-11.6 13.7-11.6s8.8 2.8 11.8 6l3-22.7c-4.3-1.5-9.3-2.4-14.2-2.4-17.5 0-33.4 13.9-36.1 31.4-2.7 17 8.5 30.2 25.5 30.2s12.1-.7 15.8-2.4l4.2-22.3c-4 3.4-8.3 5.5-13.3 5.5Zm132.6-10.2-28.4 28.4H228l11.2-11.2 5.7 11.2h25.9l-14.5-28.4h-25.9Z" clip-rule="evenodd"/></clipPath></defs><path fill="url(#d)" d="M0 0h512v512H0z"/><path fill="url(#a)" d="M214.1 308.7c-5.1-2.8-9.1-6.7-11.9-11.7s-4.3-10.6-4.3-17 1.3-11.2 3.9-16.2 6.4-9.1 11.3-12.2 10.7-4.6 17.2-4.6q15.9 0 23.7 9.6c5.1 6.4 7.7 14.9 7.7 25.3v2.6h-42.4c.9 3.5 2.8 6.2 5.8 8.2s6.8 2.9 11.3 2.9 6.5-.5 9.2-1.5q3.9-1.5 8.1-4.8l1.6 2.1q3.3 4.5 3.3 7.5c0 3-.8 4.1-2.3 5.9s-3.7 3.4-6.5 4.6c-5 2.3-11.1 3.4-18.3 3.4s-12.4-1.4-17.5-4.2Zm26.5-36.1c-.3-3.2-1.2-5.6-2.9-7.1s-3.9-2.3-6.6-2.3-5.7.8-7.6 2.3-3.2 3.9-3.9 7.1h21.1Z"/><path fill="url(#e)" d="M156.3 306.1c-4.6-4.9-7-12.4-7-22.5v-15.5l-12-2.6v-16.1h12l2.7-16.3h20.2v16.3h23.4v18.7h-23.4V284c0 3.6 1 6.1 2.9 7.7s4.9 2.3 9 2.3 7.2-.7 10.7-2.2l1 2.6c.9 2.1 1.3 4.2 1.3 6.4q0 6.3-6 9.6c-3.5 2-8.6 3-15.5 3s-14.7-2.4-19.3-7.3"/><path fill="url(#f)" d="M364.2 255.4c4 5 6.1 12.3 6.1 21.9v34.6h-13.8c-6.1 0-9.1-2.6-9.1-7.8v-27.5c0-6.2-2.6-9.4-7.8-9.4s-6.1 1.3-7.9 4-2.7 6.9-2.7 12.8v27.9h-22.9v-35.3c0-6.2-2.6-9.4-7.9-9.4s-10.7 5.6-10.7 16.8v27.9h-22.9v-62.6h8.6c2.8 0 4.9.5 6.4 1.4s2.6 2.5 3.2 4.6c.4 1.3.7 2.6.8 3.8 2.9-3.9 6.1-6.7 9.8-8.5s7.6-2.7 11.8-2.7q13.5 0 19.5 10.2c2.4-3.5 5.4-6 9-7.7 3.6-1.6 7.9-2.5 12.9-2.5 7.8 0 13.7 2.5 17.8 7.5Z"/><path fill="url(#g)" d="M389.4 311.8c-2.3-2.2-3.4-5.1-3.4-8.5s1.2-6.3 3.5-8.5 5.3-3.4 9.1-3.4 6.7 1.1 9 3.4c2.3 2.2 3.4 5.1 3.4 8.5s-1.2 6.3-3.5 8.5-5.3 3.4-9.1 3.4-6.7-1.1-9-3.4"/><path fill="url(#h)" d="M386.4 233H400c3.4 0 6 .7 7.7 2.2s2.5 3.8 2.4 7.1l-1.3 43.1h-20.7z"/><g clip-path="url(#i)"><path fill="url(#b)" d="M397.1 207.5c-37.1 0-67.1 30.7-67.1 68.6s2.7 22.1 7.5 31.6l-12.7 40 40-11.4c9.6 5.4 20.6 8.4 32.3 8.4 37.1 0 67.1-30.7 67.1-68.6s-30.1-68.6-67.1-68.6m0 128.7c-11 0-21.6-3.3-30.4-8.8l-2.8.9-27.1 7.7 8.7-27.6.8-2.3c-5-8.8-7.9-19.1-7.9-30 0-33.1 26.4-60 58.7-60s58.7 26.9 58.7 60-26.4 60-58.7 60Z"/></g><g clip-path="url(#j)"><path fill="url(#c)" fill-rule="evenodd" d="m245 223.8-5.8-11.2 17.2-17.2 14.5 28.4z"/><image xlink:href="CAIXA_Tem-1.png" width="684" height="1007" transform="matrix(0 0 0 0 251.7 193)"/><path fill="url(#k)" fill-rule="evenodd" d="M189.1 164.1h21.6l-9.4 59.7h-21.7z"/><path fill="url(#l)" fill-rule="evenodd" d="M132.6 223.8h-22.9l30.2-59.7h24l11.9 59.7h-23l-.8-7.4h-16.4l-2.9 7.4Zm17.9-21.6-1.1-10.9c-.3-2.6-.1-6.5 0-9.2h-.9l-7.4 20.2h9.5Z"/><image xlink:href="CAIXA_Tem-2.png" width="2676" height="1347" transform="matrix(0 0 0 0 107.2 191)"/><path fill="url(#m)" fill-rule="evenodd" d="m233.4 192.5-14.5-28.4h25.9l14.5 28.4z"/><image xlink:href="CAIXA_Tem-3.png" width="1925" height="1406" transform="matrix(0 0 0 0 121.6 161.1)"/><image xlink:href="CAIXA_Tem-4.png" width="1214" height="1406" transform="matrix(0 0 0 0 181.3 161.1)"/><image xlink:href="CAIXA_Tem-5.png" width="1622" height="1159" transform="matrix(0 0 0 0 216.9 161.1)"/><image xlink:href="CAIXA_Tem-6.png" width="1215" height="349" transform="matrix(0 0 0 0 229.5 186.1)"/><image xlink:href="CAIXA_Tem-7.png" width="1205" height="1347" transform="matrix(0 0 0 0 176.8 191)"/><path fill="url(#n)" fill-rule="evenodd" d="M294.6 223.8h-22.9l30.2-59.7h24l11.9 59.7h-23l-.8-7.4h-16.4l-2.9 7.4Zm17.9-21.6-1.1-10.9c-.3-2.6-.1-6.5 0-9.2h-.9l-7.4 20.2h9.5Z"/><image xlink:href="CAIXA_Tem-8.png" width="2676" height="1347" transform="matrix(0 0 0 0 269.2 191)"/><image xlink:href="CAIXA_Tem-9.png" width="1925" height="1406" transform="matrix(0 0 0 0 283.6 161.1)"/><path fill="url(#o)" fill-rule="evenodd" d="M113 188.3c-2.9-3.2-6.9-6-11.8-6s-12.6 5.1-13.7 11.6c-1 6.6 3.8 11.6 10.3 11.6s9.3-2.1 13.3-5.5l-4.2 22.3c-3.8 1.6-11.9 2.4-15.8 2.4-17 0-28.2-13.2-25.5-30.2 2.7-17.4 18.7-31.4 36.1-31.4s9.8.9 14.2 2.4l-3 22.7Z"/><image xlink:href="CAIXA_Tem-10.png" width="2118" height="1444" transform="matrix(0 0 0 0 62.7 160.1)"/><image xlink:href="CAIXA_Tem-11.png" width="1814" height="1390" transform="matrix(0 0 0 0 62.2 190.7)"/><image xlink:href="CAIXA_Tem-12.png" width="1255" height="724" transform="matrix(0 0 0 0 83.2 176)"/><image xlink:href="CAIXA_Tem-13.png" width="1157" height="714" transform="matrix(0 0 0 0 82.4 192.7)"/><image xlink:href="CAIXA_Tem-14.png" width="877" height="1222" transform="matrix(0 0 0 0 133.7 176)"/><image xlink:href="CAIXA_Tem-15.png" width="830" height="351" transform="matrix(0 0 0 0 134.3 199.2)"/><image xlink:href="CAIXA_Tem-16.png" width="877" height="1222" transform="matrix(0 0 0 0 295.7 176)"/><image xlink:href="CAIXA_Tem-17.png" width="830" height="351" transform="matrix(0 0 0 0 296.3 199.2)"/><path fill="url(#p)" fill-rule="evenodd" d="M202.1 223.8H228l28.4-28.4h-25.9z"/><path fill="url(#q)" fill-rule="evenodd" d="m261.8 164.1-11.3 11.3 8.8 17.1 28.4-28.4z"/><path fill="url(#r)" fill-rule="evenodd" d="m256.4 195.4-15.2 21-2-3.8z"/><image xlink:href="CAIXA_Tem-18.png" width="1996" height="1132" transform="matrix(0 0 0 0 200.6 196.7)"/><image xlink:href="CAIXA_Tem-19.png" width="1216" height="349" transform="matrix(0 0 0 0 225.8 192.3)"/></g></svg>