<svg xmlns="http://www.w3.org/2000/svg" width="1365.333" height="1365.333" version="1.0" viewBox="0 0 1024 1024"><path d="M0 512v512h1024V0H0zm571.5-321.1c58.7 5.6 99.3 16.8 132 36.6 11.6 7 25.7 18.4 35.9 28.8 14.1 14.7 22.4 26.5 31.6 45.2 9.8 20 15.1 37.1 19.8 64l2.6 15 .3 221.4.3 221.3-2.5 4.4c-1.8 3.1-4.1 5.2-7.5 6.9l-4.9 2.5h-47.8c-53.8 0-53.1 0-58.9-7.6l-2.9-3.7-.5-218.1-.5-218.1-2.7-7.4c-10.9-29.3-34.2-48.2-74.3-60-25.3-7.5-65.4-11-102.9-9.2-78.1 3.8-124.7 28-136.9 70.9l-2.2 7.7L349 609c-.5 215.5-.5 217.5-2.5 220.2-1.1 1.5-4.1 3.8-6.6 5.2l-4.7 2.6h-96.3l-4.9-2.5c-3.6-1.8-5.6-3.7-7.2-6.8l-2.3-4.2V608c0-201.3.1-216.6 1.8-232 4.4-39.7 15.5-70.5 36.4-101 5.3-7.7 19.2-22.4 28.8-30.4 25.2-21.1 52.6-34.4 88.5-43 27-6.5 49.3-9.5 96.5-13 14.7-1.1 74.3.4 95 2.3"/></svg>