<svg xmlns="http://www.w3.org/2000/svg" width="512" height="512" fill="none"><path fill="#fff" d="M0 0h512v512H0z"/><path fill="#00003C" d="M301.606 230.662c-6.915 0-11.43-3.936-11.43-9.845 0-4.923 3.351-8.865 7.293-8.865 1.572 0 2.955.591 2.955 2.169 0 .981-.396 1.773.591 1.773.591 0 1.182-.591 1.182-2.169 0-1.968-1.773-3.546-4.332-3.546h-.597c.267-.553.402-1.16.396-1.773a2.685 2.685 0 0 0-1.692-2.569 2.7 2.7 0 0 0-1.068-.191c-1.377 0-2.76.792-2.76 1.779a.53.53 0 0 0 .358.566.5.5 0 0 0 .24.019c.584 0 .785-.585 1.766-.585a1.25 1.25 0 0 1 1.019.359 1.25 1.25 0 0 1 .364 1.018c0 1.377-1.182 1.968-2.169 2.559a10.77 10.77 0 0 0-5.319 9.43c0 5.514 3.144 9.06 7.683 10.632l-2.955 4.533c-3.942 0-5.909 2.955-9.43 9.254a3.45 3.45 0 0 0-3.546-2.76c-2.169 0-3.552 1.578-3.552 3.772a.9.9 0 0 0 .786.981.928.928 0 0 0 .987-.981 1.8 1.8 0 0 1 .46-1.373 1.82 1.82 0 0 1 1.319-.601c1.377 0 1.968.987 1.968 2.169a5.96 5.96 0 0 1-1.182 3.773c-4.137 6.695-9.852 10.059-14.781 10.059-4.332 0-6.916-2.559-6.916-5.118 0-2.364 1.383-4.332 3.772-4.332 1.572 0 2.559.981 2.559 2.358 0 1.182-.987 1.182-.987 1.773 0 .396.396.591.792.591 1.182 0 1.974-1.377 1.974-2.754 0-2.169-1.779-3.772-4.338-3.772a5.4 5.4 0 0 0-4.929 3.144 5.38 5.38 0 0 0-4.922-3.144c-2.566 0-4.338 1.578-4.338 3.772 0 1.377.792 2.754 1.974 2.754.389 0 .786-.195.786-.591 0-.591-.988-.591-.988-1.773 0-1.377.988-2.358 2.566-2.358 2.364 0 3.74 1.968 3.74 4.332 0 2.559-2.565 5.118-6.915 5.118-4.923 0-10.638-3.345-14.781-10.059-.981-1.578-1.182-2.364-1.182-3.773 0-1.182.591-2.169 1.974-2.169a1.815 1.815 0 0 1 1.688 1.24c.079.236.107.486.085.734a.94.94 0 0 0 .273.713.93.93 0 0 0 .714.268.9.9 0 0 0 .786-.981c0-2.169-1.377-3.772-3.546-3.772a3.456 3.456 0 0 0-3.546 2.76c-3.552-6.287-5.52-9.254-9.43-9.254l-2.955-4.533c4.533-1.572 7.689-5.118 7.689-10.632a10.76 10.76 0 0 0-5.325-9.43c-.981-.591-2.169-1.182-2.169-2.559a1.254 1.254 0 0 1 .832-1.312 1.3 1.3 0 0 1 .551-.065c.987 0 1.182.585 1.773.585a.53.53 0 0 0 .44-.146.52.52 0 0 0 .151-.439c0-.987-1.377-1.779-2.76-1.779a2.685 2.685 0 0 0-2.76 2.76c-.006.613.129 1.22.396 1.773h-.648c-2.559 0-4.332 1.578-4.332 3.546 0 1.578.591 2.169 1.182 2.169.981 0 .591-.792.591-1.773 0-1.578 1.377-2.169 2.955-2.169 3.942 0 7.287 3.942 7.287 8.865 0 5.909-4.527 9.845-11.424 9.845-8.079 0-14.19-5.91-14.19-14.184 0-8.072 4.728-13.586 10.06-18.509l4.533-4.338c5.715-5.312 8.079-10.832 8.079-17.723 0-7.481-4.533-15.755-13.989-19.892 1.968-.591 3.143-2.559 3.143-4.923 0-1.578-.591-2.559-.591-3.741 0-2.364 1.384-3.772 3.351-3.772a2.865 2.865 0 0 1 2.955 2.76 2.07 2.07 0 0 1-1.318 2.032 2.1 2.1 0 0 1-.844.137c-.591 0-.988 0-.988.591s.591.786 1.377.786a3.466 3.466 0 0 0 3.546-2.955c.421.247.896.383 1.383.396a2.27 2.27 0 0 0 2.21-1.445 2.3 2.3 0 0 0 .154-.919c0-.396-.195-.987-.786-.987-.396 0-.591.396-.591.786a.936.936 0 0 1-.987.987 2.09 2.09 0 0 1-1.773-1.377 5.06 5.06 0 0 0-4.338-2.565 4.9 4.9 0 0 0-4.922 4.137 22.5 22.5 0 0 0-4.533-3.539c1.578-.988 2.955-1.773 4.533-2.962a49.7 49.7 0 0 0 6.915-6.287l10.839-11.819c9.431-10.437 15.567-12.996 21.477-12.996 5.117 0 7.683 2.559 7.683 5.514 0 2.169-.931 3.772-2.408 4.564a6.63 6.63 0 0 1-1.729-3.388c-.195-.975-.396-.975-.591-.975-.396 0-.396.39-.396.786a7.54 7.54 0 0 0 1.062 4.093 6 6 0 0 1-.666.038c-1.968 0-3.144-.981-3.144-2.163a1.25 1.25 0 0 1 .396-.987c.396-.39.201-.585 0-.585-.786 0-1.578.981-1.578 2.163 0 1.377 1.182 3.345 4.533 3.345a6.3 6.3 0 0 0 1.886-.277 6.5 6.5 0 0 0 7.702 0 6.3 6.3 0 0 0 1.886.277c3.351 0 4.533-1.968 4.533-3.345 0-1.182-.786-2.163-1.578-2.163-.195 0-.396.195 0 .585a1.25 1.25 0 0 1 .396.987c0 1.182-1.182 2.163-3.144 2.163q-.334 0-.666-.038a7.55 7.55 0 0 0 1.063-4.093c0-.396 0-.786-.397-.786-.194 0-.389 0-.584.975a6.6 6.6 0 0 1-1.735 3.388c-1.478-.792-2.408-2.395-2.408-4.564 0-2.955 2.565-5.514 7.689-5.514 5.91 0 12.021 2.559 21.476 12.996l10.839 11.819a40.4 40.4 0 0 0 6.916 6.287c1.572 1.189 2.955 1.974 4.533 2.962a22.3 22.3 0 0 0-4.533 3.539 4.91 4.91 0 0 0-4.929-4.137 5.08 5.08 0 0 0-4.338 2.565 2.1 2.1 0 0 1-1.773 1.377.93.93 0 0 1-.923-.601.9.9 0 0 1-.058-.386c0-.39-.201-.786-.591-.786-.591 0-.786.591-.786.987a2.28 2.28 0 0 0 .663 1.697 2.27 2.27 0 0 0 1.695.667 2.9 2.9 0 0 0 1.383-.396 3.466 3.466 0 0 0 3.546 2.955c.786 0 1.377-.195 1.377-.786s-.39-.591-.981-.591a1.972 1.972 0 0 1-2.169-2.169 2.865 2.865 0 0 1 2.955-2.76c1.974 0 3.351 1.383 3.351 3.772 0 1.182-.591 2.163-.591 3.741 0 2.364 1.182 4.332 3.143 4.923-9.43 4.137-13.988 12.411-13.988 19.892 0 6.916 2.364 12.411 8.079 17.723l4.532 4.338c5.319 4.923 10.06 10.437 10.06 18.509 0 8.274-6.111 14.184-14.19 14.184m-43.55 36.635a30.7 30.7 0 0 0-4.137-6.105 7.77 7.77 0 0 0 4.137-3.772 7.77 7.77 0 0 0 4.136 3.772 31 31 0 0 0-4.136 6.105m1.993-147.746a4.93 4.93 0 0 1-3.986 0 6.25 6.25 0 0 0 1.993-2.666 6.3 6.3 0 0 0 1.993 2.666m58.897 88.459a2.83 2.83 0 0 0-2.559 1.383c-1.578-3.546-3.144-6.916-10.06-13.203.895.269 1.826.4 2.76.39 2.169 0 4.533-.591 5.91-1.968a2.97 2.97 0 0 0 2.955 2.169c2.169 0 2.955-1.377 2.955-2.955 0-.591-.195-1.182-.786-1.182-1.182 0-.195 2.364-2.169 2.364a1.41 1.41 0 0 1-1.377-1.578c0-.981.591-2.163.591-3.546a5.85 5.85 0 0 0-4.338-5.91 2.674 2.674 0 0 1-2.162-2.558c0-1.572 1.181-1.773 1.967-1.773s1.377.201 1.377-.396c0-.598-.591-.981-1.773-.981-1.377 0-3.351.981-3.351 3.143a3.15 3.15 0 0 0 .987 2.364 4.04 4.04 0 0 0-3.351 3.942c0 1.377.396 2.754 1.383 2.754 1.182 0 .195-.987.195-2.559 0-1.773 1.578-2.559 3.144-2.559 2.163 0 4.137 1.968 4.137 4.527 0 2.955-2.364 4.923-6.111 4.923a9.86 9.86 0 0 1-7.884-3.345c-4.137-4.533-6.501-8.469-6.501-15.56 0-9.06 6.501-16.938 15.963-19.49a4.91 4.91 0 0 0 3.546-4.728c0-1.968-1.182-3.546-3.144-3.546-.792 0-1.383.195-1.383.786s.591.591.987.591a2.01 2.01 0 0 1 1.773 2.169 3.147 3.147 0 0 1-3.351 3.143c-2.169 0-3.546-1.571-3.546-3.772 0-4.137 4.929-6.916 8.67-8.663-3.351-1.578-4.533-2.169-7.092-4.137a2.52 2.52 0 0 1-.792-1.974c0-.981.591-1.773 1.383-1.773a.93.93 0 0 1 .923.601.9.9 0 0 1 .058.386c0 .591-.39.591-.39.981a.52.52 0 0 0 .352.569.5.5 0 0 0 .239.022c.396 0 1.377-.39 1.377-1.968a2.324 2.324 0 0 0-2.559-2.364 3.14 3.14 0 0 0-3.143 3.351 42 42 0 0 1-4.332-4.137l-6.287-6.916c-1.773-1.968-.792-5.709 1.773-5.709a1.83 1.83 0 0 1 1.809 1.059c.104.227.16.472.165.721 0 1.773-1.779.974-1.779 1.961a.72.72 0 0 0 .206.58.7.7 0 0 0 .267.168q.152.054.313.038a2.73 2.73 0 0 0 2.614-1.83c.126-.359.175-.74.146-1.118a3.553 3.553 0 0 0-3.741-3.351c-2.565 0-4.332 1.967-4.332 4.727l-1.974-2.169c-8.67-9.43-15.762-13.586-22.633-13.586-2.224-.036-4.41.58-6.287 1.773a31 31 0 0 1-2.566-3.546 31 31 0 0 1-2.558 3.546 11.4 11.4 0 0 0-6.287-1.773c-6.916 0-13.995 4.137-22.634 13.586l-1.974 2.169c0-2.76-1.773-4.727-4.338-4.727a3.557 3.557 0 0 0-3.741 3.351 2.73 2.73 0 0 0 .73 2.082 2.73 2.73 0 0 0 2.03.866.7.7 0 0 0 .313-.038.7.7 0 0 0 .435-.435.7.7 0 0 0 .038-.313c0-.987-1.773-.188-1.773-1.961a1.815 1.815 0 0 1 1.235-1.69c.236-.08.485-.11.733-.09 2.565 0 3.546 3.773 1.779 5.709l-6.287 6.916a42 42 0 0 1-4.338 4.137 3.14 3.14 0 0 0-1.891-3.094 3.1 3.1 0 0 0-1.252-.257 2.34 2.34 0 0 0-1.814.605 2.34 2.34 0 0 0-.752 1.759c0 1.578.988 1.968 1.384 1.968a.53.53 0 0 0 .439-.151.53.53 0 0 0 .145-.44c0-.39-.389-.39-.389-.981a.92.92 0 0 1 .27-.717.92.92 0 0 1 .717-.27c.785 0 1.376.792 1.376 1.773a2.51 2.51 0 0 1-.785 1.974c-2.364 2.364-3.773 2.559-7.099 4.137 3.773 1.766 8.67 4.526 8.67 8.663 0 2.169-1.377 3.772-3.546 3.772a3.135 3.135 0 0 1-3.093-1.89 3.2 3.2 0 0 1-.258-1.253 2.014 2.014 0 0 1 1.773-2.169c.396 0 .987 0 .987-.591s-.591-.786-1.376-.786c-1.975 0-3.144 1.578-3.144 3.546a4.906 4.906 0 0 0 3.546 4.728c9.462 2.76 15.963 10.436 15.963 19.49 0 7.091-2.559 10.832-6.501 15.56a9.85 9.85 0 0 1-7.884 3.345c-3.741 0-6.105-1.968-6.105-4.923 0-2.559 1.968-4.527 4.137-4.527 1.578 0 3.144.786 3.144 2.559 0 1.572-.981 2.559.201 2.559.981 0 1.377-1.377 1.377-2.754a4.04 4.04 0 0 0-3.351-3.942 3.1 3.1 0 0 0 .987-2.364c0-2.169-1.974-3.143-3.351-3.143-1.182 0-1.773.396-1.773.981 0 .584.591.396 1.377.396s1.974.201 1.974 1.773a2.69 2.69 0 0 1-2.169 2.558 5.85 5.85 0 0 0-4.332 5.91c0 1.383.585 2.565.585 3.546a1.4 1.4 0 0 1-.335 1.098 1.4 1.4 0 0 1-1.042.48c-1.968 0-.981-2.364-2.169-2.364-.591 0-.786.591-.786 1.182 0 1.578.786 2.955 2.955 2.955a2.96 2.96 0 0 0 2.955-2.169c1.383 1.377 3.772 1.968 5.916 1.968a9.2 9.2 0 0 0 2.754-.39c-6.916 6.287-8.475 9.651-10.06 13.203a2.84 2.84 0 0 0-2.558-1.383c-1.975 0-2.962 1.188-2.962 2.961 0 .39 0 1.572.987 1.572.786 0 .396-.786.396-1.377a1.4 1.4 0 0 1 1.579-1.377c1.571 0 1.967 1.377 1.571 3.546a17 17 0 0 0-.195 3.143c0 9.261 6.916 15.963 15.963 15.963a27 27 0 0 0 3.936-.402l2.76 4.143a4.6 4.6 0 0 0-3.351 4.326 4.456 4.456 0 0 0 4.307 4.514c1.578 0 2.76-.793 2.76-1.578a.72.72 0 0 0-.209-.578.72.72 0 0 0-.577-.208c-.598 0-.598.591-1.974.591a2.7 2.7 0 0 1-1.971-.79 2.7 2.7 0 0 1-.789-1.97c0-1.572 1.383-2.754 3.351-2.754 3.772 0 5.52 4.332 8.078 8.663l2.565 4.339c4.137 7.085 10.839 11.222 16.347 11.222a9.7 9.7 0 0 0 2.364-.195c2.364 2.364 4.734 6.696 5.715 8.664.987-1.968 3.351-6.287 5.715-8.664a9.7 9.7 0 0 0 2.364.195c5.52 0 12.215-4.137 16.346-11.222l2.565-4.339c2.559-4.331 4.332-8.663 8.079-8.663 1.968 0 3.351 1.182 3.351 2.754a2.7 2.7 0 0 1-1.694 2.567 2.7 2.7 0 0 1-1.066.193c-1.377 0-1.377-.591-1.968-.591a.71.71 0 0 0-.582.206.73.73 0 0 0-.21.58c0 .785 1.182 1.578 2.76 1.578.598.01 1.192-.1 1.746-.325a4.45 4.45 0 0 0 2.787-4.208 4.6 4.6 0 0 0-3.351-4.326l2.76-4.143c1.302.231 2.62.365 3.942.402 9.066.026 15.981-6.683 15.981-15.944a17 17 0 0 0-.195-3.143c-.389-2.169 0-3.546 1.579-3.546a1.4 1.4 0 0 1 1.097.335 1.4 1.4 0 0 1 .481 1.042c0 .591-.397 1.377.389 1.377.987 0 .987-1.182.987-1.572 0-1.773-.987-2.961-2.954-2.961m-5.156 33.868c-8.67 8.865-21.476 15.164-33.692 21.074-8.085 3.942-15.963 7.878-22.074 12.574-6.105-4.727-13.989-8.663-22.067-12.574-12.222-5.91-25.029-12.209-33.693-21.074-11.04-11.229-16.346-22.633-16.346-35.647 0-11.034 4.338-20.289 14.19-32.693.786-.993 1.572-1.974 1.572-2.766 0-.793-.786-2.358-1.182-3.144l-6.916-14.976c-1.572-3.344-3.144-6.494-3.144-9.845 0-2.754 1.773-4.728 4.137-6.696l9.852-8.858a1.21 1.21 0 0 0 .195-1.383l-3.144-6.501c-.396-.786-.396-1.377.195-1.773 9.657-6.495 17.736-8.469 29.361-11.619 11.034-2.955 20.892-5.513 26.996-9.43 6.111 3.942 15.963 6.501 26.997 9.43 11.625 3.144 19.49 5.514 29.36 11.619.591.396.591.987.195 1.773l-3.143 6.501a1.25 1.25 0 0 0 .195 1.383l9.858 8.858c2.357 1.968 4.13 3.942 4.13 6.696 0 3.351-1.571 6.501-3.143 9.845l-6.916 14.976c-.39.786-1.182 2.364-1.182 3.144 0 .779.792 1.773 1.578 2.766 10.638 11.813 14.19 21.659 14.19 32.693 0 12.995-5.325 24.418-16.346 35.647m9.261-67.749c-1.773-2.169-2.754-3.144-2.754-3.948 0-.805.585-1.962 1.182-3.345l5.91-12.995c1.773-3.942 3.344-7.293 3.344-11.424 0-2.961-1.182-5.916-4.137-8.475l-8.475-7.28a1.83 1.83 0 0 1-.389-2.37l3.143-7.086c.126-.236.156-.512.084-.77a1.04 1.04 0 0 0-.474-.613c-9.656-6.495-20.69-10.437-31.139-13.392-10.437-2.753-24.432-6.695-31.329-12.014-6.915 5.319-20.885 9.06-31.328 12.014-10.443 2.955-21.483 6.916-31.133 13.392a1.046 1.046 0 0 0-.397 1.383l3.144 7.086a1.84 1.84 0 0 1-.396 2.37l-8.475 7.28c-2.955 2.559-4.137 5.514-4.137 8.475 0 4.131 1.578 7.482 3.351 11.424l5.91 12.995c.591 1.383 1.182 2.559 1.182 3.345s-.987 1.779-2.76 3.948c-8.865 11.021-12.411 20.081-12.411 32.102 0 16.742 8.274 29.549 17.736 39.193 9.651 9.846 23.055 16.346 35.27 22.256 8.079 3.942 16.554 7.878 24.432 14.184 7.884-6.287 16.346-10.242 24.431-14.184 12.222-5.91 25.821-12.41 35.277-22.256 9.43-9.657 17.736-22.451 17.736-39.193 0-12.021-3.546-21.081-12.417-32.102"/><path fill="#00003C" d="M271.68 211.386a13.2 13.2 0 0 1-11.386 7.997c-9.192.761-9.33-10.153-9.33-10.153v-26.639h.27a23.3 23.3 0 0 1 8.802.755c8.287 2.345 14.215 9.82 13.914 18.414a25.7 25.7 0 0 1-2.27 9.626m-20.716-65.385s1.968-5.143 9.248-4.596c7.281.547 11.279 6.551 11.468 12.455.189 5.903 1.767 18.861-13.203 24.098h-7.494zm27.129 48.347a23.9 23.9 0 0 0-3.729-7.903c-3.879-5.231-8.368-6.915-8.556-7.004a26 26 0 0 0 3.049-2.005 19.96 19.96 0 0 0 6.771-9.361 28.16 28.16 0 0 0 .698-16.498c-3.244-12.134-11.908-13.951-11.908-13.951s-10.059-3.998-16.975 4.785c-.081-.126-3.841-5.916-10.499-2.88-5.765 3.175-2.452 8.173-1.031 9.073 0 0 1.886 1.257 2.967 0 .793-.931-.037-1.887-.452-2.547-.83-1.301.547-2.735 2.477-2.709 1.678 0 5.029 1.257 5.029 5.809v61.55c0 .516-.521 3.772-3.288 3.734s-3.772-2.961-2.194-4.526c-.101-.266-.27-.5-.49-.679-.289-.145-4.558-.264-4.036 4.244.521 4.507 5.89 6.67 11.096 3.847a14.33 14.33 0 0 0 12.687 7.224c9.11 0 14.825-7.639 14.825-7.639s7.312-8.871 3.584-22.526"/><path fill="#00003C" d="M239.88 205.709a35.72 35.72 0 0 0 23.13 7.085 29.96 29.96 0 0 0 15.718-5.224c13.46-9.393 7.45-21.577 7.054-22.678 0 0-3.722-8.462-12.876-11.618 0 0-6.866-2.307-17.78-3.1-10.914-.792-15.196-5.482-13.53-11.184 1.666-5.703 10.16-8.305 15.416-8.626a34.35 34.35 0 0 1 21.125 5.753 23.7 23.7 0 0 1 3.018 2.879s1.496 1.968 2.439.943c.805-.868-.591-2.094-.591-2.094a11.4 11.4 0 0 1-2.571-6.456 33 33 0 0 1-.089-4.885q.105-.958.359-1.886c.163-.554.289-1.346-.509-1.484-.661-.107-.969.629-1.031.773a7.3 7.3 0 0 1-7.884 3.357c-8.802-1.886-14.266-1.823-14.266-1.823s-10.279-.729-17.201 6.664a13.94 13.94 0 0 0-3.678 12.09c1.635 8.274 10.191 11.317 18.999 11.216a43 43 0 0 1 10.355 1.157 35.3 35.3 0 0 1 5.571 1.761 16.6 16.6 0 0 1 9.744 10.53c1.258 4.401.799 10.273-7.198 15.045-14.762 8.802-32.529.629-39.973-16.723a1.206 1.206 0 0 0-1.616-.541c-.943.39-.421 1.729-.421 1.729s2.766 4.979 2.232 8.903a10.82 10.82 0 0 1-3.949 6.752c-.76.698-1.703 1.534-.968 2.257s1.503.321 2.609-.629l.044-.031a7.09 7.09 0 0 1 8.312.1"/><path fill="#00003C" d="M257.018 146.378v72.521a17.2 17.2 0 0 1-1.684 7.595c-1.258 2.515-3.326 5.067-6.633 5.067 0 0-3.873.333-5.149-2.119-1.497-2.873 1.018-3.998 1.018-3.998s1.748-.805.912-2.157-2.697-.66-2.697-.66a7.82 7.82 0 0 0-4.307 4.263c-1.427 3.326.918 8.883 7.287 9.5a14.22 14.22 0 0 0 13.02-5.942s4.653 5.501 11.411 6.4c0 0 .811.095 1.044-.245s.289-.911-.799-1.659c-1.087-.749-7.337-4.332-7.312-10.638v-80.342a13.14 13.14 0 0 1 6.036-11.166l.164-.094a35.6 35.6 0 0 1 7.94-3.144s1.547-.27 1.735-1.037-.27-1.258-1.295-1.132a23 23 0 0 0-5.841 1.226c-2.778.987-6.142 2.968-11.53 2.974-4.156 0-9.732-1.465-12.071-2.138a15 15 0 0 1-1.723-.629c-.547-.238-1.301-.49-1.779-.176a1.17 1.17 0 0 0-.434.755 1.12 1.12 0 0 0 .667 1.157c1.609 1.018 2.062.924 3.571 1.71a15.6 15.6 0 0 1 4.69 3.646 15.84 15.84 0 0 1 3.772 10.5M120.527 388.637q.93 6.582 3.659 9.839 4.986 5.922 17.101 5.922 7.248 0 11.775-1.559 8.595-2.999 8.595-11.141a8.17 8.17 0 0 0-4.206-7.355q-4.206-2.546-13.335-4.496l-10.399-2.276q-15.321-3.389-21.062-7.362-9.713-6.64-9.707-20.747 0-12.895 9.494-21.426 9.493-8.532 27.908-8.532 15.359 0 26.217 8.048t11.379 23.343h-19.301q-.54-8.656-7.746-12.31-4.815-2.401-11.945-2.408-7.953 0-12.693 3.144a9.89 9.89 0 0 0-4.747 8.726q0 5.143 4.677 7.683 3.006 1.685 12.763 3.974l16.856 3.973q11.084 2.603 16.61 6.966 8.595 6.77 8.588 19.603 0 13.159-10.172 21.848t-28.764 8.651q-18.961 0-29.838-8.563-10.876-8.563-10.864-23.545zm110.287-4.879a20.4 20.4 0 0 1-3.602 1.785 30 30 0 0 1-4.986 1.258l-4.225.786q-5.948 1.036-8.538 2.514-4.401 2.515-4.401 7.878 0 4.753 2.679 6.872a10.17 10.17 0 0 0 6.519 2.119 19.44 19.44 0 0 0 11.216-3.521q5.131-3.514 5.326-12.826zm-11.379-8.664c3.451-.434 5.928-.981 7.412-1.628q4.011-1.698 4.005-5.275 0-4.37-3.068-6.029-3.069-1.66-9.016-1.66-6.677 0-9.43 3.257a13.46 13.46 0 0 0-2.641 6.513h-17.918q.584-9.31 5.237-15.303 7.375-9.355 25.368-9.355 11.725 0 20.817 4.628 9.09 4.627 9.091 17.452v32.561q0 3.388.132 8.211c.132 2.427.496 4.08 1.106 4.948a6.7 6.7 0 0 0 2.735 2.15v2.735h-20.194a20.8 20.8 0 0 1-1.176-4.043c-.22-1.257-.389-2.691-.521-4.294a38.3 38.3 0 0 1-8.915 7.098 26.94 26.94 0 0 1-13.65 3.427q-9.7 0-16.025-5.501t-6.325-15.599q0-13.089 10.179-18.955 5.57-3.187 16.409-4.558zm72.791-53.697c.956.063 2.263.163 3.91.295v15.089c-1.037-.132-2.791-.226-5.243-.295-2.452-.07-4.149.477-5.08 1.628a5.9 5.9 0 0 0-1.402 3.81v5.991h12.184v13.09h-12.184v57.25h-18.44v-57.231h-10.43v-13.09h10.166v-4.558q0-11.393 3.848-15.717 4.036-6.375 19.49-6.376c1.169 0 2.232 0 3.187.095m48.605 24.236 1.597.095v19.018a45 45 0 0 0-3.143-.258c-.931-.038-1.654-.069-2.219-.069q-11.204 0-15.052 7.293-2.15 4.105-2.15 12.637v33.95h-18.679v-70.993h17.724v12.373q4.319-7.13 7.462-9.708 5.244-4.338 13.58-4.338.442-.003.88.038m47.732 38.106a20.4 20.4 0 0 1-3.603 1.785 30 30 0 0 1-4.985 1.258l-4.225.786q-5.947 1.036-8.538 2.514-4.401 2.515-4.401 7.878 0 4.753 2.678 6.872a10.18 10.18 0 0 0 6.52 2.119 19.4 19.4 0 0 0 11.216-3.521q5.13-3.514 5.325-12.826zm-11.355-8.664q5.187-.629 7.419-1.628 3.999-1.698 3.999-5.275 0-4.37-3.068-6.029-3.069-1.66-9.016-1.66-6.664 0-9.431 3.257a13.4 13.4 0 0 0-2.647 6.513h-17.918q.591-9.31 5.237-15.303 7.381-9.355 25.381-9.355 11.714 0 20.81 4.628 9.098 4.627 9.098 17.452v32.561q0 3.388.126 8.211c.132 2.427.496 4.08 1.106 4.948a6.7 6.7 0 0 0 2.741 2.15v2.735h-20.2a20.8 20.8 0 0 1-1.176-4.043c-.22-1.257-.39-2.691-.522-4.294a38.2 38.2 0 0 1-8.915 7.098 26.9 26.9 0 0 1-13.624 3.427q-9.7 0-16.025-5.501t-6.325-15.599q0-13.089 10.179-18.955 5.582-3.187 16.409-4.558z"/></svg>