<?xml version="1.0" encoding="UTF-8" standalone="no" ?>
<!DOCTYPE svg PUBLIC "-//W3C//DTD SVG 1.1//EN" "http://www.w3.org/Graphics/SVG/1.1/DTD/svg11.dtd">
<svg xmlns="http://www.w3.org/2000/svg" xmlns:xlink="http://www.w3.org/1999/xlink" version="1.1" width="1080" height="540" viewBox="0 0 1080 540" xml:space="preserve">
<desc>Created with Fabric.js 5.2.4</desc>
<defs>
</defs>
<g transform="matrix(0 0 0 0 0 0)" id="ce8d7b9d-e171-4b5e-a77b-3745857c22c5"  >
</g>
<g transform="matrix(1 0 0 1 540 270)" id="e12de674-62d5-4eb3-81f2-c136d6adefd4"  >
<rect style="stroke: none; stroke-width: 1; stroke-dasharray: none; stroke-linecap: butt; stroke-dashoffset: 0; stroke-linejoin: miter; stroke-miterlimit: 4; fill: rgb(255,255,255); fill-rule: nonzero; opacity: 1; visibility: hidden;" vector-effect="non-scaling-stroke"  x="-540" y="-270" rx="0" ry="0" width="1080" height="540" />
</g>
<g transform="matrix(0.68 0 0 0.68 542 272)"  >
<g style=""   >
		<g transform="matrix(1 0 0 1 305.01 4.05)"  >
<path style="stroke: none; stroke-width: 1; stroke-dasharray: none; stroke-linecap: butt; stroke-dashoffset: 0; stroke-linejoin: miter; stroke-miterlimit: 4; fill: rgb(63,63,63); fill-rule: nonzero; opacity: 1;" vector-effect="non-scaling-stroke"  transform=" translate(-705.01, -404.05)" d="M 687.8 405.39 C 687.8 412.86 689.41 418.58 692.65 422.56 C 695.88 426.54 700.6 428.53000000000003 706.8199999999999 428.53000000000003 C 710.29 428.53000000000003 713.2199999999999 427.98 715.5999999999999 426.89000000000004 C 717.9799999999999 425.80000000000007 720.43 424.00000000000006 722.93 421.50000000000006 L 727.53 425.13000000000005 C 726.0799999999999 426.58000000000004 724.6 427.87000000000006 723.11 428.9800000000001 C 721.61 430.1000000000001 720.04 431.0300000000001 718.39 431.7800000000001 C 716.73 432.5300000000001 714.9399999999999 433.0800000000001 713 433.4400000000001 C 711.06 433.79000000000013 708.88 433.9700000000001 706.46 433.9700000000001 C 698.38 433.9700000000001 692.23 431.43000000000006 687.99 426.3400000000001 C 683.75 421.2500000000001 681.63 413.8200000000001 681.63 404.05000000000007 C 681.63 394.6000000000001 683.6899999999999 387.25000000000006 687.81 382.00000000000006 C 691.93 376.75000000000006 697.66 374.13000000000005 705.01 374.13000000000005 C 712.36 374.13000000000005 718.09 376.63000000000005 722.21 381.64000000000004 C 726.33 386.65000000000003 728.39 393.63000000000005 728.39 402.6 L 728.39 405.39000000000004 L 687.8 405.39000000000004 z M 721.96 396.85 C 721.88 395.84000000000003 721.76 394.95000000000005 721.6 394.18 C 721.44 393.41 721.24 392.65000000000003 720.99 391.88 C 720.75 391.11 720.46 390.29 720.14 389.4 C 718.85 386.33 716.85 383.92999999999995 714.14 382.19 C 711.43 380.45 708.39 379.59 704.99 379.59 C 701.6 379.59 698.55 380.46 695.84 382.19 C 693.13 383.93 691.13 386.33 689.84 389.4 C 689.4300000000001 390.28999999999996 689.13 391.12 688.9300000000001 391.88 C 688.73 392.65 688.5500000000001 393.42 688.3800000000001 394.18 C 688.2200000000001 394.95 688.1000000000001 395.84000000000003 688.0200000000001 396.85 C 687.94 397.86 687.8600000000001 399.05 687.7800000000001 400.42 L 722.19 400.42 C 722.12 399.05 722.04 397.86 721.96 396.85 z" stroke-linecap="round" />
</g>
		<g transform="matrix(1 0 0 1 23.02 -9.05)"  >
<path style="stroke: none; stroke-width: 1; stroke-dasharray: none; stroke-linecap: butt; stroke-dashoffset: 0; stroke-linejoin: miter; stroke-miterlimit: 4; fill: rgb(63,63,63); fill-rule: nonzero; opacity: 1;" vector-effect="non-scaling-stroke"  transform=" translate(-423.01, -390.96)" d="M 418.81 380.32 L 418.81 433.98 L 412.65 433.98 L 412.65 380.32000000000005 L 404.66999999999996 380.32000000000005 L 404.66999999999996 375.7300000000001 L 412.65 375.7300000000001 L 412.65 363.1600000000001 C 412.65 358.7300000000001 413.84 355.0800000000001 416.21999999999997 352.2200000000001 C 418.59999999999997 349.36000000000007 422.08 347.93000000000006 426.66999999999996 347.93000000000006 L 441.35999999999996 347.93000000000006 L 441.35999999999996 353.37000000000006 L 427.75999999999993 353.37000000000006 C 424.69999999999993 353.37000000000006 422.43999999999994 354.2200000000001 420.98999999999995 355.9100000000001 C 419.53999999999996 357.6000000000001 418.80999999999995 359.9800000000001 418.80999999999995 363.0400000000001 L 418.80999999999995 375.7300000000001 L 427.10999999999996 375.7300000000001 L 427.10999999999996 380.32000000000005 L 418.81 380.32000000000005 z" stroke-linecap="round" />
</g>
		<g transform="matrix(1 0 0 1 44.61 4.86)" id="Camada_1"  >
<rect style="stroke: none; stroke-width: 1; stroke-dasharray: none; stroke-linecap: butt; stroke-dashoffset: 0; stroke-linejoin: miter; stroke-miterlimit: 4; fill: rgb(63,63,63); fill-rule: nonzero; opacity: 1;" vector-effect="non-scaling-stroke"  x="-3.08" y="-29.125" rx="0" ry="0" width="6.16" height="58.25" />
</g>
		<g transform="matrix(1 0 0 1 139.64 4)"  >
<path style="stroke: none; stroke-width: 1; stroke-dasharray: none; stroke-linecap: butt; stroke-dashoffset: 0; stroke-linejoin: miter; stroke-miterlimit: 4; fill: rgb(63,63,63); fill-rule: nonzero; opacity: 1;" vector-effect="non-scaling-stroke"  transform=" translate(-539.64, -404)" d="M 557.84 428.14 C 554.87 430.84999999999997 552.02 431.8 549.01 432.8 C 545.84 433.7 542.48 433.87 538.37 433.87 C 534.02 433.87 530.53 433.47 527.92 432.66 C 525.3 431.86 523.0699999999999 430.48 521.2099999999999 428.55 C 519.8399999999999 427.18 518.79 425.49 518.0699999999999 423.47 C 517.3399999999999 421.46000000000004 516.9799999999999 419.36 516.9799999999999 417.18 C 516.9799999999999 411.86 518.7699999999999 407.74 522.3599999999999 404.79 C 525.9399999999999 401.85 530.9199999999998 400.38 537.2899999999998 400.38 L 556.1399999999999 400.38 L 556.1399999999999 393.85 C 556.1399999999999 389.18 554.8899999999999 385.63 552.3899999999999 383.21000000000004 C 549.8899999999999 380.79 545.6599999999999 379.58000000000004 539.6999999999998 379.58000000000004 C 535.5899999999998 379.58000000000004 532.3499999999998 380.14000000000004 529.9699999999998 381.27000000000004 C 527.5899999999998 382.40000000000003 525.4799999999998 384.29 523.6299999999998 386.95000000000005 L 519.1599999999997 383.08000000000004 C 521.6599999999997 379.62000000000006 524.5199999999998 377.26000000000005 527.7399999999998 376.01000000000005 C 530.9599999999998 374.76000000000005 534.9499999999998 374.14000000000004 539.6999999999998 374.14000000000004 C 547.4299999999998 374.14000000000004 553.1299999999998 375.79 556.7999999999998 379.1 C 560.4599999999998 382.40000000000003 562.2999999999998 387.12 562.2999999999998 393.24 L 562.2999999999998 417.11 C 562.05 420.87 561.52 424.19 557.84 428.14 z M 556.13 405.35 L 538 405.35 C 528.09 405.35 523.13 409.26000000000005 523.13 417.07000000000005 C 523.13 420.94000000000005 524.34 423.80000000000007 526.76 425.65000000000003 C 529.18 427.50000000000006 533.04 428.43 538.36 428.43 C 541.02 428.43 543.57 428.19 546.03 427.71 C 548.49 427.22999999999996 550.76 425.97999999999996 552.86 423.96 C 555.04 421.95 556.12 418.23999999999995 556.12 412.84 L 556.12 405.35 z" stroke-linecap="round" />
</g>
		<g transform="matrix(1 0 0 1 252.42 4.01)"  >
<path style="stroke: none; stroke-width: 1; stroke-dasharray: none; stroke-linecap: butt; stroke-dashoffset: 0; stroke-linejoin: miter; stroke-miterlimit: 4; fill: rgb(63,63,63); fill-rule: nonzero; opacity: 1;" vector-effect="non-scaling-stroke"  transform=" translate(-652.42, -404.01)" d="M 670.25 429.21 C 668.8 430.38 667.33 431.31 665.84 431.98999999999995 C 664.35 432.67999999999995 662.7800000000001 433.15999999999997 661.13 433.43999999999994 C 659.48 433.7199999999999 657.64 433.85999999999996 655.63 433.85999999999996 C 651.68 433.85999999999996 648.12 433.16999999999996 644.93 431.80999999999995 C 641.75 430.43999999999994 639.05 428.46999999999997 636.8299999999999 425.88999999999993 C 634.6099999999999 423.30999999999995 632.92 420.1699999999999 631.7499999999999 416.4599999999999 C 630.5799999999999 412.74999999999994 629.9999999999999 408.5999999999999 629.9999999999999 404.00999999999993 C 629.9999999999999 399.41999999999996 630.5799999999999 395.2699999999999 631.7499999999999 391.55999999999995 C 632.9199999999998 387.85999999999996 634.6099999999999 384.7099999999999 636.8299999999999 382.12999999999994 C 639.05 379.54999999999995 641.7399999999999 377.5799999999999 644.93 376.2099999999999 C 648.1099999999999 374.8399999999999 651.68 374.1599999999999 655.63 374.1599999999999 C 657.64 374.1599999999999 659.48 374.2999999999999 661.13 374.5799999999999 C 662.78 374.8599999999999 664.35 375.3499999999999 665.84 376.0299999999999 C 667.33 376.7099999999999 668.8000000000001 377.63999999999993 670.25 378.8099999999999 C 671.7 379.9799999999999 673.23 381.4099999999999 674.84 383.0999999999999 L 670.61 386.9699999999999 C 668.11 384.2299999999999 665.76 382.31999999999994 663.54 381.2299999999999 C 661.3199999999999 380.13999999999993 658.6899999999999 379.5999999999999 655.62 379.5999999999999 C 652.3100000000001 379.5999999999999 649.35 380.2499999999999 646.74 381.5299999999999 C 644.12 382.81999999999994 641.9300000000001 384.74999999999994 640.15 387.3299999999999 C 638.6999999999999 389.42999999999995 637.67 391.73999999999995 637.0699999999999 394.2799999999999 C 636.4699999999999 396.8199999999999 636.16 400.0599999999999 636.16 404.00999999999993 C 636.16 407.9599999999999 636.4599999999999 411.19999999999993 637.0699999999999 413.73999999999995 C 637.68 416.28 638.6999999999999 418.59 640.15 420.68999999999994 C 641.92 423.2699999999999 644.12 425.19999999999993 646.74 426.48999999999995 C 649.36 427.78 652.32 428.41999999999996 655.62 428.41999999999996 C 657.15 428.41999999999996 658.5600000000001 428.29999999999995 659.85 428.05999999999995 C 661.14 427.81999999999994 662.37 427.41999999999996 663.5400000000001 426.84999999999997 C 664.71 426.28999999999996 665.8800000000001 425.52 667.0400000000001 424.54999999999995 C 668.21 423.5799999999999 669.4000000000001 422.41999999999996 670.6 421.03999999999996 L 674.83 424.90999999999997 C 673.23 426.62 671.7 428.05 670.25 429.21 z" stroke-linecap="round" />
</g>
		<g transform="matrix(1 0 0 1 196.03 4.49)"  >
<path style="stroke: none; stroke-width: 1; stroke-dasharray: none; stroke-linecap: butt; stroke-dashoffset: 0; stroke-linejoin: miter; stroke-miterlimit: 4; fill: rgb(63,63,63); fill-rule: nonzero; opacity: 1;" vector-effect="non-scaling-stroke"  transform=" translate(-596.03, -404.49)" d="M 612.4 380.56 C 608.53 376.85 603.38 375 596.93 375 C 596.63 375 596.3399999999999 375.03 596.04 375.04 C 595.74 375.03000000000003 595.4499999999999 375 595.15 375 C 588.7099999999999 375 583.55 376.85 579.68 380.56 C 575.65 384.43 573.64 389.83 573.64 396.75 L 573.64 433.97 L 579.8 433.97 L 579.8 397.84000000000003 C 579.8 392.20000000000005 581.17 387.89000000000004 583.91 384.91 C 586.65 381.93 590.64 380.44 595.87 380.44 C 595.93 380.44 595.98 380.45 596.03 380.45 C 596.0899999999999 380.45 596.14 380.44 596.1899999999999 380.44 C 601.43 380.44 605.41 381.93 608.15 384.91 C 610.89 387.89000000000004 612.26 392.20000000000005 612.26 397.84000000000003 L 612.26 433.97 L 618.42 433.97 L 618.42 396.75 C 618.44 389.83 616.42 384.43 612.4 380.56 z" stroke-linecap="round" />
</g>
		<g transform="matrix(1 0 0 1 82.84 4.49)"  >
<path style="stroke: none; stroke-width: 1; stroke-dasharray: none; stroke-linecap: butt; stroke-dashoffset: 0; stroke-linejoin: miter; stroke-miterlimit: 4; fill: rgb(63,63,63); fill-rule: nonzero; opacity: 1;" vector-effect="non-scaling-stroke"  transform=" translate(-482.84, -404.49)" d="M 499.21 380.56 C 495.34 376.85 490.19 375 483.73999999999995 375 C 483.43999999999994 375 483.15 375.03 482.84999999999997 375.04 C 482.54999999999995 375.03000000000003 482.26 375 481.96 375 C 475.52 375 470.35999999999996 376.85 466.48999999999995 380.56 C 462.46 384.43 460.44999999999993 389.83 460.44999999999993 396.75 L 460.44999999999993 433.97 L 466.60999999999996 433.97 L 466.60999999999996 397.84000000000003 C 466.60999999999996 392.20000000000005 467.97999999999996 387.89000000000004 470.71999999999997 384.91 C 473.46 381.93 477.45 380.44 482.67999999999995 380.44 C 482.73999999999995 380.44 482.78999999999996 380.45 482.84 380.45 C 482.9 380.45 482.95 380.44 483 380.44 C 488.24 380.44 492.22 381.93 494.96 384.91 C 497.7 387.89000000000004 499.07 392.20000000000005 499.07 397.84000000000003 L 499.07 433.97 L 505.23 433.97 L 505.23 396.75 C 505.25 389.83 503.24 384.43 499.21 380.56 z" stroke-linecap="round" />
</g>
		<g transform="matrix(1 0 0 1 -120.62 -2.34)"  >
<path style="stroke: none; stroke-width: 1; stroke-dasharray: none; stroke-linecap: butt; stroke-dashoffset: 0; stroke-linejoin: miter; stroke-miterlimit: 4; fill: rgb(63,63,63); fill-rule: nonzero; opacity: 1;" vector-effect="non-scaling-stroke"  transform=" translate(-279.38, -397.66)" d="M 317.41 402.93 L 258.91 402.93 C 259.75 408.09000000000003 262.01000000000005 412.19 265.68 415.24 C 269.35 418.29 274.03000000000003 419.81 279.72 419.81 C 286.52000000000004 419.81 292.37 417.43 297.26000000000005 412.67 L 312.6 419.87 C 308.77000000000004 425.3 304.19 429.31 298.86 431.91 C 293.52000000000004 434.51000000000005 287.19 435.81 279.85 435.81 C 268.47 435.81 259.19 432.22 252.03000000000003 425.04 C 244.87000000000003 417.86 241.29000000000002 408.86 241.29000000000002 398.06 C 241.29000000000002 386.99 244.86 377.79 252.00000000000003 370.48 C 259.14000000000004 363.17 268.09000000000003 359.51 278.85 359.51 C 290.28000000000003 359.51 299.57000000000005 363.17 306.73 370.48 C 313.89000000000004 377.8 317.47 387.46000000000004 317.47 399.46000000000004 L 317.41 402.93 z M 299.2 388.59 C 298 384.53999999999996 295.62 381.25 292.08 378.71999999999997 C 288.53999999999996 376.19 284.43 374.91999999999996 279.75 374.91999999999996 C 274.67 374.91999999999996 270.22 376.34 266.39 379.18999999999994 C 263.97999999999996 380.9699999999999 261.76 384.09999999999997 259.71 388.59999999999997 L 299.2 388.59999999999997 z" stroke-linecap="round" />
</g>
		<g transform="matrix(1 0 0 1 -38.03 -2.95)"  >
<path style="stroke: none; stroke-width: 1; stroke-dasharray: none; stroke-linecap: butt; stroke-dashoffset: 0; stroke-linejoin: miter; stroke-miterlimit: 4; fill: rgb(63,63,63); fill-rule: nonzero; opacity: 1;" vector-effect="non-scaling-stroke"  transform=" translate(-361.97, -397.05)" d="M 329.34 368.76 L 347.79999999999995 368.76 L 347.79999999999995 368.74 C 351.98999999999995 365.21000000000004 355.78 362.76 359.17999999999995 361.38 C 362.5799999999999 360 366.05999999999995 359.31 369.61999999999995 359.31 C 376.90999999999997 359.31 383.09999999999997 361.86 388.18999999999994 366.95 C 392.4699999999999 371.28 394.59999999999997 377.68 394.59999999999997 386.15999999999997 L 394.59999999999997 434.78999999999996 L 376.34 434.78999999999996 L 376.34 402.56999999999994 C 376.34 393.78999999999996 375.95 387.9599999999999 375.15999999999997 385.06999999999994 C 374.36999999999995 382.18999999999994 372.99999999999994 379.98999999999995 371.03999999999996 378.47999999999996 C 369.08 376.96999999999997 366.66999999999996 376.21999999999997 363.78999999999996 376.21999999999997 C 360.05999999999995 376.21999999999997 356.84999999999997 377.46999999999997 354.17999999999995 379.96999999999997 C 351.49999999999994 382.46999999999997 349.65 385.92999999999995 348.60999999999996 390.34 C 348.06999999999994 392.64 347.79999999999995 397.60999999999996 347.79999999999995 405.27 L 347.79999999999995 434.78999999999996 L 329.34 434.78999999999996 L 329.34 368.76 z" stroke-linecap="round" />
</g>
		<g transform="matrix(1 0 0 1 -201.62 6.02)"  >
<path style="stroke: none; stroke-width: 1; stroke-dasharray: none; stroke-linecap: butt; stroke-dashoffset: 0; stroke-linejoin: miter; stroke-miterlimit: 4; fill: rgb(63,63,63); fill-rule: nonzero; opacity: 1;" vector-effect="non-scaling-stroke"  transform=" translate(-198.38, -406.01)" d="M 178.64 369.53 L 178.64 369.30999999999995 C 181.98 365.96999999999997 185.57999999999998 363.46999999999997 189.45999999999998 361.79999999999995 C 193.33999999999997 360.12999999999994 197.48 359.29999999999995 201.89999999999998 359.29999999999995 C 211.49999999999997 359.29999999999995 219.65999999999997 362.92999999999995 226.37999999999997 370.18999999999994 C 233.09999999999997 377.44999999999993 236.45999999999998 386.75999999999993 236.45999999999998 398.11999999999995 C 236.45999999999998 409.0799999999999 232.98999999999998 418.23999999999995 226.04999999999998 425.60999999999996 C 219.10999999999999 432.97999999999996 210.88 436.66999999999996 201.36999999999998 436.66999999999996 C 197.12999999999997 436.66999999999996 193.18999999999997 435.91999999999996 189.52999999999997 434.4 C 185.87999999999997 432.89 182.24999999999997 430.41999999999996 178.64 426.98999999999995 L 178.64 452.72999999999996 L 160.31 452.72999999999996 L 160.31 369.52 L 178.64 369.52 z M 198.05 376.35 C 192.23000000000002 376.35 187.41000000000003 378.33000000000004 183.58 382.3 C 179.75 386.27000000000004 177.83 391.45 177.83 397.86 C 177.83 404.40000000000003 179.75 409.68 183.58 413.72 C 187.3 417.64000000000004 191.95000000000002 419.65000000000003 197.54000000000002 419.77000000000004 C 202.61 419.88000000000005 207.62000000000003 418.07000000000005 211.31000000000003 414.6 C 215.82000000000002 410.36 218.07000000000002 404.8 218.07000000000002 397.93 C 218.07000000000002 391.62 216.18000000000004 386.45 212.39000000000001 382.41 C 208.6 378.37 203.82 376.35 198.05 376.35 z" stroke-linecap="round" />
</g>
		<g transform="matrix(1 0 0 1 -278.99 -2.38)"  >
<path style="stroke: none; stroke-width: 1; stroke-dasharray: none; stroke-linecap: butt; stroke-dashoffset: 0; stroke-linejoin: miter; stroke-miterlimit: 4; fill: rgb(63,63,63); fill-rule: nonzero; opacity: 1;" vector-effect="non-scaling-stroke"  transform=" translate(-121.01, -397.62)" d="M 148.1 378.23 C 144.67 372.28000000000003 139.91 367.57 133.79999999999998 364.1 C 128.42 361.04 122.71999999999998 359.33000000000004 116.69999999999999 358.97 L 116.69999999999999 376.37 C 121.6 376.81 125.68999999999998 378.75 128.98999999999998 382.19 C 132.76 386.14 134.64999999999998 391.26 134.64999999999998 397.58 C 134.64999999999998 403.89 132.73 409.05 128.89 413.07 C 125.04999999999998 417.08 120.23999999999998 419.09 114.45999999999998 419.09 C 109.16999999999997 419.09 104.72999999999998 417.41999999999996 101.11999999999998 414.10999999999996 L 88.77999999999997 426.44999999999993 C 95.93999999999997 432.98999999999995 104.43999999999997 436.2699999999999 114.28999999999998 436.2699999999999 C 121.45999999999998 436.2699999999999 128.01999999999998 434.56999999999994 133.96999999999997 431.1599999999999 C 139.97999999999996 427.7199999999999 144.70999999999998 422.9399999999999 148.16999999999996 416.8099999999999 C 151.43999999999997 411.01999999999987 153.18999999999997 404.4499999999999 153.23999999999995 397.7999999999999 C 153.28 390.79 151.57 384.26 148.1 378.23 z" stroke-linecap="round" />
</g>
		<g transform="matrix(1 0 0 1 -302.57 -35.56)"  >
<path style="stroke: none; stroke-width: 1; stroke-dasharray: none; stroke-linecap: butt; stroke-dashoffset: 0; stroke-linejoin: miter; stroke-miterlimit: 4; fill: rgb(74,126,148); fill-rule: nonzero; opacity: 1;" vector-effect="non-scaling-stroke"  transform=" translate(-97.43, -364.44)" d="M 100.82 381.62 C 104.00999999999999 378.56 107.82 376.81 112.28 376.38 L 112.28 347.26 C 100.92 348.09 90.14 353.55 82.58 363.38 L 100.82 381.62 z" stroke-linecap="round" />
</g>
		<g transform="matrix(1 0 0 1 -315.2 -18.86)"  >
<path style="stroke: none; stroke-width: 1; stroke-dasharray: none; stroke-linecap: butt; stroke-dashoffset: 0; stroke-linejoin: miter; stroke-miterlimit: 4; fill: rgb(74,126,148); fill-rule: nonzero; opacity: 1;" vector-effect="non-scaling-stroke"  transform=" translate(-84.8, -381.14)" d="M 94.52 395.8 C 94.77 391.68 95.92999999999999 388.09000000000003 97.97999999999999 385.02000000000004 L 79.44 366.48 C 73.02 375.44 70.71 386.87 71.94 395.8 L 94.52 395.8 z" stroke-linecap="round" />
</g>
		<g transform="matrix(1 0 0 1 -314.93 11.75)"  >
<path style="stroke: none; stroke-width: 1; stroke-dasharray: none; stroke-linecap: butt; stroke-dashoffset: 0; stroke-linejoin: miter; stroke-miterlimit: 4; fill: rgb(74,126,148); fill-rule: nonzero; opacity: 1;" vector-effect="non-scaling-stroke"  transform=" translate(-85.07, -411.75)" d="M 94.58 400.21 L 71.94 400.21 C 73.67 410.52 79.45 418.2 85.67 423.29999999999995 L 98.2 410.77 C 96.14 407.8 94.94 404.28 94.58 400.21 z" stroke-linecap="round" />
</g>
</g>
</g>
</svg>