<?xml version="1.0" encoding="utf-8"?>
<!-- Generator: Adobe Illustrator 25.1.0, SVG Export Plug-In . SVG Version: 6.00 Build 0)  -->
<svg version="1.1" id="Camada_1" xmlns="http://www.w3.org/2000/svg" xmlns:xlink="http://www.w3.org/1999/xlink" x="0px" y="0px"
	 viewBox="0 0 800 800" style="enable-background:new 0 0 800 800;" xml:space="preserve">
<style type="text/css">
	.st0{fill:#08090A;}
	.st1{fill:#3F3F3F;}
	.st2{fill:#4A7E94;}
	.st3{fill:#FFFFFF;}
</style>
<g>
	<path class="st0" d="M407.58,584.99c-40.85,0-76.6-13.77-106.3-40.92l-2.33-2.14l54.73-54.75l2.13,1.98
		c14.11,12.99,31.77,19.57,52.46,19.57c22.66,0,41.77-7.97,56.78-23.67c15.05-15.75,22.68-36.34,22.68-61.19
		c0-24.86-7.49-45.31-22.27-60.78c-12.89-13.47-29.14-21.17-48.31-22.87l-2.76-0.25v-77.09l3.21,0.19
		c24.98,1.52,48.93,8.7,71.2,21.36c25.32,14.4,45.38,34.2,59.59,58.89l0,0c14.4,25.02,21.6,52.44,21.39,81.49
		c-0.19,27.63-7.49,55.01-21.11,79.14c-14.34,25.4-34.24,45.51-59.17,59.78C464.86,577.84,437.3,584.99,407.58,584.99z
		 M307.74,541.72c28.06,24.7,61.64,37.21,99.84,37.21c28.64,0,55.2-6.88,78.93-20.46c23.96-13.72,43.11-33.07,56.9-57.51
		c13.12-23.23,20.14-49.58,20.33-76.2c0.2-27.95-6.72-54.34-20.59-78.41c-13.66-23.74-32.95-42.8-57.33-56.64
		c-20.51-11.66-42.47-18.49-65.35-20.35v65.11c19.48,2.31,36.08,10.53,49.38,24.44c15.89,16.63,23.95,38.5,23.95,64.98
		s-8.19,48.46-24.37,65.38c-16.2,16.94-36.77,25.54-61.16,25.54c-21.22,0-39.5-6.48-54.39-19.24L307.74,541.72z"/>
	<g>
		<path class="st0" d="M352.56,362.94l-78.54-78.54l1.62-2.11c30.49-39.63,74.36-63.45,123.56-67.06l3.26-0.24v125.01l-2.73,0.27
			c-17.42,1.68-32.57,8.62-45.03,20.6L352.56,362.94z M282.08,283.89l70.6,70.59c12.36-11.09,27.04-17.79,43.71-19.93V221.54
			C351.13,225.74,310.74,247.76,282.08,283.89z"/>
		<path class="st0" d="M329.71,419.65h-97.8l-0.37-2.62c-5.6-40.57,6.35-87.33,31.2-122.02l2.08-2.9l80.05,80.05l-1.39,2.07
			c-8.04,12.04-12.62,26.37-13.6,42.58L329.71,419.65z M237.22,413.59h86.82c1.33-15.21,5.71-28.86,13.06-40.62l-71.48-71.49
			C243.55,333.87,232.8,376.25,237.22,413.59z"/>
		<path class="st0" d="M290.88,533.09l-2.12-1.74c-21.71-17.81-49.26-48.96-57.19-96.21l-0.6-3.53h98.88l0.25,2.76
			c1.42,16.05,6.22,30.08,14.27,41.71l1.43,2.08L290.88,533.09z M238.18,437.67c8.09,41.94,32.32,70.29,52.31,87.23l47.48-47.48
			c-7.35-11.38-11.92-24.73-13.63-39.76H238.18z"/>
	</g>
</g>
</svg>
