<?xml version="1.0" encoding="utf-8"?>
<!-- Generator: Adobe Illustrator 25.1.0, SVG Export Plug-In . SVG Version: 6.00 Build 0)  -->
<svg version="1.1" id="Camada_1" xmlns="http://www.w3.org/2000/svg" xmlns:xlink="http://www.w3.org/1999/xlink" x="0px" y="0px"
	 viewBox="0 0 800 800" style="enable-background:new 0 0 800 800;" xml:space="preserve">
<style type="text/css">
	.st0{fill:#08090A;}
	.st1{fill:#3F3F3F;}
	.st2{fill:#4A7E94;}
	.st3{fill:#FFFFFF;}
</style>
<g>
	<path class="st1" d="M407.61,585.75c-41.01,0-76.91-13.83-106.73-41.08l-2.34-2.15l54.96-54.96l2.14,1.99
		c14.17,13.03,31.88,19.64,52.67,19.64c22.75,0,41.94-7.99,57-23.75c15.12-15.81,22.79-36.48,22.79-61.45s-7.52-45.49-22.36-61.03
		c-12.95-13.53-29.26-21.24-48.5-22.96l-2.77-0.25v-77.41l3.23,0.19c25.07,1.53,49.12,8.75,71.47,21.45
		c25.43,14.46,45.55,34.36,59.83,59.13l0,0c14.47,25.14,21.69,52.66,21.49,81.82c-0.19,27.75-7.52,55.23-21.2,79.47
		c-14.41,25.51-34.39,45.71-59.41,60.01C465.11,578.57,437.43,585.75,407.61,585.75z M307.36,542.3
		c28.17,24.8,61.89,37.36,100.25,37.36c28.74,0,55.41-6.91,79.25-20.54c24.05-13.75,43.27-33.18,57.13-57.73
		c13.17-23.34,20.22-49.8,20.41-76.52c0.2-28.05-6.76-54.55-20.68-78.73c-13.72-23.83-33.08-42.96-57.56-56.87
		c-20.58-11.7-42.63-18.56-65.61-20.43v65.38c19.54,2.32,36.22,10.56,49.58,24.52c15.95,16.7,24.05,38.66,24.05,65.24
		c0,26.59-8.24,48.68-24.48,65.66c-16.26,17.01-36.91,25.63-61.4,25.63c-21.31,0-39.67-6.49-54.61-19.31L307.36,542.3z"/>
	<g>
		<path class="st2" d="M352.37,362.8l-78.86-78.86l1.63-2.12c30.62-39.8,74.68-63.71,124.06-67.33l3.27-0.24v125.52l-2.75,0.27
			c-17.49,1.69-32.7,8.65-45.21,20.68L352.37,362.8z M281.6,283.42l70.89,70.87c12.41-11.14,27.15-17.87,43.89-20.01V220.82
			C350.94,225.03,310.38,247.15,281.6,283.42z"/>
		<path class="st2" d="M329.41,419.74h-98.18l-0.37-2.63c-5.62-40.73,6.37-87.67,31.31-122.5l2.09-2.91l80.37,80.36l-1.38,2.08
			c-8.07,12.1-12.67,26.47-13.67,42.75L329.41,419.74z M236.56,413.65h87.16c1.34-15.28,5.74-28.97,13.12-40.79l-71.78-71.77
			C242.92,333.63,232.13,376.17,236.56,413.65z"/>
		<path class="st2" d="M290.43,533.64l-2.13-1.75c-21.81-17.88-49.48-49.14-57.42-96.6l-0.59-3.54h99.27l0.25,2.77
			c1.43,16.13,6.24,30.22,14.31,41.88l1.45,2.09L290.43,533.64z M237.52,437.83c8.11,42.12,32.44,70.59,52.52,87.59l47.67-47.67
			c-7.38-11.41-11.97-24.82-13.68-39.92H237.52z"/>
	</g>
</g>
</svg>
