<svg xmlns="http://www.w3.org/2000/svg" viewBox="0 0 500 500"><defs><style>.cls-1{fill:none;}.cls-2{fill:#050821;}.cls-3{fill:#499ed7;}</style></defs><g id="Camada_2" data-name="Camada 2"><g id="fundo"><rect class="cls-1" width="500" height="500" rx="250"/></g><g id="logos"><path class="cls-2" d="M290.69,286.94c18.43-13.84,30.3-35.32,30.3-59.41,0-41.67-35.46-75.57-79.05-75.57s-79.05,33.9-79.05,75.57c0,41,34.29,74.4,76.87,75.51a9.86,9.86,0,0,0,2.18.27c26.69,0,49.24,15.15,49.24,33.09s-22.55,33.1-49.24,33.1-49.24-15.15-49.24-33.1a21.82,21.82,0,0,1,.65-5.22H163.19a50.1,50.1,0,0,0-.3,5.22c0,34.69,35.46,62.91,79.05,62.91S321,371.09,321,336.4C321,316.35,309.12,298.47,290.69,286.94Zm-98-59.41c0-25.23,22.09-45.76,49.24-45.76s49.24,20.53,49.24,45.76-22.09,45.76-49.24,45.76S192.7,252.76,192.7,227.53Z"/><path class="cls-3" d="M340.9,99.87h-43a12.69,12.69,0,0,0,0,25.37H322.5v24.62a12.72,12.72,0,0,0,12.68,12.69h0a12.73,12.73,0,0,0,12.69-12.69v-43A7,7,0,0,0,340.9,99.87Z"/></g></g></svg>