<?xml version="1.0" encoding="UTF-8"?>
<svg version="1.1" xmlns="http://www.w3.org/2000/svg" width="1700" height="1700">
<path d="M0,0 L1700,0 L1700,1700 L0,1700 Z M100,100 L100,1600 L1600,1600 L1600,100 Z " fill="#000000" transform="translate(0,0)"/>
<path d="M0,0 L603,0 L603,1 L905,1 L905,2 L915,2 L915,3 L922,3 L922,4 L928,4 L928,5 L934,5 L934,6 L939,6 L939,7 L943,7 L943,8 L947,8 L947,9 L950,9 L950,10 L954,10 L954,11 L958,11 L958,12 L961,12 L961,13 L964,13 L964,14 L967,14 L967,15 L969,15 L969,16 L972,16 L972,17 L975,17 L975,18 L977,18 L977,19 L980,19 L980,20 L982,20 L982,21 L984,21 L984,22 L987,22 L987,23 L989,23 L989,24 L991,24 L991,25 L993,25 L993,26 L995,26 L995,27 L997,27 L997,28 L999,28 L999,29 L1001,29 L1001,30 L1003,30 L1003,31 L1005,31 L1005,32 L1006,32 L1006,33 L1008,33 L1008,34 L1010,34 L1010,35 L1012,35 L1012,36 L1013,36 L1013,37 L1015,37 L1015,38 L1017,38 L1017,39 L1018,39 L1018,40 L1020,40 L1020,41 L1021,41 L1021,42 L1023,42 L1023,43 L1024,43 L1024,44 L1026,44 L1026,45 L1027,45 L1027,46 L1028,46 L1028,47 L1030,47 L1030,48 L1031,48 L1031,49 L1033,49 L1033,50 L1034,50 L1034,51 L1035,51 L1035,52 L1037,52 L1037,53 L1038,53 L1038,54 L1039,54 L1039,55 L1040,55 L1040,56 L1042,56 L1042,57 L1043,57 L1043,58 L1044,58 L1044,59 L1045,59 L1045,60 L1046,60 L1046,61 L1048,61 L1048,62 L1049,62 L1049,63 L1050,63 L1050,64 L1051,64 L1051,65 L1052,65 L1052,66 L1053,66 L1053,67 L1054,67 L1054,68 L1055,68 L1055,69 L1056,69 L1056,70 L1057,70 L1057,71 L1058,71 L1058,72 L1059,72 L1059,73 L1060,73 L1060,74 L1061,74 L1061,75 L1062,75 L1062,76 L1063,76 L1063,77 L1064,77 L1064,78 L1065,78 L1065,79 L1066,79 L1066,80 L1067,80 L1067,81 L1068,81 L1068,82 L1069,82 L1069,83 L1070,83 L1070,84 L1071,84 L1071,85 L1072,85 L1072,86 L1073,86 L1073,88 L1074,88 L1074,89 L1075,89 L1075,90 L1076,90 L1076,91 L1077,91 L1077,92 L1078,92 L1078,94 L1079,94 L1079,95 L1080,95 L1080,96 L1081,96 L1081,97 L1082,97 L1082,99 L1083,99 L1083,100 L1084,100 L1084,101 L1085,101 L1085,103 L1086,103 L1086,104 L1087,104 L1087,105 L1088,105 L1088,107 L1089,107 L1089,108 L1090,108 L1090,110 L1091,110 L1091,111 L1092,111 L1092,113 L1093,113 L1093,114 L1094,114 L1094,116 L1095,116 L1095,117 L1096,117 L1096,119 L1097,119 L1097,121 L1098,121 L1098,122 L1099,122 L1099,124 L1100,124 L1100,126 L1101,126 L1101,128 L1102,128 L1102,129 L1103,129 L1103,131 L1104,131 L1104,133 L1105,133 L1105,135 L1106,135 L1106,137 L1107,137 L1107,139 L1108,139 L1108,141 L1109,141 L1109,143 L1110,143 L1110,145 L1111,145 L1111,147 L1112,147 L1112,149 L1113,149 L1113,152 L1114,152 L1114,154 L1115,154 L1115,156 L1116,156 L1116,159 L1117,159 L1117,161 L1118,161 L1118,164 L1119,164 L1119,167 L1120,167 L1120,170 L1121,170 L1121,173 L1122,173 L1122,176 L1123,176 L1123,179 L1124,179 L1124,183 L1125,183 L1125,186 L1126,186 L1126,190 L1127,190 L1127,195 L1128,195 L1128,199 L1129,199 L1129,204 L1130,204 L1130,210 L1131,210 L1131,217 L1132,217 L1132,225 L1133,225 L1133,241 L1134,241 L1134,1132 L1133,1132 L1133,1145 L1132,1145 L1132,1153 L1131,1153 L1131,1159 L1130,1159 L1130,1165 L1129,1165 L1129,1170 L1128,1170 L1128,1175 L1127,1175 L1127,1179 L1126,1179 L1126,1183 L1125,1183 L1125,1186 L1124,1186 L1124,1190 L1123,1190 L1123,1193 L1122,1193 L1122,1196 L1121,1196 L1121,1199 L1120,1199 L1120,1202 L1119,1202 L1119,1205 L1118,1205 L1118,1207 L1117,1207 L1117,1210 L1116,1210 L1116,1212 L1115,1212 L1115,1215 L1114,1215 L1114,1217 L1113,1217 L1113,1219 L1112,1219 L1112,1221 L1111,1221 L1111,1224 L1110,1224 L1110,1226 L1109,1226 L1109,1228 L1108,1228 L1108,1230 L1107,1230 L1107,1232 L1106,1232 L1106,1234 L1105,1234 L1105,1236 L1104,1236 L1104,1237 L1103,1237 L1103,1239 L1102,1239 L1102,1241 L1101,1241 L1101,1243 L1100,1243 L1100,1244 L1099,1244 L1099,1246 L1098,1246 L1098,1248 L1097,1248 L1097,1249 L1096,1249 L1096,1251 L1095,1251 L1095,1253 L1094,1253 L1094,1254 L1093,1254 L1093,1256 L1092,1256 L1092,1257 L1091,1257 L1091,1259 L1090,1259 L1090,1260 L1089,1260 L1089,1261 L1088,1261 L1088,1263 L1087,1263 L1087,1264 L1086,1264 L1086,1266 L1085,1266 L1085,1267 L1084,1267 L1084,1268 L1083,1268 L1083,1270 L1082,1270 L1082,1271 L1081,1271 L1081,1272 L1080,1272 L1080,1273 L1079,1273 L1079,1275 L1078,1275 L1078,1276 L1077,1276 L1077,1277 L1076,1277 L1076,1278 L1075,1278 L1075,1280 L1074,1280 L1074,1281 L1073,1281 L1073,1282 L1072,1282 L1072,1283 L1071,1283 L1071,1284 L1070,1284 L1070,1285 L1069,1285 L1069,1286 L1068,1286 L1068,1287 L1067,1287 L1067,1288 L1066,1288 L1066,1290 L1065,1290 L1065,1291 L1064,1291 L1064,1292 L1063,1292 L1063,1293 L1062,1293 L1062,1294 L1061,1294 L1061,1295 L1060,1295 L1060,1296 L1059,1296 L1059,1297 L1058,1297 L1058,1298 L1057,1298 L1057,1299 L1056,1299 L1056,1300 L1055,1300 L1055,1301 L1053,1301 L1053,1302 L1052,1302 L1052,1303 L1051,1303 L1051,1304 L1050,1304 L1050,1305 L1049,1305 L1049,1306 L1048,1306 L1048,1307 L1047,1307 L1047,1308 L1045,1308 L1045,1309 L1044,1309 L1044,1310 L1043,1310 L1043,1311 L1042,1311 L1042,1312 L1041,1312 L1041,1313 L1039,1313 L1039,1314 L1038,1314 L1038,1315 L1037,1315 L1037,1316 L1036,1316 L1036,1317 L1034,1317 L1034,1318 L1033,1318 L1033,1319 L1032,1319 L1032,1320 L1030,1320 L1030,1321 L1029,1321 L1029,1322 L1027,1322 L1027,1323 L1026,1323 L1026,1324 L1024,1324 L1024,1325 L1023,1325 L1023,1326 L1021,1326 L1021,1327 L1020,1327 L1020,1328 L1018,1328 L1018,1329 L1017,1329 L1017,1330 L1015,1330 L1015,1331 L1014,1331 L1014,1332 L1012,1332 L1012,1333 L1010,1333 L1010,1334 L1008,1334 L1008,1335 L1007,1335 L1007,1336 L1005,1336 L1005,1337 L1003,1337 L1003,1338 L1002,1338 L1002,1339 L1000,1339 L1000,1340 L998,1340 L998,1341 L996,1341 L996,1342 L994,1342 L994,1343 L992,1343 L992,1344 L990,1344 L990,1345 L987,1345 L987,1346 L985,1346 L985,1347 L983,1347 L983,1348 L981,1348 L981,1349 L978,1349 L978,1350 L975,1350 L975,1351 L973,1351 L973,1352 L970,1352 L970,1353 L967,1353 L967,1354 L964,1354 L964,1355 L961,1355 L961,1356 L958,1356 L958,1357 L955,1357 L955,1358 L952,1358 L952,1359 L948,1359 L948,1360 L944,1360 L944,1361 L940,1361 L940,1362 L936,1362 L936,1363 L930,1363 L930,1364 L925,1364 L925,1365 L918,1365 L918,1366 L910,1366 L910,1367 L897,1367 L897,1368 L300,1368 L300,1367 L-4,1367 L-4,1366 L-14,1366 L-14,1365 L-21,1365 L-21,1364 L-27,1364 L-27,1363 L-33,1363 L-33,1362 L-37,1362 L-37,1361 L-42,1361 L-42,1360 L-46,1360 L-46,1359 L-50,1359 L-50,1358 L-54,1358 L-54,1357 L-57,1357 L-57,1356 L-60,1356 L-60,1355 L-63,1355 L-63,1354 L-66,1354 L-66,1353 L-69,1353 L-69,1352 L-72,1352 L-72,1351 L-74,1351 L-74,1350 L-77,1350 L-77,1349 L-79,1349 L-79,1348 L-82,1348 L-82,1347 L-84,1347 L-84,1346 L-86,1346 L-86,1345 L-88,1345 L-88,1344 L-91,1344 L-91,1343 L-93,1343 L-93,1342 L-95,1342 L-95,1341 L-97,1341 L-97,1340 L-99,1340 L-99,1339 L-101,1339 L-101,1338 L-103,1338 L-103,1337 L-104,1337 L-104,1336 L-106,1336 L-106,1335 L-108,1335 L-108,1334 L-110,1334 L-110,1333 L-111,1333 L-111,1332 L-113,1332 L-113,1331 L-115,1331 L-115,1330 L-116,1330 L-116,1329 L-118,1329 L-118,1328 L-119,1328 L-119,1327 L-121,1327 L-121,1326 L-123,1326 L-123,1325 L-124,1325 L-124,1324 L-125,1324 L-125,1323 L-127,1323 L-127,1322 L-128,1322 L-128,1321 L-130,1321 L-130,1320 L-131,1320 L-131,1319 L-132,1319 L-132,1318 L-134,1318 L-134,1317 L-135,1317 L-135,1316 L-136,1316 L-136,1315 L-138,1315 L-138,1314 L-139,1314 L-139,1313 L-140,1313 L-140,1312 L-141,1312 L-141,1311 L-143,1311 L-143,1310 L-144,1310 L-144,1309 L-145,1309 L-145,1308 L-146,1308 L-146,1307 L-147,1307 L-147,1306 L-148,1306 L-148,1305 L-150,1305 L-150,1304 L-151,1304 L-151,1303 L-152,1303 L-152,1302 L-153,1302 L-153,1301 L-154,1301 L-154,1300 L-155,1300 L-155,1299 L-156,1299 L-156,1298 L-157,1298 L-157,1297 L-158,1297 L-158,1296 L-159,1296 L-159,1295 L-160,1295 L-160,1294 L-161,1294 L-161,1293 L-162,1293 L-162,1292 L-163,1292 L-163,1291 L-164,1291 L-164,1290 L-165,1290 L-165,1289 L-166,1289 L-166,1288 L-167,1288 L-167,1287 L-168,1287 L-168,1286 L-169,1286 L-169,1285 L-170,1285 L-170,1284 L-171,1284 L-171,1283 L-172,1283 L-172,1281 L-173,1281 L-173,1280 L-174,1280 L-174,1279 L-175,1279 L-175,1278 L-176,1278 L-176,1277 L-177,1277 L-177,1276 L-178,1276 L-178,1274 L-179,1274 L-179,1273 L-180,1273 L-180,1272 L-181,1272 L-181,1270 L-182,1270 L-182,1269 L-183,1269 L-183,1268 L-184,1268 L-184,1267 L-185,1267 L-185,1265 L-186,1265 L-186,1264 L-187,1264 L-187,1262 L-188,1262 L-188,1261 L-189,1261 L-189,1260 L-190,1260 L-190,1258 L-191,1258 L-191,1257 L-192,1257 L-192,1255 L-193,1255 L-193,1254 L-194,1254 L-194,1252 L-195,1252 L-195,1251 L-196,1251 L-196,1249 L-197,1249 L-197,1247 L-198,1247 L-198,1246 L-199,1246 L-199,1244 L-200,1244 L-200,1242 L-201,1242 L-201,1241 L-202,1241 L-202,1239 L-203,1239 L-203,1237 L-204,1237 L-204,1235 L-205,1235 L-205,1233 L-206,1233 L-206,1231 L-207,1231 L-207,1229 L-208,1229 L-208,1227 L-209,1227 L-209,1225 L-210,1225 L-210,1223 L-211,1223 L-211,1221 L-212,1221 L-212,1219 L-213,1219 L-213,1217 L-214,1217 L-214,1214 L-215,1214 L-215,1212 L-216,1212 L-216,1209 L-217,1209 L-217,1207 L-218,1207 L-218,1204 L-219,1204 L-219,1201 L-220,1201 L-220,1198 L-221,1198 L-221,1196 L-222,1196 L-222,1193 L-223,1193 L-223,1189 L-224,1189 L-224,1186 L-225,1186 L-225,1182 L-226,1182 L-226,1178 L-227,1178 L-227,1174 L-228,1174 L-228,1170 L-229,1170 L-229,1164 L-230,1164 L-230,1159 L-231,1159 L-231,1152 L-232,1152 L-232,1144 L-233,1144 L-233,1132 L-234,1132 L-234,825 L-233,825 L-233,234 L-232,234 L-232,222 L-231,222 L-231,214 L-230,214 L-230,208 L-229,208 L-229,202 L-228,202 L-228,197 L-227,197 L-227,193 L-226,193 L-226,189 L-225,189 L-225,185 L-224,185 L-224,181 L-223,181 L-223,178 L-222,178 L-222,174 L-221,174 L-221,172 L-220,172 L-220,169 L-219,169 L-219,166 L-218,166 L-218,163 L-217,163 L-217,160 L-216,160 L-216,158 L-215,158 L-215,155 L-214,155 L-214,153 L-213,153 L-213,151 L-212,151 L-212,148 L-211,148 L-211,146 L-210,146 L-210,144 L-209,144 L-209,142 L-208,142 L-208,140 L-207,140 L-207,138 L-206,138 L-206,136 L-205,136 L-205,134 L-204,134 L-204,132 L-203,132 L-203,130 L-202,130 L-202,128 L-201,128 L-201,127 L-200,127 L-200,125 L-199,125 L-199,123 L-198,123 L-198,121 L-197,121 L-197,120 L-196,120 L-196,118 L-195,118 L-195,117 L-194,117 L-194,115 L-193,115 L-193,113 L-192,113 L-192,112 L-191,112 L-191,110 L-190,110 L-190,109 L-189,109 L-189,108 L-188,108 L-188,106 L-187,106 L-187,105 L-186,105 L-186,103 L-185,103 L-185,102 L-184,102 L-184,100 L-183,100 L-183,99 L-182,99 L-182,98 L-181,98 L-181,97 L-180,97 L-180,95 L-179,95 L-179,94 L-178,94 L-178,93 L-177,93 L-177,92 L-176,92 L-176,90 L-175,90 L-175,89 L-174,89 L-174,88 L-173,88 L-173,87 L-172,87 L-172,86 L-171,86 L-171,85 L-170,85 L-170,83 L-169,83 L-169,82 L-168,82 L-168,81 L-167,81 L-167,80 L-166,80 L-166,79 L-165,79 L-165,78 L-164,78 L-164,77 L-163,77 L-163,76 L-162,76 L-162,75 L-161,75 L-161,74 L-160,74 L-160,73 L-159,73 L-159,72 L-158,72 L-158,71 L-157,71 L-157,70 L-156,70 L-156,69 L-155,69 L-155,68 L-154,68 L-154,67 L-153,67 L-153,66 L-152,66 L-152,65 L-151,65 L-151,64 L-150,64 L-150,63 L-148,63 L-148,62 L-147,62 L-147,61 L-146,61 L-146,60 L-145,60 L-145,59 L-144,59 L-144,58 L-143,58 L-143,57 L-141,57 L-141,56 L-140,56 L-140,55 L-139,55 L-139,54 L-138,54 L-138,53 L-136,53 L-136,52 L-135,52 L-135,51 L-134,51 L-134,50 L-133,50 L-133,49 L-131,49 L-131,48 L-130,48 L-130,47 L-128,47 L-128,46 L-127,46 L-127,45 L-126,45 L-126,44 L-124,44 L-124,43 L-123,43 L-123,42 L-121,42 L-121,41 L-120,41 L-120,40 L-118,40 L-118,39 L-117,39 L-117,38 L-115,38 L-115,37 L-114,37 L-114,36 L-112,36 L-112,35 L-110,35 L-110,34 L-108,34 L-108,33 L-107,33 L-107,32 L-105,32 L-105,31 L-103,31 L-103,30 L-101,30 L-101,29 L-99,29 L-99,28 L-97,28 L-97,27 L-95,27 L-95,26 L-93,26 L-93,25 L-91,25 L-91,24 L-89,24 L-89,23 L-87,23 L-87,22 L-85,22 L-85,21 L-83,21 L-83,20 L-80,20 L-80,19 L-78,19 L-78,18 L-75,18 L-75,17 L-73,17 L-73,16 L-70,16 L-70,15 L-68,15 L-68,14 L-65,14 L-65,13 L-62,13 L-62,12 L-59,12 L-59,11 L-55,11 L-55,10 L-52,10 L-52,9 L-48,9 L-48,8 L-44,8 L-44,7 L-40,7 L-40,6 L-36,6 L-36,5 L-31,5 L-31,4 L-25,4 L-25,3 L-19,3 L-19,2 L-12,2 L-12,1 L0,1 Z M-106,623 L-106,946 L-107,946 L-107,1110 L-2,1110 L-2,623 Z M93,624 L93,750 L43,750 L43,818 L92,818 L92,1047 L93,1047 L93,1057 L94,1057 L94,1063 L95,1063 L95,1067 L96,1067 L96,1071 L97,1071 L97,1074 L98,1074 L98,1076 L99,1076 L99,1078 L100,1078 L100,1080 L101,1080 L101,1082 L102,1082 L102,1084 L103,1084 L103,1085 L104,1085 L104,1087 L105,1087 L105,1088 L106,1088 L106,1089 L107,1089 L107,1091 L108,1091 L108,1092 L109,1092 L109,1093 L110,1093 L110,1094 L111,1094 L111,1095 L112,1095 L112,1096 L114,1096 L114,1097 L115,1097 L115,1098 L116,1098 L116,1099 L118,1099 L118,1100 L119,1100 L119,1101 L121,1101 L121,1102 L122,1102 L122,1103 L124,1103 L124,1104 L127,1104 L127,1105 L129,1105 L129,1106 L131,1106 L131,1107 L134,1107 L134,1108 L137,1108 L137,1109 L140,1109 L140,1110 L144,1110 L144,1111 L148,1111 L148,1112 L153,1112 L153,1113 L160,1113 L160,1114 L172,1114 L172,1115 L227,1115 L227,1114 L249,1114 L249,1041 L247,1041 L247,1042 L236,1042 L236,1043 L216,1043 L216,1042 L206,1042 L206,1041 L202,1041 L202,1040 L200,1040 L200,1039 L197,1039 L197,1038 L196,1038 L196,1037 L194,1037 L194,1036 L193,1036 L193,1035 L192,1035 L192,1033 L191,1033 L191,1031 L190,1031 L190,1028 L189,1028 L189,818 L250,818 L250,750 L189,750 L189,624 Z M842,624 L842,626 L841,626 L841,628 L840,628 L840,629 L839,629 L839,631 L838,631 L838,633 L837,633 L837,635 L836,635 L836,637 L835,637 L835,639 L834,639 L834,641 L833,641 L833,643 L832,643 L832,645 L831,645 L831,647 L830,647 L830,649 L829,649 L829,650 L828,650 L828,652 L827,652 L827,654 L826,654 L826,656 L825,656 L825,658 L824,658 L824,660 L823,660 L823,662 L822,662 L822,664 L821,664 L821,666 L820,666 L820,668 L819,668 L819,670 L818,670 L818,671 L817,671 L817,673 L816,673 L816,675 L815,675 L815,677 L814,677 L814,679 L813,679 L813,681 L812,681 L812,683 L811,683 L811,685 L810,685 L810,687 L809,687 L809,689 L808,689 L808,691 L807,691 L807,692 L806,692 L806,694 L805,694 L805,696 L804,696 L804,698 L803,698 L803,700 L802,700 L802,702 L871,702 L871,701 L872,701 L872,700 L873,700 L873,699 L874,699 L874,698 L875,698 L875,697 L876,697 L876,696 L877,696 L877,695 L878,695 L878,694 L879,694 L879,692 L880,692 L880,691 L881,691 L881,690 L882,690 L882,689 L883,689 L883,688 L884,688 L884,687 L885,687 L885,686 L886,686 L886,685 L887,685 L887,684 L888,684 L888,683 L889,683 L889,681 L890,681 L890,680 L891,680 L891,679 L892,679 L892,678 L893,678 L893,677 L894,677 L894,676 L895,676 L895,675 L896,675 L896,674 L897,674 L897,673 L898,673 L898,671 L899,671 L899,670 L900,670 L900,669 L901,669 L901,668 L902,668 L902,667 L903,667 L903,666 L904,666 L904,665 L905,665 L905,664 L906,664 L906,663 L907,663 L907,662 L908,662 L908,660 L909,660 L909,659 L910,659 L910,658 L911,658 L911,657 L912,657 L912,656 L913,656 L913,655 L914,655 L914,654 L915,654 L915,653 L916,653 L916,652 L917,652 L917,650 L918,650 L918,649 L919,649 L919,648 L920,648 L920,647 L921,647 L921,646 L922,646 L922,645 L923,645 L923,644 L924,644 L924,643 L925,643 L925,642 L926,642 L926,641 L927,641 L927,639 L928,639 L928,638 L929,638 L929,637 L930,637 L930,636 L931,636 L931,635 L932,635 L932,634 L933,634 L933,633 L934,633 L934,632 L935,632 L935,631 L936,631 L936,629 L937,629 L937,628 L938,628 L938,627 L939,627 L939,626 L940,626 L940,625 L941,625 L941,624 Z M441,740 L441,741 L423,741 L423,742 L413,742 L413,743 L406,743 L406,744 L399,744 L399,745 L394,745 L394,746 L390,746 L390,747 L386,747 L386,748 L382,748 L382,749 L378,749 L378,750 L375,750 L375,751 L372,751 L372,752 L369,752 L369,753 L366,753 L366,754 L364,754 L364,755 L362,755 L362,756 L359,756 L359,757 L357,757 L357,758 L355,758 L355,759 L353,759 L353,760 L352,760 L352,761 L350,761 L350,762 L348,762 L348,763 L347,763 L347,764 L345,764 L345,765 L343,765 L343,766 L342,766 L342,767 L340,767 L340,768 L339,768 L339,769 L338,769 L338,770 L336,770 L336,771 L335,771 L335,772 L334,772 L334,773 L333,773 L333,774 L332,774 L332,775 L330,775 L330,776 L329,776 L329,777 L328,777 L328,778 L327,778 L327,779 L326,779 L326,780 L325,780 L325,781 L324,781 L324,782 L323,782 L323,783 L322,783 L322,785 L321,785 L321,786 L320,786 L320,787 L319,787 L319,788 L318,788 L318,789 L317,789 L317,791 L316,791 L316,792 L315,792 L315,794 L314,794 L314,795 L313,795 L313,797 L312,797 L312,798 L311,798 L311,800 L310,800 L310,801 L309,801 L309,803 L308,803 L308,805 L307,805 L307,807 L306,807 L306,809 L305,809 L305,811 L304,811 L304,813 L303,813 L303,815 L302,815 L302,818 L301,818 L301,820 L300,820 L300,823 L299,823 L299,826 L298,826 L298,829 L297,829 L297,832 L296,832 L296,836 L295,836 L295,840 L294,840 L294,844 L293,844 L293,849 L292,849 L292,855 L291,855 L291,863 L290,863 L290,867 L384,867 L384,860 L385,860 L385,856 L386,856 L386,852 L387,852 L387,849 L388,849 L388,847 L389,847 L389,844 L390,844 L390,842 L391,842 L391,841 L392,841 L392,839 L393,839 L393,837 L394,837 L394,836 L395,836 L395,835 L396,835 L396,834 L397,834 L397,833 L398,833 L398,832 L399,832 L399,831 L400,831 L400,830 L401,830 L401,829 L402,829 L402,828 L403,828 L403,827 L404,827 L404,826 L406,826 L406,825 L408,825 L408,824 L410,824 L410,823 L411,823 L411,822 L414,822 L414,821 L417,821 L417,820 L420,820 L420,819 L424,819 L424,818 L429,818 L429,817 L464,817 L464,818 L471,818 L471,819 L475,819 L475,820 L479,820 L479,821 L482,821 L482,822 L485,822 L485,823 L487,823 L487,824 L488,824 L488,825 L490,825 L490,826 L492,826 L492,827 L493,827 L493,828 L495,828 L495,829 L496,829 L496,830 L497,830 L497,831 L498,831 L498,832 L499,832 L499,833 L500,833 L500,835 L501,835 L501,836 L502,836 L502,838 L503,838 L503,840 L504,840 L504,842 L505,842 L505,845 L506,845 L506,850 L507,850 L507,866 L506,866 L506,869 L505,869 L505,871 L504,871 L504,872 L503,872 L503,873 L502,873 L502,875 L501,875 L501,876 L500,876 L500,877 L499,877 L499,878 L497,878 L497,879 L496,879 L496,880 L494,880 L494,881 L492,881 L492,882 L490,882 L490,883 L488,883 L488,884 L485,884 L485,885 L481,885 L481,886 L476,886 L476,887 L471,887 L471,888 L464,888 L464,889 L457,889 L457,890 L451,890 L451,891 L444,891 L444,892 L437,892 L437,893 L430,893 L430,894 L423,894 L423,895 L416,895 L416,896 L410,896 L410,897 L403,897 L403,898 L396,898 L396,899 L389,899 L389,900 L382,900 L382,901 L377,901 L377,902 L372,902 L372,903 L367,903 L367,904 L363,904 L363,905 L360,905 L360,906 L357,906 L357,907 L354,907 L354,908 L351,908 L351,909 L348,909 L348,910 L346,910 L346,911 L344,911 L344,912 L341,912 L341,913 L339,913 L339,914 L337,914 L337,915 L335,915 L335,916 L333,916 L333,917 L331,917 L331,918 L329,918 L329,919 L328,919 L328,920 L326,920 L326,921 L325,921 L325,922 L323,922 L323,923 L322,923 L322,924 L320,924 L320,925 L319,925 L319,926 L318,926 L318,927 L317,927 L317,928 L315,928 L315,929 L314,929 L314,930 L313,930 L313,931 L312,931 L312,932 L311,932 L311,933 L310,933 L310,934 L309,934 L309,935 L308,935 L308,936 L307,936 L307,937 L306,937 L306,938 L305,938 L305,939 L304,939 L304,940 L303,940 L303,941 L302,941 L302,942 L301,942 L301,944 L300,944 L300,945 L299,945 L299,946 L298,946 L298,948 L297,948 L297,949 L296,949 L296,951 L295,951 L295,952 L294,952 L294,954 L293,954 L293,956 L292,956 L292,957 L291,957 L291,959 L290,959 L290,961 L289,961 L289,963 L288,963 L288,966 L287,966 L287,968 L286,968 L286,971 L285,971 L285,974 L284,974 L284,977 L283,977 L283,980 L282,980 L282,984 L281,984 L281,989 L280,989 L280,995 L279,995 L279,1003 L278,1003 L278,1023 L279,1023 L279,1034 L280,1034 L280,1040 L281,1040 L281,1044 L282,1044 L282,1048 L283,1048 L283,1052 L284,1052 L284,1055 L285,1055 L285,1057 L286,1057 L286,1060 L287,1060 L287,1062 L288,1062 L288,1064 L289,1064 L289,1066 L290,1066 L290,1068 L291,1068 L291,1070 L292,1070 L292,1072 L293,1072 L293,1074 L294,1074 L294,1075 L295,1075 L295,1077 L296,1077 L296,1078 L297,1078 L297,1079 L298,1079 L298,1081 L299,1081 L299,1082 L300,1082 L300,1083 L301,1083 L301,1084 L302,1084 L302,1086 L303,1086 L303,1087 L304,1087 L304,1088 L305,1088 L305,1089 L306,1089 L306,1090 L307,1090 L307,1091 L308,1091 L308,1092 L309,1092 L309,1093 L311,1093 L311,1094 L312,1094 L312,1095 L313,1095 L313,1096 L314,1096 L314,1097 L315,1097 L315,1098 L317,1098 L317,1099 L318,1099 L318,1100 L320,1100 L320,1101 L321,1101 L321,1102 L323,1102 L323,1103 L324,1103 L324,1104 L326,1104 L326,1105 L327,1105 L327,1106 L329,1106 L329,1107 L331,1107 L331,1108 L333,1108 L333,1109 L335,1109 L335,1110 L337,1110 L337,1111 L340,1111 L340,1112 L343,1112 L343,1113 L345,1113 L345,1114 L349,1114 L349,1115 L352,1115 L352,1116 L355,1116 L355,1117 L359,1117 L359,1118 L364,1118 L364,1119 L371,1119 L371,1120 L380,1120 L380,1121 L402,1121 L402,1120 L413,1120 L413,1119 L420,1119 L420,1118 L426,1118 L426,1117 L430,1117 L430,1116 L435,1116 L435,1115 L438,1115 L438,1114 L442,1114 L442,1113 L445,1113 L445,1112 L447,1112 L447,1111 L450,1111 L450,1110 L452,1110 L452,1109 L455,1109 L455,1108 L457,1108 L457,1107 L460,1107 L460,1106 L462,1106 L462,1105 L464,1105 L464,1104 L465,1104 L465,1103 L467,1103 L467,1102 L469,1102 L469,1101 L471,1101 L471,1100 L472,1100 L472,1099 L474,1099 L474,1098 L475,1098 L475,1097 L477,1097 L477,1096 L478,1096 L478,1095 L480,1095 L480,1094 L481,1094 L481,1093 L483,1093 L483,1092 L484,1092 L484,1091 L485,1091 L485,1090 L487,1090 L487,1089 L488,1089 L488,1088 L489,1088 L489,1087 L490,1087 L490,1086 L491,1086 L491,1085 L493,1085 L493,1084 L494,1084 L494,1083 L495,1083 L495,1082 L496,1082 L496,1081 L497,1081 L497,1080 L498,1080 L498,1079 L499,1079 L499,1078 L500,1078 L500,1077 L501,1077 L501,1076 L502,1076 L502,1075 L503,1075 L503,1074 L504,1074 L504,1073 L505,1073 L505,1072 L506,1072 L506,1071 L507,1071 L507,1070 L508,1070 L508,1069 L509,1069 L509,1072 L510,1072 L510,1080 L511,1080 L511,1085 L512,1085 L512,1090 L513,1090 L513,1094 L514,1094 L514,1098 L515,1098 L515,1101 L516,1101 L516,1104 L517,1104 L517,1108 L518,1108 L518,1110 L519,1110 L519,1111 L561,1111 L561,1110 L602,1110 L602,1105 L601,1105 L601,838 L600,838 L600,829 L599,829 L599,823 L598,823 L598,819 L597,819 L597,815 L596,815 L596,812 L595,812 L595,809 L594,809 L594,807 L593,807 L593,804 L592,804 L592,802 L591,802 L591,800 L590,800 L590,798 L589,798 L589,797 L588,797 L588,795 L587,795 L587,793 L586,793 L586,792 L585,792 L585,790 L584,790 L584,789 L583,789 L583,788 L582,788 L582,786 L581,786 L581,785 L580,785 L580,784 L579,784 L579,783 L578,783 L578,782 L577,782 L577,781 L576,781 L576,780 L575,780 L575,779 L574,779 L574,778 L573,778 L573,777 L572,777 L572,776 L571,776 L571,775 L570,775 L570,774 L569,774 L569,773 L568,773 L568,772 L567,772 L567,771 L565,771 L565,770 L564,770 L564,769 L562,769 L562,768 L561,768 L561,767 L560,767 L560,766 L558,766 L558,765 L556,765 L556,764 L555,764 L555,763 L553,763 L553,762 L551,762 L551,761 L549,761 L549,760 L548,760 L548,759 L546,759 L546,758 L543,758 L543,757 L541,757 L541,756 L539,756 L539,755 L537,755 L537,754 L534,754 L534,753 L532,753 L532,752 L529,752 L529,751 L526,751 L526,750 L523,750 L523,749 L519,749 L519,748 L515,748 L515,747 L511,747 L511,746 L507,746 L507,745 L502,745 L502,744 L496,744 L496,743 L490,743 L490,742 L480,742 L480,741 L466,741 L466,740 Z M677,750 L677,818 L676,818 L676,1001 L677,1001 L677,1013 L678,1013 L678,1020 L679,1020 L679,1026 L680,1026 L680,1031 L681,1031 L681,1035 L682,1035 L682,1038 L683,1038 L683,1042 L684,1042 L684,1045 L685,1045 L685,1048 L686,1048 L686,1050 L687,1050 L687,1053 L688,1053 L688,1055 L689,1055 L689,1057 L690,1057 L690,1060 L691,1060 L691,1061 L692,1061 L692,1063 L693,1063 L693,1065 L694,1065 L694,1067 L695,1067 L695,1069 L696,1069 L696,1070 L697,1070 L697,1072 L698,1072 L698,1073 L699,1073 L699,1075 L700,1075 L700,1076 L701,1076 L701,1078 L702,1078 L702,1079 L703,1079 L703,1080 L704,1080 L704,1081 L705,1081 L705,1083 L706,1083 L706,1084 L707,1084 L707,1085 L708,1085 L708,1086 L709,1086 L709,1087 L710,1087 L710,1088 L711,1088 L711,1089 L712,1089 L712,1090 L713,1090 L713,1091 L714,1091 L714,1092 L715,1092 L715,1093 L717,1093 L717,1094 L718,1094 L718,1095 L719,1095 L719,1096 L720,1096 L720,1097 L722,1097 L722,1098 L723,1098 L723,1099 L725,1099 L725,1100 L726,1100 L726,1101 L728,1101 L728,1102 L729,1102 L729,1103 L731,1103 L731,1104 L732,1104 L732,1105 L734,1105 L734,1106 L736,1106 L736,1107 L738,1107 L738,1108 L740,1108 L740,1109 L742,1109 L742,1110 L745,1110 L745,1111 L747,1111 L747,1112 L750,1112 L750,1113 L753,1113 L753,1114 L756,1114 L756,1115 L759,1115 L759,1116 L763,1116 L763,1117 L768,1117 L768,1118 L774,1118 L774,1119 L780,1119 L780,1120 L791,1120 L791,1121 L812,1121 L812,1120 L823,1120 L823,1119 L830,1119 L830,1118 L835,1118 L835,1117 L839,1117 L839,1116 L843,1116 L843,1115 L846,1115 L846,1114 L849,1114 L849,1113 L852,1113 L852,1112 L855,1112 L855,1111 L857,1111 L857,1110 L859,1110 L859,1109 L862,1109 L862,1108 L863,1108 L863,1107 L865,1107 L865,1106 L867,1106 L867,1105 L869,1105 L869,1104 L871,1104 L871,1103 L873,1103 L873,1102 L874,1102 L874,1101 L876,1101 L876,1100 L877,1100 L877,1099 L879,1099 L879,1098 L880,1098 L880,1097 L882,1097 L882,1096 L883,1096 L883,1095 L884,1095 L884,1094 L885,1094 L885,1093 L887,1093 L887,1092 L888,1092 L888,1091 L889,1091 L889,1090 L890,1090 L890,1089 L891,1089 L891,1088 L892,1088 L892,1087 L893,1087 L893,1086 L894,1086 L894,1085 L895,1085 L895,1084 L896,1084 L896,1083 L897,1083 L897,1082 L898,1082 L898,1081 L899,1081 L899,1080 L900,1080 L900,1078 L901,1078 L901,1077 L902,1077 L902,1076 L903,1076 L903,1075 L904,1075 L904,1073 L905,1073 L905,1072 L906,1072 L906,1071 L907,1071 L907,1069 L908,1069 L908,1068 L909,1068 L909,1066 L910,1066 L910,1065 L911,1065 L911,1063 L912,1063 L912,1061 L913,1061 L913,1060 L914,1060 L914,1111 L1007,1111 L1007,750 L911,750 L911,968 L910,968 L910,977 L909,977 L909,983 L908,983 L908,987 L907,987 L907,990 L906,990 L906,993 L905,993 L905,996 L904,996 L904,999 L903,999 L903,1001 L902,1001 L902,1003 L901,1003 L901,1005 L900,1005 L900,1007 L899,1007 L899,1008 L898,1008 L898,1010 L897,1010 L897,1011 L896,1011 L896,1013 L895,1013 L895,1014 L894,1014 L894,1015 L893,1015 L893,1016 L892,1016 L892,1017 L891,1017 L891,1019 L890,1019 L890,1020 L889,1020 L889,1021 L888,1021 L888,1022 L886,1022 L886,1023 L885,1023 L885,1024 L884,1024 L884,1025 L883,1025 L883,1026 L881,1026 L881,1027 L880,1027 L880,1028 L879,1028 L879,1029 L877,1029 L877,1030 L875,1030 L875,1031 L874,1031 L874,1032 L872,1032 L872,1033 L869,1033 L869,1034 L867,1034 L867,1035 L865,1035 L865,1036 L862,1036 L862,1037 L859,1037 L859,1038 L855,1038 L855,1039 L850,1039 L850,1040 L839,1040 L839,1041 L830,1041 L830,1040 L820,1040 L820,1039 L815,1039 L815,1038 L812,1038 L812,1037 L809,1037 L809,1036 L806,1036 L806,1035 L804,1035 L804,1034 L801,1034 L801,1033 L800,1033 L800,1032 L798,1032 L798,1031 L796,1031 L796,1030 L795,1030 L795,1029 L794,1029 L794,1028 L792,1028 L792,1027 L791,1027 L791,1026 L790,1026 L790,1025 L789,1025 L789,1024 L788,1024 L788,1023 L787,1023 L787,1021 L786,1021 L786,1020 L785,1020 L785,1019 L784,1019 L784,1017 L783,1017 L783,1015 L782,1015 L782,1014 L781,1014 L781,1012 L780,1012 L780,1009 L779,1009 L779,1007 L778,1007 L778,1004 L777,1004 L777,1001 L776,1001 L776,996 L775,996 L775,990 L774,990 L774,751 L773,751 L773,750 Z " fill="#000000" transform="translate(400,166)"/>
<path d="M0,0 L2,0 L2,56 L1,56 L1,61 L0,61 L0,64 L-1,64 L-1,67 L-2,67 L-2,70 L-3,70 L-3,72 L-4,72 L-4,74 L-5,74 L-5,76 L-6,76 L-6,77 L-7,77 L-7,79 L-8,79 L-8,80 L-9,80 L-9,82 L-10,82 L-10,83 L-11,83 L-11,84 L-12,84 L-12,86 L-13,86 L-13,87 L-14,87 L-14,88 L-15,88 L-15,89 L-16,89 L-16,90 L-17,90 L-17,91 L-18,91 L-18,92 L-19,92 L-19,93 L-20,93 L-20,94 L-22,94 L-22,95 L-23,95 L-23,96 L-24,96 L-24,97 L-25,97 L-25,98 L-27,98 L-27,99 L-28,99 L-28,100 L-30,100 L-30,101 L-31,101 L-31,102 L-33,102 L-33,103 L-35,103 L-35,104 L-36,104 L-36,105 L-38,105 L-38,106 L-40,106 L-40,107 L-43,107 L-43,108 L-45,108 L-45,109 L-47,109 L-47,110 L-50,110 L-50,111 L-53,111 L-53,112 L-57,112 L-57,113 L-61,113 L-61,114 L-65,114 L-65,115 L-71,115 L-71,116 L-94,116 L-94,115 L-98,115 L-98,114 L-102,114 L-102,113 L-104,113 L-104,112 L-106,112 L-106,111 L-108,111 L-108,110 L-110,110 L-110,109 L-112,109 L-112,108 L-113,108 L-113,107 L-115,107 L-115,106 L-116,106 L-116,105 L-117,105 L-117,104 L-118,104 L-118,103 L-119,103 L-119,102 L-120,102 L-120,101 L-121,101 L-121,100 L-122,100 L-122,98 L-123,98 L-123,97 L-124,97 L-124,95 L-125,95 L-125,93 L-126,93 L-126,91 L-127,91 L-127,88 L-128,88 L-128,85 L-129,85 L-129,79 L-130,79 L-130,66 L-129,66 L-129,60 L-128,60 L-128,56 L-127,56 L-127,53 L-126,53 L-126,51 L-125,51 L-125,49 L-124,49 L-124,47 L-123,47 L-123,45 L-122,45 L-122,44 L-121,44 L-121,43 L-120,43 L-120,41 L-119,41 L-119,40 L-118,40 L-118,39 L-117,39 L-117,38 L-116,38 L-116,37 L-115,37 L-115,36 L-113,36 L-113,35 L-112,35 L-112,34 L-111,34 L-111,33 L-109,33 L-109,32 L-107,32 L-107,31 L-106,31 L-106,30 L-104,30 L-104,29 L-102,29 L-102,28 L-99,28 L-99,27 L-97,27 L-97,26 L-94,26 L-94,25 L-91,25 L-91,24 L-88,24 L-88,23 L-84,23 L-84,22 L-80,22 L-80,21 L-76,21 L-76,20 L-70,20 L-70,19 L-65,19 L-65,18 L-58,18 L-58,17 L-52,17 L-52,16 L-46,16 L-46,15 L-41,15 L-41,14 L-36,14 L-36,13 L-32,13 L-32,12 L-27,12 L-27,11 L-24,11 L-24,10 L-20,10 L-20,9 L-17,9 L-17,8 L-14,8 L-14,7 L-11,7 L-11,6 L-9,6 L-9,5 L-7,5 L-7,4 L-5,4 L-5,3 L-3,3 L-3,2 L-1,2 L-1,1 L0,1 Z " fill="#000000" transform="translate(905,1102)"/>
</svg>
