<svg id="Camada_1" data-name="Camada 1" xmlns="http://www.w3.org/2000/svg" xmlns:xlink="http://www.w3.org/1999/xlink" viewBox="0 0 512.03 512.03"><defs><style>.cls-1{fill:none;}.cls-2{fill-rule:evenodd;fill:url(#Gradiente_sem_nome_15);}.cls-3{fill:#fff;}</style><linearGradient id="Gradiente_sem_nome_15" x1="15.84" y1="394.65" x2="515.22" y2="106.33" gradientUnits="userSpaceOnUse"><stop offset="0.03" stop-color="#ce1c45"/><stop offset="0.11" stop-color="#ba2053"/><stop offset="0.27" stop-color="#862a78"/><stop offset="0.27" stop-color="#852a79"/><stop offset="0.32" stop-color="#752f7f"/><stop offset="0.44" stop-color="#4d3c8f"/><stop offset="0.53" stop-color="#344498"/><stop offset="0.59" stop-color="#2b479c"/><stop offset="0.66" stop-color="#2f4c9f"/><stop offset="0.74" stop-color="#3c5ba7"/><stop offset="0.84" stop-color="#5173b5"/><stop offset="0.93" stop-color="#6d94c8"/><stop offset="0.97" stop-color="#7aa3d0"/></linearGradient></defs><rect class="cls-1" width="512.03" height="512.03"/><path class="cls-2" d="M256,4.89c138.76,0,251.25,112.42,251.25,251.1S394.75,507.11,256,507.11,4.76,394.67,4.76,256,117.23,4.89,256,4.89Z" transform="translate(0.02 0.02)"/><path class="cls-3" d="M423.76,261.16c0,36.56-43.19,66.8-100.22,85.21-4.08,1.33-7.61.27-8.7-2.89-1.09-3.41-.27-5.79,7.6-9.2,32.61-14.21,60-35.51,60-56.82,0-42.08-83.38-74.18-182.26-74.18-15.21,0-29,.8-41.82,1.86a111.29,111.29,0,0,0-9.5,45.49c0,31.84,13.57,63.92,38,85.48,3.26,2.91,3.53,5.54,1.35,8.43s-5.42,2.88-9.22.52c-38.57-23.94-63.57-67.6-62.48-113.62a102.57,102.57,0,0,1,2.16-20.53c-12.75,2.63-25,5.54-36.93,9-3.8,1-6.51,0-7.88-2.89-1.36-3.16,0-5.79,3.81-7.9,13.84-7.62,29.6-13.94,46.72-19.2,18.74-50,67.89-86,125.77-87.07,44.26-.78,81.74,19,107.29,48.15,3,3.41,3.25,6,.54,8.67s-5.44,2.36-9-.52c-19.56-16-48.61-26.83-77.68-26.83-39.39,0-74.71,18.15-97,46.29A397.22,397.22,0,0,1,239.05,173c103.23,0,184.71,38.39,184.71,88.12ZM281,431.08l-29.56,0V331.26L279,315.68c3.3-1.85,7.31-.37,7.31,3.72V425.89a5.23,5.23,0,0,1-5.26,5.19Zm-59.65,0a3.38,3.38,0,0,1-3.39-3.34V354.09a6.26,6.26,0,0,1,3.43-5.81l20.77-11.78v94.58Z" transform="translate(0.02 0.02)"/></svg>