<?xml version="1.0" encoding="UTF-8"?><svg id="a" xmlns="http://www.w3.org/2000/svg" width="512" height="512" xmlns:xlink="http://www.w3.org/1999/xlink" viewBox="0 0 512 512"><defs><linearGradient id="b" x1="0" y1="-366" x2="512" y2="-366" gradientTransform="translate(0 622)" gradientUnits="userSpaceOnUse"><stop offset="0" stop-color="#0f92ff"/><stop offset="1" stop-color="#28cccc"/></linearGradient></defs><rect x="0" width="512" height="512" fill="url(#b)"/><path d="M256.015,103.556c89.553,0,166,77.263,166,168.708,0,45.839-19.454,94.882-49.596,125.024-14.62,14.62-38.821,15.086-52.945,0-13.629-14.561-14.678-35.472,1.194-54.401,15.202-18.173,26.473-42.432,26.473-70.623,0-50.848-42.17-93.863-91.125-93.863s-91.125,42.956-91.125,93.863c0,28.191,11.271,52.45,26.473,70.623,15.843,18.93,14.882,39.84,1.194,54.401-14.125,15.086-38.326,14.62-52.945,0-30.142-30.142-49.596-79.214-49.596-125.024-.029-91.446,76.418-168.708,166-168.708Z" fill="#fff"/></svg>