<svg xmlns="http://www.w3.org/2000/svg" xmlns:xlink="http://www.w3.org/1999/xlink" width="512" height="512" viewBox="0 0 512 512">
  <defs>
    <clipPath id="clip-porto_bank">
      <rect width="512" height="512"/>
    </clipPath>
  </defs>
  <g id="porto_bank" clip-path="url(#clip-porto_bank)">
    <g id="Porto_Bank_Descritivo_RGB_V_Color" data-name="Porto Bank_Descritivo_RGB_V_Color" transform="translate(-436.25 -71.804)">
      <g id="Grupo_2" data-name="Grupo 2" transform="translate(526.25 261.72)">
        <g id="Grupo_1" data-name="Grupo 1">
          <path id="Caminho_1" data-name="Caminho 1" d="M641.112,332.247c-11.553-14.161-49.651-6.751-79.331,2.728a.543.543,0,0,1-.75-.488c.045-1.5.07-3.01.07-4.541a129.348,129.348,0,0,0-1.893-22.507.488.488,0,0,1,.388-.554c24.566-8.961,74.051-11.734,82.523,24.954l0,.01c.141.539-.659.856-1.012.4m-24.868,41.158c-.81.6-1.873-.388-1.178-1.1,11.961-12.228,21.782-31.619-64.859,7.828-.529.242-1.062-.312-.71-.745,4.772-6.821,9.036-17.82,10.959-33.411a.523.523,0,0,1,.337-.433c54.292-21.818,115.617-21.012,55.45,27.858m-72.48-97.56a.493.493,0,0,1,.277-.931c15.027.045,60.273-1.077,83.6,28.649.317.508-.408,1.027-.876.624-7.038-6.126-26.091-16.5-70-7.42a.568.568,0,0,1-.695-.378c-3.494-11.176-7.939-17.216-12.3-20.544m96.5-14.125H541.6a15.468,15.468,0,0,0-15.349,15.585V377.453A15.468,15.468,0,0,0,541.6,393.038h98.662a15.472,15.472,0,0,0,15.354-15.585V277.305a15.475,15.475,0,0,0-15.354-15.585" transform="translate(-526.25 -261.72)" fill="#2b56c0"/>
        </g>
      </g>
      <g id="Grupo_3" data-name="Grupo 3" transform="translate(675.006 261.977)">
        <path id="Caminho_2" data-name="Caminho 2" d="M821.75,262.23h22.573c11.729,0,18.717,7.229,18.717,17.433S856.052,297.1,844.323,297.1h-11.89v21.37H821.75Zm22.094,25.945c6.267,0,8.835-4.017,8.835-8.518s-2.572-8.518-8.835-8.518H832.437v17.03h11.407Zm40.569-10.843c12.293,0,21.128,8.835,21.128,20.886S896.707,319.1,884.414,319.1c-12.374,0-21.208-8.835-21.208-20.886S872.04,277.332,884.414,277.332Zm0,33.26c6.67,0,11.165-5.059,11.165-12.374s-4.5-12.374-11.165-12.374c-6.746,0-11.246,5.059-11.246,12.374S877.663,310.592,884.414,310.592Zm25.623-18.158c0-9.237,5.22-14.458,14.458-14.458h9.076v8.276H926.02c-3.937,0-6.106,2.25-6.106,6.187v26.026h-9.882V292.434Zm28.518-26.67h9.882v12.213h11.246v8.276H948.437v17.675c0,4.1,2.17,6.187,5.865,6.187h5.381v8.357h-6.509c-8.835,0-14.619-5.14-14.619-14.141V265.764Zm45.311,11.568c12.293,0,21.128,8.835,21.128,20.886S996.159,319.1,983.866,319.1c-12.374,0-21.208-8.835-21.208-20.886S971.493,277.332,983.866,277.332Zm0,33.26c6.67,0,11.166-5.059,11.166-12.374s-4.5-12.374-11.166-12.374c-6.746,0-11.246,5.059-11.246,12.374S977.116,310.592,983.866,310.592Z" transform="translate(-821.75 -262.23)" fill="#2b56c0"/>
      </g>
      <g id="Grupo_4" data-name="Grupo 4" transform="translate(674.945 333.958)">
        <path id="Caminho_3" data-name="Caminho 3" d="M821.63,408.49h22.311c10.536,0,18.032,5.271,18.032,14.82a12.956,12.956,0,0,1-7,11.362,14.62,14.62,0,0,1,9.882,14.407c0,10.7-7.984,17.04-20.086,17.04H821.635V408.49ZM843.2,431.048c5.764,0,8.643-2.472,8.643-6.917s-2.879-6.917-8.81-6.917h-10.7v13.834Zm.413,25.6c7.33,0,10.783-2.8,10.783-8.15,0-5.271-3.458-8.231-10.783-8.231H832.332v16.381Z" transform="translate(-821.63 -406.844)"/>
        <path id="Caminho_4" data-name="Caminho 4" d="M934.755,446.806c-5.351,0-8.563,3.378-8.729,7.078H916.97c.493-8.231,7.491-14.654,18.279-14.654,10.536,0,17.946,6.091,17.946,15.48v26.675h-9.962v-6.177c-1.727,4.118-6.5,6.831-12.429,6.831-8.231,0-13.828-5.271-13.828-12.429,0-8.07,6.257-13.089,15.56-13.089h10.7V454.8C943.233,449.691,940.106,446.806,934.755,446.806Zm-1.566,27.748c6.338,0,10.043-4.445,10.043-10.7v-.493h-8.81c-4.777,0-7.657,2.225-7.657,5.844C926.766,472.414,929.4,474.554,933.19,474.554Z" transform="translate(-868.975 -422.109)"/>
        <path id="Caminho_5" data-name="Caminho 5" d="M1003.16,439.9h10.128v6.423c2.306-4.526,7-7.078,12.927-7.078,9.383,0,15.48,6.751,15.48,16.466v25.689h-10.129V457.851c0-5.678-3.458-9.63-8.643-9.63-5.678,0-9.63,4.445-9.63,10.536v22.638h-10.128V439.9Z" transform="translate(-911.777 -422.119)"/>
        <path id="Caminho_6" data-name="Caminho 6" d="M1096.37,464.5V405.22H1106.5v32.933l15.887-15.147h12.842l-16.879,16.3,18.279,25.19h-12.268l-12.927-18.525-4.938,4.777V464.5H1096.37Z" transform="translate(-958.065 -405.22)"/>
      </g>
    </g>
  </g>
</svg>
